<?xml version="1.0" standalone="no"?>
<!DOCTYPE svg PUBLIC "-//W3C//DTD SVG 1.1//EN" "http://www.w3.org/Graphics/SVG/1.1/DTD/svg11.dtd" >
<svg>
<metadata>
Created by FontForge 20090914 at Fri Feb 24 07:10:04 2012
 By root
This font has been released into the public domain by its author, Barry Schwartz. This applies worldwide.

In some countries this may not be legally possible; if so:
Barry Schwartz grants anyone the right to use this work for any purpose, without any conditions, unless such conditions are required by law.
</metadata>
<defs>
<font id="Prociono" horiz-adv-x="480" >
  <font-face 
    font-family="Prociono"
    font-weight="400"
    font-stretch="normal"
    units-per-em="1000"
    panose-1="2 0 5 3 0 0 0 0 0 0"
    ascent="797"
    descent="-203"
    x-height="510"
    cap-height="738"
    bbox="-463 -212 1060 1008"
    underline-thickness="50"
    underline-position="-100"
    stemh="37"
    stemv="90"
    unicode-range="U+0020-U+FB06"
  />
<missing-glyph horiz-adv-x="500" 
d="M50 0v531h400v-531h-400zM100 50h300v431h-300v-431z" />
    <glyph glyph-name="f_f" unicode="ff" horiz-adv-x="684" 
d="M30 448v34l89 15c0 146 69 301 225 301c69 0 81 -40 81 -113c0 -12 -1 -24 -1 -37l-43 -1c-15 82 -39 114 -63 114c-48 0 -99 -125 -99 -242v-15h219c2 144 71 294 225 294c69 0 81 -40 81 -113c0 -12 -1 -24 -1 -37l-43 -1c-15 82 -39 114 -63 114
c-48 0 -99 -125 -99 -242v-15h134l-3 -56h-131c-2 -105 -4 -281 -4 -351c0 -57 11 -48 111 -66v-31h-280v34c73 11 80 9 80 68c0 35 -3 208 -6 346h-220c-2 -105 -4 -281 -4 -351c0 -57 11 -48 111 -66v-31h-280v34c73 11 80 9 80 68c0 35 -3 208 -6 346h-90z" />
    <glyph glyph-name="f_i" unicode="fi" horiz-adv-x="600" 
d="M30 448v34l89 15c0 166 57 302 255 302c95 0 105 -27 105 -90c0 -17 -1 -37 -1 -60l-43 -4c-17 92 -49 118 -85 118c-76 0 -115 -98 -126 -165c-4 -25 -5 -65 -5 -94h121c72 0 149 22 161 22c8 0 17 -4 17 -16c0 -43 -5 -163 -5 -435c0 -28 23 -38 67 -41v-34h-232v34
c70 5 77 14 77 53v208c0 140 0 154 -29 154c-20 0 -2 -1 -177 -1c-2 -105 -4 -281 -4 -351c0 -57 11 -48 111 -66v-31h-280v34c73 11 80 9 80 68c0 35 -3 208 -6 346h-90z" />
    <glyph glyph-name="f_l" unicode="fl" horiz-adv-x="612" 
d="M30 448v34l89 15c0 146 69 301 225 301h164c6 0 16 -3 16 -15c2 -81 2 -148 2 -206c0 -239 -10 -316 -10 -482c0 -53 10 -53 74 -61v-34h-236v34c70 13 78 2 78 104c0 103 3 462 3 514c0 103 -27 111 -83 111c-101 0 -133 -148 -133 -244v-15h134l-3 -56h-131
c-2 -105 -3 -281 -3 -351c0 -57 10 -48 110 -66v-31h-280v34c73 11 80 9 80 68c0 35 -3 208 -6 346h-90z" />
    <glyph glyph-name="f_f_i" unicode="ffi" horiz-adv-x="919" 
d="M30 448v34l89 15c0 146 69 301 225 301c69 0 81 -40 81 -113c0 -12 -1 -24 -1 -37l-43 -1c-15 82 -39 114 -63 114c-48 0 -99 -125 -99 -242v-15h219c2 163 60 295 255 295c95 0 105 -27 105 -90c0 -17 -1 -37 -1 -60l-43 -4c-17 92 -49 118 -85 118
c-76 0 -115 -98 -126 -165c-4 -25 -5 -65 -5 -94h121c72 0 149 22 161 22c8 0 17 -4 17 -16c0 -43 -5 -163 -5 -435c0 -28 23 -38 67 -41v-34h-232v34c70 5 77 14 77 53v208c0 140 0 154 -29 154c-20 0 -2 -1 -177 -1c-2 -105 -4 -281 -4 -351c0 -57 11 -48 111 -66v-31
h-280v34c73 11 80 9 80 68c0 35 -3 208 -6 346h-220c-2 -105 -4 -281 -4 -351c0 -57 11 -48 111 -66v-31h-280v34c73 11 80 9 80 68c0 35 -3 208 -6 346h-90z" />
    <glyph glyph-name="f_f_l" unicode="ffl" horiz-adv-x="931" 
d="M30 448v34l89 15c0 146 69 301 225 301c69 0 81 -40 81 -113c0 -12 -1 -24 -1 -37l-43 -1c-15 82 -39 114 -63 114c-48 0 -99 -125 -99 -242v-15h219c2 144 71 294 225 294h164c6 0 16 -3 16 -15c2 -81 2 -148 2 -206c0 -239 -10 -316 -10 -482c0 -53 10 -53 74 -61v-34
h-236v34c70 13 78 2 78 104c0 103 3 462 3 514c0 103 -27 111 -83 111c-101 0 -133 -148 -133 -244v-15h134l-3 -56h-131c-2 -105 -3 -281 -3 -351c0 -57 10 -48 110 -66v-31h-280v34c73 11 80 9 80 68c0 35 -3 208 -6 346h-220c-2 -105 -4 -281 -4 -351
c0 -57 11 -48 111 -66v-31h-280v34c73 11 80 9 80 68c0 35 -3 208 -6 346h-90z" />
    <glyph glyph-name="f_t" unicode="ft" horiz-adv-x="678" 
d="M30 448v34l89 15c0 146 69 301 225 301c69 0 81 -40 81 -113c0 -12 -1 -24 -1 -37l-43 -1c-15 82 -39 114 -63 114c-48 0 -99 -125 -99 -242v-15h221v83c81 23 73 24 77 24c8 0 15 -3 15 -15s-2 -31 -2 -61v-31h127l-3 -56h-124c0 -102 -3 -184 -3 -247
c0 -95 7 -145 47 -145c18 0 41 10 73 29l21 -20c-57 -59 -102 -80 -126 -80c-91 0 -105 60 -105 203c0 68 3 153 3 260h-221c-2 -105 -4 -281 -4 -351c0 -57 11 -48 111 -66v-31h-280v34c73 11 80 9 80 68c0 35 -3 208 -6 346h-90z" />
    <glyph glyph-name="f_f_t" unicode="fft" horiz-adv-x="997" 
d="M30 448v34l89 15c0 146 69 301 225 301c69 0 81 -40 81 -113c0 -12 -1 -24 -1 -37l-43 -1c-15 82 -39 114 -63 114c-48 0 -99 -125 -99 -242v-15h219c0 146 69 294 225 294c69 0 81 -40 81 -113c0 -12 -1 -24 -1 -37l-43 -1c-15 82 -39 114 -63 114
c-48 0 -99 -125 -99 -242v-15h221v83c81 23 73 24 77 24c8 0 15 -3 15 -15s-2 -31 -2 -61v-31h127l-3 -56h-124c0 -102 -3 -184 -3 -247c0 -95 7 -145 47 -145c18 0 41 10 73 29l21 -20c-57 -59 -102 -80 -126 -80c-91 0 -105 60 -105 203c0 68 3 153 3 260h-221
c-2 -105 -4 -281 -4 -351c0 -57 11 -48 111 -66v-31h-280v34c73 11 80 9 80 68c0 35 -3 208 -6 346h-220c-2 -105 -4 -281 -4 -351c0 -57 11 -48 111 -66v-31h-280v34c73 11 80 9 80 68c0 35 -3 208 -6 346h-90z" />
    <glyph glyph-name=".notdef" horiz-adv-x="500" 
d="M50 0v531h400v-531h-400zM100 50h300v431h-300v-431z" />
    <glyph glyph-name="space" unicode=" " horiz-adv-x="240" 
 />
    <glyph glyph-name="exclam" unicode="!" horiz-adv-x="240" 
d="M69 742c35 5 75 11 102 17l12 -11c-16 -200 -40 -478 -54 -552l-33 6l-5 84c-8 142 -22 415 -22 456zM56 84c0 12 26 64 52 64c25 0 62 -74 62 -88c0 -21 -42 -70 -66 -70c-21 0 -48 86 -48 94z" />
    <glyph glyph-name="quotedbl" unicode="&#x22;" horiz-adv-x="368" 
d="M60 791c9 4 27 6 46 6s37 -2 46 -6l-26 -226h-40zM216 791c9 4 27 6 46 6s37 -2 46 -6l-26 -226h-40z" />
    <glyph glyph-name="numbersign" unicode="#" horiz-adv-x="487" 
d="M48 163l9 44h78l9 93h-77l9 44h76c4 31 12 107 12 131c12 6 69 10 69 10c-10 -30 -22 -84 -27 -139h96c4 31 12 107 12 131c12 6 66 8 66 8c-9 -30 -21 -82 -26 -137h93l-10 -46h-88l-12 -91h89l-9 -48h-79c-7 -31 -11 -94 -11 -148c-12 -6 -63 -11 -63 -11
c8 43 16 115 20 158h-100c-7 -31 -10 -91 -10 -146c-11 -6 -62 -11 -62 -11c7 43 16 116 19 158h-83zM189 208h97l12 93h-98z" />
    <glyph glyph-name="dollar" unicode="$" 
d="M84 358c0 27 4 54 17 74c38 61 66 83 114 90v86h41v-83h3c32 0 59 -7 82 -17c15 -6 34 -13 34 -49c0 -10 -3 -39 -3 -98h-37c-1 14 -12 57 -25 76c-11 17 -32 25 -54 28v-154c66 -23 140 -51 140 -153c0 -28 -2 -56 -15 -78c-47 -75 -83 -85 -125 -93v-83h-41v79
c-77 1 -111 20 -121 36c-5 8 -8 19 -8 34c0 109 3 118 27 118c34 0 13 -54 41 -92c10 -15 29 -27 61 -31v168c-64 22 -131 49 -131 142zM151 400c0 -39 27 -58 64 -74v139c-57 -8 -64 -49 -64 -65zM256 48c47 6 75 32 75 74c0 45 -33 65 -75 80v-154z" />
    <glyph glyph-name="percent" unicode="%" horiz-adv-x="697" 
d="M42 369c0 59 21 98 49 120c29 23 66 35 82 35c94 0 131 -82 131 -157c0 -17 -6 -49 -12 -64c-7 -16 -50 -87 -124 -87c-81 0 -126 65 -126 153zM93 370c0 -61 48 -95 84 -95c58 0 75 25 75 92c0 62 -44 98 -83 98c-31 0 -76 -2 -76 -95zM150 -3l353 540l37 -24l-353 -540
zM392 141c0 59 22 98 49 120c29 23 66 35 82 35c94 0 132 -83 132 -157c0 -18 -7 -50 -13 -64c-7 -16 -50 -87 -124 -87c-81 0 -126 64 -126 153zM443 142c0 -61 48 -95 84 -95c58 0 75 24 75 92c0 62 -44 97 -83 97c-30 0 -76 -1 -76 -94z" />
    <glyph glyph-name="ampersand" unicode="&#x26;" horiz-adv-x="780" 
d="M45 194c0 61 27 116 66 150c29 26 68 56 118 86c-64 79 -87 140 -87 187c0 74 77 149 180 149c108 0 137 -20 137 -55c0 -31 -11 -73 -37 -127l-34 8c2 12 5 26 5 41c0 59 -38 74 -80 74c-45 0 -84 -29 -84 -81c0 -73 119 -234 307 -404c35 65 54 137 54 191
c0 50 -22 60 -74 64v33c25 -2 67 -3 108 -3c42 0 83 1 108 3v-33c-126 -9 -58 -91 -162 -286c61 -53 128 -106 200 -158v-33c-49 0 -82 0 -133 -4l-115 121c-26 -34 -56 -61 -87 -82l-32 -22c-34 -24 -50 -31 -136 -31c-69 0 -93 0 -151 56c-51 49 -71 104 -71 156zM144 221
c0 -88 76 -162 165 -162c73 0 134 39 180 93l-230 244c-83 -53 -115 -117 -115 -175z" />
    <glyph glyph-name="quotesingle" unicode="'" horiz-adv-x="212" 
d="M60 791c9 4 27 6 46 6s37 -2 46 -6l-26 -226h-40z" />
    <glyph glyph-name="parenleft" unicode="(" horiz-adv-x="330" 
d="M100 296c0 127 33 258 57 317c40 98 150 187 151 189l22 -22c-49 -73 -96 -174 -105 -194c-24 -49 -30 -176 -30 -290c0 -113 6 -240 30 -290c9 -19 56 -120 105 -193l-22 -22c-1 1 -111 91 -151 189c-24 58 -57 192 -57 316z" />
    <glyph glyph-name="parenright" unicode=")" horiz-adv-x="330" 
d="M0 -187c49 73 96 174 105 193c24 50 30 177 30 290c0 114 -6 241 -30 290c-9 20 -56 121 -105 194l22 22c1 -2 111 -91 151 -189c24 -59 57 -190 57 -317c0 -124 -33 -258 -57 -316c-40 -98 -150 -188 -151 -189z" />
    <glyph glyph-name="asterisk" unicode="*" horiz-adv-x="520" 
d="M50 554l22 79l14 8l160 -77l-38 185l82 2l12 -10l-23 -176l163 94l28 -78l-6 -15l-175 -31l140 -127l-65 -51l-16 2l-84 156l-78 -172l-68 46l-3 16l122 128z" />
    <glyph glyph-name="plus" unicode="+" 
d="M11 250l14 66h183v185l56 13l11 -12l-1 -186h186l12 -11l-13 -55h-184l-1 -183l-66 -14v197h-197z" />
    <glyph glyph-name="comma" unicode="," horiz-adv-x="240" 
d="M63 88c0 2 32 60 50 60c22 0 64 -68 64 -100c0 -52 -76 -162 -94 -162c-2 0 -15 8 -15 16c0 11 40 44 40 88c0 40 -45 74 -45 98z" />
    <glyph glyph-name="hyphen" unicode="-" horiz-adv-x="270" 
d="M17 250l14 66h211l11 -11l-12 -55h-224z" />
    <glyph glyph-name="period" unicode="." horiz-adv-x="240" 
d="M63 84c0 12 26 64 52 64c25 0 62 -74 62 -88c0 -21 -42 -70 -66 -70c-21 0 -48 86 -48 94z" />
    <glyph glyph-name="slash" unicode="/" 
d="M-20 -140l459 937h61l-457 -937h-63z" />
    <glyph glyph-name="zero" unicode="0" 
d="M30 252c0 104 34 173 78 212c46 40 105 61 131 61c151 0 211 -145 211 -277c0 -30 -11 -87 -20 -112c-10 -28 -79 -154 -198 -154c-130 0 -202 114 -202 270zM97 254c0 -119 85 -185 150 -185c103 0 133 47 133 179c0 121 -78 191 -148 191c-54 0 -135 -3 -135 -185z" />
    <glyph glyph-name="one" unicode="1" 
d="M60 390c50 27 233 126 279 135l12 -11c-7 -105 -12 -199 -12 -311c0 -29 0 -59 1 -91c2 -62 3 -77 134 -81v-31h-382v31h25c57 1 134 4 137 45c2 14 5 107 5 133c0 33 -1 59 -6 200c-35 0 -79 -9 -179 -49z" />
    <glyph glyph-name="two" unicode="2" 
d="M10 29l35 29l114 89c93 73 163 136 163 204c0 48 -17 100 -110 100c-35 0 -53 -2 -137 -41l-14 29l122 82c15 4 33 6 54 6c80 0 186 -33 186 -150c0 -95 -104 -178 -189 -237l-52 -35c-16 -11 -30 -21 -40 -29c37 -1 71 -2 100 -2c76 0 162 5 201 9l12 -11
c-2 -17 -4 -49 -4 -72h-427z" />
    <glyph glyph-name="three" unicode="3" 
d="M20 -157l5 8c13 -2 26 -3 38 -3c129 0 256 105 256 204c0 60 -29 119 -171 119c-7 0 -14 -1 -22 -1l-7 44c176 28 190 111 190 139c0 78 -89 102 -98 102c-14 0 -63 -10 -141 -54l-16 28l110 88c18 5 36 8 55 8c86 0 180 -55 180 -146c0 -64 -39 -120 -135 -164
c85 -2 148 -73 148 -139c0 -128 -140 -279 -369 -279z" />
    <glyph glyph-name="four" unicode="4" 
d="M-3 46l71 136c72 127 173 288 210 333c10 4 61 11 84 11l7 -8v-441c34 0 77 3 107 5c4 -3 5 -4 8 -7c-2 -16 -8 -42 -18 -75h-22c-23 0 -48 0 -75 -2c1 -123 6 -190 6 -190c-22 -1 -70 -10 -88 -15l-13 -5s3 95 4 209c-51 0 -208 0 -257 3zM82 89l12 -11
c34 -3 68 -4 99 -4c35 0 64 0 86 1c3 103 4 182 4 263v92c-49 -53 -176 -258 -201 -341z" />
    <glyph glyph-name="five" unicode="5" 
d="M22 -157l5 8c13 -2 26 -3 38 -3c129 0 244 89 244 188c0 142 -66 148 -157 148h-56l-21 18s42 262 46 294l14 14c13 -1 39 -2 82 -2c41 0 97 1 173 4l12 -11c-4 -19 -6 -60 -6 -78c-77 1 -121 2 -155 2c-30 0 -52 -1 -82 -2c-7 -32 -20 -120 -22 -155c19 2 29 3 73 3
c93 0 199 -52 199 -179c0 -186 -163 -295 -364 -295z" />
    <glyph glyph-name="six" unicode="6" 
d="M25 269c0 249 117 360 190 415c48 36 100 63 161 83l19 -31c-10 -4 -61 -31 -100 -56l-17 -11c-66 -45 -147 -169 -153 -289c28 44 64 75 160 75c89 0 173 -47 173 -200c0 -237 -152 -272 -223 -272c-108 0 -210 59 -210 286zM120 310c0 -17 1 -35 1 -44l1 -18
c5 -99 21 -212 137 -212c82 0 115 102 115 191c0 102 -25 142 -91 162c-14 5 -30 7 -48 7c-72 0 -94 -30 -114 -58c0 -9 -1 -18 -1 -28z" />
    <glyph glyph-name="seven" unicode="7" 
d="M40 336c3 50 5 79 5 111c0 15 0 31 -1 49l14 14c19 -1 122 -2 221 -2c77 0 152 1 182 2l12 -11c-8 -132 -257 -577 -364 -711c-10 4 -23 11 -40 24c187 289 254 464 296 603l-12 11s-214 0 -240 1c-8 -4 -15 -15 -44 -91h-29z" />
    <glyph glyph-name="eight" unicode="8" 
d="M21 194c0 95 37 154 133 209c-73 41 -110 131 -110 173c0 114 84 200 197 200c131 0 203 -72 203 -157c0 -63 -41 -134 -127 -188l34 -17c71 -38 107 -117 107 -198c0 -116 -74 -233 -221 -233c-130 0 -216 83 -216 211zM99 189c0 -83 84 -152 141 -152
c92 0 133 81 133 157c0 86 -56 123 -114 153l-40 21c-86 -51 -120 -106 -120 -179zM134 627c0 -64 51 -129 125 -164c67 30 107 80 107 138c0 78 -45 124 -120 124c-70 0 -112 -39 -112 -98z" />
    <glyph glyph-name="nine" unicode="9" 
d="M35 274c0 201 117 251 234 251c146 0 183 -141 183 -244c0 -430 -256 -482 -407 -485l-6 34c171 24 266 87 301 257c-43 -26 -84 -37 -121 -37c-106 0 -184 91 -184 224zM121 301c0 -105 20 -199 140 -199c43 0 68 11 86 26c6 43 9 92 9 148c0 44 -6 191 -123 191
c-58 0 -112 -51 -112 -166z" />
    <glyph glyph-name="colon" unicode=":" horiz-adv-x="240" 
d="M63 84c0 12 26 64 52 64c25 0 62 -74 62 -88c0 -21 -42 -70 -66 -70c-21 0 -48 86 -48 94zM63 427c0 12 26 64 52 64c25 0 62 -74 62 -88c0 -21 -42 -70 -66 -70c-21 0 -48 86 -48 94z" />
    <glyph glyph-name="semicolon" unicode=";" horiz-adv-x="240" 
d="M63 427c0 12 26 64 52 64c25 0 62 -74 62 -88c0 -21 -42 -70 -66 -70c-21 0 -48 86 -48 94zM63 88c0 2 32 60 50 60c22 0 64 -68 64 -100c0 -52 -76 -162 -94 -162c-2 0 -15 8 -15 16c0 11 40 44 40 88c0 40 -45 74 -45 98z" />
    <glyph glyph-name="less" unicode="&#x3c;" 
d="M-3 247l14 70l460 205l12 -11l-12 -61l-384 -171l384 -171l12 -61l-12 -11z" />
    <glyph glyph-name="equal" unicode="=" 
d="M4 172l14 66h446l12 -11l-14 -55h-458zM4 328l14 66h446l12 -11l-14 -55h-458z" />
    <glyph glyph-name="greater" unicode="&#x3e;" 
d="M-3 47l12 61l384 171l-384 171l-12 61l12 11l474 -211l-14 -70l-460 -205z" />
    <glyph glyph-name="question" unicode="?" horiz-adv-x="445" 
d="M70 666c0 45 17 61 121 61c128 0 194 -119 196 -127c8 -40 13 -79 13 -115c0 -112 -44 -197 -174 -197c-33 0 -60 11 -83 27c-5 -47 -10 -98 -14 -119l-33 6l-11 208c48 -41 86 -52 108 -52c97 0 129 50 129 135c0 28 -4 59 -9 93c-9 59 -33 79 -85 79
c-132 0 -118 -50 -129 -92h-25c-2 40 -4 70 -4 93zM56 84c0 12 26 64 52 64c25 0 62 -74 62 -88c0 -21 -42 -70 -66 -70c-21 0 -48 86 -48 94z" />
    <glyph glyph-name="at" unicode="@" horiz-adv-x="920" 
d="M20 238c0 332 264 506 503 506c197 0 376 -118 376 -362c0 -156 -148 -394 -247 -394c-33 0 -68 17 -81 112c-51 -49 -138 -113 -177 -113c-24 0 -134 35 -134 216c0 177 153 319 235 319c34 0 94 -17 123 -28l35 31l22 -9c-21 -54 -30 -366 -30 -390c0 -36 6 -77 29 -77
c46 0 137 168 137 325c0 211 -165 309 -324 309c-281 0 -376 -290 -376 -458c0 -197 114 -381 390 -381c61 0 126 14 166 23l8 -29c-41 -16 -145 -41 -202 -41c-304 0 -453 215 -453 441zM332 225c0 -69 55 -157 95 -157c49 0 107 37 147 88c5 59 13 223 13 234
c-48 48 -92 69 -128 69c-79 0 -127 -98 -127 -234z" />
    <glyph glyph-name="A" unicode="A" horiz-adv-x="755" 
d="M0 0v36c60 6 71 17 134 174l208 520c11 8 61 13 68 13c0 0 256 -633 263 -647c16 -28 32 -53 82 -60v-36h-286v34c36 3 89 11 89 44c0 20 -8 45 -21 75l-19 44c-7 16 -14 33 -21 52h-289c-22 -49 -62 -151 -62 -166c0 -33 47 -40 90 -44v-39h-236zM222 292h262l-133 329z
" />
    <glyph glyph-name="B" unicode="B" horiz-adv-x="649" 
d="M29 0v37c50 3 90 8 90 46c0 8 -1 379 -7 578c-1 32 -22 36 -69 39l-14 1v37c27 -2 86 -4 138 -4c154 0 155 10 202 10h20c183 0 208 -116 208 -171c0 -89 -45 -131 -111 -164l-30 -15c111 -37 167 -98 167 -181c0 -121 -117 -219 -239 -219h-21c-25 0 -54 2 -79 4l-32 2
c-27 2 -56 4 -85 4c-52 0 -111 -2 -138 -4zM217 140c0 -78 39 -84 181 -84c48 0 119 51 119 156c0 101 -73 152 -170 152c-38 0 -103 -2 -128 -6c-2 -114 -2 -191 -2 -218zM219 406c43 4 76 6 125 6c16 0 30 -1 42 -2c79 23 102 87 102 140c0 117 -96 145 -111 145
c-34 0 -115 -2 -142 -12l-12 -11c-1 -50 -3 -160 -4 -266z" />
    <glyph glyph-name="C" unicode="C" horiz-adv-x="675" 
d="M42 366c0 80 11 150 35 206c21 49 108 156 236 173c29 4 77 7 117 7c72 0 151 -12 182 -29l11 -11c0 -10 -8 -162 -9 -176h-35c-8 28 -33 107 -33 109c-3 10 -7 20 -16 26c-58 15 -104 19 -149 19c-195 0 -239 -85 -239 -328c0 -63 5 -212 133 -290
c32 -19 74 -34 126 -34c57 0 106 20 147 51c4 7 19 51 29 89l14 54h37c-4 -41 -4 -189 -4 -199c-65 -24 -155 -50 -248 -50c-190 0 -334 89 -334 383z" />
    <glyph glyph-name="D" unicode="D" horiz-adv-x="776" 
d="M29 0v37c50 3 90 8 90 46c0 8 -1 379 -7 578c-1 32 -22 36 -69 39l-14 1v37c27 -2 86 -4 139 -4c164 0 166 10 233 10h21c217 0 313 -102 313 -335c0 -313 -196 -415 -337 -415h-21c-54 0 -140 10 -209 10c-53 0 -112 -2 -139 -4zM216 140c0 -67 39 -84 198 -84
c106 0 138 44 178 116c23 41 40 110 40 205c0 218 -83 317 -268 317c-64 0 -108 -4 -129 -11l-11 -11c-4 -106 -8 -479 -8 -532z" />
    <glyph glyph-name="E" unicode="E" horiz-adv-x="640" 
d="M29 0v37c50 3 90 8 90 46c1 32 4 177 4 330c0 86 -1 175 -4 248c-1 32 -22 36 -68 39l-14 1v37c27 -2 86 -4 138 -4c45 0 95 1 125 3c5 0 263 1 263 1l12 -11c-3 -11 -26 -171 -27 -185h-34c-5 27 -21 106 -22 108c-3 10 -6 19 -16 26c-13 3 -22 4 -37 6
c-24 3 -82 3 -126 3c-57 0 -81 -5 -82 -34c-2 -58 -3 -152 -4 -238c59 0 225 4 246 5l-10 -74h-17c-41 30 -191 23 -220 26c-2 -148 -2 -278 -2 -287c0 -33 47 -39 167 -39c27 0 94 3 105 12c25 22 41 84 51 122l14 54h37c-4 -41 -9 -222 -9 -232h-560z" />
    <glyph glyph-name="F" unicode="F" horiz-adv-x="564" 
d="M29 0v37c49 3 90 8 90 46c0 6 3 170 3 338c0 86 -1 172 -3 240c-1 32 -22 36 -68 39l-15 1v37c28 -2 86 -4 139 -4c45 0 94 1 125 3c5 0 238 1 238 1l12 -11c-3 -11 -26 -171 -27 -185h-34c-5 27 -21 106 -22 108c-3 10 -6 19 -16 26c-13 3 -23 4 -37 6
c-24 3 -57 3 -101 3c-57 0 -82 -5 -83 -34c-1 -58 -3 -152 -4 -238c60 0 226 4 247 5l-10 -74h-18c-40 30 -191 23 -219 26c-2 -148 -3 -278 -3 -287c0 -37 38 -42 90 -46l38 -3v-34h-322z" />
    <glyph glyph-name="G" unicode="G" horiz-adv-x="757" 
d="M42 366c0 80 11 150 35 206c21 49 108 156 236 173c29 4 77 7 117 7c72 0 192 -12 222 -29l12 -11c0 -10 -8 -162 -9 -176h-35c-7 24 -32 105 -36 115c-22 14 -104 39 -202 39c-196 0 -240 -85 -240 -328c0 -165 57 -314 286 -314c72 0 115 13 147 43v139
c0 33 -41 37 -82 40l-25 2l-1 34c27 -2 103 -4 156 -4s94 2 121 4v-37l-14 -1c-47 -3 -61 -12 -61 -31v-186l-11 -11c-65 -23 -189 -57 -282 -57c-190 0 -334 89 -334 383z" />
    <glyph glyph-name="H" unicode="H" horiz-adv-x="849" 
d="M29 0v37c50 3 90 8 90 46c0 8 -1 379 -7 578c-1 32 -22 36 -69 39l-14 1v37h277v-37l-14 -1c-47 -3 -68 -7 -69 -39c-1 -54 -3 -150 -4 -248h411c-1 88 -3 178 -5 248c-1 32 -22 36 -69 39l-14 1v37h277v-37l-14 -1c-47 -3 -68 -7 -69 -39c-5 -143 -7 -569 -7 -578
c0 -37 38 -42 90 -46v-37h-277v37c50 3 90 8 90 46c0 5 0 138 -2 287h-412c-1 -148 -2 -278 -2 -287c0 -37 38 -42 90 -46v-37h-277z" />
    <glyph glyph-name="I" unicode="I" horiz-adv-x="335" 
d="M29 0v37c50 3 90 8 90 46c0 8 -1 379 -7 578c-1 32 -22 36 -69 39l-14 1v37h277v-37l-14 -1c-47 -3 -68 -7 -69 -39c-5 -143 -7 -569 -7 -578c0 -37 38 -42 90 -46v-37h-277z" />
    <glyph glyph-name="J" unicode="J" horiz-adv-x="312" 
d="M0 -162l27 21c66 59 76 108 76 233c0 455 -4 548 -6 569c-2 32 -21 36 -68 39l-14 1v37h277v-37l-15 -1c-46 -3 -68 -7 -68 -39c-2 -181 -10 -622 -16 -653c-14 -87 -73 -145 -129 -178l-44 -24z" />
    <glyph glyph-name="K" unicode="K" horiz-adv-x="670" 
d="M32 701v37h186l12 -11c-3 -63 -6 -290 -6 -316c68 2 254 263 254 273s-9 14 -59 17v37h232v-37c-58 -4 -62 -8 -95 -36c-35 -31 -85 -84 -160 -169l-64 -74s188 -266 276 -362l62 -24v-36c-55 0 -97 0 -152 -4l-262 366c-3 4 -9 7 -15 7h-17c0 -114 1 -257 1 -286
c0 -37 38 -42 90 -46v-37h-277v37c50 3 90 8 90 46c0 5 -8 446 -13 578c-1 32 -22 36 -68 39z" />
    <glyph glyph-name="L" unicode="L" horiz-adv-x="558" 
d="M29 0v37c53 4 90 9 90 46c0 24 -1 385 -7 578c-2 32 -22 36 -69 39l-14 1v37h290v-37l-14 -1c-47 -3 -81 -7 -82 -39c-5 -143 -7 -569 -7 -578c0 -23 26 -39 98 -39h21c15 0 108 1 121 12c25 22 41 84 51 122l14 54h37c-4 -41 -9 -222 -9 -232h-520z" />
    <glyph glyph-name="M" unicode="M" horiz-adv-x="953" 
d="M2 701v37h228l9 -27l224 -556c83 180 160 370 227 556l9 27h228v-37c-59 -3 -108 -6 -108 -36c0 -6 7 -204 19 -549l1 -28c4 -44 23 -47 81 -51v-37h-277v37c50 3 90 8 90 46c-2 153 -8 283 -22 514c-107 -235 -193 -446 -251 -597h-39l-256 601
c-9 -155 -15 -311 -15 -518c0 -33 46 -40 89 -44v-39h-236v36c63 7 78 35 83 96c22 347 24 534 24 534c0 29 -50 32 -108 35z" />
    <glyph glyph-name="N" unicode="N" horiz-adv-x="777" 
d="M15 701v37h189c8 -24 185 -261 429 -579c-1 14 -4 219 -4 308c0 50 -3 134 -4 167c-1 43 -4 58 -90 66v38h242v-36c-34 -3 -68 -8 -81 -27c-3 -5 -6 -31 -6 -31c-4 -139 -7 -471 -7 -480c0 -42 2 -164 2 -164h-59c-50 77 -53 75 -462 597v-307s5 -191 5 -207
c0 -33 42 -40 86 -44v-39h-236v36c43 4 79 12 83 44c5 36 7 149 7 370v32c0 69 -1 182 -1 185c-2 12 -8 25 -43 29z" />
    <glyph glyph-name="O" unicode="O" horiz-adv-x="745" 
d="M42 358c0 114 27 196 64 252c75 112 232 141 289 141c214 0 309 -130 309 -340c0 -71 -8 -197 -71 -289c-72 -106 -216 -136 -274 -136c-223 0 -317 163 -317 372zM144 379c0 -34 0 -232 141 -304c42 -21 72 -23 120 -23c117 0 196 76 196 299c0 245 -94 322 -188 336
c-9 2 -37 2 -54 2c-122 0 -215 -79 -215 -310z" />
    <glyph glyph-name="P" unicode="P" horiz-adv-x="637" 
d="M29 0v37c49 3 89 8 90 46c1 34 3 135 3 338c0 86 -1 172 -3 240c-1 32 -22 36 -69 39l-14 1v37c28 -2 86 -4 139 -4c153 0 154 10 201 10h20c165 0 206 -105 206 -203c0 -79 -79 -219 -270 -219c-37 0 -82 5 -107 16c-1 -134 -2 -247 -2 -255c0 -37 57 -42 110 -46l38 -3
v-34h-342zM226 402c16 -14 56 -30 115 -30c145 0 149 100 149 152c0 54 -1 125 -77 162c-11 5 -23 9 -29 9c-42 0 -116 -3 -142 -12l-11 -11c-2 -58 -4 -184 -5 -270z" />
    <glyph glyph-name="Q" unicode="Q" horiz-adv-x="745" 
d="M42 358c0 114 27 196 64 252c75 112 232 141 289 141c214 0 309 -130 309 -340c0 -220 -70 -331 -193 -388c67 -73 111 -114 143 -137c-12 -16 -37 -58 -45 -77l-14 -4l-156 193c-32 -9 -61 -12 -80 -12c-223 0 -317 163 -317 372zM144 379c0 -34 0 -232 141 -304
c42 -21 72 -23 120 -23c117 0 196 76 196 299c0 245 -94 322 -188 336c-9 2 -37 2 -54 2c-122 0 -215 -79 -215 -310z" />
    <glyph glyph-name="R" unicode="R" horiz-adv-x="669" 
d="M32 0v37c50 3 90 8 90 46c0 8 -1 379 -7 578c-1 32 -22 36 -69 39l-14 1v37c28 -2 83 -4 139 -4c140 0 160 10 201 10h20c85 0 166 -66 166 -178c0 -94 -45 -133 -122 -184c0 0 105 -206 178 -322l55 -24v-36c-55 0 -90 0 -145 -4l-175 361h-28c-33 0 -73 4 -99 13
c-2 -141 -3 -282 -3 -287c0 -37 38 -42 90 -46v-37h-277zM223 424c18 -11 59 -17 105 -17c101 0 126 88 126 145c0 117 -82 145 -95 145c-30 0 -99 -3 -122 -13l-10 -11c-2 -46 -3 -150 -4 -249z" />
    <glyph glyph-name="S" unicode="S" horiz-adv-x="519" 
d="M57 543c0 77 16 131 112 184c22 12 51 26 127 26c59 0 116 -21 148 -38l12 -11c0 -10 -8 -162 -9 -176h-35c-8 28 -33 107 -33 109c-4 10 -7 19 -16 26c-11 10 -47 26 -97 26c-77 0 -129 -21 -129 -105c0 -69 46 -97 80 -115l152 -79c37 -19 120 -67 120 -186
c0 -72 -15 -102 -65 -160c-21 -23 -64 -59 -171 -59c-78 0 -154 27 -195 45c3 41 7 160 7 202h37l14 -54c19 -75 24 -81 48 -100c30 -13 69 -22 113 -22c74 0 118 22 118 109c0 81 -62 119 -92 135l-81 40c-77 40 -91 48 -107 65l-8 9c-35 38 -50 84 -50 129z" />
    <glyph glyph-name="T" unicode="T" horiz-adv-x="608" 
d="M0 727l11 11h586l11 -11c-1 -17 -5 -147 -5 -197h-35c-8 29 -33 108 -34 110c-2 6 -5 14 -9 22c-6 6 -12 8 -18 9c-26 5 -84 10 -105 10c-11 0 -27 -2 -42 -5c-5 -118 -8 -415 -8 -593c0 -38 58 -44 108 -48v-35h-320v35c49 4 107 10 107 48c0 0 3 194 3 380
c0 77 0 153 -2 213c-15 3 -31 5 -42 5c-21 0 -79 -5 -105 -10c-6 -1 -12 -3 -18 -9c-4 -8 -7 -16 -9 -22c-1 -2 -26 -81 -34 -110h-35c0 50 -4 180 -5 197z" />
    <glyph glyph-name="U" unicode="U" horiz-adv-x="757" 
d="M34 701v37h276v-37c-53 -4 -90 -9 -90 -46c0 -49 1 -162 1 -265v-80c1 -55 1 -98 1 -113c0 -55 44 -151 212 -151c163 0 184 85 184 310c0 89 -2 179 -2 299c0 33 -47 40 -90 44v39h236v-36c-44 -5 -78 -17 -80 -44l-1 -18c-3 -41 -10 -362 -10 -402
c0 -224 -155 -252 -309 -252c-208 0 -244 164 -244 228c0 0 -2 425 -3 436c-5 44 -23 47 -81 51z" />
    <glyph glyph-name="V" unicode="V" horiz-adv-x="750" 
d="M0 701v37h276v-37c-53 -4 -74 -14 -74 -35v-4c0 -22 152 -464 189 -541c67 149 206 508 206 532c0 29 -11 39 -83 46v39h236v-36c-55 -6 -66 -23 -114 -136l-235 -566h-64l-259 638c-15 37 -29 60 -78 63z" />
    <glyph glyph-name="W" unicode="W" horiz-adv-x="1000" 
d="M0 701v37h260v-37c-64 -5 -85 -8 -85 -39c0 -21 103 -434 127 -495c40 101 156 477 156 498c0 29 -26 33 -76 36v37h277v-37c-31 -2 -68 -5 -68 -33c0 -14 87 -368 139 -501c60 181 139 467 139 490c0 30 -26 37 -83 42v39h214v-36c-32 -3 -45 -14 -56 -42
c0 0 -191 -626 -198 -660h-74c-26 124 -146 484 -177 569c-30 -78 -169 -501 -181 -569h-78c-5 44 -126 461 -165 596l-13 42c-9 38 -20 60 -58 63z" />
    <glyph glyph-name="X" unicode="X" horiz-adv-x="646" 
d="M0 0v36c20 2 51 26 72 46c25 23 167 218 211 280l-205 309c-12 17 -29 28 -61 30v37h277v-37c-51 -4 -68 -10 -68 -26c0 -15 27 -68 127 -231c75 102 143 207 143 226s-10 23 -76 29v39h224v-36c-39 -5 -73 -44 -95 -72l-170 -229l132 -219c82 -137 88 -142 135 -145v-37
h-257v37c27 2 75 8 75 29c0 7 -5 15 -11 26l-144 227c-70 -94 -167 -234 -167 -250c0 -19 35 -25 82 -30v-39h-224z" />
    <glyph glyph-name="Y" unicode="Y" horiz-adv-x="649" 
d="M0 701v37h276v-37c-66 -5 -83 -13 -83 -33c0 -22 100 -180 151 -260c37 53 167 244 167 265c0 20 -25 23 -70 26v39h208v-36c-34 -4 -47 -15 -55 -25l-224 -310c-2 -44 -3 -109 -3 -218c0 -32 1 -75 5 -82c13 -24 60 -29 100 -32v-35h-310v35c50 4 105 10 105 48
c0 165 -4 275 -4 275c-17 31 -118 179 -199 296c0 0 -28 44 -64 47z" />
    <glyph glyph-name="Z" unicode="Z" horiz-adv-x="661" 
d="M21 11l446 671c-30 3 -61 5 -105 5c-33 0 -56 -1 -176 -4c-23 -1 -41 -35 -44 -45c-1 -2 -26 -81 -34 -110h-34c-1 15 -4 189 -4 199l12 11h531l12 -11c-161 -227 -425 -603 -456 -667c23 -4 57 -10 114 -10c182 0 218 4 228 13c25 21 41 77 51 115l10 37h40
c-4 -60 -8 -206 -8 -215h-571z" />
    <glyph glyph-name="bracketleft" unicode="[" horiz-adv-x="295" 
d="M100 -193v979l11 11c4 -1 23 -2 68 -2c28 0 66 0 116 2v-33c-101 -2 -104 -13 -105 -59v-818c1 -46 4 -56 105 -58v-34c-50 2 -88 3 -116 3c-45 0 -64 -2 -68 -2z" />
    <glyph glyph-name="backslash" unicode="\" 
d="M-20 797h61l459 -937h-63z" />
    <glyph glyph-name="bracketright" unicode="]" horiz-adv-x="295" 
d="M0 -171c101 2 104 12 105 58v818c-1 46 -4 57 -105 59v33c50 -2 88 -2 116 -2c45 0 64 1 68 2l11 -11v-979l-11 -11c-4 0 -23 2 -68 2c-28 0 -66 -1 -116 -3v34z" />
    <glyph glyph-name="asciicircum" unicode="^" 
d="M-3 273l205 461l70 13l211 -474l-11 -12l-61 12l-171 384l-171 -384l-61 -12z" />
    <glyph glyph-name="underscore" unicode="_" horiz-adv-x="500" 
d="M0 -43l500 1v-56h-500v55z" />
    <glyph glyph-name="grave" unicode="`" horiz-adv-x="500" 
d="M144 715c2 24 30 45 58 45c32 -40 100 -124 154 -180l-18 -21c-56 37 -156 121 -194 156z" />
    <glyph glyph-name="a" unicode="a" horiz-adv-x="478" 
d="M40 121c0 169 130 161 282 195c0 24 1 48 1 60c0 68 -62 86 -109 86c-71 0 -81 -30 -107 -124l-41 4c4 34 -16 184 193 184c154 0 156 -85 156 -134c0 -132 -4 -213 -4 -264c0 -43 45 -84 45 -102c0 -4 -2 -6 -9 -8c0 0 -70 -23 -77 -23c-22 0 -36 60 -42 72
c-86 -56 -97 -77 -190 -77c-76 0 -98 68 -98 131zM130 131c0 -53 29 -74 67 -74c37 0 83 20 119 50c7 6 7 46 7 85c0 26 0 55 -1 85c-168 -56 -192 -52 -192 -146z" />
    <glyph glyph-name="b" unicode="b" horiz-adv-x="535" 
d="M10 773c98 9 139 24 150 24c8 0 17 -4 17 -15v-43l-4 -277c108 59 134 65 154 65c156 0 182 -100 182 -233c0 -87 -10 -150 -43 -200c-6 -8 -62 -70 -116 -94c-27 -12 -62 -15 -97 -15c-45 0 -139 23 -167 62c-2 332 1 513 -4 603s3 90 -70 90zM171 213
c0 -87 2 -107 10 -115c15 -19 75 -44 127 -44c46 0 76 6 95 68c13 42 17 157 17 164c0 145 -83 172 -137 172c-22 0 -39 -1 -111 -39v-66c-1 -60 -1 -106 -1 -140z" />
    <glyph glyph-name="c" unicode="c" horiz-adv-x="441" 
d="M30 240c0 53 3 94 13 143c5 23 30 49 35 53c97 89 137 89 182 89c60 0 126 -17 136 -21c-2 -20 -3 -140 -3 -150h-30s-10 44 -16 64c-7 25 -71 38 -128 38c-80 0 -100 -42 -100 -184c0 -118 20 -209 136 -209c67 0 137 71 137 71l21 -20c-48 -53 -100 -128 -191 -128
c-31 0 -67 8 -108 30c-33 30 -50 58 -70 104c-8 34 -14 75 -14 120z" />
    <glyph glyph-name="d" unicode="d" horiz-adv-x="527" 
d="M30 242c0 190 48 216 87 240l34 20c20 12 48 26 100 26c27 0 63 -4 106 -14c0 68 -2 116 -2 150c0 77 -3 75 -70 77l-2 33c99 9 140 24 151 24c7 0 17 -4 17 -16c0 -372 -7 -510 -7 -653c0 -44 51 -92 51 -103c0 -7 -35 -15 -45 -19c-25 -11 -39 -17 -47 -17
c-18 0 -32 66 -44 78c-45 -50 -86 -83 -133 -83c-50 0 -196 61 -196 257zM118 280c0 -147 66 -209 137 -209c36 0 73 16 103 45c0 293 -3 261 -3 326c-27 16 -75 28 -118 28c-69 0 -119 -16 -119 -190z" />
    <glyph glyph-name="e" unicode="e" horiz-adv-x="467" 
d="M30 246c0 71 14 134 22 153c19 43 114 124 191 124c204 0 192 -173 193 -242c-26 -16 -63 -20 -105 -20h-205c0 -99 1 -199 130 -199c61 0 110 23 159 71l22 -23c-58 -59 -114 -125 -201 -125c-168 0 -206 142 -206 261zM128 306h57c82 0 134 1 158 18
c0 46 -14 134 -104 134c-96 0 -111 -47 -111 -152z" />
    <glyph glyph-name="f" unicode="f" horiz-adv-x="365" 
d="M30 448v34l89 15c0 146 69 301 225 301c69 0 81 -40 81 -113c0 -12 -1 -24 -1 -37l-43 -1c-15 82 -39 114 -63 114c-48 0 -99 -125 -99 -242v-15h134l-3 -56h-131c-2 -105 -4 -281 -4 -351c0 -57 11 -48 111 -66v-31h-280v34c73 11 80 9 80 68c0 35 -3 208 -6 346h-90z
" />
    <glyph glyph-name="g" unicode="g" horiz-adv-x="475" 
d="M10 -83c0 32 8 83 128 134c-50 7 -79 25 -79 54c0 15 3 46 89 72c-67 30 -92 57 -104 122c-1 4 -1 11 -1 19c0 25 4 63 17 92c13 27 99 114 204 114c22 0 64 -3 108 -40c26 1 67 6 97 13l6 -6v-42h-79c11 -16 20 -71 20 -102c0 -56 -16 -92 -58 -131
c-36 -21 -74 -35 -126 -46c-55 -14 -82 -32 -82 -57c0 -19 18 -34 43 -34h119c5 0 71 -2 91 -10c28 -11 72 -54 72 -106c0 -67 -65 -167 -260 -167c-77 0 -205 24 -205 121zM96 -54c0 -64 76 -111 136 -111c103 0 147 52 147 119c0 39 -27 76 -117 76
c-98 0 -166 -20 -166 -84zM135 324c0 -58 33 -104 101 -104c65 0 85 28 85 124c0 89 -22 109 -98 118c-5 1 -10 1 -14 1c-45 0 -74 -29 -74 -139z" />
    <glyph glyph-name="h" unicode="h" horiz-adv-x="565" 
d="M22 773c98 9 139 24 150 24c8 0 17 -4 17 -15c0 -9 -1 -55 -1 -65l-1 -258c77 43 151 65 192 65c98 0 113 -73 113 -203c0 -60 -3 -131 -3 -212c0 -64 3 -69 51 -75v-34h-190v34c48 11 50 17 50 97v179c0 118 -9 141 -77 141c-43 0 -110 -23 -136 -40
c0 0 -3 -116 -3 -290c0 -71 1 -84 57 -87v-34h-204v34c45 3 59 16 59 42c0 187 1 281 1 468c0 196 -3 196 -73 196z" />
    <glyph glyph-name="i" unicode="i" horiz-adv-x="282" 
d="M89 665c0 7 21 72 54 72c15 0 59 -25 59 -61c0 -34 -37 -71 -59 -71c-20 0 -54 47 -54 60zM30 0v34c70 5 77 14 77 53v208c0 167 -6 174 -57 174h-15l-2 33c98 9 139 24 150 24c8 0 17 -4 17 -16c0 -43 -5 -163 -5 -435c0 -28 23 -38 67 -41v-34h-232z" />
    <glyph glyph-name="j" unicode="j" horiz-adv-x="252" 
d="M70 665c0 7 22 72 55 72c15 0 59 -25 59 -61c0 -34 -38 -71 -59 -71s-55 47 -55 60zM-5 -185c91 114 95 86 95 553c0 88 -9 102 -57 102h-15l-2 33c99 9 139 24 150 24c8 0 17 -4 17 -16c0 -564 -4 -577 -171 -713z" />
    <glyph glyph-name="k" unicode="k" horiz-adv-x="575" 
d="M23 773c98 9 138 24 149 24c8 0 18 -4 18 -15v-6v-22v-15l-1 -444c45 0 158 119 158 164c0 10 -6 17 -21 17c-12 0 -19 9 -19 18c0 8 5 15 19 16c23 -2 60 -3 97 -3c36 0 72 1 95 3c12 0 18 -8 18 -16c0 -18 -22 -19 -26 -21c-90 -35 -220 -171 -220 -171l273 -272
c9 -9 12 -16 12 -20c0 -9 -12 -10 -12 -10c-45 0 -76 0 -123 -4c-233 276 -198 234 -253 257c1 -14 1 -28 1 -36c0 -57 -2 -94 -2 -120c0 -56 8 -51 62 -63v-34h-216v34c63 14 69 5 69 111c0 176 2 300 2 387c0 211 -11 205 -78 208z" />
    <glyph glyph-name="l" unicode="l" horiz-adv-x="284" 
d="M26 0v34c69 13 78 2 78 104v185c0 74 -1 178 -3 329l-1 48c-1 35 -15 39 -56 39h-13l-2 33c99 11 138 26 150 26c8 0 17 -3 17 -15c1 -41 2 -123 2 -206c0 -230 -10 -307 -10 -482c0 -53 9 -53 74 -61v-34h-236z" />
    <glyph glyph-name="m" unicode="m" horiz-adv-x="834" 
d="M32 493c72 8 108 34 135 34c18 0 23 -12 23 -53v-14c57 32 110 66 159 66c37 0 71 -14 125 -71c34 25 100 71 167 71c89 0 113 -86 113 -118c0 -124 -2 -207 -2 -261c0 -115 9 -110 59 -113v-34h-204v34c51 3 57 14 57 77c0 46 -1 119 -1 245c0 64 -2 96 -90 96
c-24 0 -81 -28 -100 -38c-1 -130 -1 -219 -1 -267c0 -114 9 -103 57 -113v-34h-204v34c51 3 54 17 54 73c0 197 1 226 1 282c0 38 -14 63 -89 63c-29 0 -78 -23 -99 -37c-4 -130 -7 -215 -7 -271c0 -111 7 -96 56 -110v-34h-204v34c45 3 58 16 58 42c0 369 -2 357 -16 369
c-9 8 -24 8 -45 10z" />
    <glyph glyph-name="n" unicode="n" horiz-adv-x="563" 
d="M32 493c73 8 108 34 135 34c18 0 24 -12 24 -53v-14c83 47 144 65 188 65c86 0 108 -68 108 -117v-334c0 -27 5 -37 53 -40v-34h-204v34c54 4 57 16 57 44v317c0 53 -50 57 -88 57c-24 0 -83 -18 -111 -37c-3 -146 -7 -236 -7 -291c0 -86 11 -87 59 -90v-34h-210v34
c59 9 62 12 62 116c0 5 -5 265 -7 272c-8 32 -24 30 -56 33z" />
    <glyph glyph-name="o" unicode="o" horiz-adv-x="517" 
d="M30 260c0 70 25 129 41 155c37 58 149 111 205 111c105 0 215 -62 215 -232c0 -87 -11 -140 -44 -190c-6 -8 -61 -80 -115 -104c-27 -12 -56 -17 -91 -17c-85 0 -211 38 -211 277zM125 268c0 -170 65 -214 162 -214c16 0 33 1 44 5c31 12 69 56 69 208
c0 114 -27 158 -100 181c-16 4 -34 7 -54 7c-61 0 -121 0 -121 -187z" />
    <glyph glyph-name="p" unicode="p" horiz-adv-x="554" 
d="M30 502c99 9 139 24 150 24c8 0 18 -4 18 -16c0 -4 -3 -46 -3 -56c35 17 94 72 165 72c17 0 168 -13 168 -224c0 -197 -91 -308 -212 -308c-109 0 -119 49 -127 63c-1 -61 -4 -127 -4 -155c1 -57 10 -62 60 -71v-34h-204v32c44 5 58 18 58 43c-1 94 -1 192 -1 543
c0 46 -4 54 -66 54zM189 226c0 -135 18 -184 108 -184c65 0 135 62 135 230c0 131 -49 177 -115 177c-37 0 -80 -15 -123 -37c-1 -66 -5 -130 -5 -186z" />
    <glyph glyph-name="q" unicode="q" horiz-adv-x="539" 
d="M30 230c0 151 58 205 92 228c77 52 111 67 151 67c47 0 86 -21 232 -23v-34c-36 -15 -46 -21 -50 -70c-7 -81 -9 -287 -9 -426c0 -134 6 -126 59 -141v-34h-204v32c47 9 61 15 61 116c0 29 -1 66 -3 114c-53 -39 -111 -71 -162 -71c-117 0 -167 122 -167 242zM126 236
c0 -133 59 -176 119 -176c33 0 67 13 92 31c17 12 22 37 22 61v250v16c-2 35 -81 39 -105 39c-111 0 -128 -122 -128 -221z" />
    <glyph glyph-name="r" unicode="r" horiz-adv-x="398" 
d="M25 0v34c74 8 77 6 77 115v33c0 286 -1 269 -65 275l-2 38c72 8 107 34 135 34c17 0 23 -12 23 -53c0 -18 1 -38 1 -38c65 63 109 85 139 85c50 0 65 -11 65 -42c0 -23 -8 -58 -16 -108h-36c-4 56 -26 75 -51 75c-22 0 -101 -26 -101 -86c0 -53 -1 -232 -1 -271
c0 -46 20 -47 112 -60v-31h-280z" />
    <glyph glyph-name="s" unicode="s" horiz-adv-x="387" 
d="M45 358c0 27 4 54 17 74c49 79 81 93 163 93c22 0 51 -6 77 -17c15 -6 34 -13 34 -49c0 -10 -3 -39 -3 -98h-37c-1 14 -12 57 -25 76c-15 22 -45 29 -75 29c-76 0 -84 -48 -84 -66c0 -117 245 -56 245 -242c0 -28 -2 -56 -15 -78c-20 -32 -32 -47 -64 -72
c-23 -17 -80 -25 -95 -25c-82 0 -118 19 -128 36c-5 8 -8 19 -8 34c0 109 3 118 27 118c34 0 13 -54 41 -92c13 -18 37 -32 83 -32c59 0 94 28 94 75c0 123 -247 57 -247 236z" />
    <glyph glyph-name="t" unicode="t" horiz-adv-x="335" 
d="M10 448v30l87 17v92c81 23 73 24 77 24c8 0 15 -3 15 -15s-2 -31 -2 -61v-31h127l-3 -56h-124c0 -102 -3 -184 -3 -247c0 -95 7 -145 47 -145c18 0 41 10 73 29l21 -20c-57 -59 -102 -80 -126 -80c-91 0 -105 60 -105 203c0 68 3 153 3 260h-87z" />
    <glyph glyph-name="u" unicode="u" horiz-adv-x="556" 
d="M22 498c88 10 131 27 142 27c8 0 18 -3 18 -15c0 -109 -4 -230 -4 -292c0 -45 2 -80 10 -102c10 -29 41 -46 60 -46c28 0 83 12 102 22c39 20 41 25 41 56c0 116 2 190 2 237c0 83 -6 83 -38 83h-32l-2 33c99 10 139 24 150 24c8 0 18 -3 18 -15c0 -217 -8 -310 -8 -383
c0 -43 45 -84 45 -102c0 -4 -2 -6 -9 -8c0 0 -70 -23 -77 -23c-22 0 -36 60 -42 72c-92 -65 -166 -75 -185 -75c-47 0 -99 42 -114 101c-5 16 -10 82 -10 124v95c0 156 -5 152 -65 153z" />
    <glyph glyph-name="v" unicode="v" horiz-adv-x="492" 
d="M0 501c89 11 132 28 143 28c8 0 17 -3 17 -15c0 -32 105 -409 105 -409c103 272 106 325 106 341c0 44 -36 13 -36 47c0 15 16 18 34 18c16 0 32 -2 43 -2c30 0 49 4 66 4c12 0 14 -8 14 -15c0 -15 -19 -6 -120 -257c-96 -237 -83 -256 -131 -256c-39 0 -38 23 -85 180
c-34 111 -65 249 -97 285c-15 17 -31 15 -57 18z" />
    <glyph glyph-name="w" unicode="w" horiz-adv-x="811" 
d="M0 501c88 11 131 28 142 28c8 0 18 -3 18 -15c0 -32 105 -409 105 -409c79 210 105 301 105 339c0 21 -16 39 -16 51c0 11 15 18 74 18c46 0 43 -11 45 -23c19 -90 101 -385 101 -385c103 272 106 325 106 341c0 50 -36 13 -36 47c0 15 16 18 34 18c16 0 32 -2 43 -2
c30 0 59 4 76 4c12 0 14 -8 14 -15c0 -15 -29 -6 -130 -257c-96 -237 -83 -256 -131 -256c-39 0 -38 23 -85 180c-18 58 -35 124 -51 178l-43 -102c-95 -237 -83 -256 -131 -256c-39 0 -37 23 -85 180c-33 111 -65 249 -97 285c-14 17 -30 15 -56 18z" />
    <glyph glyph-name="x" unicode="x" horiz-adv-x="453" 
d="M-5 0v34c11 1 20 1 29 6c24 13 55 57 166 226c-115 181 -105 196 -171 203l-2 33c63 8 91 24 111 24c30 0 41 -35 124 -185c40 56 77 105 77 117c0 36 -37 12 -37 39c0 3 3 17 23 17c14 0 29 -2 57 -2c29 0 35 2 58 2c12 0 20 -5 20 -21c0 -21 -27 -5 -58 -47
c-34 -42 -98 -136 -108 -151c167 -261 169 -273 169 -293c0 -18 -12 -20 -17 -20c-43 0 -109 83 -213 242c-68 -105 -101 -150 -101 -170c0 -12 13 -16 37 -20v-34h-164z" />
    <glyph glyph-name="y" unicode="y" horiz-adv-x="492" 
d="M0 501c88 11 132 28 143 28c8 0 17 -3 17 -15c0 -32 105 -409 105 -409c102 272 106 325 106 341c0 44 -36 13 -36 47c0 15 16 18 34 18c15 0 32 -2 43 -2c30 0 49 4 66 4c11 0 14 -8 14 -15c0 -15 -19 -6 -121 -257c-178 -443 -144 -449 -178 -449c-49 0 -66 12 -66 29
c0 37 71 103 71 160c0 43 -104 429 -139 469c-15 17 -31 15 -57 18z" />
    <glyph glyph-name="z" unicode="z" horiz-adv-x="516" 
d="M33 26l307 431c0 3 -19 4 -102 4h-5c-109 0 -111 -1 -141 -140h-38c8 188 -1 188 25 188c31 0 31 -3 155 -3c112 0 213 4 213 4c23 0 29 -10 29 -21c0 -18 -29 -54 -63 -95l-26 -32c-159 -197 -203 -299 -203 -306c0 -4 4 -5 13 -5c226 0 220 24 231 51
c10 25 13 49 21 80l42 -3c-6 -55 -12 -145 -12 -193c0 -6 1 -11 1 -16l-44 3c0 29 -9 31 -99 31c-146 0 -176 -2 -293 -4z" />
    <glyph glyph-name="braceleft" unicode="{" horiz-adv-x="388" 
d="M50 282l6 32c32 8 64 16 104 29c28 40 -3 370 52 425c40 10 117 25 167 33l9 -33c-32 -7 -64 -15 -104 -28c-22 -32 -8 -240 -27 -356c-8 -48 -82 -84 -103 -87c21 -2 95 -38 103 -86c19 -116 5 -324 27 -356c40 -14 72 -22 104 -30l-9 -33c-50 9 -127 23 -167 33
c-55 54 -27 391 -52 428c-40 13 -78 22 -110 29z" />
    <glyph glyph-name="bar" unicode="|" horiz-adv-x="240" 
d="M81 -203v1000h78v-1000h-78z" />
    <glyph glyph-name="braceright" unicode="}" horiz-adv-x="388" 
d="M0 -175c32 8 64 16 104 30c22 32 8 240 27 356c8 48 82 84 103 86c-21 3 -95 39 -103 87c-19 116 -5 324 -27 356c-40 13 -72 21 -104 28l9 33c50 -8 127 -23 167 -33c55 -55 24 -385 52 -425c40 -13 78 -23 110 -30l-6 -32c-32 -7 -64 -15 -104 -28
c-25 -37 3 -374 -52 -428c-40 -10 -117 -24 -167 -33z" />
    <glyph glyph-name="asciitilde" unicode="~" 
d="M2 286c33 45 74 91 139 91c76 0 149 -63 203 -63c24 0 44 10 80 59l53 -33c-18 -28 -65 -92 -138 -92c-76 0 -143 63 -209 63c-13 0 -33 -3 -75 -59z" />
    <glyph glyph-name="exclamdown" unicode="&#xa1;" horiz-adv-x="240" 
d="M56 1c16 200 40 478 54 552l33 -6l5 -84c8 -142 22 -415 22 -456c-35 -5 -75 -11 -102 -17zM69 689c0 21 42 70 66 70c21 0 48 -86 48 -94c0 -12 -26 -64 -52 -64c-25 0 -62 74 -62 88z" />
    <glyph glyph-name="cent" unicode="&#xa2;" 
d="M49 240c0 53 3 94 13 143c5 23 30 49 35 53c68 62 108 81 141 87v90h41v-88c60 0 126 -17 136 -21c-2 -20 -3 -140 -3 -150h-30s-10 44 -16 64c-5 19 -44 31 -87 36v-391c66 3 132 71 132 71l21 -20c-41 -45 -85 -106 -153 -124v-81h-41v77c-30 0 -65 9 -105 30
c-33 30 -50 58 -70 104c-8 34 -14 75 -14 120zM138 272c0 -105 16 -188 100 -206v390c-80 0 -100 -42 -100 -184z" />
    <glyph glyph-name="sterling" unicode="&#xa3;" horiz-adv-x="488" 
d="M25 33c45 9 75 17 80 213h-59v40h59c6 61 4 88 33 127c69 93 131 117 182 117c39 0 72 -14 95 -23l-15 -121h-23c-7 30 -15 54 -24 75c-22 15 -44 22 -65 22c-40 0 -74 -30 -80 -101c-3 -26 -6 -66 -7 -96h171v-40h-174c-5 -102 -30 -154 -58 -186c39 -2 73 -3 101 -3
c74 0 112 6 129 9l9 20l16 64h29c0 -10 2 -130 4 -150c-132 2 -214 3 -267 3c-90 0 -110 -2 -125 -3z" />
    <glyph glyph-name="brokenbar" unicode="&#xa6;" horiz-adv-x="240" 
d="M81 200h78v-403h-78v403zM81 394v403h78v-403h-78z" />
    <glyph glyph-name="section" unicode="&#xa7;" 
d="M50 276c0 74 23 101 78 140l51 35c-67 38 -102 92 -102 153c0 70 39 107 66 129c35 29 74 43 132 43c37 0 94 -17 122 -38c-5 -35 -5 -117 -5 -144h-37c-1 14 -14 76 -26 94c-14 20 -55 33 -88 33c-53 0 -96 -33 -96 -83c0 -48 32 -84 126 -135l58 -31
c51 -28 101 -64 101 -143c0 -105 -46 -137 -123 -168l36 -22c26 -16 27 -18 39 -34c21 -31 33 -67 33 -106c0 -32 -3 -99 -80 -163c-33 -27 -70 -39 -116 -39c-51 0 -101 5 -139 41c5 35 6 119 6 146h35c8 -74 22 -131 112 -131c50 0 114 28 114 105c0 16 -3 28 -6 40
c-30 44 -48 58 -139 109c-114 62 -152 104 -152 169zM134 303c0 -44 33 -68 73 -89l56 -29c5 0 89 32 89 115c0 70 -124 122 -124 122c-78 -23 -94 -70 -94 -119z" />
    <glyph glyph-name="dieresis" unicode="&#xa8;" horiz-adv-x="500" 
d="M97 645c0 7 21 72 55 72c14 0 58 -25 58 -61c0 -34 -37 -72 -58 -72s-55 48 -55 61zM284 645c0 7 22 72 55 72c15 0 59 -25 59 -61c0 -34 -38 -72 -59 -72s-55 48 -55 61z" />
    <glyph glyph-name="copyright" unicode="&#xa9;" horiz-adv-x="776" 
d="M36 331c0 211 168 355 349 355c203 0 355 -158 355 -351c0 -205 -164 -353 -349 -353c-211 0 -355 168 -355 349zM85 332c0 -155 122 -301 306 -301c163 0 301 131 301 304c0 176 -145 303 -305 303c-157 0 -302 -123 -302 -306zM219 319c0 44 2 76 10 116
c3 10 7 22 9 24c93 91 128 91 167 91c48 0 102 -14 110 -17c-2 -16 -2 -114 -2 -122h-25l-12 53c-6 20 -58 30 -104 30c-65 0 -81 -33 -81 -149c0 -40 3 -71 9 -95c9 -24 20 -40 32 -54c17 -14 37 -23 60 -23c55 0 120 60 120 60l17 -16l-90 -98c-19 -3 -41 -7 -52 -7
c-40 0 -74 11 -100 26c-27 24 -41 47 -57 84c-6 28 -11 61 -11 97z" />
    <glyph glyph-name="ordfeminine" unicode="&#xaa;" horiz-adv-x="310" 
d="M40 511c0 95 83 90 170 108v46c0 15 -51 34 -78 34c-39 0 -52 -70 -52 -70h-25l7 73c37 21 86 32 107 32c18 0 55 -11 80 -26c11 -7 16 -13 18 -22l-2 -192c2 -21 25 -30 45 -30v-15c-34 0 -76 -9 -76 -9l-20 42l-67 -40l-23 -3c-69 3 -84 25 -84 72zM94 517
c0 -28 15 -41 46 -41c6 0 17 2 33 7l38 23l-1 91c-26 -5 -65 -18 -98 -32c-13 -9 -18 -23 -18 -48z" />
    <glyph glyph-name="guillemotleft" unicode="&#xab;" horiz-adv-x="523" 
d="M28 245c61 43 207 177 222 192l32 -16l-153 -179l151 -177l-29 -15c-64 63 -162 153 -223 195zM225 245c61 43 207 177 222 192l32 -16l-154 -179l152 -177l-29 -15c-64 63 -162 153 -223 195z" />
    <glyph glyph-name="softhyphen" unicode="&#xad;" horiz-adv-x="270" 
d="M17 250l14 66h211l11 -11l-12 -55h-224z" />
    <glyph glyph-name="registered" unicode="&#xae;" horiz-adv-x="625" 
d="M50 515c0 143 120 264 265 264c166 0 260 -121 260 -264c0 -144 -117 -264 -260 -264c-174 0 -265 120 -265 264zM97 515c0 -127 86 -228 218 -228c127 0 217 107 217 228s-85 227 -217 227c-124 0 -218 -106 -218 -227zM179 372v18c22 1 39 3 39 18c0 3 0 145 -3 225
c0 12 -10 14 -30 15l-6 1v18c12 -1 36 -1 61 -1c62 0 70 4 88 4h9c37 0 73 -27 73 -72c0 -37 -20 -53 -54 -73c0 0 47 -83 79 -129l24 -9v-15c-24 0 -39 0 -64 -2l-77 145h-12c-15 0 -32 1 -44 5c-1 -56 -1 -110 -1 -112c0 -15 17 -17 40 -18v-18c-12 1 -38 1 -61 1
c-24 0 -49 0 -61 -1zM263 544c8 -5 26 -7 46 -7c44 0 55 33 55 56c0 46 -36 54 -42 54c-12 0 -43 -1 -53 -5l-5 -4c0 -19 -1 -55 -1 -94z" />
    <glyph glyph-name="macron" unicode="&#xaf;" horiz-adv-x="500" 
d="M125 602l13 61h237l-12 -61h-238z" />
    <glyph glyph-name="degree" unicode="&#xb0;" horiz-adv-x="310" 
d="M40 566c0 48 16 78 27 92c22 29 85 56 116 56c55 0 112 -29 112 -107c0 -65 -20 -93 -30 -104c-3 -4 -35 -40 -65 -52c-15 -6 -32 -9 -51 -9c-44 0 -109 18 -109 124zM92 571c0 -73 34 -93 84 -93c9 0 19 1 24 2c31 11 44 59 44 118c0 43 -14 80 -80 80
c-40 0 -72 -9 -72 -107z" />
    <glyph glyph-name="plusminus" unicode="&#xb1;" 
d="M11 275l14 66h183v160l56 13l11 -12l-1 -161h186l12 -11l-13 -55h-184l-1 -158l-66 -14v172h-197zM11 0l14 66h435l12 -11l-13 -55h-448z" />
    <glyph glyph-name="acute" unicode="&#xb4;" horiz-adv-x="500" 
d="M144 579c54 56 122 140 154 180c28 0 56 -21 58 -45c-38 -35 -138 -119 -194 -156z" />
    <glyph glyph-name="paragraph" unicode="&#xb6;" 
d="M30 550c0 184 126 187 260 188h129v-908h-36v873h-78v-873h-35v518h-29c-59 0 -211 40 -211 202z" />
    <glyph glyph-name="periodcentered" unicode="&#xb7;" horiz-adv-x="250" 
d="M63 302c0 12 26 64 52 64c25 0 62 -74 62 -88c0 -21 -42 -70 -66 -70c-21 0 -48 86 -48 94z" />
    <glyph glyph-name="cedilla" unicode="&#xb8;" horiz-adv-x="500" 
d="M176 -168c67 0 98 19 98 39c0 18 -27 36 -73 38l-12 11l31 88l24 -2l-10 -49c45 -9 90 -30 90 -76c0 -50 -27 -65 -59 -80c-22 -4 -64 -6 -87 -7z" />
    <glyph glyph-name="ordmasculine" unicode="&#xba;" horiz-adv-x="350" 
d="M40 587c0 38 15 71 25 85c22 32 90 61 124 61c63 0 130 -34 130 -127c0 -48 -7 -78 -27 -105c-3 -5 -37 -44 -69 -57c-16 -7 -34 -10 -56 -10c-50 0 -127 21 -127 153zM98 591c0 -93 39 -117 97 -117c10 0 21 0 27 2c19 7 42 31 42 115c0 62 -16 87 -61 99
c-9 3 -20 4 -32 4c-37 0 -73 0 -73 -103z" />
    <glyph glyph-name="guillemotright" unicode="&#xbb;" horiz-adv-x="523" 
d="M45 421l32 16c14 -15 161 -149 221 -192c-60 -42 -158 -132 -223 -195l-29 15l152 177zM242 421l31 16c15 -15 162 -149 222 -192c-60 -42 -158 -132 -223 -195l-29 15l152 177z" />
    <glyph glyph-name="questiondown" unicode="&#xbf;" horiz-adv-x="445" 
d="M56 232c0 112 44 197 174 197c33 0 60 -11 83 -27c5 47 10 98 14 119l33 -6l11 -208c-48 41 -86 52 -108 52c-97 0 -129 -50 -129 -135c0 -28 4 -59 9 -93c9 -59 33 -79 85 -79c132 0 118 50 129 92h25c2 -40 4 -70 4 -93c0 -45 -17 -61 -121 -61
c-128 0 -194 119 -196 127c-8 40 -13 79 -13 115zM286 657c0 21 42 70 66 70c21 0 48 -86 48 -94c0 -12 -26 -64 -52 -64c-25 0 -62 74 -62 88z" />
    <glyph glyph-name="Agrave" unicode="&#xc0;" horiz-adv-x="755" 
d="M217 923v4c0 22 23 46 49 50c38 -34 120 -105 182 -150l-13 -24c-62 27 -175 92 -218 120zM0 0v36c60 6 71 17 134 174l208 520c11 8 61 13 68 13c0 0 256 -633 263 -647c16 -28 32 -53 82 -60v-36h-286v34c36 3 89 11 89 44c0 20 -8 45 -21 75l-19 44
c-7 16 -14 33 -21 52h-289c-22 -49 -62 -151 -62 -166c0 -33 47 -40 90 -44v-39h-236zM222 292h262l-133 329z" />
    <glyph glyph-name="Aacute" unicode="&#xc1;" horiz-adv-x="755" 
d="M305 827c62 45 144 116 182 150c26 -4 49 -28 49 -50v-4c-43 -28 -156 -93 -218 -120zM0 0v36c60 6 71 17 134 174l208 520c11 8 61 13 68 13c0 0 256 -633 263 -647c16 -28 32 -53 82 -60v-36h-286v34c36 3 89 11 89 44c0 20 -8 45 -21 75l-19 44c-7 16 -14 33 -21 52
h-289c-22 -49 -62 -151 -62 -166c0 -33 47 -40 90 -44v-39h-236zM222 292h262l-133 329z" />
    <glyph glyph-name="Acircumflex" unicode="&#xc2;" horiz-adv-x="755" 
d="M263 811c46 48 67 75 102 123h40c39 -57 59 -80 98 -122l-19 -17l-103 68l-100 -70zM0 0v36c60 6 71 17 134 174l208 520c11 8 61 13 68 13c0 0 256 -633 263 -647c16 -28 32 -53 82 -60v-36h-286v34c36 3 89 11 89 44c0 20 -8 45 -21 75l-19 44c-7 16 -14 33 -21 52
h-289c-22 -49 -62 -151 -62 -166c0 -33 47 -40 90 -44v-39h-236zM222 292h262l-133 329z" />
    <glyph glyph-name="Atilde" unicode="&#xc3;" horiz-adv-x="755" 
d="M218 830c19 28 90 99 110 99c30 0 59 -35 126 -53c24 7 47 24 67 43l15 -12c-19 -28 -80 -91 -100 -91c-34 0 -88 53 -126 53c-24 -7 -59 -34 -79 -53zM0 0v36c60 6 71 17 134 174l208 520c11 8 61 13 68 13c0 0 256 -633 263 -647c16 -28 32 -53 82 -60v-36h-286v34
c36 3 89 11 89 44c0 20 -8 45 -21 75l-19 44c-7 16 -14 33 -21 52h-289c-22 -49 -62 -151 -62 -166c0 -33 47 -40 90 -44v-39h-236zM222 292h262l-133 329z" />
    <glyph glyph-name="Adieresis" unicode="&#xc4;" horiz-adv-x="755" 
d="M231 873c0 7 21 72 55 72c14 0 58 -25 58 -61c0 -34 -37 -72 -58 -72s-55 48 -55 61zM418 873c0 7 22 72 55 72c15 0 59 -25 59 -61c0 -34 -38 -72 -59 -72s-55 48 -55 61zM0 0v36c60 6 71 17 134 174l208 520c11 8 61 13 68 13c0 0 256 -633 263 -647
c16 -28 32 -53 82 -60v-36h-286v34c36 3 89 11 89 44c0 20 -8 45 -21 75l-19 44c-7 16 -14 33 -21 52h-289c-22 -49 -62 -151 -62 -166c0 -33 47 -40 90 -44v-39h-236zM222 292h262l-133 329z" />
    <glyph glyph-name="Aring" unicode="&#xc5;" horiz-adv-x="755" 
d="M292 884c0 23 9 42 15 51c14 19 54 37 75 37c38 0 78 -21 78 -77c0 -29 -4 -46 -16 -63c-2 -2 -23 -26 -42 -34c-10 -4 -20 -6 -33 -6c-31 0 -77 13 -77 92zM334 886c0 -49 20 -61 50 -61c5 0 11 0 14 1c10 4 22 16 22 59c0 33 -9 45 -32 52c-5 1 -10 2 -17 2
c-19 0 -37 0 -37 -53zM0 0v36c60 6 71 17 134 174l208 520c11 8 61 13 68 13c0 0 256 -633 263 -647c16 -28 32 -53 82 -60v-36h-286v34c36 3 89 11 89 44c0 20 -8 45 -21 75l-19 44c-7 16 -14 33 -21 52h-289c-22 -49 -62 -151 -62 -166c0 -33 47 -40 90 -44v-39h-236z
M222 292h262l-133 329z" />
    <glyph glyph-name="AE" unicode="&#xc6;" horiz-adv-x="1033" 
d="M0 0v36c60 6 76 17 167 174l263 463s4 5 4 11c0 14 -16 13 -56 16l-14 1v37c27 -2 152 -4 204 -4c46 0 95 1 126 3c5 0 262 1 262 1l12 -11c-2 -11 -26 -171 -27 -185h-34c-4 27 -21 106 -21 108c-4 10 -7 19 -16 26c-32 6 -49 9 -164 9c-56 0 -81 -5 -82 -34
c-2 -58 -3 -152 -4 -238c60 0 226 4 247 5l-10 -74h-18c-41 30 -191 23 -220 26c-1 -148 -2 -278 -2 -287c0 -33 47 -39 167 -39c27 0 94 3 105 12c26 22 41 84 51 122l14 54h37c-3 -41 -9 -222 -9 -232h-559v37c49 3 89 8 90 46c0 20 1 84 2 166h-266
c-2 -3 -92 -148 -92 -172c0 -28 38 -34 79 -38v-39h-236zM270 292h245c1 38 1 79 1 121c0 86 -1 175 -3 248c-1 10 -8 20 -16 20c-4 0 -9 -3 -12 -10z" />
    <glyph glyph-name="Ccedilla" unicode="&#xc7;" horiz-adv-x="728" 
d="M73 366c0 80 11 150 35 206c21 49 108 156 236 173c29 4 77 7 117 7c72 0 151 -12 182 -29l12 -11c0 -10 -9 -162 -10 -176h-34c-28 99 -39 127 -50 135c-58 15 -104 19 -148 19c-196 0 -240 -85 -240 -328c0 -63 5 -212 134 -290c31 -19 73 -34 125 -34
c57 0 107 20 147 51c4 7 19 51 29 89l14 54h37c-4 -41 -4 -189 -4 -199c-58 -21 -135 -44 -218 -49h-63l-5 -27c44 -9 90 -30 90 -76c0 -50 -28 -65 -59 -80c-22 -4 -64 -6 -87 -7l-3 38c67 0 98 19 98 39c0 18 -27 36 -73 38l-12 11l24 67c-159 18 -274 117 -274 379z" />
    <glyph glyph-name="Egrave" unicode="&#xc8;" horiz-adv-x="640" 
d="M175 923v4c0 22 23 46 49 50c38 -34 120 -105 182 -150l-13 -24c-62 27 -175 92 -218 120zM29 0v37c50 3 90 8 90 46c1 32 4 177 4 330c0 86 -1 175 -4 248c-1 32 -22 36 -68 39l-14 1v37c27 -2 86 -4 138 -4c45 0 95 1 125 3c5 0 263 1 263 1l12 -11
c-3 -11 -26 -171 -27 -185h-34c-5 27 -21 106 -22 108c-3 10 -6 19 -16 26c-13 3 -22 4 -37 6c-24 3 -82 3 -126 3c-57 0 -81 -5 -82 -34c-2 -58 -3 -152 -4 -238c59 0 225 4 246 5l-10 -74h-17c-41 30 -191 23 -220 26c-2 -148 -2 -278 -2 -287c0 -33 47 -39 167 -39
c27 0 94 3 105 12c25 22 41 84 51 122l14 54h37c-4 -41 -9 -222 -9 -232h-560z" />
    <glyph glyph-name="Eacute" unicode="&#xc9;" horiz-adv-x="640" 
d="M263 827c62 45 144 116 182 150c26 -4 49 -28 49 -50v-4c-43 -28 -156 -93 -218 -120zM29 0v37c50 3 90 8 90 46c1 32 4 177 4 330c0 86 -1 175 -4 248c-1 32 -22 36 -68 39l-14 1v37c27 -2 86 -4 138 -4c45 0 95 1 125 3c5 0 263 1 263 1l12 -11
c-3 -11 -26 -171 -27 -185h-34c-5 27 -21 106 -22 108c-3 10 -6 19 -16 26c-13 3 -22 4 -37 6c-24 3 -82 3 -126 3c-57 0 -81 -5 -82 -34c-2 -58 -3 -152 -4 -238c59 0 225 4 246 5l-10 -74h-17c-41 30 -191 23 -220 26c-2 -148 -2 -278 -2 -287c0 -33 47 -39 167 -39
c27 0 94 3 105 12c25 22 41 84 51 122l14 54h37c-4 -41 -9 -222 -9 -232h-560z" />
    <glyph glyph-name="Ecircumflex" unicode="&#xca;" horiz-adv-x="640" 
d="M221 811c46 48 67 75 102 123h40c39 -57 59 -80 98 -122l-19 -17l-103 68l-100 -70zM29 0v37c50 3 90 8 90 46c1 32 4 177 4 330c0 86 -1 175 -4 248c-1 32 -22 36 -68 39l-14 1v37c27 -2 86 -4 138 -4c45 0 95 1 125 3c5 0 263 1 263 1l12 -11c-3 -11 -26 -171 -27 -185
h-34c-5 27 -21 106 -22 108c-3 10 -6 19 -16 26c-13 3 -22 4 -37 6c-24 3 -82 3 -126 3c-57 0 -81 -5 -82 -34c-2 -58 -3 -152 -4 -238c59 0 225 4 246 5l-10 -74h-17c-41 30 -191 23 -220 26c-2 -148 -2 -278 -2 -287c0 -33 47 -39 167 -39c27 0 94 3 105 12
c25 22 41 84 51 122l14 54h37c-4 -41 -9 -222 -9 -232h-560z" />
    <glyph glyph-name="Edieresis" unicode="&#xcb;" horiz-adv-x="640" 
d="M189 873c0 7 21 72 55 72c14 0 58 -25 58 -61c0 -34 -37 -72 -58 -72s-55 48 -55 61zM376 873c0 7 22 72 55 72c15 0 59 -25 59 -61c0 -34 -38 -72 -59 -72s-55 48 -55 61zM29 0v37c50 3 90 8 90 46c1 32 4 177 4 330c0 86 -1 175 -4 248c-1 32 -22 36 -68 39l-14 1v37
c27 -2 86 -4 138 -4c45 0 95 1 125 3c5 0 263 1 263 1l12 -11c-3 -11 -26 -171 -27 -185h-34c-5 27 -21 106 -22 108c-3 10 -6 19 -16 26c-13 3 -22 4 -37 6c-24 3 -82 3 -126 3c-57 0 -81 -5 -82 -34c-2 -58 -3 -152 -4 -238c59 0 225 4 246 5l-10 -74h-17
c-41 30 -191 23 -220 26c-2 -148 -2 -278 -2 -287c0 -33 47 -39 167 -39c27 0 94 3 105 12c25 22 41 84 51 122l14 54h37c-4 -41 -9 -222 -9 -232h-560z" />
    <glyph glyph-name="Igrave" unicode="&#xcc;" horiz-adv-x="335" 
d="M7 923v4c0 22 23 46 49 50c38 -34 120 -105 182 -150l-13 -24c-62 27 -175 92 -218 120zM29 0v37c50 3 90 8 90 46c0 8 -1 379 -7 578c-1 32 -22 36 -69 39l-14 1v37h277v-37l-14 -1c-47 -3 -68 -7 -69 -39c-5 -143 -7 -569 -7 -578c0 -37 38 -42 90 -46v-37h-277z" />
    <glyph glyph-name="Iacute" unicode="&#xcd;" horiz-adv-x="335" 
d="M95 827c62 45 144 116 182 150c26 -4 49 -28 49 -50v-4c-43 -28 -156 -93 -218 -120zM29 0v37c50 3 90 8 90 46c0 8 -1 379 -7 578c-1 32 -22 36 -69 39l-14 1v37h277v-37l-14 -1c-47 -3 -68 -7 -69 -39c-5 -143 -7 -569 -7 -578c0 -37 38 -42 90 -46v-37h-277z" />
    <glyph glyph-name="Icircumflex" unicode="&#xce;" horiz-adv-x="335" 
d="M53 811c46 48 67 75 102 123h40c39 -57 59 -80 98 -122l-19 -17l-103 68l-100 -70zM29 0v37c50 3 90 8 90 46c0 8 -1 379 -7 578c-1 32 -22 36 -69 39l-14 1v37h277v-37l-14 -1c-47 -3 -68 -7 -69 -39c-5 -143 -7 -569 -7 -578c0 -37 38 -42 90 -46v-37h-277z" />
    <glyph glyph-name="Idieresis" unicode="&#xcf;" horiz-adv-x="335" 
d="M21 873c0 7 21 72 55 72c14 0 58 -25 58 -61c0 -34 -37 -72 -58 -72s-55 48 -55 61zM208 873c0 7 22 72 55 72c15 0 59 -25 59 -61c0 -34 -38 -72 -59 -72s-55 48 -55 61zM29 0v37c50 3 90 8 90 46c0 8 -1 379 -7 578c-1 32 -22 36 -69 39l-14 1v37h277v-37l-14 -1
c-47 -3 -68 -7 -69 -39c-5 -143 -7 -569 -7 -578c0 -37 38 -42 90 -46v-37h-277z" />
    <glyph glyph-name="Ntilde" unicode="&#xd1;" horiz-adv-x="777" 
d="M239 830c19 28 90 99 110 99c30 0 59 -35 126 -53c24 7 47 24 67 43l15 -12c-19 -28 -80 -91 -100 -91c-34 0 -88 53 -126 53c-24 -7 -59 -34 -79 -53zM15 701v37h189c8 -24 185 -261 429 -579c-1 14 -4 219 -4 308c0 50 -3 134 -4 167c-1 43 -4 58 -90 66v38h242v-36
c-34 -3 -68 -8 -81 -27c-3 -5 -6 -31 -6 -31c-4 -139 -7 -471 -7 -480c0 -42 2 -164 2 -164h-59c-50 77 -53 75 -462 597v-307s5 -191 5 -207c0 -33 42 -40 86 -44v-39h-236v36c43 4 79 12 83 44c5 36 7 149 7 370v32c0 69 -1 182 -1 185c-2 12 -8 25 -43 29z" />
    <glyph glyph-name="Ograve" unicode="&#xd2;" horiz-adv-x="745" 
d="M227 923v4c0 22 23 46 49 50c38 -34 120 -105 182 -150l-13 -24c-62 27 -175 92 -218 120zM42 358c0 114 27 196 64 252c75 112 232 141 289 141c214 0 309 -130 309 -340c0 -71 -8 -197 -71 -289c-72 -106 -216 -136 -274 -136c-223 0 -317 163 -317 372zM144 379
c0 -34 0 -232 141 -304c42 -21 72 -23 120 -23c117 0 196 76 196 299c0 245 -94 322 -188 336c-9 2 -37 2 -54 2c-122 0 -215 -79 -215 -310z" />
    <glyph glyph-name="Oacute" unicode="&#xd3;" horiz-adv-x="745" 
d="M315 827c62 45 144 116 182 150c26 -4 49 -28 49 -50v-4c-43 -28 -156 -93 -218 -120zM42 358c0 114 27 196 64 252c75 112 232 141 289 141c214 0 309 -130 309 -340c0 -71 -8 -197 -71 -289c-72 -106 -216 -136 -274 -136c-223 0 -317 163 -317 372zM144 379
c0 -34 0 -232 141 -304c42 -21 72 -23 120 -23c117 0 196 76 196 299c0 245 -94 322 -188 336c-9 2 -37 2 -54 2c-122 0 -215 -79 -215 -310z" />
    <glyph glyph-name="Ocircumflex" unicode="&#xd4;" horiz-adv-x="745" 
d="M273 811c46 48 67 75 102 123h40c39 -57 59 -80 98 -122l-19 -17l-103 68l-100 -70zM42 358c0 114 27 196 64 252c75 112 232 141 289 141c214 0 309 -130 309 -340c0 -71 -8 -197 -71 -289c-72 -106 -216 -136 -274 -136c-223 0 -317 163 -317 372zM144 379
c0 -34 0 -232 141 -304c42 -21 72 -23 120 -23c117 0 196 76 196 299c0 245 -94 322 -188 336c-9 2 -37 2 -54 2c-122 0 -215 -79 -215 -310z" />
    <glyph glyph-name="Otilde" unicode="&#xd5;" horiz-adv-x="745" 
d="M228 830c19 28 90 99 110 99c30 0 59 -35 126 -53c24 7 47 24 67 43l15 -12c-19 -28 -80 -91 -100 -91c-34 0 -88 53 -126 53c-24 -7 -59 -34 -79 -53zM42 358c0 114 27 196 64 252c75 112 232 141 289 141c214 0 309 -130 309 -340c0 -71 -8 -197 -71 -289
c-72 -106 -216 -136 -274 -136c-223 0 -317 163 -317 372zM144 379c0 -34 0 -232 141 -304c42 -21 72 -23 120 -23c117 0 196 76 196 299c0 245 -94 322 -188 336c-9 2 -37 2 -54 2c-122 0 -215 -79 -215 -310z" />
    <glyph glyph-name="Odieresis" unicode="&#xd6;" horiz-adv-x="745" 
d="M241 873c0 7 21 72 55 72c14 0 58 -25 58 -61c0 -34 -37 -72 -58 -72s-55 48 -55 61zM428 873c0 7 22 72 55 72c15 0 59 -25 59 -61c0 -34 -38 -72 -59 -72s-55 48 -55 61zM42 358c0 114 27 196 64 252c75 112 232 141 289 141c214 0 309 -130 309 -340
c0 -71 -8 -197 -71 -289c-72 -106 -216 -136 -274 -136c-223 0 -317 163 -317 372zM144 379c0 -34 0 -232 141 -304c42 -21 72 -23 120 -23c117 0 196 76 196 299c0 245 -94 322 -188 336c-9 2 -37 2 -54 2c-122 0 -215 -79 -215 -310z" />
    <glyph glyph-name="Oslash" unicode="&#xd8;" horiz-adv-x="745" 
d="M42 358c0 114 27 196 64 252c75 112 232 141 289 141c59 0 108 -10 150 -29l34 69l41 -19l-36 -72c82 -56 120 -157 120 -289c0 -71 -8 -197 -71 -289c-72 -106 -216 -136 -274 -136c-45 0 -85 7 -120 19l-34 -68l-39 18l33 68c-109 59 -157 185 -157 335zM144 379
c0 -30 0 -187 96 -273l267 539c-29 24 -62 37 -94 42c-9 2 -37 2 -54 2c-122 0 -215 -79 -215 -310zM276 79l9 -4c42 -21 72 -23 120 -23c117 0 196 76 196 299c0 126 -25 207 -62 258z" />
    <glyph glyph-name="Ugrave" unicode="&#xd9;" horiz-adv-x="757" 
d="M255 923v4c0 22 23 46 49 50c38 -34 120 -105 182 -150l-13 -24c-62 27 -175 92 -218 120zM34 701v37h276v-37c-53 -4 -90 -9 -90 -46c0 -49 1 -162 1 -265v-80c1 -55 1 -98 1 -113c0 -55 44 -151 212 -151c163 0 184 85 184 310c0 89 -2 179 -2 299c0 33 -47 40 -90 44
v39h236v-36c-44 -5 -78 -17 -80 -44l-1 -18c-3 -41 -10 -362 -10 -402c0 -224 -155 -252 -309 -252c-208 0 -244 164 -244 228c0 0 -2 425 -3 436c-5 44 -23 47 -81 51z" />
    <glyph glyph-name="Uacute" unicode="&#xda;" horiz-adv-x="757" 
d="M343 827c62 45 144 116 182 150c26 -4 49 -28 49 -50v-4c-43 -28 -156 -93 -218 -120zM34 701v37h276v-37c-53 -4 -90 -9 -90 -46c0 -49 1 -162 1 -265v-80c1 -55 1 -98 1 -113c0 -55 44 -151 212 -151c163 0 184 85 184 310c0 89 -2 179 -2 299c0 33 -47 40 -90 44v39
h236v-36c-44 -5 -78 -17 -80 -44l-1 -18c-3 -41 -10 -362 -10 -402c0 -224 -155 -252 -309 -252c-208 0 -244 164 -244 228c0 0 -2 425 -3 436c-5 44 -23 47 -81 51z" />
    <glyph glyph-name="Ucircumflex" unicode="&#xdb;" horiz-adv-x="757" 
d="M301 811c46 48 67 75 102 123h40c39 -57 59 -80 98 -122l-19 -17l-103 68l-100 -70zM34 701v37h276v-37c-53 -4 -90 -9 -90 -46c0 -49 1 -162 1 -265v-80c1 -55 1 -98 1 -113c0 -55 44 -151 212 -151c163 0 184 85 184 310c0 89 -2 179 -2 299c0 33 -47 40 -90 44v39h236
v-36c-44 -5 -78 -17 -80 -44l-1 -18c-3 -41 -10 -362 -10 -402c0 -224 -155 -252 -309 -252c-208 0 -244 164 -244 228c0 0 -2 425 -3 436c-5 44 -23 47 -81 51z" />
    <glyph glyph-name="Udieresis" unicode="&#xdc;" horiz-adv-x="757" 
d="M269 873c0 7 21 72 55 72c14 0 58 -25 58 -61c0 -34 -37 -72 -58 -72s-55 48 -55 61zM456 873c0 7 22 72 55 72c15 0 59 -25 59 -61c0 -34 -38 -72 -59 -72s-55 48 -55 61zM34 701v37h276v-37c-53 -4 -90 -9 -90 -46c0 -49 1 -162 1 -265v-80c1 -55 1 -98 1 -113
c0 -55 44 -151 212 -151c163 0 184 85 184 310c0 89 -2 179 -2 299c0 33 -47 40 -90 44v39h236v-36c-44 -5 -78 -17 -80 -44l-1 -18c-3 -41 -10 -362 -10 -402c0 -224 -155 -252 -309 -252c-208 0 -244 164 -244 228c0 0 -2 425 -3 436c-5 44 -23 47 -81 51z" />
    <glyph glyph-name="Yacute" unicode="&#xdd;" horiz-adv-x="649" 
d="M286 827c62 45 144 116 182 150c26 -4 49 -28 49 -50v-4c-43 -28 -156 -93 -218 -120zM0 701v37h276v-37c-66 -5 -83 -13 -83 -33c0 -22 100 -180 151 -260c37 53 167 244 167 265c0 20 -25 23 -70 26v39h208v-36c-34 -4 -47 -15 -55 -25l-224 -310
c-2 -44 -3 -109 -3 -218c0 -32 1 -75 5 -82c13 -24 60 -29 100 -32v-35h-310v35c50 4 105 10 105 48c0 165 -4 275 -4 275c-17 31 -118 179 -199 296c0 0 -28 44 -64 47z" />
    <glyph glyph-name="germandbls" unicode="&#xdf;" horiz-adv-x="598" 
d="M26 0v34c73 11 80 9 80 68c0 35 -3 208 -6 346l-1 49c0 146 69 301 225 301c105 0 160 -63 160 -135c0 -79 -94 -118 -94 -194c0 -125 178 -139 178 -312c0 -17 0 -52 -15 -77c-20 -32 -29 -47 -61 -72c-23 -17 -80 -25 -95 -25c-55 0 -119 39 -119 70
c0 109 3 118 27 118c40 0 4 -124 107 -124c54 0 91 24 91 75c0 91 -199 191 -199 288c0 145 103 141 103 235c0 70 -26 119 -78 119c-104 0 -130 -171 -130 -245c0 -117 -4 -311 -4 -388c0 -94 1 -88 74 -97v-34h-243z" />
    <glyph glyph-name="agrave" unicode="&#xe0;" horiz-adv-x="478" 
d="M91 715c1 24 29 45 57 45c32 -40 100 -124 153 -180l-16 -21c-57 37 -157 121 -194 156zM40 121c0 169 130 161 282 195c0 24 1 48 1 60c0 68 -62 86 -109 86c-71 0 -81 -30 -107 -124l-41 4c4 34 -16 184 193 184c154 0 156 -85 156 -134c0 -132 -4 -213 -4 -264
c0 -43 45 -84 45 -102c0 -4 -2 -6 -9 -8c0 0 -70 -23 -77 -23c-22 0 -36 60 -42 72c-86 -56 -97 -77 -190 -77c-76 0 -98 68 -98 131zM130 131c0 -53 29 -74 67 -74c37 0 83 20 119 50c7 6 7 46 7 85c0 26 0 55 -1 85c-168 -56 -192 -52 -192 -146z" />
    <glyph glyph-name="aacute" unicode="&#xe1;" horiz-adv-x="478" 
d="M189 579c53 56 121 140 153 180c28 0 56 -21 58 -45c-38 -35 -138 -119 -194 -156zM40 121c0 169 130 161 282 195c0 24 1 48 1 60c0 68 -62 86 -109 86c-71 0 -81 -30 -107 -124l-41 4c4 34 -16 184 193 184c154 0 156 -85 156 -134c0 -132 -4 -213 -4 -264
c0 -43 45 -84 45 -102c0 -4 -2 -6 -9 -8c0 0 -70 -23 -77 -23c-22 0 -36 60 -42 72c-86 -56 -97 -77 -190 -77c-76 0 -98 68 -98 131zM130 131c0 -53 29 -74 67 -74c37 0 83 20 119 50c7 6 7 46 7 85c0 26 0 55 -1 85c-168 -56 -192 -52 -192 -146z" />
    <glyph glyph-name="acircumflex" unicode="&#xe2;" horiz-adv-x="478" 
d="M128 581c46 67 101 154 111 171h40c9 -17 65 -121 97 -169l-16 -13l-113 106l-99 -108zM40 121c0 169 130 161 282 195c0 24 1 48 1 60c0 68 -62 86 -109 86c-71 0 -81 -30 -107 -124l-41 4c4 34 -16 184 193 184c154 0 156 -85 156 -134c0 -132 -4 -213 -4 -264
c0 -43 45 -84 45 -102c0 -4 -2 -6 -9 -8c0 0 -70 -23 -77 -23c-22 0 -36 60 -42 72c-86 -56 -97 -77 -190 -77c-76 0 -98 68 -98 131zM130 131c0 -53 29 -74 67 -74c37 0 83 20 119 50c7 6 7 46 7 85c0 26 0 55 -1 85c-168 -56 -192 -52 -192 -146z" />
    <glyph glyph-name="atilde" unicode="&#xe3;" horiz-adv-x="478" 
d="M87 602c19 28 90 99 110 99c30 0 59 -35 126 -53c24 7 47 24 67 43l15 -12c-19 -28 -80 -91 -100 -91c-34 0 -88 53 -126 53c-24 -7 -59 -34 -79 -53zM40 121c0 169 130 161 282 195c0 24 1 48 1 60c0 68 -62 86 -109 86c-71 0 -81 -30 -107 -124l-41 4
c4 34 -16 184 193 184c154 0 156 -85 156 -134c0 -132 -4 -213 -4 -264c0 -43 45 -84 45 -102c0 -4 -2 -6 -9 -8c0 0 -70 -23 -77 -23c-22 0 -36 60 -42 72c-86 -56 -97 -77 -190 -77c-76 0 -98 68 -98 131zM130 131c0 -53 29 -74 67 -74c37 0 83 20 119 50c7 6 7 46 7 85
c0 26 0 55 -1 85c-168 -56 -192 -52 -192 -146z" />
    <glyph glyph-name="adieresis" unicode="&#xe4;" horiz-adv-x="478" 
d="M100 645c0 7 21 72 55 72c14 0 58 -25 58 -61c0 -34 -37 -72 -58 -72s-55 48 -55 61zM287 645c0 7 22 72 55 72c15 0 59 -25 59 -61c0 -34 -38 -72 -59 -72s-55 48 -55 61zM40 121c0 169 130 161 282 195c0 24 1 48 1 60c0 68 -62 86 -109 86c-71 0 -81 -30 -107 -124
l-41 4c4 34 -16 184 193 184c154 0 156 -85 156 -134c0 -132 -4 -213 -4 -264c0 -43 45 -84 45 -102c0 -4 -2 -6 -9 -8c0 0 -70 -23 -77 -23c-22 0 -36 60 -42 72c-86 -56 -97 -77 -190 -77c-76 0 -98 68 -98 131zM130 131c0 -53 29 -74 67 -74c37 0 83 20 119 50
c7 6 7 46 7 85c0 26 0 55 -1 85c-168 -56 -192 -52 -192 -146z" />
    <glyph glyph-name="aring" unicode="&#xe5;" horiz-adv-x="478" 
d="M161 656c0 23 9 42 15 51c14 19 54 37 75 37c38 0 78 -21 78 -77c0 -29 -4 -46 -16 -63c-2 -2 -23 -26 -42 -34c-10 -4 -20 -6 -33 -6c-31 0 -77 13 -77 92zM203 658c0 -49 20 -61 50 -61c5 0 11 0 14 1c10 4 22 16 22 59c0 33 -9 45 -32 52c-5 1 -10 2 -17 2
c-19 0 -37 0 -37 -53zM40 121c0 169 130 161 282 195c0 24 1 48 1 60c0 68 -62 86 -109 86c-71 0 -81 -30 -107 -124l-41 4c4 34 -16 184 193 184c154 0 156 -85 156 -134c0 -132 -4 -213 -4 -264c0 -43 45 -84 45 -102c0 -4 -2 -6 -9 -8c0 0 -70 -23 -77 -23
c-22 0 -36 60 -42 72c-86 -56 -97 -77 -190 -77c-76 0 -98 68 -98 131zM130 131c0 -53 29 -74 67 -74c37 0 83 20 119 50c7 6 7 46 7 85c0 26 0 55 -1 85c-168 -56 -192 -52 -192 -146z" />
    <glyph glyph-name="ae" unicode="&#xe6;" horiz-adv-x="760" 
d="M40 121c0 169 130 161 282 195c0 24 1 48 1 60c0 68 -62 86 -109 86c-71 0 -81 -30 -107 -124l-41 4c4 34 -16 184 193 184c88 0 127 -28 143 -62c39 32 89 59 134 59c204 0 192 -173 193 -242c-26 -16 -63 -20 -105 -20h-205c0 -99 2 -199 130 -199c61 0 110 23 159 71
l22 -23c-58 -59 -114 -125 -201 -125c-91 0 -144 42 -174 100l-27 -18c-86 -56 -97 -77 -190 -77c-76 0 -98 68 -98 131zM130 131c0 -53 29 -74 67 -74c37 0 83 20 119 50c7 6 7 46 7 85c0 26 0 55 -1 85c-168 -56 -192 -52 -192 -146zM421 306h57c82 0 134 1 158 18
c0 46 -14 134 -104 134c-96 0 -111 -47 -111 -152z" />
    <glyph glyph-name="ccedilla" unicode="&#xe7;" horiz-adv-x="441" 
d="M30 240c0 36 6 155 24 173c114 112 157 112 205 112c60 0 126 -17 137 -21c-3 -20 -4 -140 -4 -150h-29l-16 64c-7 25 -71 38 -128 38c-80 0 -101 -41 -101 -184c0 -50 5 -88 12 -118c11 -29 25 -49 40 -66c21 -17 45 -29 74 -29c67 0 148 75 148 75l21 -20l-111 -121
l-13 -2c-13 -3 -27 -5 -38 -6h-13h-21l-6 -28c44 -9 90 -30 90 -76c0 -50 -28 -65 -59 -80c-22 -4 -64 -6 -87 -7l-3 38c68 0 98 19 98 39c0 18 -26 36 -73 38l-12 11l25 69c-29 5 -55 15 -76 27c-33 30 -51 58 -70 104c-8 34 -14 75 -14 120z" />
    <glyph glyph-name="egrave" unicode="&#xe8;" horiz-adv-x="467" 
d="M93 715c1 24 29 45 57 45c32 -40 100 -124 153 -180l-16 -21c-57 37 -157 121 -194 156zM30 246c0 71 14 134 22 153c19 43 114 124 191 124c204 0 192 -173 193 -242c-26 -16 -63 -20 -105 -20h-205c0 -99 1 -199 130 -199c61 0 110 23 159 71l22 -23
c-58 -59 -114 -125 -201 -125c-168 0 -206 142 -206 261zM128 306h57c82 0 134 1 158 18c0 46 -14 134 -104 134c-96 0 -111 -47 -111 -152z" />
    <glyph glyph-name="eacute" unicode="&#xe9;" horiz-adv-x="467" 
d="M191 579c53 56 121 140 153 180c28 0 56 -21 58 -45c-38 -35 -138 -119 -194 -156zM30 246c0 71 14 134 22 153c19 43 114 124 191 124c204 0 192 -173 193 -242c-26 -16 -63 -20 -105 -20h-205c0 -99 1 -199 130 -199c61 0 110 23 159 71l22 -23
c-58 -59 -114 -125 -201 -125c-168 0 -206 142 -206 261zM128 306h57c82 0 134 1 158 18c0 46 -14 134 -104 134c-96 0 -111 -47 -111 -152z" />
    <glyph glyph-name="ecircumflex" unicode="&#xea;" horiz-adv-x="467" 
d="M130 581c46 67 101 154 111 171h40c9 -17 65 -121 97 -169l-16 -13l-113 106l-99 -108zM30 246c0 71 14 134 22 153c19 43 114 124 191 124c204 0 192 -173 193 -242c-26 -16 -63 -20 -105 -20h-205c0 -99 1 -199 130 -199c61 0 110 23 159 71l22 -23
c-58 -59 -114 -125 -201 -125c-168 0 -206 142 -206 261zM128 306h57c82 0 134 1 158 18c0 46 -14 134 -104 134c-96 0 -111 -47 -111 -152z" />
    <glyph glyph-name="edieresis" unicode="&#xeb;" horiz-adv-x="467" 
d="M102 645c0 7 21 72 55 72c14 0 58 -25 58 -61c0 -34 -37 -72 -58 -72s-55 48 -55 61zM289 645c0 7 22 72 55 72c15 0 59 -25 59 -61c0 -34 -38 -72 -59 -72s-55 48 -55 61zM30 246c0 71 14 134 22 153c19 43 114 124 191 124c204 0 192 -173 193 -242
c-26 -16 -63 -20 -105 -20h-205c0 -99 1 -199 130 -199c61 0 110 23 159 71l22 -23c-58 -59 -114 -125 -201 -125c-168 0 -206 142 -206 261zM128 306h57c82 0 134 1 158 18c0 46 -14 134 -104 134c-96 0 -111 -47 -111 -152z" />
    <glyph glyph-name="igrave" unicode="&#xec;" horiz-adv-x="282" 
d="M-18 715c1 24 29 45 57 45c32 -40 100 -124 153 -180l-16 -21c-57 37 -157 121 -194 156zM30 0v34c70 5 77 14 77 53v208c0 167 -6 174 -57 174h-15l-2 33c98 9 139 24 150 24c8 0 17 -4 17 -16c0 -43 -5 -163 -5 -435c0 -28 23 -38 67 -41v-34h-232z" />
    <glyph glyph-name="iacute" unicode="&#xed;" horiz-adv-x="282" 
d="M80 579c53 56 121 140 153 180c28 0 56 -21 58 -45c-38 -35 -138 -119 -194 -156zM30 0v34c70 5 77 14 77 53v208c0 167 -6 174 -57 174h-15l-2 33c98 9 139 24 150 24c8 0 17 -4 17 -16c0 -43 -5 -163 -5 -435c0 -28 23 -38 67 -41v-34h-232z" />
    <glyph glyph-name="icircumflex" unicode="&#xee;" horiz-adv-x="282" 
d="M19 581c46 67 101 154 111 171h40c9 -17 65 -121 97 -169l-16 -13l-113 106l-99 -108zM30 0v34c70 5 77 14 77 53v208c0 167 -6 174 -57 174h-15l-2 33c98 9 139 24 150 24c8 0 17 -4 17 -16c0 -43 -5 -163 -5 -435c0 -28 23 -38 67 -41v-34h-232z" />
    <glyph glyph-name="idieresis" unicode="&#xef;" horiz-adv-x="282" 
d="M30 0v34c70 5 77 14 77 53v208c0 167 -6 174 -57 174h-15l-2 33c98 9 139 24 150 24c8 0 17 -4 17 -16c0 -43 -5 -163 -5 -435c0 -28 23 -38 67 -41v-34h-232zM-9 645c0 7 21 72 55 72c14 0 58 -25 58 -61c0 -34 -37 -72 -58 -72s-55 48 -55 61zM178 645c0 7 22 72 55 72
c15 0 59 -25 59 -61c0 -34 -38 -72 -59 -72s-55 48 -55 61z" />
    <glyph glyph-name="ntilde" unicode="&#xf1;" horiz-adv-x="563" 
d="M152 602c19 28 90 99 110 99c30 0 59 -35 126 -53c24 7 47 24 67 43l15 -12c-19 -28 -80 -91 -100 -91c-34 0 -88 53 -126 53c-24 -7 -59 -34 -79 -53zM32 493c73 8 108 34 135 34c18 0 24 -12 24 -53v-14c83 47 144 65 188 65c86 0 108 -68 108 -117v-334
c0 -27 5 -37 53 -40v-34h-204v34c54 4 57 16 57 44v317c0 53 -50 57 -88 57c-24 0 -83 -18 -111 -37c-3 -146 -7 -236 -7 -291c0 -86 11 -87 59 -90v-34h-210v34c59 9 62 12 62 116c0 5 -5 265 -7 272c-8 32 -24 30 -56 33z" />
    <glyph glyph-name="ograve" unicode="&#xf2;" horiz-adv-x="517" 
d="M113 715c1 24 29 45 57 45c32 -40 100 -124 153 -180l-16 -21c-57 37 -157 121 -194 156zM30 260c0 70 25 129 41 155c37 58 149 111 205 111c105 0 215 -62 215 -232c0 -87 -11 -140 -44 -190c-6 -8 -61 -80 -115 -104c-27 -12 -56 -17 -91 -17c-85 0 -211 38 -211 277z
M125 268c0 -170 65 -214 162 -214c16 0 33 1 44 5c31 12 69 56 69 208c0 114 -27 158 -100 181c-16 4 -34 7 -54 7c-61 0 -121 0 -121 -187z" />
    <glyph glyph-name="oacute" unicode="&#xf3;" horiz-adv-x="517" 
d="M211 579c53 56 121 140 153 180c28 0 56 -21 58 -45c-38 -35 -138 -119 -194 -156zM30 260c0 70 25 129 41 155c37 58 149 111 205 111c105 0 215 -62 215 -232c0 -87 -11 -140 -44 -190c-6 -8 -61 -80 -115 -104c-27 -12 -56 -17 -91 -17c-85 0 -211 38 -211 277z
M125 268c0 -170 65 -214 162 -214c16 0 33 1 44 5c31 12 69 56 69 208c0 114 -27 158 -100 181c-16 4 -34 7 -54 7c-61 0 -121 0 -121 -187z" />
    <glyph glyph-name="ocircumflex" unicode="&#xf4;" horiz-adv-x="517" 
d="M150 581c46 67 101 154 111 171h40c9 -17 65 -121 97 -169l-16 -13l-113 106l-99 -108zM30 260c0 70 25 129 41 155c37 58 149 111 205 111c105 0 215 -62 215 -232c0 -87 -11 -140 -44 -190c-6 -8 -61 -80 -115 -104c-27 -12 -56 -17 -91 -17c-85 0 -211 38 -211 277z
M125 268c0 -170 65 -214 162 -214c16 0 33 1 44 5c31 12 69 56 69 208c0 114 -27 158 -100 181c-16 4 -34 7 -54 7c-61 0 -121 0 -121 -187z" />
    <glyph glyph-name="otilde" unicode="&#xf5;" horiz-adv-x="517" 
d="M109 602c19 28 90 99 110 99c30 0 59 -35 126 -53c24 7 47 24 67 43l15 -12c-19 -28 -80 -91 -100 -91c-34 0 -88 53 -126 53c-24 -7 -59 -34 -79 -53zM30 260c0 70 25 129 41 155c37 58 149 111 205 111c105 0 215 -62 215 -232c0 -87 -11 -140 -44 -190
c-6 -8 -61 -80 -115 -104c-27 -12 -56 -17 -91 -17c-85 0 -211 38 -211 277zM125 268c0 -170 65 -214 162 -214c16 0 33 1 44 5c31 12 69 56 69 208c0 114 -27 158 -100 181c-16 4 -34 7 -54 7c-61 0 -121 0 -121 -187z" />
    <glyph glyph-name="odieresis" unicode="&#xf6;" horiz-adv-x="517" 
d="M122 645c0 7 21 72 55 72c14 0 58 -25 58 -61c0 -34 -37 -72 -58 -72s-55 48 -55 61zM309 645c0 7 22 72 55 72c15 0 59 -25 59 -61c0 -34 -38 -72 -59 -72s-55 48 -55 61zM30 260c0 70 25 129 41 155c37 58 149 111 205 111c105 0 215 -62 215 -232
c0 -87 -11 -140 -44 -190c-6 -8 -61 -80 -115 -104c-27 -12 -56 -17 -91 -17c-85 0 -211 38 -211 277zM125 268c0 -170 65 -214 162 -214c16 0 33 1 44 5c31 12 69 56 69 208c0 114 -27 158 -100 181c-16 4 -34 7 -54 7c-61 0 -121 0 -121 -187z" />
    <glyph glyph-name="oslash" unicode="&#xf8;" horiz-adv-x="517" 
d="M30 260c0 70 25 129 41 155c37 58 149 111 205 111c30 0 62 -6 90 -17l32 64l35 -19l-32 -64c52 -35 90 -97 90 -196c0 -87 -11 -140 -44 -190c-6 -8 -61 -80 -115 -104c-27 -12 -56 -17 -91 -17c-26 0 -56 4 -85 15l-30 -61l-34 18l30 61c-51 36 -92 107 -92 244z
M125 268c0 -81 14 -133 40 -166l165 334l-30 12c-16 4 -34 7 -54 7c-61 0 -121 0 -121 -187zM195 75c25 -16 56 -21 92 -21c16 0 33 1 44 5c31 12 69 56 69 208c0 72 -11 116 -38 145z" />
    <glyph glyph-name="ugrave" unicode="&#xf9;" horiz-adv-x="556" 
d="M124 715c1 24 29 45 57 45c32 -40 100 -124 153 -180l-16 -21c-57 37 -157 121 -194 156zM22 498c88 10 131 27 142 27c8 0 18 -3 18 -15c0 -109 -4 -230 -4 -292c0 -45 2 -80 10 -102c10 -29 41 -46 60 -46c28 0 83 12 102 22c39 20 41 25 41 56c0 116 2 190 2 237
c0 83 -6 83 -38 83h-32l-2 33c99 10 139 24 150 24c8 0 18 -3 18 -15c0 -217 -8 -310 -8 -383c0 -43 45 -84 45 -102c0 -4 -2 -6 -9 -8c0 0 -70 -23 -77 -23c-22 0 -36 60 -42 72c-92 -65 -166 -75 -185 -75c-47 0 -99 42 -114 101c-5 16 -10 82 -10 124v95
c0 156 -5 152 -65 153z" />
    <glyph glyph-name="uacute" unicode="&#xfa;" horiz-adv-x="556" 
d="M222 579c53 56 121 140 153 180c28 0 56 -21 58 -45c-38 -35 -138 -119 -194 -156zM22 498c88 10 131 27 142 27c8 0 18 -3 18 -15c0 -109 -4 -230 -4 -292c0 -45 2 -80 10 -102c10 -29 41 -46 60 -46c28 0 83 12 102 22c39 20 41 25 41 56c0 116 2 190 2 237
c0 83 -6 83 -38 83h-32l-2 33c99 10 139 24 150 24c8 0 18 -3 18 -15c0 -217 -8 -310 -8 -383c0 -43 45 -84 45 -102c0 -4 -2 -6 -9 -8c0 0 -70 -23 -77 -23c-22 0 -36 60 -42 72c-92 -65 -166 -75 -185 -75c-47 0 -99 42 -114 101c-5 16 -10 82 -10 124v95
c0 156 -5 152 -65 153z" />
    <glyph glyph-name="ucircumflex" unicode="&#xfb;" horiz-adv-x="556" 
d="M161 581c46 67 101 154 111 171h40c9 -17 65 -121 97 -169l-16 -13l-113 106l-99 -108zM22 498c88 10 131 27 142 27c8 0 18 -3 18 -15c0 -109 -4 -230 -4 -292c0 -45 2 -80 10 -102c10 -29 41 -46 60 -46c28 0 83 12 102 22c39 20 41 25 41 56c0 116 2 190 2 237
c0 83 -6 83 -38 83h-32l-2 33c99 10 139 24 150 24c8 0 18 -3 18 -15c0 -217 -8 -310 -8 -383c0 -43 45 -84 45 -102c0 -4 -2 -6 -9 -8c0 0 -70 -23 -77 -23c-22 0 -36 60 -42 72c-92 -65 -166 -75 -185 -75c-47 0 -99 42 -114 101c-5 16 -10 82 -10 124v95
c0 156 -5 152 -65 153z" />
    <glyph glyph-name="udieresis" unicode="&#xfc;" horiz-adv-x="556" 
d="M133 645c0 7 21 72 55 72c14 0 58 -25 58 -61c0 -34 -37 -72 -58 -72s-55 48 -55 61zM320 645c0 7 22 72 55 72c15 0 59 -25 59 -61c0 -34 -38 -72 -59 -72s-55 48 -55 61zM22 498c88 10 131 27 142 27c8 0 18 -3 18 -15c0 -109 -4 -230 -4 -292c0 -45 2 -80 10 -102
c10 -29 41 -46 60 -46c28 0 83 12 102 22c39 20 41 25 41 56c0 116 2 190 2 237c0 83 -6 83 -38 83h-32l-2 33c99 10 139 24 150 24c8 0 18 -3 18 -15c0 -217 -8 -310 -8 -383c0 -43 45 -84 45 -102c0 -4 -2 -6 -9 -8c0 0 -70 -23 -77 -23c-22 0 -36 60 -42 72
c-92 -65 -166 -75 -185 -75c-47 0 -99 42 -114 101c-5 16 -10 82 -10 124v95c0 156 -5 152 -65 153z" />
    <glyph glyph-name="yacute" unicode="&#xfd;" horiz-adv-x="492" 
d="M207 579c53 56 121 140 153 180c28 0 56 -21 58 -45c-38 -35 -138 -119 -194 -156zM0 501c88 11 132 28 143 28c8 0 17 -3 17 -15c0 -32 105 -409 105 -409c102 272 106 325 106 341c0 44 -36 13 -36 47c0 15 16 18 34 18c15 0 32 -2 43 -2c30 0 49 4 66 4
c11 0 14 -8 14 -15c0 -15 -19 -6 -121 -257c-178 -443 -144 -449 -178 -449c-49 0 -66 12 -66 29c0 37 71 103 71 160c0 43 -104 429 -139 469c-15 17 -31 15 -57 18z" />
    <glyph glyph-name="ydieresis" unicode="&#xff;" horiz-adv-x="492" 
d="M118 645c0 7 21 72 55 72c14 0 58 -25 58 -61c0 -34 -37 -72 -58 -72s-55 48 -55 61zM305 645c0 7 22 72 55 72c15 0 59 -25 59 -61c0 -34 -38 -72 -59 -72s-55 48 -55 61zM0 501c88 11 132 28 143 28c8 0 17 -3 17 -15c0 -32 105 -409 105 -409c102 272 106 325 106 341
c0 44 -36 13 -36 47c0 15 16 18 34 18c15 0 32 -2 43 -2c30 0 49 4 66 4c11 0 14 -8 14 -15c0 -15 -19 -6 -121 -257c-178 -443 -144 -449 -178 -449c-49 0 -66 12 -66 29c0 37 71 103 71 160c0 43 -104 429 -139 469c-15 17 -31 15 -57 18z" />
    <glyph glyph-name="Amacron" unicode="&#x100;" horiz-adv-x="755" 
d="M251 830l13 61h237l-12 -61h-238zM0 0v36c60 6 71 17 134 174l208 520c11 8 61 13 68 13c0 0 256 -633 263 -647c16 -28 32 -53 82 -60v-36h-286v34c36 3 89 11 89 44c0 20 -8 45 -21 75l-19 44c-7 16 -14 33 -21 52h-289c-22 -49 -62 -151 -62 -166c0 -33 47 -40 90 -44
v-39h-236zM222 292h262l-133 329z" />
    <glyph glyph-name="amacron" unicode="&#x101;" horiz-adv-x="478" 
d="M120 602l13 61h237l-12 -61h-238zM40 121c0 169 130 161 282 195c0 24 1 48 1 60c0 68 -62 86 -109 86c-71 0 -81 -30 -107 -124l-41 4c4 34 -16 184 193 184c154 0 156 -85 156 -134c0 -132 -4 -213 -4 -264c0 -43 45 -84 45 -102c0 -4 -2 -6 -9 -8c0 0 -70 -23 -77 -23
c-22 0 -36 60 -42 72c-86 -56 -97 -77 -190 -77c-76 0 -98 68 -98 131zM130 131c0 -53 29 -74 67 -74c37 0 83 20 119 50c7 6 7 46 7 85c0 26 0 55 -1 85c-168 -56 -192 -52 -192 -146z" />
    <glyph glyph-name="Abreve" unicode="&#x102;" horiz-adv-x="755" 
d="M249 914l55 25l12 -12c23 -42 50 -61 78 -61c34 0 68 28 96 75l31 -14c-42 -84 -96 -119 -146 -119c-53 0 -102 41 -126 106zM0 0v36c60 6 71 17 134 174l208 520c11 8 61 13 68 13c0 0 256 -633 263 -647c16 -28 32 -53 82 -60v-36h-286v34c36 3 89 11 89 44
c0 20 -8 45 -21 75l-19 44c-7 16 -14 33 -21 52h-289c-22 -49 -62 -151 -62 -166c0 -33 47 -40 90 -44v-39h-236zM222 292h262l-133 329z" />
    <glyph glyph-name="abreve" unicode="&#x103;" horiz-adv-x="478" 
d="M118 686l55 25l12 -12c23 -42 50 -61 78 -61c34 0 68 28 96 75l31 -14c-42 -84 -96 -119 -146 -119c-53 0 -102 41 -126 106zM40 121c0 169 130 161 282 195c0 24 1 48 1 60c0 68 -62 86 -109 86c-71 0 -81 -30 -107 -124l-41 4c4 34 -16 184 193 184
c154 0 156 -85 156 -134c0 -132 -4 -213 -4 -264c0 -43 45 -84 45 -102c0 -4 -2 -6 -9 -8c0 0 -70 -23 -77 -23c-22 0 -36 60 -42 72c-86 -56 -97 -77 -190 -77c-76 0 -98 68 -98 131zM130 131c0 -53 29 -74 67 -74c37 0 83 20 119 50c7 6 7 46 7 85c0 26 0 55 -1 85
c-168 -56 -192 -52 -192 -146z" />
    <glyph glyph-name="Cacute" unicode="&#x106;" horiz-adv-x="675" 
d="M335 827c62 45 144 116 182 150c26 -4 49 -28 49 -50v-4c-43 -28 -156 -93 -218 -120zM42 366c0 80 11 150 35 206c21 49 108 156 236 173c29 4 77 7 117 7c72 0 151 -12 182 -29l11 -11c0 -10 -8 -162 -9 -176h-35c-8 28 -33 107 -33 109c-3 10 -7 20 -16 26
c-58 15 -104 19 -149 19c-195 0 -239 -85 -239 -328c0 -63 5 -212 133 -290c32 -19 74 -34 126 -34c57 0 106 20 147 51c4 7 19 51 29 89l14 54h37c-4 -41 -4 -189 -4 -199c-65 -24 -155 -50 -248 -50c-190 0 -334 89 -334 383z" />
    <glyph glyph-name="cacute" unicode="&#x107;" horiz-adv-x="441" 
d="M186 579c53 56 121 140 153 180c28 0 56 -21 58 -45c-38 -35 -138 -119 -194 -156zM30 240c0 53 3 94 13 143c5 23 30 49 35 53c97 89 137 89 182 89c60 0 126 -17 136 -21c-2 -20 -3 -140 -3 -150h-30s-10 44 -16 64c-7 25 -71 38 -128 38c-80 0 -100 -42 -100 -184
c0 -118 20 -209 136 -209c67 0 137 71 137 71l21 -20c-48 -53 -100 -128 -191 -128c-31 0 -67 8 -108 30c-33 30 -50 58 -70 104c-8 34 -14 75 -14 120z" />
    <glyph glyph-name="Ccircumflex" unicode="&#x108;" horiz-adv-x="675" 
d="M293 811c46 48 67 75 102 123h40c39 -57 59 -80 98 -122l-19 -17l-103 68l-100 -70zM42 366c0 80 11 150 35 206c21 49 108 156 236 173c29 4 77 7 117 7c72 0 151 -12 182 -29l11 -11c0 -10 -8 -162 -9 -176h-35c-8 28 -33 107 -33 109c-3 10 -7 20 -16 26
c-58 15 -104 19 -149 19c-195 0 -239 -85 -239 -328c0 -63 5 -212 133 -290c32 -19 74 -34 126 -34c57 0 106 20 147 51c4 7 19 51 29 89l14 54h37c-4 -41 -4 -189 -4 -199c-65 -24 -155 -50 -248 -50c-190 0 -334 89 -334 383z" />
    <glyph glyph-name="ccircumflex" unicode="&#x109;" horiz-adv-x="441" 
d="M125 581c46 67 101 154 111 171h40c9 -17 65 -121 97 -169l-16 -13l-113 106l-99 -108zM30 240c0 53 3 94 13 143c5 23 30 49 35 53c97 89 137 89 182 89c60 0 126 -17 136 -21c-2 -20 -3 -140 -3 -150h-30s-10 44 -16 64c-7 25 -71 38 -128 38c-80 0 -100 -42 -100 -184
c0 -118 20 -209 136 -209c67 0 137 71 137 71l21 -20c-48 -53 -100 -128 -191 -128c-31 0 -67 8 -108 30c-33 30 -50 58 -70 104c-8 34 -14 75 -14 120z" />
    <glyph glyph-name="Cdotaccent" unicode="&#x10a;" horiz-adv-x="675" 
d="M350 873c0 7 21 72 54 72c15 0 59 -25 59 -61c0 -34 -37 -71 -59 -71c-20 0 -54 48 -54 60zM42 366c0 80 11 150 35 206c21 49 108 156 236 173c29 4 77 7 117 7c72 0 151 -12 182 -29l11 -11c0 -10 -8 -162 -9 -176h-35c-8 28 -33 107 -33 109c-3 10 -7 20 -16 26
c-58 15 -104 19 -149 19c-195 0 -239 -85 -239 -328c0 -63 5 -212 133 -290c32 -19 74 -34 126 -34c57 0 106 20 147 51c4 7 19 51 29 89l14 54h37c-4 -41 -4 -189 -4 -199c-65 -24 -155 -50 -248 -50c-190 0 -334 89 -334 383z" />
    <glyph glyph-name="cdotaccent" unicode="&#x10b;" horiz-adv-x="441" 
d="M186 645c0 7 21 72 54 72c15 0 59 -25 59 -61c0 -34 -37 -71 -59 -71c-20 0 -54 48 -54 60zM30 240c0 53 3 94 13 143c5 23 30 49 35 53c97 89 137 89 182 89c60 0 126 -17 136 -21c-2 -20 -3 -140 -3 -150h-30s-10 44 -16 64c-7 25 -71 38 -128 38
c-80 0 -100 -42 -100 -184c0 -118 20 -209 136 -209c67 0 137 71 137 71l21 -20c-48 -53 -100 -128 -191 -128c-31 0 -67 8 -108 30c-33 30 -50 58 -70 104c-8 34 -14 75 -14 120z" />
    <glyph glyph-name="Ccaron" unicode="&#x10c;" horiz-adv-x="675" 
d="M294 906l24 27l98 -68l99 68l15 -17c-40 -42 -91 -103 -104 -122h-40c-15 21 -57 73 -92 112zM42 366c0 80 11 150 35 206c21 49 108 156 236 173c29 4 77 7 117 7c72 0 151 -12 182 -29l11 -11c0 -10 -8 -162 -9 -176h-35c-8 28 -33 107 -33 109c-3 10 -7 20 -16 26
c-58 15 -104 19 -149 19c-195 0 -239 -85 -239 -328c0 -63 5 -212 133 -290c32 -19 74 -34 126 -34c57 0 106 20 147 51c4 7 19 51 29 89l14 54h37c-4 -41 -4 -189 -4 -199c-65 -24 -155 -50 -248 -50c-190 0 -334 89 -334 383z" />
    <glyph glyph-name="ccaron" unicode="&#x10d;" horiz-adv-x="441" 
d="M115 716l27 32l113 -106l124 108l12 -18c-52 -64 -114 -148 -128 -166h-40c-12 21 -72 102 -108 150zM30 240c0 53 3 94 13 143c5 23 30 49 35 53c97 89 137 89 182 89c60 0 126 -17 136 -21c-2 -20 -3 -140 -3 -150h-30s-10 44 -16 64c-7 25 -71 38 -128 38
c-80 0 -100 -42 -100 -184c0 -118 20 -209 136 -209c67 0 137 71 137 71l21 -20c-48 -53 -100 -128 -191 -128c-31 0 -67 8 -108 30c-33 30 -50 58 -70 104c-8 34 -14 75 -14 120z" />
    <glyph glyph-name="Dcaron" unicode="&#x10e;" horiz-adv-x="776" 
d="M283 906l24 27l98 -68l99 68l15 -17c-40 -42 -91 -103 -104 -122h-40c-15 21 -57 73 -92 112zM29 0v37c50 3 90 8 90 46c0 8 -1 379 -7 578c-1 32 -22 36 -69 39l-14 1v37c27 -2 86 -4 139 -4c164 0 166 10 233 10h21c217 0 313 -102 313 -335
c0 -313 -196 -415 -337 -415h-21c-54 0 -140 10 -209 10c-53 0 -112 -2 -139 -4zM216 140c0 -67 39 -84 198 -84c106 0 138 44 178 116c23 41 40 110 40 205c0 218 -83 317 -268 317c-64 0 -108 -4 -129 -11l-11 -11c-4 -106 -8 -479 -8 -532z" />
    <glyph glyph-name="dcaron" unicode="&#x10f;" horiz-adv-x="644" 
d="M526 710c6 19 28 69 50 88c30 -16 55 -30 78 -62c0 -18 -22 -124 -86 -192l-24 14c31 46 42 84 42 101c0 22 -26 38 -44 45zM30 242c0 190 48 216 87 240l34 20c20 12 48 26 100 26c27 0 63 -4 106 -14c0 68 -2 116 -2 150c0 77 -3 75 -70 77l-2 33c99 9 140 24 151 24
c7 0 17 -4 17 -16c0 -372 -7 -510 -7 -653c0 -44 51 -92 51 -103c0 -7 -35 -15 -45 -19c-25 -11 -39 -17 -47 -17c-18 0 -32 66 -44 78c-45 -50 -86 -83 -133 -83c-50 0 -196 61 -196 257zM118 280c0 -147 66 -209 137 -209c36 0 73 16 103 45c0 293 -3 261 -3 326
c-27 16 -75 28 -118 28c-69 0 -119 -16 -119 -190z" />
    <glyph glyph-name="Emacron" unicode="&#x112;" horiz-adv-x="640" 
d="M209 830l13 61h237l-12 -61h-238zM29 0v37c50 3 90 8 90 46c1 32 4 177 4 330c0 86 -1 175 -4 248c-1 32 -22 36 -68 39l-14 1v37c27 -2 86 -4 138 -4c45 0 95 1 125 3c5 0 263 1 263 1l12 -11c-3 -11 -26 -171 -27 -185h-34c-5 27 -21 106 -22 108c-3 10 -6 19 -16 26
c-13 3 -22 4 -37 6c-24 3 -82 3 -126 3c-57 0 -81 -5 -82 -34c-2 -58 -3 -152 -4 -238c59 0 225 4 246 5l-10 -74h-17c-41 30 -191 23 -220 26c-2 -148 -2 -278 -2 -287c0 -33 47 -39 167 -39c27 0 94 3 105 12c25 22 41 84 51 122l14 54h37c-4 -41 -9 -222 -9 -232h-560z
" />
    <glyph glyph-name="emacron" unicode="&#x113;" horiz-adv-x="467" 
d="M122 602l13 61h237l-12 -61h-238zM30 246c0 71 14 134 22 153c19 43 114 124 191 124c204 0 192 -173 193 -242c-26 -16 -63 -20 -105 -20h-205c0 -99 1 -199 130 -199c61 0 110 23 159 71l22 -23c-58 -59 -114 -125 -201 -125c-168 0 -206 142 -206 261zM128 306h57
c82 0 134 1 158 18c0 46 -14 134 -104 134c-96 0 -111 -47 -111 -152z" />
    <glyph glyph-name="Ebreve" unicode="&#x114;" horiz-adv-x="640" 
d="M207 914l55 25l12 -12c23 -42 50 -61 78 -61c34 0 68 28 96 75l31 -14c-42 -84 -96 -119 -146 -119c-53 0 -102 41 -126 106zM29 0v37c50 3 90 8 90 46c1 32 4 177 4 330c0 86 -1 175 -4 248c-1 32 -22 36 -68 39l-14 1v37c27 -2 86 -4 138 -4c45 0 95 1 125 3
c5 0 263 1 263 1l12 -11c-3 -11 -26 -171 -27 -185h-34c-5 27 -21 106 -22 108c-3 10 -6 19 -16 26c-13 3 -22 4 -37 6c-24 3 -82 3 -126 3c-57 0 -81 -5 -82 -34c-2 -58 -3 -152 -4 -238c59 0 225 4 246 5l-10 -74h-17c-41 30 -191 23 -220 26c-2 -148 -2 -278 -2 -287
c0 -33 47 -39 167 -39c27 0 94 3 105 12c25 22 41 84 51 122l14 54h37c-4 -41 -9 -222 -9 -232h-560z" />
    <glyph glyph-name="ebreve" unicode="&#x115;" horiz-adv-x="467" 
d="M120 686l55 25l12 -12c23 -42 50 -61 78 -61c34 0 68 28 96 75l31 -14c-42 -84 -96 -119 -146 -119c-53 0 -102 41 -126 106zM30 246c0 71 14 134 22 153c19 43 114 124 191 124c204 0 192 -173 193 -242c-26 -16 -63 -20 -105 -20h-205c0 -99 1 -199 130 -199
c61 0 110 23 159 71l22 -23c-58 -59 -114 -125 -201 -125c-168 0 -206 142 -206 261zM128 306h57c82 0 134 1 158 18c0 46 -14 134 -104 134c-96 0 -111 -47 -111 -152z" />
    <glyph glyph-name="Edotaccent" unicode="&#x116;" horiz-adv-x="640" 
d="M278 873c0 7 21 72 54 72c15 0 59 -25 59 -61c0 -34 -37 -71 -59 -71c-20 0 -54 48 -54 60zM29 0v37c50 3 90 8 90 46c1 32 4 177 4 330c0 86 -1 175 -4 248c-1 32 -22 36 -68 39l-14 1v37c27 -2 86 -4 138 -4c45 0 95 1 125 3c5 0 263 1 263 1l12 -11
c-3 -11 -26 -171 -27 -185h-34c-5 27 -21 106 -22 108c-3 10 -6 19 -16 26c-13 3 -22 4 -37 6c-24 3 -82 3 -126 3c-57 0 -81 -5 -82 -34c-2 -58 -3 -152 -4 -238c59 0 225 4 246 5l-10 -74h-17c-41 30 -191 23 -220 26c-2 -148 -2 -278 -2 -287c0 -33 47 -39 167 -39
c27 0 94 3 105 12c25 22 41 84 51 122l14 54h37c-4 -41 -9 -222 -9 -232h-560z" />
    <glyph glyph-name="edotaccent" unicode="&#x117;" horiz-adv-x="467" 
d="M191 645c0 7 21 72 54 72c15 0 59 -25 59 -61c0 -34 -37 -71 -59 -71c-20 0 -54 48 -54 60zM30 246c0 71 14 134 22 153c19 43 114 124 191 124c204 0 192 -173 193 -242c-26 -16 -63 -20 -105 -20h-205c0 -99 1 -199 130 -199c61 0 110 23 159 71l22 -23
c-58 -59 -114 -125 -201 -125c-168 0 -206 142 -206 261zM128 306h57c82 0 134 1 158 18c0 46 -14 134 -104 134c-96 0 -111 -47 -111 -152z" />
    <glyph glyph-name="Ecaron" unicode="&#x11a;" horiz-adv-x="640" 
d="M222 906l24 27l98 -68l99 68l15 -17c-40 -42 -91 -103 -104 -122h-40c-15 21 -57 73 -92 112zM29 0v37c50 3 90 8 90 46c1 32 4 177 4 330c0 86 -1 175 -4 248c-1 32 -22 36 -68 39l-14 1v37c27 -2 86 -4 138 -4c45 0 95 1 125 3c5 0 263 1 263 1l12 -11
c-3 -11 -26 -171 -27 -185h-34c-5 27 -21 106 -22 108c-3 10 -6 19 -16 26c-13 3 -22 4 -37 6c-24 3 -82 3 -126 3c-57 0 -81 -5 -82 -34c-2 -58 -3 -152 -4 -238c59 0 225 4 246 5l-10 -74h-17c-41 30 -191 23 -220 26c-2 -148 -2 -278 -2 -287c0 -33 47 -39 167 -39
c27 0 94 3 105 12c25 22 41 84 51 122l14 54h37c-4 -41 -9 -222 -9 -232h-560z" />
    <glyph glyph-name="ecaron" unicode="&#x11b;" horiz-adv-x="467" 
d="M120 716l27 32l113 -106l124 108l12 -18c-52 -64 -114 -148 -128 -166h-40c-12 21 -72 102 -108 150zM30 246c0 71 14 134 22 153c19 43 114 124 191 124c204 0 192 -173 193 -242c-26 -16 -63 -20 -105 -20h-205c0 -99 1 -199 130 -199c61 0 110 23 159 71l22 -23
c-58 -59 -114 -125 -201 -125c-168 0 -206 142 -206 261zM128 306h57c82 0 134 1 158 18c0 46 -14 134 -104 134c-96 0 -111 -47 -111 -152z" />
    <glyph glyph-name="Gcircumflex" unicode="&#x11c;" horiz-adv-x="757" 
d="M299 811c46 48 67 75 102 123h40c39 -57 59 -80 98 -122l-19 -17l-103 68l-100 -70zM42 366c0 80 11 150 35 206c21 49 108 156 236 173c29 4 77 7 117 7c72 0 192 -12 222 -29l12 -11c0 -10 -8 -162 -9 -176h-35c-7 24 -32 105 -36 115c-22 14 -104 39 -202 39
c-196 0 -240 -85 -240 -328c0 -165 57 -314 286 -314c72 0 115 13 147 43v139c0 33 -41 37 -82 40l-25 2l-1 34c27 -2 103 -4 156 -4s94 2 121 4v-37l-14 -1c-47 -3 -61 -12 -61 -31v-186l-11 -11c-65 -23 -189 -57 -282 -57c-190 0 -334 89 -334 383z" />
    <glyph glyph-name="gcircumflex" unicode="&#x11d;" horiz-adv-x="475" 
d="M133 581c46 67 101 154 111 171h40c9 -17 65 -121 97 -169l-16 -13l-113 106l-99 -108zM10 -83c0 32 8 83 128 134c-50 7 -79 25 -79 54c0 15 3 46 89 72c-67 30 -92 57 -104 122c-1 4 -1 11 -1 19c0 25 4 63 17 92c13 27 99 114 204 114c22 0 64 -3 108 -40
c26 1 67 6 97 13l6 -6v-42h-79c11 -16 20 -71 20 -102c0 -56 -16 -92 -58 -131c-36 -21 -74 -35 -126 -46c-55 -14 -82 -32 -82 -57c0 -19 18 -34 43 -34h119c5 0 71 -2 91 -10c28 -11 72 -54 72 -106c0 -67 -65 -167 -260 -167c-77 0 -205 24 -205 121zM96 -54
c0 -64 76 -111 136 -111c103 0 147 52 147 119c0 39 -27 76 -117 76c-98 0 -166 -20 -166 -84zM135 324c0 -58 33 -104 101 -104c65 0 85 28 85 124c0 89 -22 109 -98 118c-5 1 -10 1 -14 1c-45 0 -74 -29 -74 -139z" />
    <glyph glyph-name="Gbreve" unicode="&#x11e;" horiz-adv-x="757" 
d="M285 914l55 25l12 -12c23 -42 50 -61 78 -61c34 0 68 28 96 75l31 -14c-42 -84 -96 -119 -146 -119c-53 0 -102 41 -126 106zM42 366c0 80 11 150 35 206c21 49 108 156 236 173c29 4 77 7 117 7c72 0 192 -12 222 -29l12 -11c0 -10 -8 -162 -9 -176h-35
c-7 24 -32 105 -36 115c-22 14 -104 39 -202 39c-196 0 -240 -85 -240 -328c0 -165 57 -314 286 -314c72 0 115 13 147 43v139c0 33 -41 37 -82 40l-25 2l-1 34c27 -2 103 -4 156 -4s94 2 121 4v-37l-14 -1c-47 -3 -61 -12 -61 -31v-186l-11 -11c-65 -23 -189 -57 -282 -57
c-190 0 -334 89 -334 383z" />
    <glyph glyph-name="gbreve" unicode="&#x11f;" horiz-adv-x="475" 
d="M123 686l55 25l12 -12c23 -42 50 -61 78 -61c34 0 68 28 96 75l31 -14c-42 -84 -96 -119 -146 -119c-53 0 -102 41 -126 106zM10 -83c0 32 8 83 128 134c-50 7 -79 25 -79 54c0 15 3 46 89 72c-67 30 -92 57 -104 122c-1 4 -1 11 -1 19c0 25 4 63 17 92
c13 27 99 114 204 114c22 0 64 -3 108 -40c26 1 67 6 97 13l6 -6v-42h-79c11 -16 20 -71 20 -102c0 -56 -16 -92 -58 -131c-36 -21 -74 -35 -126 -46c-55 -14 -82 -32 -82 -57c0 -19 18 -34 43 -34h119c5 0 71 -2 91 -10c28 -11 72 -54 72 -106c0 -67 -65 -167 -260 -167
c-77 0 -205 24 -205 121zM96 -54c0 -64 76 -111 136 -111c103 0 147 52 147 119c0 39 -27 76 -117 76c-98 0 -166 -20 -166 -84zM135 324c0 -58 33 -104 101 -104c65 0 85 28 85 124c0 89 -22 109 -98 118c-5 1 -10 1 -14 1c-45 0 -74 -29 -74 -139z" />
    <glyph glyph-name="Gdotaccent" unicode="&#x120;" horiz-adv-x="757" 
d="M356 873c0 7 21 72 54 72c15 0 59 -25 59 -61c0 -34 -37 -71 -59 -71c-20 0 -54 48 -54 60zM42 366c0 80 11 150 35 206c21 49 108 156 236 173c29 4 77 7 117 7c72 0 192 -12 222 -29l12 -11c0 -10 -8 -162 -9 -176h-35c-7 24 -32 105 -36 115c-22 14 -104 39 -202 39
c-196 0 -240 -85 -240 -328c0 -165 57 -314 286 -314c72 0 115 13 147 43v139c0 33 -41 37 -82 40l-25 2l-1 34c27 -2 103 -4 156 -4s94 2 121 4v-37l-14 -1c-47 -3 -61 -12 -61 -31v-186l-11 -11c-65 -23 -189 -57 -282 -57c-190 0 -334 89 -334 383z" />
    <glyph glyph-name="gdotaccent" unicode="&#x121;" horiz-adv-x="475" 
d="M194 645c0 7 21 72 54 72c15 0 59 -25 59 -61c0 -34 -37 -71 -59 -71c-20 0 -54 48 -54 60zM10 -83c0 32 8 83 128 134c-50 7 -79 25 -79 54c0 15 3 46 89 72c-67 30 -92 57 -104 122c-1 4 -1 11 -1 19c0 25 4 63 17 92c13 27 99 114 204 114c22 0 64 -3 108 -40
c26 1 67 6 97 13l6 -6v-42h-79c11 -16 20 -71 20 -102c0 -56 -16 -92 -58 -131c-36 -21 -74 -35 -126 -46c-55 -14 -82 -32 -82 -57c0 -19 18 -34 43 -34h119c5 0 71 -2 91 -10c28 -11 72 -54 72 -106c0 -67 -65 -167 -260 -167c-77 0 -205 24 -205 121zM96 -54
c0 -64 76 -111 136 -111c103 0 147 52 147 119c0 39 -27 76 -117 76c-98 0 -166 -20 -166 -84zM135 324c0 -58 33 -104 101 -104c65 0 85 28 85 124c0 89 -22 109 -98 118c-5 1 -10 1 -14 1c-45 0 -74 -29 -74 -139z" />
    <glyph glyph-name="Hcircumflex" unicode="&#x124;" horiz-adv-x="849" 
d="M311 811c46 48 67 75 102 123h40c39 -57 59 -80 98 -122l-19 -17l-103 68l-100 -70zM29 0v37c50 3 90 8 90 46c0 8 -1 379 -7 578c-1 32 -22 36 -69 39l-14 1v37h277v-37l-14 -1c-47 -3 -68 -7 -69 -39c-1 -54 -3 -150 -4 -248h411c-1 88 -3 178 -5 248
c-1 32 -22 36 -69 39l-14 1v37h277v-37l-14 -1c-47 -3 -68 -7 -69 -39c-5 -143 -7 -569 -7 -578c0 -37 38 -42 90 -46v-37h-277v37c50 3 90 8 90 46c0 5 0 138 -2 287h-412c-1 -148 -2 -278 -2 -287c0 -37 38 -42 90 -46v-37h-277z" />
    <glyph glyph-name="hcircumflex" unicode="&#x125;" horiz-adv-x="565" 
d="M17 830c46 67 101 154 111 171h40c9 -17 65 -121 97 -169l-16 -13l-113 106l-99 -108zM22 773c98 9 139 24 150 24c8 0 17 -4 17 -15c0 -9 -1 -55 -1 -65l-1 -258c77 43 151 65 192 65c98 0 113 -73 113 -203c0 -60 -3 -131 -3 -212c0 -64 3 -69 51 -75v-34h-190v34
c48 11 50 17 50 97v179c0 118 -9 141 -77 141c-43 0 -110 -23 -136 -40c0 0 -3 -116 -3 -290c0 -71 1 -84 57 -87v-34h-204v34c45 3 59 16 59 42c0 187 1 281 1 468c0 196 -3 196 -73 196z" />
    <glyph glyph-name="Itilde" unicode="&#x128;" horiz-adv-x="335" 
d="M8 830c19 28 90 99 110 99c30 0 59 -35 126 -53c24 7 47 24 67 43l15 -12c-19 -28 -80 -91 -100 -91c-34 0 -88 53 -126 53c-24 -7 -59 -34 -79 -53zM29 0v37c50 3 90 8 90 46c0 8 -1 379 -7 578c-1 32 -22 36 -69 39l-14 1v37h277v-37l-14 -1c-47 -3 -68 -7 -69 -39
c-5 -143 -7 -569 -7 -578c0 -37 38 -42 90 -46v-37h-277z" />
    <glyph glyph-name="itilde" unicode="&#x129;" horiz-adv-x="282" 
d="M-22 602c19 28 90 99 110 99c30 0 59 -35 126 -53c24 7 47 24 67 43l15 -12c-19 -28 -80 -91 -100 -91c-34 0 -88 53 -126 53c-24 -7 -59 -34 -79 -53zM30 0v34c70 5 77 14 77 53v208c0 167 -6 174 -57 174h-15l-2 33c98 9 139 24 150 24c8 0 17 -4 17 -16
c0 -43 -5 -163 -5 -435c0 -28 23 -38 67 -41v-34h-232z" />
    <glyph glyph-name="Imacron" unicode="&#x12a;" horiz-adv-x="335" 
d="M41 830l13 61h237l-12 -61h-238zM29 0v37c50 3 90 8 90 46c0 8 -1 379 -7 578c-1 32 -22 36 -69 39l-14 1v37h277v-37l-14 -1c-47 -3 -68 -7 -69 -39c-5 -143 -7 -569 -7 -578c0 -37 38 -42 90 -46v-37h-277z" />
    <glyph glyph-name="imacron" unicode="&#x12b;" horiz-adv-x="282" 
d="M30 0v34c70 5 77 14 77 53v208c0 167 -6 174 -57 174h-15l-2 33c98 9 139 24 150 24c8 0 17 -4 17 -16c0 -43 -5 -163 -5 -435c0 -28 23 -38 67 -41v-34h-232zM11 602l13 61h237l-12 -61h-238z" />
    <glyph glyph-name="Ibreve" unicode="&#x12c;" horiz-adv-x="335" 
d="M39 914l55 25l12 -12c23 -42 50 -61 78 -61c34 0 68 28 96 75l31 -14c-42 -84 -96 -119 -146 -119c-53 0 -102 41 -126 106zM29 0v37c50 3 90 8 90 46c0 8 -1 379 -7 578c-1 32 -22 36 -69 39l-14 1v37h277v-37l-14 -1c-47 -3 -68 -7 -69 -39c-5 -143 -7 -569 -7 -578
c0 -37 38 -42 90 -46v-37h-277z" />
    <glyph glyph-name="ibreve" unicode="&#x12d;" horiz-adv-x="282" 
d="M9 686l55 25l12 -12c23 -42 50 -61 78 -61c34 0 68 28 96 75l31 -14c-42 -84 -96 -119 -146 -119c-53 0 -102 41 -126 106zM30 0v34c70 5 77 14 77 53v208c0 167 -6 174 -57 174h-15l-2 33c98 9 139 24 150 24c8 0 17 -4 17 -16c0 -43 -5 -163 -5 -435
c0 -28 23 -38 67 -41v-34h-232z" />
    <glyph glyph-name="Idotaccent" unicode="&#x130;" horiz-adv-x="335" 
d="M110 873c0 7 21 72 54 72c15 0 59 -25 59 -61c0 -34 -37 -71 -59 -71c-20 0 -54 48 -54 60zM29 0v37c50 3 90 8 90 46c0 8 -1 379 -7 578c-1 32 -22 36 -69 39l-14 1v37h277v-37l-14 -1c-47 -3 -68 -7 -69 -39c-5 -143 -7 -569 -7 -578c0 -37 38 -42 90 -46v-37h-277z
" />
    <glyph glyph-name="dotlessi" unicode="&#x131;" horiz-adv-x="282" 
d="M30 0v34c70 5 77 14 77 53v208c0 167 -6 174 -57 174h-15l-2 33c98 9 139 24 150 24c8 0 17 -4 17 -16c0 -43 -5 -163 -5 -435c0 -28 23 -38 67 -41v-34h-232z" />
    <glyph glyph-name="IJ" unicode="&#x132;" horiz-adv-x="647" 
d="M335 -162l27 21c66 59 76 108 76 233c0 455 -4 548 -6 569c-2 32 -21 36 -68 39l-14 1v37h277v-37l-15 -1c-46 -3 -68 -7 -68 -39c-2 -181 -10 -622 -16 -653c-14 -87 -73 -145 -129 -178l-44 -24zM29 0v37c50 3 90 8 90 46c0 8 -1 379 -7 578c-1 32 -22 36 -69 39l-14 1
v37h277v-37l-14 -1c-47 -3 -68 -7 -69 -39c-5 -143 -7 -569 -7 -578c0 -37 38 -42 90 -46v-37h-277z" />
    <glyph glyph-name="ij" unicode="&#x133;" horiz-adv-x="534" 
d="M352 665c0 7 22 72 55 72c15 0 59 -25 59 -61c0 -34 -38 -71 -59 -71s-55 47 -55 60zM277 -185c91 114 95 86 95 553c0 88 -9 102 -57 102h-15l-2 33c99 9 139 24 150 24c8 0 17 -4 17 -16c0 -564 -4 -577 -171 -713zM89 665c0 7 21 72 54 72c15 0 59 -25 59 -61
c0 -34 -37 -71 -59 -71c-20 0 -54 47 -54 60zM30 0v34c70 5 77 14 77 53v208c0 167 -6 174 -57 174h-15l-2 33c98 9 139 24 150 24c8 0 17 -4 17 -16c0 -43 -5 -163 -5 -435c0 -28 23 -38 67 -41v-34h-232z" />
    <glyph glyph-name="Jcircumflex" unicode="&#x134;" horiz-adv-x="312" 
d="M39 811c46 48 67 75 102 123h40c39 -57 59 -80 98 -122l-19 -17l-103 68l-100 -70zM0 -162l27 21c66 59 76 108 76 233c0 455 -4 548 -6 569c-2 32 -21 36 -68 39l-14 1v37h277v-37l-15 -1c-46 -3 -68 -7 -68 -39c-2 -181 -10 -622 -16 -653c-14 -87 -73 -145 -129 -178
l-44 -24z" />
    <glyph glyph-name="jcircumflex" unicode="&#x135;" horiz-adv-x="251" 
d="M-11 580c46 67 101 154 111 171h40c9 -17 65 -121 97 -169l-16 -13l-113 106l-99 -108zM-5 -185c91 114 95 86 95 553c0 88 -9 102 -57 102h-15l-2 33c99 9 139 24 150 24c8 0 17 -4 17 -16c0 -564 -4 -577 -171 -713z" />
    <glyph glyph-name="Lacute" unicode="&#x139;" horiz-adv-x="558" 
d="M101 827c62 45 144 116 182 150c26 -4 49 -28 49 -50v-4c-43 -28 -156 -93 -218 -120zM29 0v37c53 4 90 9 90 46c0 24 -1 385 -7 578c-2 32 -22 36 -69 39l-14 1v37h290v-37l-14 -1c-47 -3 -81 -7 -82 -39c-5 -143 -7 -569 -7 -578c0 -23 26 -39 98 -39h21
c15 0 108 1 121 12c25 22 41 84 51 122l14 54h37c-4 -41 -9 -222 -9 -232h-520z" />
    <glyph glyph-name="lacute" unicode="&#x13a;" horiz-adv-x="284" 
d="M84 828c53 56 121 140 153 180c28 0 56 -21 58 -45c-38 -35 -138 -119 -194 -156zM26 0v34c69 13 78 2 78 104v185c0 74 -1 178 -3 329l-1 48c-1 35 -15 39 -56 39h-13l-2 33c99 11 138 26 150 26c8 0 17 -3 17 -15c1 -41 2 -123 2 -206c0 -230 -10 -307 -10 -482
c0 -53 9 -53 74 -61v-34h-236z" />
    <glyph glyph-name="Lcaron" unicode="&#x13d;" horiz-adv-x="586" 
d="M25 0v37c53 4 90 9 90 46c0 24 -1 385 -7 578c-2 32 -22 36 -69 39l-14 1v37h290v-37l-14 -1c-47 -3 -81 -7 -82 -39c-5 -143 -7 -569 -7 -578c0 -23 26 -39 98 -39h21c15 0 108 1 121 12c25 22 41 84 51 122l14 54h37c-4 -41 -9 -222 -9 -232h-520zM338 738
c0 2 32 60 50 60c22 0 64 -68 64 -100c0 -52 -76 -162 -94 -162c-2 0 -15 8 -15 16c0 11 40 44 40 88c0 40 -45 74 -45 98z" />
    <glyph glyph-name="lcaron" unicode="&#x13e;" horiz-adv-x="420" 
d="M26 0v34c69 13 78 2 78 104v185c0 74 -1 178 -3 329l-1 48c-1 35 -15 39 -56 39h-13l-2 33c99 11 138 26 150 26c8 0 17 -3 17 -15c1 -41 2 -123 2 -206c0 -230 -10 -307 -10 -482c0 -53 9 -53 74 -61v-34h-236zM278 738c0 2 32 60 50 60c22 0 64 -68 64 -100
c0 -52 -76 -162 -94 -162c-2 0 -15 8 -15 16c0 11 40 44 40 88c0 40 -45 74 -45 98z" />
    <glyph glyph-name="Nacute" unicode="&#x143;" horiz-adv-x="777" 
d="M326 827c62 45 144 116 182 150c26 -4 49 -28 49 -50v-4c-43 -28 -156 -93 -218 -120zM15 701v37h189c8 -24 185 -261 429 -579c-1 14 -4 219 -4 308c0 50 -3 134 -4 167c-1 43 -4 58 -90 66v38h242v-36c-34 -3 -68 -8 -81 -27c-3 -5 -6 -31 -6 -31
c-4 -139 -7 -471 -7 -480c0 -42 2 -164 2 -164h-59c-50 77 -53 75 -462 597v-307s5 -191 5 -207c0 -33 42 -40 86 -44v-39h-236v36c43 4 79 12 83 44c5 36 7 149 7 370v32c0 69 -1 182 -1 185c-2 12 -8 25 -43 29z" />
    <glyph glyph-name="nacute" unicode="&#x144;" horiz-adv-x="563" 
d="M254 579c53 56 121 140 153 180c28 0 56 -21 58 -45c-38 -35 -138 -119 -194 -156zM32 493c73 8 108 34 135 34c18 0 24 -12 24 -53v-14c83 47 144 65 188 65c86 0 108 -68 108 -117v-334c0 -27 5 -37 53 -40v-34h-204v34c54 4 57 16 57 44v317c0 53 -50 57 -88 57
c-24 0 -83 -18 -111 -37c-3 -146 -7 -236 -7 -291c0 -86 11 -87 59 -90v-34h-210v34c59 9 62 12 62 116c0 5 -5 265 -7 272c-8 32 -24 30 -56 33z" />
    <glyph glyph-name="Ncaron" unicode="&#x147;" horiz-adv-x="777" 
d="M285 906l24 27l98 -68l99 68l15 -17c-40 -42 -91 -103 -104 -122h-40c-15 21 -57 73 -92 112zM15 701v37h189c8 -24 185 -261 429 -579c-1 14 -4 219 -4 308c0 50 -3 134 -4 167c-1 43 -4 58 -90 66v38h242v-36c-34 -3 -68 -8 -81 -27c-3 -5 -6 -31 -6 -31
c-4 -139 -7 -471 -7 -480c0 -42 2 -164 2 -164h-59c-50 77 -53 75 -462 597v-307s5 -191 5 -207c0 -33 42 -40 86 -44v-39h-236v36c43 4 79 12 83 44c5 36 7 149 7 370v32c0 69 -1 182 -1 185c-2 12 -8 25 -43 29z" />
    <glyph glyph-name="ncaron" unicode="&#x148;" horiz-adv-x="563" 
d="M183 716l27 32l113 -106l124 108l12 -18c-52 -64 -114 -148 -128 -166h-40c-12 21 -72 102 -108 150zM32 493c73 8 108 34 135 34c18 0 24 -12 24 -53v-14c83 47 144 65 188 65c86 0 108 -68 108 -117v-334c0 -27 5 -37 53 -40v-34h-204v34c54 4 57 16 57 44v317
c0 53 -50 57 -88 57c-24 0 -83 -18 -111 -37c-3 -146 -7 -236 -7 -291c0 -86 11 -87 59 -90v-34h-210v34c59 9 62 12 62 116c0 5 -5 265 -7 272c-8 32 -24 30 -56 33z" />
    <glyph glyph-name="Omacron" unicode="&#x14c;" horiz-adv-x="745" 
d="M261 830l13 61h237l-12 -61h-238zM42 358c0 114 27 196 64 252c75 112 232 141 289 141c214 0 309 -130 309 -340c0 -71 -8 -197 -71 -289c-72 -106 -216 -136 -274 -136c-223 0 -317 163 -317 372zM144 379c0 -34 0 -232 141 -304c42 -21 72 -23 120 -23
c117 0 196 76 196 299c0 245 -94 322 -188 336c-9 2 -37 2 -54 2c-122 0 -215 -79 -215 -310z" />
    <glyph glyph-name="omacron" unicode="&#x14d;" horiz-adv-x="517" 
d="M142 602l13 61h237l-12 -61h-238zM30 260c0 70 25 129 41 155c37 58 149 111 205 111c105 0 215 -62 215 -232c0 -87 -11 -140 -44 -190c-6 -8 -61 -80 -115 -104c-27 -12 -56 -17 -91 -17c-85 0 -211 38 -211 277zM125 268c0 -170 65 -214 162 -214c16 0 33 1 44 5
c31 12 69 56 69 208c0 114 -27 158 -100 181c-16 4 -34 7 -54 7c-61 0 -121 0 -121 -187z" />
    <glyph glyph-name="Obreve" unicode="&#x14e;" horiz-adv-x="745" 
d="M259 914l55 25l12 -12c23 -42 50 -61 78 -61c34 0 68 28 96 75l31 -14c-42 -84 -96 -119 -146 -119c-53 0 -102 41 -126 106zM42 358c0 114 27 196 64 252c75 112 232 141 289 141c214 0 309 -130 309 -340c0 -71 -8 -197 -71 -289c-72 -106 -216 -136 -274 -136
c-223 0 -317 163 -317 372zM144 379c0 -34 0 -232 141 -304c42 -21 72 -23 120 -23c117 0 196 76 196 299c0 245 -94 322 -188 336c-9 2 -37 2 -54 2c-122 0 -215 -79 -215 -310z" />
    <glyph glyph-name="obreve" unicode="&#x14f;" horiz-adv-x="517" 
d="M140 686l55 25l12 -12c23 -42 50 -61 78 -61c34 0 68 28 96 75l31 -14c-42 -84 -96 -119 -146 -119c-53 0 -102 41 -126 106zM30 260c0 70 25 129 41 155c37 58 149 111 205 111c105 0 215 -62 215 -232c0 -87 -11 -140 -44 -190c-6 -8 -61 -80 -115 -104
c-27 -12 -56 -17 -91 -17c-85 0 -211 38 -211 277zM125 268c0 -170 65 -214 162 -214c16 0 33 1 44 5c31 12 69 56 69 208c0 114 -27 158 -100 181c-16 4 -34 7 -54 7c-61 0 -121 0 -121 -187z" />
    <glyph glyph-name="Ohungarumlaut" unicode="&#x150;" horiz-adv-x="745" 
d="M454 827c62 45 144 116 182 150c26 -4 49 -28 49 -50v-4c-43 -28 -156 -93 -218 -120zM271 827c62 45 144 116 182 150c26 -4 49 -28 49 -50v-4c-43 -28 -156 -93 -218 -120zM42 358c0 114 27 196 64 252c75 112 232 141 289 141c214 0 309 -130 309 -340
c0 -71 -8 -197 -71 -289c-72 -106 -216 -136 -274 -136c-223 0 -317 163 -317 372zM144 379c0 -34 0 -232 141 -304c42 -21 72 -23 120 -23c117 0 196 76 196 299c0 245 -94 322 -188 336c-9 2 -37 2 -54 2c-122 0 -215 -79 -215 -310z" />
    <glyph glyph-name="ohungarumlaut" unicode="&#x151;" horiz-adv-x="517" 
d="M308 579c54 56 122 140 154 180c28 0 56 -21 57 -45c-37 -35 -137 -119 -194 -156zM125 579c53 56 121 140 153 180c28 0 56 -21 58 -45c-38 -35 -138 -119 -194 -156zM30 260c0 70 25 129 41 155c37 58 149 111 205 111c105 0 215 -62 215 -232c0 -87 -11 -140 -44 -190
c-6 -8 -61 -80 -115 -104c-27 -12 -56 -17 -91 -17c-85 0 -211 38 -211 277zM125 268c0 -170 65 -214 162 -214c16 0 33 1 44 5c31 12 69 56 69 208c0 114 -27 158 -100 181c-16 4 -34 7 -54 7c-61 0 -121 0 -121 -187z" />
    <glyph glyph-name="OE" unicode="&#x152;" horiz-adv-x="1102" 
d="M42 358c0 114 27 196 64 252c69 104 219 135 289 135c92 0 189 -13 242 -13c39 0 0 2 388 4l12 -11c-3 -11 -26 -171 -27 -185h-34c-5 27 -21 106 -22 108c-3 10 -7 19 -16 26c-13 3 -23 4 -37 6c-24 3 -82 3 -126 3c-57 0 -82 -5 -82 -34c-2 -58 -4 -152 -5 -238
c60 0 226 4 247 6l-10 -74h-18c-40 29 -191 22 -219 25c-2 -148 -2 -278 -2 -287c0 -33 47 -39 167 -39c26 0 94 3 105 12c25 22 41 84 51 122l14 54h37c-4 -41 -9 -222 -9 -232c-379 0 -253 2 -421 2c-59 0 -166 -14 -271 -14c-225 0 -317 165 -317 372zM144 379
c0 -253 140 -344 299 -344c34 0 138 5 138 46c1 32 3 177 3 330c0 86 0 175 -3 248c-1 27 -54 42 -161 42c-166 0 -276 -67 -276 -322z" />
    <glyph glyph-name="oe" unicode="&#x153;" horiz-adv-x="836" 
d="M30 260c0 70 25 129 41 155c37 58 149 111 205 111c66 0 134 -25 176 -85c39 39 104 82 160 82c204 0 192 -173 193 -242c-26 -16 -64 -20 -105 -20h-205c0 -99 1 -199 130 -199c61 0 110 23 159 71l22 -23c-58 -59 -115 -125 -201 -125c-91 0 -144 42 -174 99
c-66 -79 -114 -101 -190 -101c-85 0 -211 38 -211 277zM125 268c0 -170 65 -214 162 -214c16 0 33 1 44 5c31 12 69 56 69 208c0 114 -27 158 -100 181c-16 4 -34 7 -54 7c-61 0 -121 0 -121 -187zM497 306h56c82 0 134 1 159 18c0 46 -14 134 -104 134
c-96 0 -111 -47 -111 -152z" />
    <glyph glyph-name="Racute" unicode="&#x154;" horiz-adv-x="669" 
d="M243 827c62 45 144 116 182 150c26 -4 49 -28 49 -50v-4c-43 -28 -156 -93 -218 -120zM32 0v37c50 3 90 8 90 46c0 8 -1 379 -7 578c-1 32 -22 36 -69 39l-14 1v37c28 -2 83 -4 139 -4c140 0 160 10 201 10h20c85 0 166 -66 166 -178c0 -94 -45 -133 -122 -184
c0 0 105 -206 178 -322l55 -24v-36c-55 0 -90 0 -145 -4l-175 361h-28c-33 0 -73 4 -99 13c-2 -141 -3 -282 -3 -287c0 -37 38 -42 90 -46v-37h-277zM223 424c18 -11 59 -17 105 -17c101 0 126 88 126 145c0 117 -82 145 -95 145c-30 0 -99 -3 -122 -13l-10 -11
c-2 -46 -3 -150 -4 -249z" />
    <glyph glyph-name="racute" unicode="&#x155;" horiz-adv-x="398" 
d="M163 579c53 56 121 140 153 180c28 0 56 -21 58 -45c-38 -35 -138 -119 -194 -156zM25 0v34c74 8 77 6 77 115v33c0 286 -1 269 -65 275l-2 38c72 8 107 34 135 34c17 0 23 -12 23 -53c0 -18 1 -38 1 -38c65 63 109 85 139 85c50 0 65 -11 65 -42c0 -23 -8 -58 -16 -108
h-36c-4 56 -26 75 -51 75c-22 0 -101 -26 -101 -86c0 -53 -1 -232 -1 -271c0 -46 20 -47 112 -60v-31h-280z" />
    <glyph glyph-name="Rcaron" unicode="&#x158;" horiz-adv-x="669" 
d="M202 906l24 27l98 -68l99 68l15 -17c-40 -42 -91 -103 -104 -122h-40c-15 21 -57 73 -92 112zM32 0v37c50 3 90 8 90 46c0 8 -1 379 -7 578c-1 32 -22 36 -69 39l-14 1v37c28 -2 83 -4 139 -4c140 0 160 10 201 10h20c85 0 166 -66 166 -178c0 -94 -45 -133 -122 -184
c0 0 105 -206 178 -322l55 -24v-36c-55 0 -90 0 -145 -4l-175 361h-28c-33 0 -73 4 -99 13c-2 -141 -3 -282 -3 -287c0 -37 38 -42 90 -46v-37h-277zM223 424c18 -11 59 -17 105 -17c101 0 126 88 126 145c0 117 -82 145 -95 145c-30 0 -99 -3 -122 -13l-10 -11
c-2 -46 -3 -150 -4 -249z" />
    <glyph glyph-name="rcaron" unicode="&#x159;" horiz-adv-x="398" 
d="M92 716l27 32l113 -106l124 108l12 -18c-52 -64 -114 -148 -128 -166h-40c-12 21 -72 102 -108 150zM25 0v34c74 8 77 6 77 115v33c0 286 -1 269 -65 275l-2 38c72 8 107 34 135 34c17 0 23 -12 23 -53c0 -18 1 -38 1 -38c65 63 109 85 139 85c50 0 65 -11 65 -42
c0 -23 -8 -58 -16 -108h-36c-4 56 -26 75 -51 75c-22 0 -101 -26 -101 -86c0 -53 -1 -232 -1 -271c0 -46 20 -47 112 -60v-31h-280z" />
    <glyph glyph-name="Sacute" unicode="&#x15a;" horiz-adv-x="519" 
d="M213 827c62 45 144 116 182 150c26 -4 49 -28 49 -50v-4c-43 -28 -156 -93 -218 -120zM57 543c0 77 16 131 112 184c22 12 51 26 127 26c59 0 116 -21 148 -38l12 -11c0 -10 -8 -162 -9 -176h-35c-8 28 -33 107 -33 109c-4 10 -7 19 -16 26c-11 10 -47 26 -97 26
c-77 0 -129 -21 -129 -105c0 -69 46 -97 80 -115l152 -79c37 -19 120 -67 120 -186c0 -72 -15 -102 -65 -160c-21 -23 -64 -59 -171 -59c-78 0 -154 27 -195 45c3 41 7 160 7 202h37l14 -54c19 -75 24 -81 48 -100c30 -13 69 -22 113 -22c74 0 118 22 118 109
c0 81 -62 119 -92 135l-81 40c-77 40 -91 48 -107 65l-8 9c-35 38 -50 84 -50 129z" />
    <glyph glyph-name="sacute" unicode="&#x15b;" horiz-adv-x="387" 
d="M152 579c53 56 121 140 153 180c28 0 56 -21 58 -45c-38 -35 -138 -119 -194 -156zM45 358c0 27 4 54 17 74c49 79 81 93 163 93c22 0 51 -6 77 -17c15 -6 34 -13 34 -49c0 -10 -3 -39 -3 -98h-37c-1 14 -12 57 -25 76c-15 22 -45 29 -75 29c-76 0 -84 -48 -84 -66
c0 -117 245 -56 245 -242c0 -28 -2 -56 -15 -78c-20 -32 -32 -47 -64 -72c-23 -17 -80 -25 -95 -25c-82 0 -118 19 -128 36c-5 8 -8 19 -8 34c0 109 3 118 27 118c34 0 13 -54 41 -92c13 -18 37 -32 83 -32c59 0 94 28 94 75c0 123 -247 57 -247 236z" />
    <glyph glyph-name="Scircumflex" unicode="&#x15c;" horiz-adv-x="519" 
d="M171 811c46 48 67 75 102 123h40c39 -57 59 -80 98 -122l-19 -17l-103 68l-100 -70zM57 543c0 77 16 131 112 184c22 12 51 26 127 26c59 0 116 -21 148 -38l12 -11c0 -10 -8 -162 -9 -176h-35c-8 28 -33 107 -33 109c-4 10 -7 19 -16 26c-11 10 -47 26 -97 26
c-77 0 -129 -21 -129 -105c0 -69 46 -97 80 -115l152 -79c37 -19 120 -67 120 -186c0 -72 -15 -102 -65 -160c-21 -23 -64 -59 -171 -59c-78 0 -154 27 -195 45c3 41 7 160 7 202h37l14 -54c19 -75 24 -81 48 -100c30 -13 69 -22 113 -22c74 0 118 22 118 109
c0 81 -62 119 -92 135l-81 40c-77 40 -91 48 -107 65l-8 9c-35 38 -50 84 -50 129z" />
    <glyph glyph-name="scircumflex" unicode="&#x15d;" horiz-adv-x="387" 
d="M91 581c46 67 101 154 111 171h40c9 -17 65 -121 97 -169l-16 -13l-113 106l-99 -108zM45 358c0 27 4 54 17 74c49 79 81 93 163 93c22 0 51 -6 77 -17c15 -6 34 -13 34 -49c0 -10 -3 -39 -3 -98h-37c-1 14 -12 57 -25 76c-15 22 -45 29 -75 29c-76 0 -84 -48 -84 -66
c0 -117 245 -56 245 -242c0 -28 -2 -56 -15 -78c-20 -32 -32 -47 -64 -72c-23 -17 -80 -25 -95 -25c-82 0 -118 19 -128 36c-5 8 -8 19 -8 34c0 109 3 118 27 118c34 0 13 -54 41 -92c13 -18 37 -32 83 -32c59 0 94 28 94 75c0 123 -247 57 -247 236z" />
    <glyph glyph-name="Scaron" unicode="&#x160;" horiz-adv-x="519" 
d="M172 906l24 27l98 -68l99 68l15 -17c-40 -42 -91 -103 -104 -122h-40c-15 21 -57 73 -92 112zM57 543c0 77 16 131 112 184c22 12 51 26 127 26c59 0 116 -21 148 -38l12 -11c0 -10 -8 -162 -9 -176h-35c-8 28 -33 107 -33 109c-4 10 -7 19 -16 26c-11 10 -47 26 -97 26
c-77 0 -129 -21 -129 -105c0 -69 46 -97 80 -115l152 -79c37 -19 120 -67 120 -186c0 -72 -15 -102 -65 -160c-21 -23 -64 -59 -171 -59c-78 0 -154 27 -195 45c3 41 7 160 7 202h37l14 -54c19 -75 24 -81 48 -100c30 -13 69 -22 113 -22c74 0 118 22 118 109
c0 81 -62 119 -92 135l-81 40c-77 40 -91 48 -107 65l-8 9c-35 38 -50 84 -50 129z" />
    <glyph glyph-name="scaron" unicode="&#x161;" horiz-adv-x="387" 
d="M81 716l27 32l113 -106l124 108l12 -18c-52 -64 -114 -148 -128 -166h-40c-12 21 -72 102 -108 150zM45 358c0 27 4 54 17 74c49 79 81 93 163 93c22 0 51 -6 77 -17c15 -6 34 -13 34 -49c0 -10 -3 -39 -3 -98h-37c-1 14 -12 57 -25 76c-15 22 -45 29 -75 29
c-76 0 -84 -48 -84 -66c0 -117 245 -56 245 -242c0 -28 -2 -56 -15 -78c-20 -32 -32 -47 -64 -72c-23 -17 -80 -25 -95 -25c-82 0 -118 19 -128 36c-5 8 -8 19 -8 34c0 109 3 118 27 118c34 0 13 -54 41 -92c13 -18 37 -32 83 -32c59 0 94 28 94 75c0 123 -247 57 -247 236z
" />
    <glyph glyph-name="Tcaron" unicode="&#x164;" horiz-adv-x="608" 
d="M188 906l24 27l98 -68l99 68l15 -17c-40 -42 -91 -103 -104 -122h-40c-15 21 -57 73 -92 112zM0 727l11 11h586l11 -11c-1 -17 -5 -147 -5 -197h-35c-8 29 -33 108 -34 110c-2 6 -5 14 -9 22c-6 6 -12 8 -18 9c-26 5 -84 10 -105 10c-11 0 -27 -2 -42 -5
c-5 -118 -8 -415 -8 -593c0 -38 58 -44 108 -48v-35h-320v35c49 4 107 10 107 48c0 0 3 194 3 380c0 77 0 153 -2 213c-15 3 -31 5 -42 5c-21 0 -79 -5 -105 -10c-6 -1 -12 -3 -18 -9c-4 -8 -7 -16 -9 -22c-1 -2 -26 -81 -34 -110h-35c0 50 -4 180 -5 197z" />
    <glyph glyph-name="tcaron" unicode="&#x165;" horiz-adv-x="424" 
d="M10 448v30l87 17v92c81 23 73 24 77 24c8 0 15 -3 15 -15s-2 -31 -2 -61v-31h127l-3 -56h-124c0 -102 -3 -184 -3 -247c0 -95 7 -145 47 -145c18 0 41 10 73 29l21 -20c-57 -59 -102 -80 -126 -80c-91 0 -105 60 -105 203c0 68 3 153 3 260h-87zM243 738c0 2 32 60 50 60
c22 0 64 -68 64 -100c0 -52 -76 -162 -94 -162c-2 0 -15 8 -15 16c0 11 40 44 40 88c0 40 -45 74 -45 98z" />
    <glyph glyph-name="Utilde" unicode="&#x168;" horiz-adv-x="757" 
d="M256 830c19 28 90 99 110 99c30 0 59 -35 126 -53c24 7 47 24 67 43l15 -12c-19 -28 -80 -91 -100 -91c-34 0 -88 53 -126 53c-24 -7 -59 -34 -79 -53zM34 701v37h276v-37c-53 -4 -90 -9 -90 -46c0 -49 1 -162 1 -265v-80c1 -55 1 -98 1 -113c0 -55 44 -151 212 -151
c163 0 184 85 184 310c0 89 -2 179 -2 299c0 33 -47 40 -90 44v39h236v-36c-44 -5 -78 -17 -80 -44l-1 -18c-3 -41 -10 -362 -10 -402c0 -224 -155 -252 -309 -252c-208 0 -244 164 -244 228c0 0 -2 425 -3 436c-5 44 -23 47 -81 51z" />
    <glyph glyph-name="utilde" unicode="&#x169;" horiz-adv-x="556" 
d="M120 602c19 28 90 99 110 99c30 0 59 -35 126 -53c24 7 47 24 67 43l15 -12c-19 -28 -80 -91 -100 -91c-34 0 -88 53 -126 53c-24 -7 -59 -34 -79 -53zM22 498c88 10 131 27 142 27c8 0 18 -3 18 -15c0 -109 -4 -230 -4 -292c0 -45 2 -80 10 -102c10 -29 41 -46 60 -46
c28 0 83 12 102 22c39 20 41 25 41 56c0 116 2 190 2 237c0 83 -6 83 -38 83h-32l-2 33c99 10 139 24 150 24c8 0 18 -3 18 -15c0 -217 -8 -310 -8 -383c0 -43 45 -84 45 -102c0 -4 -2 -6 -9 -8c0 0 -70 -23 -77 -23c-22 0 -36 60 -42 72c-92 -65 -166 -75 -185 -75
c-47 0 -99 42 -114 101c-5 16 -10 82 -10 124v95c0 156 -5 152 -65 153z" />
    <glyph glyph-name="Umacron" unicode="&#x16a;" horiz-adv-x="757" 
d="M289 830l13 61h237l-12 -61h-238zM34 701v37h276v-37c-53 -4 -90 -9 -90 -46c0 -49 1 -162 1 -265v-80c1 -55 1 -98 1 -113c0 -55 44 -151 212 -151c163 0 184 85 184 310c0 89 -2 179 -2 299c0 33 -47 40 -90 44v39h236v-36c-44 -5 -78 -17 -80 -44l-1 -18
c-3 -41 -10 -362 -10 -402c0 -224 -155 -252 -309 -252c-208 0 -244 164 -244 228c0 0 -2 425 -3 436c-5 44 -23 47 -81 51z" />
    <glyph glyph-name="umacron" unicode="&#x16b;" horiz-adv-x="556" 
d="M153 602l13 61h237l-12 -61h-238zM22 498c88 10 131 27 142 27c8 0 18 -3 18 -15c0 -109 -4 -230 -4 -292c0 -45 2 -80 10 -102c10 -29 41 -46 60 -46c28 0 83 12 102 22c39 20 41 25 41 56c0 116 2 190 2 237c0 83 -6 83 -38 83h-32l-2 33c99 10 139 24 150 24
c8 0 18 -3 18 -15c0 -217 -8 -310 -8 -383c0 -43 45 -84 45 -102c0 -4 -2 -6 -9 -8c0 0 -70 -23 -77 -23c-22 0 -36 60 -42 72c-92 -65 -166 -75 -185 -75c-47 0 -99 42 -114 101c-5 16 -10 82 -10 124v95c0 156 -5 152 -65 153z" />
    <glyph glyph-name="Ubreve" unicode="&#x16c;" horiz-adv-x="757" 
d="M287 914l55 25l12 -12c23 -42 50 -61 78 -61c34 0 68 28 96 75l31 -14c-42 -84 -96 -119 -146 -119c-53 0 -102 41 -126 106zM34 701v37h276v-37c-53 -4 -90 -9 -90 -46c0 -49 1 -162 1 -265v-80c1 -55 1 -98 1 -113c0 -55 44 -151 212 -151c163 0 184 85 184 310
c0 89 -2 179 -2 299c0 33 -47 40 -90 44v39h236v-36c-44 -5 -78 -17 -80 -44l-1 -18c-3 -41 -10 -362 -10 -402c0 -224 -155 -252 -309 -252c-208 0 -244 164 -244 228c0 0 -2 425 -3 436c-5 44 -23 47 -81 51z" />
    <glyph glyph-name="ubreve" unicode="&#x16d;" horiz-adv-x="556" 
d="M151 686l55 25l12 -12c23 -42 50 -61 78 -61c34 0 68 28 96 75l31 -14c-42 -84 -96 -119 -146 -119c-53 0 -102 41 -126 106zM22 498c88 10 131 27 142 27c8 0 18 -3 18 -15c0 -109 -4 -230 -4 -292c0 -45 2 -80 10 -102c10 -29 41 -46 60 -46c28 0 83 12 102 22
c39 20 41 25 41 56c0 116 2 190 2 237c0 83 -6 83 -38 83h-32l-2 33c99 10 139 24 150 24c8 0 18 -3 18 -15c0 -217 -8 -310 -8 -383c0 -43 45 -84 45 -102c0 -4 -2 -6 -9 -8c0 0 -70 -23 -77 -23c-22 0 -36 60 -42 72c-92 -65 -166 -75 -185 -75c-47 0 -99 42 -114 101
c-5 16 -10 82 -10 124v95c0 156 -5 152 -65 153z" />
    <glyph glyph-name="Uring" unicode="&#x16e;" horiz-adv-x="757" 
d="M330 884c0 23 9 42 15 51c14 19 54 37 75 37c38 0 78 -21 78 -77c0 -29 -4 -46 -16 -63c-2 -2 -23 -26 -42 -34c-10 -4 -20 -6 -33 -6c-31 0 -77 13 -77 92zM372 886c0 -49 20 -61 50 -61c5 0 11 0 14 1c10 4 22 16 22 59c0 33 -9 45 -32 52c-5 1 -10 2 -17 2
c-19 0 -37 0 -37 -53zM34 701v37h276v-37c-53 -4 -90 -9 -90 -46c0 -49 1 -162 1 -265v-80c1 -55 1 -98 1 -113c0 -55 44 -151 212 -151c163 0 184 85 184 310c0 89 -2 179 -2 299c0 33 -47 40 -90 44v39h236v-36c-44 -5 -78 -17 -80 -44l-1 -18c-3 -41 -10 -362 -10 -402
c0 -224 -155 -252 -309 -252c-208 0 -244 164 -244 228c0 0 -2 425 -3 436c-5 44 -23 47 -81 51z" />
    <glyph glyph-name="uring" unicode="&#x16f;" horiz-adv-x="556" 
d="M194 656c0 23 9 42 15 51c14 19 54 37 75 37c38 0 78 -21 78 -77c0 -29 -4 -46 -16 -63c-2 -2 -23 -26 -42 -34c-10 -4 -20 -6 -33 -6c-31 0 -77 13 -77 92zM236 658c0 -49 20 -61 50 -61c5 0 11 0 14 1c10 4 22 16 22 59c0 33 -9 45 -32 52c-5 1 -10 2 -17 2
c-19 0 -37 0 -37 -53zM22 498c88 10 131 27 142 27c8 0 18 -3 18 -15c0 -109 -4 -230 -4 -292c0 -45 2 -80 10 -102c10 -29 41 -46 60 -46c28 0 83 12 102 22c39 20 41 25 41 56c0 116 2 190 2 237c0 83 -6 83 -38 83h-32l-2 33c99 10 139 24 150 24c8 0 18 -3 18 -15
c0 -217 -8 -310 -8 -383c0 -43 45 -84 45 -102c0 -4 -2 -6 -9 -8c0 0 -70 -23 -77 -23c-22 0 -36 60 -42 72c-92 -65 -166 -75 -185 -75c-47 0 -99 42 -114 101c-5 16 -10 82 -10 124v95c0 156 -5 152 -65 153z" />
    <glyph glyph-name="Uhungarumlaut" unicode="&#x170;" horiz-adv-x="757" 
d="M482 827c62 45 144 116 182 150c26 -4 49 -28 49 -50v-4c-43 -28 -156 -93 -218 -120zM299 827c62 45 144 116 182 150c26 -4 49 -28 49 -50v-4c-43 -28 -156 -93 -218 -120zM34 701v37h276v-37c-53 -4 -90 -9 -90 -46c0 -49 1 -162 1 -265v-80c1 -55 1 -98 1 -113
c0 -55 44 -151 212 -151c163 0 184 85 184 310c0 89 -2 179 -2 299c0 33 -47 40 -90 44v39h236v-36c-44 -5 -78 -17 -80 -44l-1 -18c-3 -41 -10 -362 -10 -402c0 -224 -155 -252 -309 -252c-208 0 -244 164 -244 228c0 0 -2 425 -3 436c-5 44 -23 47 -81 51z" />
    <glyph glyph-name="uhungarumlaut" unicode="&#x171;" horiz-adv-x="556" 
d="M319 579c54 56 122 140 154 180c28 0 56 -21 57 -45c-37 -35 -137 -119 -194 -156zM136 579c53 56 121 140 153 180c28 0 56 -21 58 -45c-38 -35 -138 -119 -194 -156zM22 498c88 10 131 27 142 27c8 0 18 -3 18 -15c0 -109 -4 -230 -4 -292c0 -45 2 -80 10 -102
c10 -29 41 -46 60 -46c28 0 83 12 102 22c39 20 41 25 41 56c0 116 2 190 2 237c0 83 -6 83 -38 83h-32l-2 33c99 10 139 24 150 24c8 0 18 -3 18 -15c0 -217 -8 -310 -8 -383c0 -43 45 -84 45 -102c0 -4 -2 -6 -9 -8c0 0 -70 -23 -77 -23c-22 0 -36 60 -42 72
c-92 -65 -166 -75 -185 -75c-47 0 -99 42 -114 101c-5 16 -10 82 -10 124v95c0 156 -5 152 -65 153z" />
    <glyph glyph-name="Wcircumflex" unicode="&#x174;" horiz-adv-x="1000" 
d="M406 811c46 48 67 75 102 123h40c39 -57 59 -80 98 -122l-19 -17l-103 68l-100 -70zM0 701v37h260v-37c-64 -5 -85 -8 -85 -39c0 -21 103 -434 127 -495c40 101 156 477 156 498c0 29 -26 33 -76 36v37h277v-37c-31 -2 -68 -5 -68 -33c0 -14 87 -368 139 -501
c60 181 139 467 139 490c0 30 -26 37 -83 42v39h214v-36c-32 -3 -45 -14 -56 -42c0 0 -191 -626 -198 -660h-74c-26 124 -146 484 -177 569c-30 -78 -169 -501 -181 -569h-78c-5 44 -126 461 -165 596l-13 42c-9 38 -20 60 -58 63z" />
    <glyph glyph-name="wcircumflex" unicode="&#x175;" horiz-adv-x="811" 
d="M305 581c46 67 101 154 111 171h40c9 -17 65 -121 97 -169l-16 -13l-113 106l-99 -108zM0 501c88 11 131 28 142 28c8 0 18 -3 18 -15c0 -32 105 -409 105 -409c79 210 105 301 105 339c0 21 -16 39 -16 51c0 11 15 18 74 18c46 0 43 -11 45 -23
c19 -90 101 -385 101 -385c103 272 106 325 106 341c0 50 -36 13 -36 47c0 15 16 18 34 18c16 0 32 -2 43 -2c30 0 59 4 76 4c12 0 14 -8 14 -15c0 -15 -29 -6 -130 -257c-96 -237 -83 -256 -131 -256c-39 0 -38 23 -85 180c-18 58 -35 124 -51 178l-43 -102
c-95 -237 -83 -256 -131 -256c-39 0 -37 23 -85 180c-33 111 -65 249 -97 285c-14 17 -30 15 -56 18z" />
    <glyph glyph-name="Ycircumflex" unicode="&#x176;" horiz-adv-x="649" 
d="M244 811c46 48 67 75 102 123h40c39 -57 59 -80 98 -122l-19 -17l-103 68l-100 -70zM0 701v37h276v-37c-66 -5 -83 -13 -83 -33c0 -22 100 -180 151 -260c37 53 167 244 167 265c0 20 -25 23 -70 26v39h208v-36c-34 -4 -47 -15 -55 -25l-224 -310c-2 -44 -3 -109 -3 -218
c0 -32 1 -75 5 -82c13 -24 60 -29 100 -32v-35h-310v35c50 4 105 10 105 48c0 165 -4 275 -4 275c-17 31 -118 179 -199 296c0 0 -28 44 -64 47z" />
    <glyph glyph-name="ycircumflex" unicode="&#x177;" horiz-adv-x="492" 
d="M146 581c46 67 101 154 111 171h40c9 -17 65 -121 97 -169l-16 -13l-113 106l-99 -108zM0 501c88 11 132 28 143 28c8 0 17 -3 17 -15c0 -32 105 -409 105 -409c102 272 106 325 106 341c0 44 -36 13 -36 47c0 15 16 18 34 18c15 0 32 -2 43 -2c30 0 49 4 66 4
c11 0 14 -8 14 -15c0 -15 -19 -6 -121 -257c-178 -443 -144 -449 -178 -449c-49 0 -66 12 -66 29c0 37 71 103 71 160c0 43 -104 429 -139 469c-15 17 -31 15 -57 18z" />
    <glyph glyph-name="Ydieresis" unicode="&#x178;" horiz-adv-x="649" 
d="M212 873c0 7 21 72 55 72c14 0 58 -25 58 -61c0 -34 -37 -72 -58 -72s-55 48 -55 61zM399 873c0 7 22 72 55 72c15 0 59 -25 59 -61c0 -34 -38 -72 -59 -72s-55 48 -55 61zM0 701v37h276v-37c-66 -5 -83 -13 -83 -33c0 -22 100 -180 151 -260c37 53 167 244 167 265
c0 20 -25 23 -70 26v39h208v-36c-34 -4 -47 -15 -55 -25l-224 -310c-2 -44 -3 -109 -3 -218c0 -32 1 -75 5 -82c13 -24 60 -29 100 -32v-35h-310v35c50 4 105 10 105 48c0 165 -4 275 -4 275c-17 31 -118 179 -199 296c0 0 -28 44 -64 47z" />
    <glyph glyph-name="Zacute" unicode="&#x179;" horiz-adv-x="661" 
d="M334 815c62 45 144 116 182 150c26 -4 50 -28 50 -50v-4c-44 -28 -156 -93 -218 -120zM21 11l446 671c-30 3 -61 5 -105 5c-33 0 -56 -1 -176 -4c-23 -1 -41 -35 -44 -45c-1 -2 -26 -81 -34 -110h-34c-1 15 -4 189 -4 199l12 11h531l12 -11
c-161 -227 -425 -603 -456 -667c23 -4 57 -10 114 -10c182 0 218 4 228 13c25 21 41 77 51 115l10 37h40c-4 -60 -8 -206 -8 -215h-571z" />
    <glyph glyph-name="zacute" unicode="&#x17a;" horiz-adv-x="516" 
d="M221 579c53 56 121 140 153 180c28 0 56 -21 58 -45c-38 -35 -138 -119 -194 -156zM33 26l307 431c0 3 -19 4 -102 4h-5c-109 0 -111 -1 -141 -140h-38c8 188 -1 188 25 188c31 0 31 -3 155 -3c112 0 213 4 213 4c23 0 29 -10 29 -21c0 -18 -29 -54 -63 -95l-26 -32
c-159 -197 -203 -299 -203 -306c0 -4 4 -5 13 -5c226 0 220 24 231 51c10 25 13 49 21 80l42 -3c-6 -55 -12 -145 -12 -193c0 -6 1 -11 1 -16l-44 3c0 29 -9 31 -99 31c-146 0 -176 -2 -293 -4z" />
    <glyph glyph-name="Zdotaccent" unicode="&#x17b;" horiz-adv-x="661" 
d="M291 851c0 7 21 72 54 72c15 0 59 -25 59 -61c0 -34 -37 -71 -59 -71c-20 0 -54 48 -54 60zM21 11l446 671c-30 3 -61 5 -105 5c-33 0 -56 -1 -176 -4c-23 -1 -41 -35 -44 -45c-1 -2 -26 -81 -34 -110h-34c-1 15 -4 189 -4 199l12 11h531l12 -11
c-161 -227 -425 -603 -456 -667c23 -4 57 -10 114 -10c182 0 218 4 228 13c25 21 41 77 51 115l10 37h40c-4 -60 -8 -206 -8 -215h-571z" />
    <glyph glyph-name="zdotaccent" unicode="&#x17c;" horiz-adv-x="516" 
d="M221 645c0 7 21 72 54 72c15 0 59 -25 59 -61c0 -34 -37 -71 -59 -71c-20 0 -54 48 -54 60zM33 26l307 431c0 3 -19 4 -102 4h-5c-109 0 -111 -1 -141 -140h-38c8 188 -1 188 25 188c31 0 31 -3 155 -3c112 0 213 4 213 4c23 0 29 -10 29 -21c0 -18 -29 -54 -63 -95
l-26 -32c-159 -197 -203 -299 -203 -306c0 -4 4 -5 13 -5c226 0 220 24 231 51c10 25 13 49 21 80l42 -3c-6 -55 -12 -145 -12 -193c0 -6 1 -11 1 -16l-44 3c0 29 -9 31 -99 31c-146 0 -176 -2 -293 -4z" />
    <glyph glyph-name="Zcaron" unicode="&#x17d;" horiz-adv-x="661" 
d="M230 903l24 27l98 -68l98 68l16 -17c-40 -42 -92 -103 -104 -122h-40c-16 21 -58 73 -92 112zM21 11l446 671c-30 3 -61 5 -105 5c-33 0 -56 -1 -176 -4c-23 -1 -41 -35 -44 -45c-1 -2 -26 -81 -34 -110h-34c-1 15 -4 189 -4 199l12 11h531l12 -11
c-161 -227 -425 -603 -456 -667c23 -4 57 -10 114 -10c182 0 218 4 228 13c25 21 41 77 51 115l10 37h40c-4 -60 -8 -206 -8 -215h-571z" />
    <glyph glyph-name="zcaron" unicode="&#x17e;" horiz-adv-x="516" 
d="M150 716l27 32l113 -106l124 108l12 -18c-52 -64 -114 -148 -128 -166h-40c-12 21 -72 102 -108 150zM33 26l307 431c0 3 -19 4 -102 4h-5c-109 0 -111 -1 -141 -140h-38c8 188 -1 188 25 188c31 0 31 -3 155 -3c112 0 213 4 213 4c23 0 29 -10 29 -21
c0 -18 -29 -54 -63 -95l-26 -32c-159 -197 -203 -299 -203 -306c0 -4 4 -5 13 -5c226 0 220 24 231 51c10 25 13 49 21 80l42 -3c-6 -55 -12 -145 -12 -193c0 -6 1 -11 1 -16l-44 3c0 29 -9 31 -99 31c-146 0 -176 -2 -293 -4z" />
    <glyph glyph-name="longs" unicode="&#x17f;" horiz-adv-x="345" 
d="M26 0v34c73 11 80 9 80 68c0 35 -3 208 -6 346l-1 49c0 146 69 301 225 301c69 0 81 -40 81 -113c0 -12 -1 -24 -1 -37l-43 -1c-15 82 -39 114 -63 114c-48 0 -99 -125 -99 -242v-71c-2 -105 -4 -281 -4 -351c0 -57 11 -48 111 -66v-31h-280z" />
    <glyph glyph-name="uni0237" unicode="&#x237;" horiz-adv-x="251" 
d="M-5 -185c91 114 95 86 95 553c0 88 -9 102 -57 102h-15l-2 33c99 9 139 24 150 24c8 0 17 -4 17 -16c0 -564 -4 -577 -171 -713z" />
    <glyph glyph-name="circumflex" unicode="&#x2c6;" horiz-adv-x="500" 
d="M126 581c46 67 101 154 111 171h40c9 -17 65 -121 97 -169l-16 -13l-113 106l-99 -108z" />
    <glyph glyph-name="caron" unicode="&#x2c7;" horiz-adv-x="500" 
d="M112 716l27 32l113 -106l124 108l12 -18c-52 -64 -114 -148 -128 -166h-40c-12 21 -72 102 -108 150z" />
    <glyph glyph-name="breve" unicode="&#x2d8;" horiz-adv-x="500" 
d="M114 686l55 25l12 -12c23 -42 50 -61 78 -61c34 0 68 28 96 75l31 -14c-42 -84 -96 -119 -146 -119c-53 0 -102 41 -126 106z" />
    <glyph glyph-name="dotaccent" unicode="&#x2d9;" horiz-adv-x="500" 
d="M191 645c0 7 21 72 54 72c15 0 59 -25 59 -61c0 -34 -37 -71 -59 -71c-20 0 -54 48 -54 60z" />
    <glyph glyph-name="ring" unicode="&#x2da;" horiz-adv-x="500" 
d="M166 656c0 23 9 42 15 51c14 19 54 37 75 37c38 0 78 -21 78 -77c0 -29 -4 -46 -16 -63c-2 -2 -23 -26 -42 -34c-10 -4 -20 -6 -33 -6c-31 0 -77 13 -77 92zM208 658c0 -49 20 -61 50 -61c5 0 11 0 14 1c10 4 22 16 22 59c0 33 -9 45 -32 52c-5 1 -10 2 -17 2
c-19 0 -37 0 -37 -53z" />
    <glyph glyph-name="tilde" unicode="&#x2dc;" horiz-adv-x="500" 
d="M91 602c19 28 90 99 110 99c30 0 59 -35 126 -53c24 7 47 24 67 43l15 -12c-19 -28 -80 -91 -100 -91c-34 0 -88 53 -126 53c-24 -7 -59 -34 -79 -53z" />
    <glyph glyph-name="hungarumlaut" unicode="&#x2dd;" horiz-adv-x="500" 
d="M236 579c54 56 122 140 154 180c28 0 56 -21 57 -45c-37 -35 -137 -119 -194 -156zM53 579c53 56 121 140 153 180c28 0 56 -21 58 -45c-38 -35 -138 -119 -194 -156z" />
    <glyph glyph-name="gravecmb" unicode="&#x300;" horiz-adv-x="0" 
d="M-356 715c1 24 29 45 57 45c32 -40 100 -124 153 -180l-16 -21c-57 37 -157 121 -194 156z" />
    <glyph glyph-name="acutecmb" unicode="&#x301;" horiz-adv-x="0" 
d="M-309 579c53 56 121 140 153 180c28 0 56 -21 58 -45c-38 -35 -138 -119 -194 -156z" />
    <glyph glyph-name="circumflexcmb" unicode="&#x302;" horiz-adv-x="0" 
d="M-347 581c46 67 101 154 111 171h40c9 -17 65 -121 97 -169l-16 -13l-113 106l-99 -108z" />
    <glyph glyph-name="tildecmb" unicode="&#x303;" horiz-adv-x="0" 
d="M-449 602c19 28 90 99 110 99c30 0 59 -35 126 -53c24 7 47 24 67 43l15 -12c-19 -28 -80 -91 -100 -91c-34 0 -88 53 -126 53c-24 -7 -59 -34 -79 -53z" />
    <glyph glyph-name="macroncmb" unicode="&#x304;" horiz-adv-x="0" 
d="M-375 602l13 61h237l-12 -61h-238z" />
    <glyph glyph-name="brevecmb" unicode="&#x306;" horiz-adv-x="0" 
d="M-418 686l55 25l12 -12c23 -42 50 -61 78 -61c34 0 68 28 96 75l31 -14c-42 -84 -96 -119 -146 -119c-53 0 -102 41 -126 106z" />
    <glyph glyph-name="dotaccentcmb" unicode="&#x307;" horiz-adv-x="0" 
d="M-309 645c0 7 21 72 54 72c15 0 59 -25 59 -61c0 -34 -37 -71 -59 -71c-20 0 -54 48 -54 60z" />
    <glyph glyph-name="dieresiscmb" unicode="&#x308;" horiz-adv-x="0" 
d="M-456 645c0 7 21 72 55 72c14 0 58 -25 58 -61c0 -34 -37 -72 -58 -72s-55 48 -55 61zM-269 645c0 7 22 72 55 72c15 0 59 -25 59 -61c0 -34 -38 -72 -59 -72s-55 48 -55 61z" />
    <glyph glyph-name="ringcmb" unicode="&#x30a;" horiz-adv-x="0" 
d="M-338 656c0 23 9 42 15 51c14 19 54 37 75 37c38 0 78 -21 78 -77c0 -29 -4 -46 -16 -63c-2 -2 -23 -26 -42 -34c-10 -4 -20 -6 -33 -6c-31 0 -77 13 -77 92zM-296 658c0 -49 20 -61 50 -61c5 0 11 0 14 1c10 4 22 16 22 59c0 33 -9 45 -32 52c-5 1 -10 2 -17 2
c-19 0 -37 0 -37 -53z" />
    <glyph glyph-name="hungarumlautcmb" unicode="&#x30b;" horiz-adv-x="0" 
d="M-260 579c54 56 122 140 154 180c28 0 56 -21 57 -45c-37 -35 -137 -119 -194 -156zM-443 579c53 56 121 140 153 180c28 0 56 -21 58 -45c-38 -35 -138 -119 -194 -156z" />
    <glyph glyph-name="caroncmb" unicode="&#x30c;" horiz-adv-x="0" 
d="M-388 716l27 32l113 -106l124 108l12 -18c-52 -64 -114 -148 -128 -166h-40c-12 21 -72 102 -108 150z" />
    <glyph glyph-name="cedillacmb" unicode="&#x327;" horiz-adv-x="0" 
d="M-306 -168c67 0 98 19 98 39c0 18 -27 36 -73 38l-12 11l31 88l24 -2l-10 -49c45 -9 90 -30 90 -76c0 -50 -27 -65 -59 -80c-22 -4 -64 -6 -87 -7z" />
    <glyph glyph-name="hyphentwo" unicode="&#x2010;" horiz-adv-x="270" 
d="M17 250l14 66h211l11 -11l-12 -55h-224z" />
    <glyph glyph-name="uni2011" unicode="&#x2011;" horiz-adv-x="270" 
d="M17 250l14 66h211l11 -11l-12 -55h-224z" />
    <glyph glyph-name="figuredash" unicode="&#x2012;" 
d="M26 250l14 66h402l12 -11l-13 -55h-415z" />
    <glyph glyph-name="endash" unicode="&#x2013;" horiz-adv-x="500" 
d="M26 250l14 66h422l12 -11l-13 -55h-435z" />
    <glyph glyph-name="emdash" unicode="&#x2014;" horiz-adv-x="1000" 
d="M26 250l14 66h922l12 -11l-13 -55h-935z" />
    <glyph glyph-name="horizontalbar" unicode="&#x2015;" horiz-adv-x="1000" 
d="M26 250l14 66h922l12 -11l-13 -55h-935z" />
    <glyph glyph-name="quoteleft" unicode="&#x2018;" horiz-adv-x="240" 
d="M66 644c0 49 72 154 89 154c2 0 14 -8 14 -15c0 -11 -38 -42 -38 -84c0 -38 43 -70 43 -93c0 -2 -30 -57 -47 -57c-21 0 -61 65 -61 95z" />
    <glyph glyph-name="quoteright" unicode="&#x2019;" horiz-adv-x="240" 
d="M66 741c0 2 30 57 47 57c21 0 61 -65 61 -95c0 -49 -72 -154 -89 -154c-2 0 -14 8 -14 15c0 11 38 42 38 84c0 38 -43 70 -43 93z" />
    <glyph glyph-name="quotesinglbase" unicode="&#x201a;" horiz-adv-x="240" 
d="M66 71c0 2 30 57 47 57c21 0 61 -65 61 -95c0 -49 -72 -154 -89 -154c-2 0 -14 8 -14 15c0 11 38 42 38 84c0 38 -43 70 -43 93z" />
    <glyph glyph-name="quotedblleft" unicode="&#x201c;" horiz-adv-x="396" 
d="M222 644c0 49 72 154 89 154c2 0 14 -8 14 -15c0 -11 -38 -42 -38 -84c0 -38 43 -70 43 -93c0 -2 -30 -57 -47 -57c-21 0 -61 65 -61 95zM66 644c0 49 72 154 89 154c2 0 14 -8 14 -15c0 -11 -38 -42 -38 -84c0 -38 43 -70 43 -93c0 -2 -30 -57 -47 -57
c-21 0 -61 65 -61 95z" />
    <glyph glyph-name="quotedblright" unicode="&#x201d;" horiz-adv-x="396" 
d="M222 741c0 2 30 57 47 57c21 0 61 -65 61 -95c0 -49 -72 -154 -89 -154c-2 0 -14 8 -14 15c0 11 38 42 38 84c0 38 -43 70 -43 93zM66 741c0 2 30 57 47 57c21 0 61 -65 61 -95c0 -49 -72 -154 -89 -154c-2 0 -14 8 -14 15c0 11 38 42 38 84c0 38 -43 70 -43 93z" />
    <glyph glyph-name="quotedblbase" unicode="&#x201e;" horiz-adv-x="396" 
d="M66 71c0 2 30 57 47 57c21 0 61 -65 61 -95c0 -49 -72 -154 -89 -154c-2 0 -14 8 -14 15c0 11 38 42 38 84c0 38 -43 70 -43 93zM222 71c0 2 30 57 47 57c21 0 61 -65 61 -95c0 -49 -72 -154 -89 -154c-2 0 -14 8 -14 15c0 11 38 42 38 84c0 38 -43 70 -43 93z" />
    <glyph glyph-name="dagger" unicode="&#x2020;" horiz-adv-x="564" 
d="M30 475c0 20 7 43 12 48l190 -7c-5 27 -8 60 -8 99c0 32 2 67 7 107c12 13 34 16 54 16c47 0 35 -12 43 -13c5 -46 7 -83 7 -114c0 -39 -3 -69 -7 -95l202 7c1 -4 2 -9 2 -14c0 -18 -7 -38 -10 -45l-194 3v-201c0 -320 -9 -386 -46 -386c-40 0 -50 106 -50 578v9l-201 -3
c-1 3 -1 7 -1 11z" />
    <glyph glyph-name="daggerdbl" unicode="&#x2021;" horiz-adv-x="564" 
d="M30 110c0 18 7 38 10 44l194 -3c-7 55 -10 109 -10 164c0 51 2 101 8 152l-201 -3c-1 3 -1 7 -1 11c0 20 7 43 12 48l190 -7c-5 27 -8 60 -8 99c0 32 2 67 7 107c7 7 24 16 55 16c46 0 34 -11 42 -13c5 -46 7 -83 7 -114c0 -39 -3 -69 -7 -95l202 7c1 -4 2 -9 2 -14
c0 -18 -7 -38 -10 -45l-194 3c7 -56 10 -111 10 -166c0 -50 -3 -100 -8 -150l201 4c1 -4 1 -8 1 -11c0 -20 -7 -43 -12 -49l-190 7c5 -27 8 -60 8 -99c0 -32 -2 -67 -7 -106c-7 -8 -24 -17 -55 -17c-43 0 -35 13 -42 14c-5 45 -7 82 -7 113c0 39 3 69 7 96l-202 -8
c-1 5 -2 10 -2 15z" />
    <glyph glyph-name="bullet" unicode="&#x2022;" 
d="M109 329c0 20 105 127 123 128c19 0 132 -79 137 -106c0 -3 2 -25 2 -29c0 -14 -54 -77 -111 -124c-3 -2 -6 -4 -12 -4c-11 0 -22 8 -44 23l-32 22l-29 23c-22 18 -34 30 -34 67z" />
    <glyph glyph-name="ellipsis" unicode="&#x2026;" horiz-adv-x="720" 
d="M543 74c0 12 26 64 52 64c25 0 62 -74 62 -88c0 -21 -42 -70 -66 -70c-21 0 -48 86 -48 94zM303 74c0 12 26 64 52 64c25 0 62 -74 62 -88c0 -21 -42 -70 -66 -70c-21 0 -48 86 -48 94zM63 74c0 12 26 64 52 64c25 0 62 -74 62 -88c0 -21 -42 -70 -66 -70
c-21 0 -48 86 -48 94z" />
    <glyph glyph-name="perthousand" unicode="&#x2030;" horiz-adv-x="1008" 
d="M42 369c0 59 21 98 49 120c28 23 65 35 81 35c94 0 132 -82 132 -157c0 -17 -7 -49 -13 -64c-6 -16 -49 -87 -123 -87c-81 0 -126 65 -126 153zM92 370c0 -61 48 -95 85 -95c58 0 74 25 74 92c0 62 -43 98 -83 98c-30 0 -76 -2 -76 -95zM149 -3l353 540l38 -24l-353 -540
zM392 141c0 59 21 98 49 120c28 23 65 35 81 35c95 0 132 -83 132 -157c0 -18 -7 -50 -13 -64c-6 -16 -49 -87 -123 -87c-81 0 -126 64 -126 153zM442 142c0 -61 48 -95 85 -95c58 0 74 24 74 92c0 62 -43 97 -82 97c-31 0 -77 -1 -77 -94zM704 141c0 59 21 98 49 120
c28 23 65 35 81 35c95 0 132 -83 132 -157c0 -18 -7 -50 -13 -64c-6 -16 -49 -87 -123 -87c-81 0 -126 64 -126 153zM754 142c0 -61 48 -95 85 -95c58 0 74 24 74 92c0 62 -43 97 -82 97c-31 0 -77 -1 -77 -94z" />
    <glyph glyph-name="guilsinglleft" unicode="&#x2039;" horiz-adv-x="325" 
d="M28 245c60 43 207 177 221 192l32 -16l-153 -179l152 -177l-29 -15c-65 63 -163 153 -223 195z" />
    <glyph glyph-name="guilsinglright" unicode="&#x203a;" horiz-adv-x="326" 
d="M45 421l31 16c15 -15 161 -149 222 -192c-61 -42 -158 -132 -223 -195l-29 15l152 177z" />
    <glyph glyph-name="Euro" unicode="&#x20ac;" 
d="M5 285l19 47h55c5 32 11 56 16 67c19 43 114 124 191 124c85 0 133 -32 160 -72l-23 -56l-16 -1c-19 26 -40 64 -125 64c-88 0 -108 -39 -111 -126h226l-19 -47h-209v-24v-21h190l-19 -47h-169c5 -72 29 -131 128 -131c61 0 110 23 159 71l22 -23
c-58 -59 -115 -125 -201 -125c-143 0 -192 104 -204 208h-67l19 47h46v6c0 13 0 26 1 39h-69z" />
    <glyph glyph-name="minus" unicode="&#x2212;" 
d="M11 250l14 66h435l12 -11l-13 -55h-448z" />
    <glyph glyph-name="s_t" unicode="&#xfb06;" horiz-adv-x="722" 
d="M45 358c0 27 4 54 17 74c41 66 70 93 154 93c-9 28 -12 50 -12 72c0 118 104 171 202 171c88 0 171 -41 171 -130c0 -41 -3 -72 -3 -103v-31h127l-3 -56h-124c0 -102 -3 -184 -3 -247c0 -95 7 -145 47 -145c18 0 41 10 73 29l21 -20c-57 -59 -102 -80 -126 -80
c-91 0 -105 60 -105 203c0 68 3 153 3 260h-87v30l87 17v92c34 10 57 29 57 67c0 36 -70 67 -143 67c-77 0 -157 -35 -157 -135c0 -19 3 -39 10 -64c54 -12 84 -36 84 -90c0 -19 -18 -42 -30 -42c-42 0 -66 70 -66 70c-8 1 -11 6 -43 6c-76 0 -84 -48 -84 -66
c0 -117 245 -56 245 -242c0 -28 -2 -56 -15 -78c-20 -32 -32 -47 -64 -72c-23 -17 -80 -25 -95 -25c-82 0 -118 19 -128 36c-5 8 -8 19 -8 34c0 109 3 118 27 118c49 0 -16 -124 124 -124c59 0 94 28 94 75c0 123 -247 57 -247 236z" />
    <glyph glyph-name="circumflex.cap" horiz-adv-x="0" 
d="M-406 582c46 48 67 75 102 123h40c39 -57 59 -80 98 -122l-19 -17l-103 68l-100 -70z" />
    <glyph glyph-name="commaaccent" horiz-adv-x="250" 
d="M63 88c0 2 32 60 50 60c22 0 64 -68 64 -100c0 -52 -76 -162 -94 -162c-2 0 -15 8 -15 16c0 11 40 44 40 88c0 40 -45 74 -45 98z" />
    <glyph glyph-name="acute.cap" horiz-adv-x="0" 
d="M-304 599c62 45 144 116 182 150c26 -4 49 -28 49 -50v-4c-43 -28 -156 -93 -218 -120z" />
    <glyph glyph-name="caron.cap" horiz-adv-x="0" 
d="M-372 678l24 27l98 -68l99 68l15 -17c-40 -42 -91 -103 -104 -122h-40c-15 21 -57 73 -92 112z" />
    <glyph glyph-name="grave.cap" horiz-adv-x="0" 
d="M-362 695v4c0 22 23 46 49 50c38 -34 120 -105 182 -150l-13 -24c-62 27 -175 92 -218 120z" />
    <glyph glyph-name="hungarumlaut.cap" horiz-adv-x="0" 
d="M-280 599c62 45 144 116 182 150c26 -4 49 -28 49 -50v-4c-43 -28 -156 -93 -218 -120zM-463 599c62 45 144 116 182 150c26 -4 49 -28 49 -50v-4c-43 -28 -156 -93 -218 -120z" />
    <glyph glyph-name="uni2014.alt" horiz-adv-x="750" 
d="M25 250l14 66h672l12 -11l-13 -55h-685z" />
    <glyph glyph-name="c_t" horiz-adv-x="776" 
d="M30 240c0 53 3 94 13 143c5 23 30 49 35 53c97 89 137 89 182 89h15c-9 27 -12 50 -12 72c0 117 104 171 202 171c85 0 166 -40 166 -130c0 -41 -3 -72 -3 -103v-31h127l-3 -56h-124c0 -102 -3 -184 -3 -247c0 -95 7 -145 47 -145c18 0 41 10 73 29l21 -20
c-57 -59 -102 -80 -126 -80c-91 0 -105 60 -105 203c0 68 3 153 3 260h-87v30l87 17v92c34 10 57 29 57 67c0 37 -68 67 -138 67c-77 0 -157 -35 -157 -135c0 -19 2 -39 9 -64c76 -11 85 -66 85 -82c0 -38 -22 -50 -34 -50c-21 0 -46 33 -57 56c-24 7 -55 10 -84 10
c-80 0 -100 -42 -100 -184c0 -118 20 -209 136 -209c67 0 137 71 137 71l21 -20c-48 -53 -100 -128 -191 -128c-31 0 -67 8 -108 30c-33 30 -50 58 -70 104c-8 34 -14 75 -14 120z" />
    </font>
</defs>
</svg>
