<?xml version="1.0" standalone="no"?>
<!DOCTYPE svg PUBLIC "-//W3C//DTD SVG 1.1//EN" "http://www.w3.org/Graphics/SVG/1.1/DTD/svg11.dtd" >
<svg>
<metadata>
Created by FontForge 20090622 at Wed Mar  5 04:59:29 2014
 By ffonts
1.2, Copyright Copr. Castcraft Software, Inc. 1990-1991.
</metadata>
<defs>
<font id="OPTIGaramond-Oldstyle" horiz-adv-x="466" >
  <font-face 
    font-family="OPTIGaramond-Oldstyle"
    font-weight="500"
    font-stretch="normal"
    units-per-em="1000"
    panose-1="0 0 0 0 0 0 0 0 0 0"
    ascent="800"
    descent="-200"
    x-height="416"
    cap-height="665"
    bbox="-115.373 -307.667 1073.9 964"
    underline-thickness="50"
    underline-position="-66"
    stemh="46"
    stemv="70"
    unicode-range="U+0020-U+FB02"
  />
<missing-glyph horiz-adv-x="280" 
 />
    <glyph glyph-name=".notdef" horiz-adv-x="280" 
 />
    <glyph glyph-name="space" unicode=" " horiz-adv-x="150" 
d="M0 0z" />
    <glyph glyph-name="exclam" unicode="!" horiz-adv-x="164" 
d="M118 226h-15l-33 333c-4 34 -17 98 22 123c10 6 27 9 42 -1c37 -26 22 -77 17 -132zM88 100c14 7 33 8 50 0c19 -8 27 -24 29 -44c1 -17 -5 -33 -21 -47c-13 -9 -31 -14 -50 -8c-17 6 -31 21 -36 40c-5 20 4 46 28 59z" />
    <glyph glyph-name="quotedbl" unicode="&#x22;" horiz-adv-x="314" 
d="M156 367h-24l-18 212c-1 22 -18 111 10 129c13 8 29 8 40 0c25 -18 9 -126 9 -132zM258 367h-24l-18 212c-1 22 -19 111 10 129c13 8 28 8 40 0c24 -18 9 -126 9 -132z" />
    <glyph glyph-name="numbersign" unicode="#" horiz-adv-x="880" 
d="M501 728l-79 -232h176l79 232h62l-79 -232h171l-18 -51h-171l-62 -182h171l-18 -51h-171l-78 -228h-62l78 228h-175l-78 -228h-64l79 228h-167l17 51h167l64 182h-168l17 51h168l79 232h62zM342 263h176l63 182h-176z" />
    <glyph glyph-name="dollar" unicode="$" horiz-adv-x="434" 
d="M243 693l-7 -101c12 2 39 3 62 0l7 101h23l-7 -104c24 -5 59 -21 62 -24c15 -16 10 -110 6 -131c0 -6 -10 -8 -13 1c-7 21 -13 63 -28 87c-8 14 -23 26 -30 29l-15 -228c34 -17 68 -42 92 -76c33 -47 35 -101 21 -144c-25 -73 -85 -108 -138 -118l-8 -122h-23l8 116
c-20 -2 -46 -1 -62 0l-8 -116h-24l8 120c-36 7 -95 26 -112 45c-7 8 -9 49 -9 80s2 60 7 79c1 5 11 10 14 -3c2 -7 7 -48 10 -63c11 -58 22 -69 93 -103l19 276c-6 3 -24 14 -36 24c-50 41 -79 105 -69 152c13 71 71 108 126 119l7 104h24zM165 544c-19 -15 -31 -37 -33 -51
c-6 -47 19 -76 65 -108l13 183c-8 -1 -34 -15 -45 -24zM220 371c12 -6 51 -30 59 -34l17 224c-9 5 -22 9 -31 10c-10 1 -24 2 -30 0zM195 9c16 -4 40 -6 62 -4l17 244c-10 7 -42 22 -60 33zM280 8c53 17 85 68 88 99c5 51 -13 86 -71 129z" />
    <glyph glyph-name="percent" unicode="%" horiz-adv-x="605" 
d="M524 584h45l-454 -621h-44zM415 279c35 14 86 11 125 -16c47 -34 62 -80 62 -127c0 -36 -12 -91 -60 -122c-40 -27 -100 -30 -138 -15c-46 18 -70 55 -80 101c-10 43 -3 98 35 140c17 18 35 31 56 39zM395 234c-30 -47 -27 -121 -10 -165c13 -33 33 -57 62 -64
c23 -6 41 0 60 17c44 39 51 104 48 138c-4 33 -21 83 -60 105c-21 12 -44 12 -63 3c-16 -8 -27 -19 -37 -34zM152 579c35 13 86 11 125 -17c47 -33 62 -80 62 -126c0 -37 -12 -91 -60 -123c-40 -26 -100 -30 -138 -15c-46 19 -70 55 -80 101c-10 43 -3 99 35 141
c17 18 35 31 56 39zM132 533c-30 -46 -27 -121 -10 -164c13 -33 33 -58 62 -65c23 -6 41 0 60 17c44 39 51 105 48 139c-4 32 -21 82 -60 104c-21 12 -44 12 -63 3c-16 -7 -27 -18 -37 -34z" />
    <glyph glyph-name="ampersand" unicode="&#x26;" horiz-adv-x="674" 
d="M229 486c6 -36 41 -87 64 -101c9 -6 20 0 29 7c36 28 54 58 55 95c2 31 -6 56 -35 78c-21 16 -50 17 -69 11c-39 -14 -48 -62 -44 -90zM147 243c-19 -44 -16 -106 14 -146c45 -58 93 -57 141 -51c27 4 82 29 101 70c6 14 -8 32 -21 50c-14 19 -34 47 -55 73
c-19 23 -39 43 -52 58c-24 24 -31 28 -49 21c-33 -10 -63 -40 -79 -75zM566 360c6 13 7 28 -9 31c-14 3 -20 3 -42 7c-16 2 -15 27 2 27h163c16 0 18 -25 2 -27c-12 -2 -10 0 -24 -7c-17 -8 -42 -43 -63 -71l-105 -140c-6 -6 -8 -11 -2 -20c49 -61 93 -110 154 -102
c10 1 22 4 34 10c10 5 11 -10 5 -22c-6 -10 -11 -17 -17 -22c-9 -10 -25 -20 -46 -28c-41 -13 -98 3 -128 29c-16 15 -31 32 -61 72c-1 4 -9 5 -11 0c-49 -67 -123 -109 -202 -104c-56 3 -106 21 -140 83c-27 49 -28 99 2 155c39 75 99 96 139 112c5 2 7 10 1 15
c-42 51 -57 104 -38 156c16 45 46 73 93 83c33 7 89 4 124 -33c25 -25 32 -66 24 -98c-12 -48 -50 -74 -89 -93c-10 -4 -10 -14 -3 -19c0 0 44 -48 70 -79l56 -67c6 -7 11 -3 15 2c35 50 58 80 96 150z" />
    <glyph glyph-name="quotesingle" unicode="'" horiz-adv-x="171" 
d="M68 530c22 24 57 60 50 82c-2 9 -8 14 -21 23c-9 6 -20 12 -25 21c-4 6 -6 19 3 31c6 10 18 19 34 19c17 0 28 -7 44 -30c14 -22 12 -62 -4 -88c-12 -21 -21 -29 -36 -45c-6 -5 -25 -23 -31 -26c-13 -7 -21 5 -14 13z" />
    <glyph glyph-name="parenleft" unicode="(" horiz-adv-x="235" 
d="M224 -48c2 -4 8 -15 8 -15c4 -5 6 -11 2 -14c-7 -5 -17 1 -28 12c-35 35 -79 85 -116 171c-69 162 -56 430 91 586c9 10 19 20 26 25c9 8 21 18 27 13c3 -4 0 -9 -2 -14c0 0 -5 -10 -8 -14c-67 -121 -84 -228 -84 -343v-31c2 -150 3 -215 84 -376z" />
    <glyph glyph-name="parenright" unicode=")" horiz-adv-x="235" 
d="M144 328v31c0 115 -17 222 -84 343c-3 4 -8 14 -8 14c-2 5 -6 10 -2 14c6 5 18 -5 27 -13c7 -5 17 -15 26 -25c147 -156 160 -424 91 -586c-37 -86 -81 -136 -116 -171c-11 -11 -22 -17 -28 -12c-5 3 -2 9 2 14c0 0 6 11 8 15c81 161 82 226 84 376z" />
    <glyph glyph-name="asterisk" unicode="*" horiz-adv-x="227" 
d="M153 607c9 5 23 15 32 24c15 13 23 20 32 19c6 -1 11 -6 14 -13c3 -6 0 -16 -9 -21c-11 -6 -38 -17 -55 -24c9 -5 25 -11 33 -14c7 -3 14 -7 18 -9c9 -6 16 -17 11 -26c-3 -7 -10 -11 -21 -8c-3 1 -10 3 -20 11c-12 9 -31 30 -34 32c0 -5 4 -29 7 -43c3 -12 2 -19 1 -23
c-3 -8 -9 -15 -19 -15c-7 0 -15 5 -17 16c0 7 0 17 2 25c3 12 7 34 6 39c-23 -19 -47 -41 -60 -37c-5 0 -12 4 -14 11c-2 9 4 17 11 21c8 6 52 19 57 21c-12 4 -40 12 -40 12c-8 2 -16 7 -22 12c-5 4 -9 14 -6 21s12 13 21 9c4 -1 12 -3 22 -12c8 -7 23 -22 34 -29
c-4 16 -13 62 -6 74c5 8 9 10 16 9c8 -1 14 -9 14 -17c1 -25 -5 -52 -8 -65z" />
    <glyph glyph-name="plus" unicode="+" horiz-adv-x="732" 
d="M361 644h69v-286h283v-68h-281v-290h-71v289h-281v68h281v287z" />
    <glyph glyph-name="comma" unicode="," horiz-adv-x="187" 
d="M70 -169c-8 -5 -16 7 -11 12c38 31 91 81 84 135c-2 13 -8 25 -19 26c-8 1 -33 -16 -54 9c-6 8 -12 26 -5 44c6 17 21 30 40 33c17 3 42 -6 61 -31c22 -28 25 -88 11 -124c-20 -48 -67 -82 -107 -104z" />
    <glyph glyph-name="hyphen" unicode="-" horiz-adv-x="251" 
d="M247 232c-17 -57 -18 -52 -30 -52h-148c-14 0 -13 6 -11 16c17 58 18 51 30 51h148c15 0 13 -5 11 -15z" />
    <glyph glyph-name="period" unicode="." horiz-adv-x="173" 
d="M116 110c28 0 51 -24 51 -52s-23 -52 -51 -52c-29 0 -52 24 -52 52s23 52 52 52z" />
    <glyph glyph-name="slash" unicode="/" horiz-adv-x="524" 
d="M488 604h41l-428 -636h-41z" />
    <glyph glyph-name="zero" unicode="0" 
d="M243 588c35 8 85 3 127 -37c81 -75 95 -243 79 -348c-9 -64 -52 -175 -129 -208c-32 -14 -103 -19 -147 12c-72 51 -101 181 -103 251c-3 112 26 233 121 305c17 13 33 19 52 25zM149 172c4 -26 28 -138 85 -163c21 -9 47 -4 66 8c80 57 89 215 87 320
c-2 73 -20 189 -83 224c-23 13 -49 13 -68 3c-109 -59 -97 -327 -87 -392z" />
    <glyph glyph-name="one" unicode="1" 
d="M302 58c0 -17 10 -23 19 -24c21 -7 31 -8 50 -11c14 -2 12 -24 -2 -23c-6 0 -51 4 -104 4c-54 0 -102 -4 -108 -4c-14 -1 -16 21 -2 23c19 3 29 4 50 11c9 1 19 7 19 24v452c0 23 -7 24 -17 21l-81 -23c-10 -2 -13 12 -6 16c29 15 65 26 94 37l70 31c8 5 18 9 18 -3v-531
z" />
    <glyph glyph-name="two" unicode="2" 
d="M172 72c1 -11 31 -9 59 -10c37 -1 50 -1 97 -1c55 0 58 -5 88 39c4 7 13 6 13 -8c0 -6 0 -26 -1 -41c0 -7 -1 -18 -3 -27c-3 -14 -7 -24 -22 -24h-305s-9 -2 -12 5c-3 4 7 15 11 20l161 199c56 69 121 165 90 249c-16 42 -41 67 -81 76c-28 6 -74 3 -107 -29
c-26 -24 -28 -36 -44 -58c-4 -4 -17 -5 -15 3c2 10 7 31 27 58c20 28 37 37 60 50c39 22 100 26 149 4c48 -22 77 -58 87 -110c18 -99 -70 -195 -145 -272l-92 -96c-7 -7 -16 -17 -15 -27z" />
    <glyph glyph-name="three" unicode="3" 
d="M265 362c46 -5 127 -36 150 -98c27 -72 6 -149 -53 -219c-59 -69 -175 -111 -236 -100c-30 6 -38 24 -31 41c2 9 11 14 21 15c11 1 16 -1 26 -6c37 -20 49 -33 83 -19c63 28 120 107 131 175c4 28 3 93 -38 126c-22 17 -42 26 -66 28c-61 4 -84 -11 -120 -32
c-6 -4 -13 8 -6 14c17 12 64 51 64 51c58 46 130 99 129 155c0 24 -9 47 -35 67c-20 13 -52 13 -76 4c-25 -10 -38 -24 -66 -51c-7 -7 -18 3 -12 13c5 7 15 20 19 25c12 15 30 30 45 39c33 21 90 25 133 1c26 -16 45 -43 46 -72c3 -64 -64 -120 -108 -157z" />
    <glyph glyph-name="four" unicode="4" 
d="M379 227c0 -6 0 -16 12 -17h65c10 0 11 -33 -3 -33h-62c-12 0 -12 -10 -12 -17v-102c0 -17 10 -23 20 -24c20 -7 30 -8 50 -11c13 -2 11 -24 -2 -23c-7 0 -51 4 -105 4s-102 -4 -108 -4c-14 -1 -16 21 -2 23c19 3 29 4 50 11c9 1 19 7 19 24v102c0 7 1 17 -12 17
c0 0 -62 2 -102 2c-47 0 -121 -2 -121 -2c-18 0 -21 15 4 52l312 443c7 12 36 -6 28 -16l-326 -446s63 -2 104 -2c39 0 101 2 101 2c13 0 12 11 12 17v216c0 29 7 32 26 39l38 11c14 4 14 -13 14 -33v-233z" />
    <glyph glyph-name="five" unicode="5" 
d="M382 594c8 -6 4 -23 1 -29c-5 -12 -7 -22 -18 -28c-8 -5 -45 -7 -75 -8c-46 -3 -108 -3 -120 -22c-3 -6 -6 -20 -3 -27c8 -14 35 -20 53 -25l15 -4c91 -22 159 -72 178 -176c16 -82 1 -172 -96 -247c-52 -40 -157 -67 -200 -74c-10 -2 -12 15 -4 18c56 19 183 69 221 146
c25 52 29 114 5 170c-26 62 -90 85 -137 105l-13 6c-58 24 -75 24 -68 44c4 11 43 112 47 125c6 14 18 14 43 17c9 1 148 13 148 13c10 1 17 2 23 -4z" />
    <glyph glyph-name="six" unicode="6" 
d="M449 662c5 0 8 -10 2 -11c-131 -30 -295 -232 -313 -376c-11 -91 7 -167 65 -248c14 -19 42 -42 83 -32c56 14 79 51 95 100c14 40 5 148 -26 193c-25 37 -59 54 -121 34c-7 -2 -12 7 -6 12c38 23 100 34 146 8c64 -35 78 -91 81 -152c2 -60 -24 -138 -92 -185
c-59 -38 -123 -35 -172 -10c-89 47 -116 130 -123 193c-14 148 54 271 195 384c47 39 130 81 186 90z" />
    <glyph glyph-name="seven" unicode="7" 
d="M213 -34h-34l186 527c9 27 9 33 -4 33c0 0 -66 2 -108 2c-48 0 -124 -2 -124 -2c-21 0 -36 0 -41 13c-1 3 0 45 1 50c1 8 12 8 19 7c0 0 89 -2 145 -2c39 0 99 2 99 2c45 0 71 4 84 -13c10 -12 -5 -39 -22 -85z" />
    <glyph glyph-name="eight" unicode="8" 
d="M340 298c43 -26 104 -52 115 -126c6 -42 -1 -98 -46 -140c-63 -58 -151 -62 -213 -45c-40 11 -87 32 -110 91c-14 35 -10 82 14 116c29 42 72 60 101 73c5 1 6 11 1 13c-45 28 -106 77 -103 161c2 59 37 99 85 128c51 31 135 32 189 -2c45 -29 66 -69 65 -119
c-2 -47 -49 -109 -97 -136c-7 -4 -7 -11 -1 -14zM158 481c-9 -46 1 -76 45 -114c29 -27 82 -52 112 -42c36 12 54 53 61 84c6 32 3 101 -37 136c-36 33 -75 31 -106 20c-39 -14 -66 -46 -75 -84zM146 116c3 -41 23 -74 66 -96c41 -20 88 -24 123 -3c44 28 55 65 56 101
c1 40 -18 79 -55 104c-38 25 -91 43 -125 28c-56 -25 -70 -84 -65 -134z" />
    <glyph glyph-name="nine" unicode="9" 
d="M76 -101c-6 -2 -8 9 -2 11c131 30 295 232 313 377c11 91 1 179 -70 255c-15 17 -45 30 -80 22c-55 -13 -77 -49 -93 -97c-14 -40 -8 -150 26 -194c36 -46 61 -50 121 -34c7 2 12 -7 6 -12c-38 -22 -100 -33 -146 -8c-64 36 -78 91 -81 152c-2 60 24 139 92 185
c59 38 121 34 172 10c90 -43 116 -129 123 -193c14 -147 -54 -270 -195 -384c-47 -38 -128 -82 -186 -90z" />
    <glyph glyph-name="colon" unicode=":" horiz-adv-x="173" 
d="M112 98c29 0 53 -23 53 -53c0 -29 -24 -52 -53 -52s-53 23 -53 52c0 30 24 53 53 53zM112 443c29 0 53 -24 53 -53s-24 -52 -53 -52s-53 23 -53 52s24 53 53 53z" />
    <glyph glyph-name="semicolon" unicode=";" horiz-adv-x="181" 
d="M112 443c29 0 53 -24 53 -53s-24 -52 -53 -52s-53 23 -53 52s24 53 53 53zM69 -169c-8 -5 -16 7 -11 12c38 31 91 81 84 135c-2 13 -8 25 -19 26c-8 1 -33 -16 -54 9c-6 8 -12 26 -5 44c6 17 22 30 40 33c17 3 42 -6 61 -31c22 -28 25 -88 11 -124
c-19 -48 -67 -82 -107 -104z" />
    <glyph glyph-name="less" unicode="&#x3c;" horiz-adv-x="551" 
d="M551 491l-401 -164l401 -165v-82l-496 210v72l496 210v-81z" />
    <glyph glyph-name="equal" unicode="=" horiz-adv-x="929" 
d="M88 491h797v-66h-797v66zM91 228h794v-62h-794v62z" />
    <glyph glyph-name="greater" unicode="&#x3e;" horiz-adv-x="551" 
d="M551 289l-496 -210v81l397 165l-397 165v81l496 -210v-72z" />
    <glyph glyph-name="question" unicode="?" horiz-adv-x="316" 
d="M116 194c-8 0 -10 4 -10 19v63c0 51 -3 53 38 79l14 9c85 53 117 97 113 183c-2 36 -14 76 -55 96c-32 16 -55 0 -80 -9c-15 -5 -35 -10 -46 -1c-6 6 -12 12 -10 25c2 11 7 19 23 24c33 10 110 -12 142 -38c58 -46 76 -114 72 -174c-6 -77 -46 -112 -140 -173l-19 -12
c-25 -17 -31 -26 -32 -45c-1 -7 -1 -15 -1 -23c0 -11 0 -23 -9 -23zM110 102c29 0 53 -24 53 -53s-24 -53 -53 -53s-53 24 -53 53s24 53 53 53z" />
    <glyph glyph-name="at" unicode="@" horiz-adv-x="892" 
d="M554 160c-49 -68 -96 -93 -165 -87c-45 4 -87 26 -111 80c-30 63 -5 179 38 243c50 74 112 114 182 111c33 -3 70 -17 93 -60c4 -7 10 -21 12 -36l23 81h76l-52 -198c-8 -26 -34 -114 -9 -141c14 -16 40 -19 66 -14c56 9 96 56 119 119c28 69 27 200 -28 274
c-76 104 -227 130 -308 126c-123 -8 -243 -59 -324 -206c-52 -99 -65 -259 -2 -372c67 -120 202 -166 304 -173c109 -4 214 22 339 99l24 -34c-176 -118 -382 -143 -535 -74c-148 67 -216 170 -234 309c-15 109 18 285 152 392c131 106 336 121 459 78
c112 -40 188 -125 211 -233c18 -83 4 -230 -83 -314c-43 -43 -121 -65 -168 -53c-42 10 -64 32 -79 83zM410 390c-41 -61 -74 -167 -52 -220c10 -24 30 -40 51 -44c28 -5 61 6 85 31c50 46 88 176 81 228c-5 29 -20 48 -45 60c-23 12 -49 8 -72 -5c-19 -11 -34 -29 -48 -50z
" />
    <glyph glyph-name="A" unicode="A" horiz-adv-x="698" 
d="M293 372c-4 -11 -8 -25 9 -25c0 0 36 -2 58 -2c25 0 64 2 64 2c13 0 7 13 5 22l-58 176c-2 10 -11 12 -15 1zM642 37c18 -4 29 -6 50 -10c16 -2 13 -28 -2 -27c-8 0 -60 5 -123 5s-110 -5 -118 -5c-15 -1 -18 25 -1 27l54 10c13 3 15 22 0 79l-33 121
c-13 47 -22 62 -45 62c0 0 -39 2 -65 2c-25 0 -65 -2 -65 -2c-29 0 -32 -20 -54 -85l-28 -86c-22 -66 -15 -83 4 -89c26 -7 34 -8 50 -12c16 -3 13 -28 -2 -27c-7 0 -51 5 -114 5s-92 -5 -99 -5c-16 -1 -18 24 -2 27c23 5 45 8 57 12c13 5 20 27 32 59l233 584
c8 22 28 41 41 3l192 -582c20 -62 24 -62 38 -66z" />
    <glyph glyph-name="B" unicode="B" horiz-adv-x="601" 
d="M240 590v-171c0 -34 5 -40 22 -40c41 0 97 1 114 5c48 12 72 36 91 84c18 44 10 92 -10 124c-28 46 -102 55 -123 57c-25 2 -76 0 -87 -12c-9 -9 -7 -20 -7 -47zM240 292v-146c0 -54 6 -84 39 -98c25 -10 137 -13 171 10c54 36 66 112 62 150c-4 53 -27 101 -93 126
c-18 7 -100 21 -158 15c-24 -1 -21 -27 -21 -57zM197 5c-63 0 -120 -5 -127 -5c-15 -1 -18 25 -2 27c22 4 34 5 59 12c10 3 22 9 22 29v532c0 20 -6 35 -19 34c-25 -2 -39 -3 -62 -5c-16 -2 -19 24 -3 27c13 3 119 16 183 20c102 6 219 16 282 -85c27 -43 28 -103 6 -142
c-16 -28 -30 -40 -51 -57c-6 -4 -4 -10 0 -12c60 -33 100 -67 114 -136c8 -43 -2 -122 -39 -167c-65 -78 -163 -77 -222 -76c0 0 -79 4 -141 4z" />
    <glyph glyph-name="C" unicode="C" horiz-adv-x="618" 
d="M615 550c1 -6 -7 -9 -11 -2c-53 85 -102 115 -193 107c-92 -7 -156 -53 -209 -148c-57 -103 -55 -264 -1 -367c38 -74 125 -126 183 -132c48 -5 132 17 187 78c13 15 29 34 34 42c4 6 13 3 12 -4c-4 -50 -7 -96 -35 -111c-85 -51 -231 -42 -318 -4
c-104 45 -184 137 -202 231c-18 96 -3 245 90 340c96 99 251 110 350 93c20 -3 95 -21 104 -42c7 -16 8 -48 9 -81z" />
    <glyph glyph-name="D" unicode="D" horiz-adv-x="763" 
d="M251 188c0 -56 -6 -103 54 -138c63 -36 169 -17 230 21c113 71 143 180 137 270c-9 118 -58 216 -202 282c-63 29 -104 25 -125 27c-25 2 -77 0 -87 -12c-9 -9 -7 -32 -7 -47v-403zM207 5c-62 0 -119 -5 -126 -5c-15 -1 -18 25 -2 27c22 4 34 5 59 12c10 3 22 9 22 29
v533c0 20 -6 35 -19 34c-25 -2 -39 -3 -62 -5c-16 -2 -19 24 -3 27c13 3 119 16 183 20c31 2 59 4 94 2c118 -6 268 -13 364 -178c53 -90 66 -243 1 -353c-88 -149 -246 -150 -354 -147c0 0 -94 4 -157 4z" />
    <glyph glyph-name="E" unicode="E" horiz-adv-x="548" 
d="M205 5c-63 0 -119 -5 -127 -5c-15 -1 -18 25 -2 27c22 4 34 5 60 12c10 3 21 9 21 29v529c0 20 -11 26 -21 29c-26 7 -38 8 -60 12c-16 3 -13 28 2 27c8 0 137 -3 200 -3c62 0 170 2 170 2c43 0 76 8 78 -14c0 -2 -3 -29 -3 -61c0 -21 1 -46 2 -65c0 -5 -14 -9 -16 1
c-2 5 -13 45 -14 47c-8 19 -11 32 -35 41c-19 8 -97 16 -97 16c-65 9 -90 12 -104 0c-8 -8 -11 -25 -11 -58v-157c0 -15 -1 -36 6 -43c10 -10 21 -8 33 -8h96c16 0 27 3 32 4c21 5 27 12 34 32c5 14 9 26 15 47c3 8 16 7 16 0c0 -11 -2 -54 -2 -97c0 -50 2 -100 2 -100
c0 -12 -13 -12 -16 -4c-8 22 -10 33 -15 47c-7 19 -13 26 -34 32c-5 1 -16 4 -32 4h-96c-12 0 -23 1 -33 -9c-7 -6 -6 -27 -6 -42v-143c0 -62 2 -78 19 -89c22 -15 138 -19 186 0c55 22 67 57 90 108c3 9 17 5 14 -5l-10 -57c-17 -99 -11 -93 -97 -91c0 0 -182 5 -245 5z
" />
    <glyph glyph-name="F" unicode="F" horiz-adv-x="509" 
d="M68 27c22 4 34 5 59 12c10 3 22 9 22 29v529c0 20 -12 26 -22 29c-25 7 -37 8 -59 12c-16 3 -13 28 2 27c7 0 137 -3 199 -3c63 0 170 2 170 2c44 0 77 8 79 -14c0 -2 -3 -29 -3 -61c0 -21 1 -46 2 -65c0 -5 -14 -9 -17 1c-1 5 -12 45 -13 47c-8 19 -11 32 -35 41
c-19 8 -97 16 -97 16c-65 9 -90 12 -104 0c-8 -8 -11 -25 -11 -58v-157c0 -15 -1 -36 6 -43c10 -10 21 -8 32 -8h97c16 0 27 3 32 4c21 5 27 12 33 32c6 14 9 26 16 47c3 8 15 7 15 0c0 -11 -1 -54 -1 -97c0 -50 1 -100 1 -100c0 -12 -12 -12 -15 -4c-8 22 -10 33 -16 47
c-6 19 -12 26 -33 32c-5 1 -16 4 -32 4h-97c-11 0 -22 1 -32 -9c-7 -6 -6 -27 -6 -42v-209c0 -20 12 -26 22 -29c26 -7 37 -8 59 -12c17 -2 14 -28 -2 -27c-7 0 -60 5 -122 5c-63 0 -120 -5 -127 -5c-14 -1 -18 25 -2 27z" />
    <glyph glyph-name="G" unicode="G" horiz-adv-x="726" 
d="M662 77c0 -23 -10 -41 -34 -54c-104 -61 -292 -61 -411 5c-128 72 -163 189 -161 297c2 76 41 224 160 296c113 68 291 80 405 20c28 -15 28 -20 31 -57c0 0 6 -44 8 -74c1 -12 -14 -15 -19 -8c-48 75 -87 140 -192 147c-82 4 -168 -14 -235 -120
c-63 -100 -77 -257 -23 -357c52 -96 158 -157 240 -159c24 0 101 3 126 43c7 12 14 33 14 70v111c0 20 -12 26 -22 29c-26 7 -65 8 -87 12c-16 2 -13 28 2 27c7 0 91 -5 154 -5s124 5 131 5c15 1 18 -25 2 -27c-22 -4 -42 -5 -68 -12c-10 -3 -21 -9 -21 -29v-160z" />
    <glyph glyph-name="H" unicode="H" horiz-adv-x="772" 
d="M258 312c-14 0 -18 -6 -18 -20v-224c0 -20 12 -26 22 -29c26 -7 37 -8 59 -12c17 -2 14 -28 -2 -27c-7 0 -60 5 -122 5c-63 0 -120 -5 -127 -5c-15 -1 -18 25 -2 27c22 4 34 5 59 12c10 3 22 9 22 29v529c0 20 -12 26 -22 29c-25 7 -37 8 -59 12c-16 3 -13 28 2 27
c7 0 64 -4 127 -4c62 0 115 4 122 4c16 1 19 -24 2 -27c-22 -4 -33 -5 -59 -12c-10 -3 -22 -9 -22 -29v-217c0 -14 3 -21 18 -21h313c15 0 18 7 18 21v217c0 20 -12 26 -22 29c-26 7 -37 8 -59 12c-17 3 -14 28 2 27c7 0 60 -4 122 -4c63 0 120 4 127 4c15 1 18 -24 2 -27
c-22 -4 -34 -5 -59 -12c-10 -3 -22 -9 -22 -29v-529c0 -20 12 -26 22 -29c25 -7 37 -8 59 -12c16 -2 13 -28 -2 -27c-7 0 -64 5 -127 5c-62 0 -115 -5 -122 -5c-16 -1 -19 25 -2 27c22 4 33 5 59 12c10 3 22 9 22 29v224c0 14 -4 20 -18 20h-313z" />
    <glyph glyph-name="I" unicode="I" horiz-adv-x="331" 
d="M238 68c0 -20 12 -26 22 -29c26 -7 38 -8 59 -12c17 -2 14 -28 -1 -27c-8 0 -60 5 -123 5s-119 -5 -127 -5c-15 -1 -18 25 -2 27c22 4 34 5 60 12c10 3 21 9 21 29v529c0 20 -11 26 -21 29c-26 7 -38 8 -60 12c-16 3 -13 28 2 27c8 0 64 -4 127 -4s115 4 123 4
c15 1 18 -24 1 -27c-21 -4 -33 -5 -59 -12c-10 -3 -22 -9 -22 -29v-529z" />
    <glyph glyph-name="J" unicode="J" horiz-adv-x="331" 
d="M239 119c0 -133 -44 -306 -173 -394c-39 -25 -109 -43 -147 -26c-19 8 -31 22 -34 41c-2 15 4 40 19 53c12 10 27 14 47 9c11 -3 23 -9 34 -23c7 -9 10 -23 24 -27c10 -4 29 1 41 9c78 58 98 230 98 305v531c0 20 -12 26 -22 29c-25 7 -37 8 -59 12c-16 3 -13 28 2 27
c7 0 64 -4 127 -4c62 0 115 4 122 4c16 1 19 -24 2 -27c-22 -4 -33 -5 -59 -12c-10 -3 -22 -9 -22 -29v-478z" />
    <glyph glyph-name="K" unicode="K" horiz-adv-x="792" 
d="M457 638c-17 1 -14 28 2 27c7 0 72 -4 135 -4s124 4 131 4c16 1 16 -26 3 -27c-26 -2 -44 1 -66 -9c-15 -7 -43 -20 -70 -38c-95 -67 -236 -183 -236 -183c-15 -11 -11 -23 -5 -29l316 -292c71 -65 96 -54 122 -60c16 -3 14 -28 -2 -27c-7 0 -90 5 -153 5
s-127 -5 -134 -5c-17 -1 -19 25 -2 27c19 4 58 1 63 15c6 14 -28 46 -60 74l-197 183c-19 18 -25 25 -49 22c-13 -2 -18 -21 -18 -38v-215c0 -20 11 -26 21 -29c26 -7 38 -8 60 -12c16 -2 13 -28 -2 -27c-8 0 -60 5 -123 5s-119 -5 -127 -5c-15 -1 -18 25 -1 27
c21 4 33 5 59 12c10 3 22 9 22 29v529c0 20 -12 26 -22 29c-26 7 -38 8 -59 12c-17 3 -14 28 1 27c8 0 64 -4 127 -4s115 4 123 4c15 1 18 -24 2 -27c-22 -4 -34 -5 -60 -12c-10 -3 -21 -9 -21 -29v-235c0 -10 10 -7 15 -2l271 248c15 13 11 23 0 25c-18 1 -45 4 -66 5z" />
    <glyph glyph-name="L" unicode="L" horiz-adv-x="531" 
d="M252 84c0 -19 -1 -34 13 -42c20 -12 144 -1 166 10c49 24 69 52 97 99c3 7 16 5 15 -3c-7 -55 -19 -125 -22 -136c-4 -22 -23 -14 -72 -12c0 0 -69 5 -131 5c-63 0 -229 -5 -236 -5c-16 -1 -18 25 -2 27c22 4 34 5 59 12c10 3 22 9 22 29v529c0 20 -12 26 -22 29
c-25 7 -37 8 -59 12c-16 3 -14 28 2 27c7 0 64 -4 126 -4c63 0 116 4 123 4c16 1 18 -24 2 -27c-22 -4 -34 -5 -59 -12c-10 -3 -22 -9 -22 -29v-513z" />
    <glyph glyph-name="M" unicode="M" horiz-adv-x="865" 
d="M728 661c65 -2 105 2 123 4c15 2 18 -24 2 -27c-22 -4 -34 -5 -60 -12c-10 -3 -21 -9 -21 -29v-529c0 -20 11 -26 21 -29c26 -7 38 -8 60 -12c16 -2 13 -28 -2 -27c-8 0 -60 5 -123 5s-119 -5 -127 -5c-15 -1 -18 25 -1 27c21 4 32 6 59 12c11 3 22 7 22 29v427
c0 14 -14 20 -20 2l-193 -466c-5 -13 -22 -13 -27 -1l-204 477c-3 6 -12 12 -13 -7l-10 -384c0 -59 4 -65 44 -77c26 -7 38 -8 60 -12c16 -2 13 -28 -2 -27c-8 0 -60 5 -123 5s-119 -5 -127 -5c-15 -1 -18 25 -1 27c21 4 33 5 59 12c23 6 28 16 33 77l36 419
c5 76 4 83 -32 93c-19 5 -58 8 -70 10c-16 3 -14 28 2 27c4 0 79 -3 151 -2c29 1 24 -1 50 -58l176 -399c8 -17 12 -28 21 -28c8 0 10 3 20 32l153 374c30 74 28 78 64 77z" />
    <glyph glyph-name="N" unicode="N" horiz-adv-x="834" 
d="M768 628c-29 -6 -30 -49 -30 -79l-7 -554c0 -25 -2 -33 -9 -38c-8 -5 -21 13 -29 21l-475 565c-2 4 -10 3 -10 -5l5 -413c0 -6 1 -38 2 -46c3 -28 24 -34 51 -41c22 -5 38 -7 60 -11c16 -2 13 -28 -2 -27c-7 0 -66 5 -128 5c-63 0 -120 -5 -127 -5c-15 -1 -18 25 -2 27
c22 4 38 6 59 12c16 5 34 16 35 69l8 439c0 27 3 73 -28 81c-18 4 -58 8 -70 10c-16 3 -14 28 2 27c4 0 75 -3 147 0c15 0 18 3 32 -13l430 -511c3 -5 11 -2 10 5l-1 398c0 44 -10 72 -42 82c-26 8 -38 8 -59 12c-17 3 -14 28 1 27c8 0 46 -4 109 -4s115 4 123 4
c15 1 18 -24 1 -27c-21 -4 -33 -6 -56 -10z" />
    <glyph glyph-name="O" unicode="O" horiz-adv-x="757" 
d="M368 678c85 11 226 -21 304 -111c89 -104 100 -242 71 -338c-32 -113 -132 -202 -242 -236c-108 -33 -213 -15 -318 70c-108 87 -135 201 -125 304c10 105 68 212 197 277c43 21 87 30 113 34zM167 388c-8 -98 10 -254 116 -330c67 -48 155 -55 213 -31
c91 38 138 155 148 229c18 119 8 262 -102 352c-58 47 -163 50 -205 34c-121 -42 -164 -166 -170 -254z" />
    <glyph glyph-name="P" unicode="P" horiz-adv-x="552" 
d="M236 588v-216c0 -24 1 -34 14 -43c21 -12 107 -13 142 6c53 29 73 70 75 128c2 76 -17 124 -70 156c-37 22 -124 21 -139 12c-22 -11 -22 -20 -22 -43zM188 663c46 0 117 2 117 2c73 1 175 0 231 -102c30 -54 19 -144 -16 -203c-42 -68 -122 -82 -178 -81
c-22 0 -48 3 -93 19c-8 4 -13 -3 -13 -16v-214c0 -23 11 -26 22 -29c25 -7 37 -8 59 -12c16 -2 13 -28 -2 -27c-7 0 -60 5 -123 5s-119 -5 -126 -5c-16 -1 -19 25 -2 27c22 4 33 5 59 12c10 3 22 9 22 29v529c0 20 -12 26 -22 29c-26 7 -37 8 -59 12c-17 3 -14 28 2 27
c7 0 74 -2 122 -2z" />
    <glyph glyph-name="Q" unicode="Q" horiz-adv-x="757" 
d="M467 -20l15 -25c83 -131 202 -153 296 -156c15 0 17 0 28 2c10 2 17 -17 0 -24c-18 -7 -53 -15 -73 -17c-37 -4 -67 -4 -100 2c-53 8 -224 72 -264 169c-3 6 -12 34 -14 43c-131 26 -227 94 -276 230c-38 107 -42 230 49 341c109 132 241 145 335 129
c94 -15 210 -83 261 -205c41 -100 42 -240 -37 -347c-60 -82 -130 -121 -220 -142zM305 627c-109 -65 -138 -175 -140 -262c-2 -79 20 -249 126 -321c70 -49 141 -49 213 -18c91 40 128 173 136 224c15 106 15 250 -110 354c-69 58 -135 58 -196 37c-6 -2 -16 -6 -29 -14z
" />
    <glyph glyph-name="R" unicode="R" horiz-adv-x="696" 
d="M247 551v-109c0 -64 0 -74 12 -84c9 -8 78 -3 89 1c43 11 76 41 91 82c14 35 10 104 -14 140c-34 50 -115 58 -136 59c-19 1 -28 -1 -36 -11c-7 -9 -6 -73 -6 -78zM313 665c36 0 147 4 187 -63c29 -48 37 -114 17 -162c-12 -27 -27 -51 -71 -86c-22 -18 -24 -18 -10 -45
c5 -10 112 -196 112 -196c34 -62 80 -84 149 -86c10 0 14 -27 -5 -27h-197l-119 234c-28 54 -41 87 -79 92c-15 2 -29 3 -38 -5c-11 -10 -9 -48 -9 -86v-167c0 -23 12 -26 22 -29c26 -7 37 -8 59 -12c17 -2 14 -28 -2 -27c-7 0 -60 5 -122 5c-63 0 -120 -5 -127 -5
c-15 -1 -18 25 -2 27c22 4 34 5 59 12c10 3 22 9 22 29v529c0 20 -12 26 -22 29c-25 7 -37 8 -59 12c-16 3 -13 28 2 27c7 0 75 -2 123 -2c45 0 110 2 110 2z" />
    <glyph glyph-name="S" unicode="S" horiz-adv-x="448" 
d="M393 625c0 0 4 -66 4 -105c1 -6 -11 -7 -13 0c-16 50 -20 98 -87 122c-37 13 -95 14 -132 -16c-33 -26 -42 -56 -38 -93c9 -66 63 -95 108 -118l45 -23c91 -45 161 -96 165 -201c2 -49 -13 -133 -86 -179c-82 -52 -182 -39 -278 4c-14 7 -24 16 -24 28c0 31 -1 70 7 137
c2 10 16 9 17 -1c13 -64 6 -106 91 -147c55 -28 113 -27 163 9c36 25 49 62 47 103c-3 66 -58 108 -130 143l-26 12c-98 48 -146 89 -159 176c-6 47 4 108 49 152c59 57 142 59 209 43c52 -13 66 -29 68 -46z" />
    <glyph glyph-name="T" unicode="T" horiz-adv-x="609" 
d="M367 68c0 -23 12 -26 22 -29c25 -7 37 -8 59 -12c16 -2 13 -28 -2 -27c-7 0 -60 5 -123 5s-119 -5 -126 -5c-16 -1 -19 25 -2 27c22 4 33 5 59 12c10 3 22 9 22 29v523c0 6 2 25 -14 30c-37 13 -82 8 -115 0c-41 -10 -69 -47 -107 -93c-10 -11 -21 -3 -17 9
c16 55 42 140 54 173c3 8 15 7 18 0c13 -34 16 -45 72 -45h345c51 0 65 1 83 32c6 9 19 7 19 -3l-4 -134c-1 -18 -1 -36 -14 -36c-10 0 -13 13 -15 27c-3 30 -14 52 -47 63c-17 6 -75 12 -113 14c-25 1 -35 -1 -40 -4c-13 -8 -14 -32 -14 -79v-477z" />
    <glyph glyph-name="U" unicode="U" horiz-adv-x="746" 
d="M517 638c-17 1 -14 28 2 27c7 0 67 -3 108 -3c58 0 105 3 112 3c15 1 18 -24 2 -27l-57 -10c-29 -6 -30 -49 -30 -79v-310c0 -76 -7 -175 -104 -231c-70 -39 -237 -43 -318 5c-88 51 -86 127 -86 200v384c0 20 -11 26 -21 29c-26 7 -38 8 -59 12c-17 3 -14 28 1 27
c8 0 64 -4 127 -4s115 4 123 4c15 1 18 -24 1 -27c-21 -4 -33 -5 -59 -12c-10 -3 -22 -9 -22 -29v-385c0 -64 -6 -132 71 -175c53 -30 167 -29 219 0c84 49 91 142 91 208v304c0 30 0 70 -30 79c-20 6 -37 7 -71 10z" />
    <glyph glyph-name="V" unicode="V" horiz-adv-x="698" 
d="M631 584l-230 -581c-10 -26 -21 -31 -32 2l-226 565c-14 36 -26 51 -37 55c-22 7 -33 9 -58 13c-16 3 -13 28 2 27c7 0 64 -4 127 -4c62 0 118 4 125 4c16 1 18 -24 2 -27c-22 -4 -56 0 -67 -17c-9 -13 6 -45 18 -74l154 -384c6 -15 18 -16 22 1l132 381
c8 24 13 46 11 66c-1 9 -8 21 -40 23c-13 1 -29 2 -49 4c-16 1 -15 28 1 27c7 0 45 -4 108 -4s94 4 101 4c16 1 18 -25 2 -27c-20 -3 -35 -6 -43 -13c-9 -8 -17 -28 -23 -41z" />
    <glyph glyph-name="W" unicode="W" horiz-adv-x="1059" 
d="M919 592c4 11 8 24 5 29c-8 11 -17 13 -50 17c-17 2 -14 28 1 27c8 0 31 -2 94 -2s86 2 93 2c15 1 16 -25 2 -27c-51 -8 -69 -3 -99 -74l-236 -560c-10 -25 -18 -38 -33 -37c-14 1 -26 35 -44 78l-80 184c-4 14 -13 14 -20 1l-114 -226c-9 -19 -19 -38 -33 -37
s-26 33 -44 78l-233 545c-10 27 -20 41 -34 42c-14 2 -13 2 -38 6c-16 3 -13 28 2 27c8 0 46 -2 109 -2c62 0 95 2 102 2c16 1 18 -24 2 -27c-8 -2 -20 -2 -28 -3c-26 -4 -20 -20 -17 -29l199 -484c5 -15 9 -24 15 -24c5 0 9 8 18 24l72 146c10 20 13 22 3 43l-128 260
c-13 28 -29 60 -44 62c-10 2 -4 1 -29 5c-16 3 -14 28 2 27c7 0 45 -2 108 -2s98 2 106 2c15 1 16 -25 2 -27c-9 -1 -22 -3 -30 -4c-41 -3 -36 -21 -32 -29l90 -201c5 -12 13 -17 22 2l57 130c16 40 31 74 25 85c-5 11 -20 13 -54 17c-17 2 -14 28 2 27c7 0 31 -2 93 -2
c63 0 86 2 93 2c16 1 17 -25 2 -27c-51 -8 -76 -16 -105 -77l-96 -206c-11 -23 -8 -21 2 -42l88 -191c6 -14 10 -24 16 -24c5 0 8 -1 17 24z" />
    <glyph glyph-name="X" unicode="X" horiz-adv-x="732" 
d="M518 42c9 12 -2 33 -39 84l-104 145c-5 7 -10 7 -16 -3l-14 -21l-70 -109c-36 -55 -33 -77 -28 -85c10 -20 37 -23 81 -26c17 -1 14 -28 -1 -27c-8 0 -91 2 -154 2s-112 -2 -119 -2c-16 -1 -17 26 -2 27c10 1 28 3 37 4c32 4 47 4 94 64l150 190c15 19 15 25 -2 47
l-183 252c-34 49 -42 45 -68 49c-10 2 -4 1 -29 5c-16 3 -14 28 2 27c7 0 91 -2 154 -2c62 0 116 2 123 2c16 1 17 -26 2 -27c-10 -1 -25 -2 -34 -3c-27 -3 -35 -6 -41 -18c-10 -18 18 -54 46 -94l79 -109c9 -13 15 -23 21 -23s13 9 17 17l106 168c9 15 17 32 13 42
c-10 23 -31 17 -77 20c-16 1 -13 28 2 27c7 0 91 -2 154 -2s85 2 93 2c15 1 16 -26 1 -27c-10 -1 -28 -3 -37 -4c-26 -3 -55 -26 -87 -65l-153 -188c-13 -15 -11 -25 3 -44l183 -253c30 -41 58 -49 80 -52c10 -2 4 -1 29 -5c16 -2 13 -28 -2 -27c-7 0 -91 2 -154 2
s-116 -2 -124 -2c-15 -1 -16 26 -1 27c10 1 22 1 31 2c23 2 32 6 38 13z" />
    <glyph glyph-name="Y" unicode="Y" horiz-adv-x="728" 
d="M659 601l-215 -260c-31 -38 -27 -39 -27 -69v-204c0 -23 12 -26 22 -29c25 -7 37 -8 59 -12c16 -2 13 -28 -2 -27c-7 0 -60 5 -123 5s-119 -5 -126 -5c-16 -1 -19 25 -2 27c22 4 33 5 59 12c10 3 22 9 22 29v196c0 26 2 27 -16 55l-178 271c-16 25 -24 40 -51 43
c-10 1 -5 1 -29 5c-17 3 -14 28 2 27c7 0 63 -2 126 -2s117 2 124 2c15 1 16 -26 2 -27c-10 -1 -26 -2 -35 -3c-18 -1 -54 -6 -24 -51l152 -229c4 -7 10 -15 21 5l122 172c36 51 49 72 45 84c-6 22 -30 18 -67 22c-16 2 -11 27 2 27c8 0 71 -2 112 -2c30 0 86 2 93 2
c15 1 16 -25 2 -26c-10 -1 -23 -2 -37 -7c-10 -3 -25 -21 -33 -31z" />
    <glyph glyph-name="Z" unicode="Z" horiz-adv-x="650" 
d="M140 712c8 -1 9 -12 9 -19c0 -5 2 -15 6 -19c6 -6 12 -9 34 -9c0 0 126 -2 207 -2c87 0 224 2 224 2c3 0 16 2 20 -8c3 -9 -33 -54 -51 -77l-331 -431c-26 -33 -57 -72 -48 -88c12 -21 42 -22 104 -22h175c51 0 85 8 115 62c14 24 20 55 24 70c3 12 19 8 19 1
c0 -15 -1 -86 -1 -86c0 -55 -2 -72 -13 -83c-8 -8 -51 -5 -76 -5c0 0 -128 5 -209 5c-107 0 -274 -3 -274 -3c-36 0 -20 23 -4 45l439 567c10 12 5 19 -6 19l-240 -7c-106 -3 -117 -33 -167 -99c-7 -8 -21 -7 -17 8l45 146c4 14 9 33 16 33z" />
    <glyph glyph-name="bracketleft" unicode="[" horiz-adv-x="253" 
d="M253 665v-45h-103v-867h103v-46h-189v958h189z" />
    <glyph glyph-name="backslash" unicode="\" horiz-adv-x="524" 
d="M519 0h-39l-427 636h41z" />
    <glyph glyph-name="bracketright" unicode="]" horiz-adv-x="253" 
d="M65 665h188v-958h-188v46h102v867h-102v45z" />
    <glyph glyph-name="asciicircum" unicode="^" horiz-adv-x="327" 
d="M157 680h60l101 -151h-34l-97 99l-96 -100h-35z" />
    <glyph glyph-name="underscore" unicode="_" horiz-adv-x="592" 
d="M611 -170h-610v43h610v-43z" />
    <glyph glyph-name="grave" unicode="`" horiz-adv-x="247" 
d="M275 522h-37l-69 49c-19 13 -89 52 -83 81c1 10 10 22 25 26c32 8 74 -49 99 -79z" />
    <glyph glyph-name="a" unicode="a" horiz-adv-x="404" 
d="M419 73c11 -7 2 -25 -4 -34c-7 -10 -17 -22 -33 -32c-23 -13 -48 -18 -71 -8c-8 4 -29 13 -37 22c-13 14 -20 22 -36 9c-28 -22 -94 -62 -139 -40c-20 10 -30 27 -31 48c-2 44 33 98 82 128c17 10 35 19 62 30l27 11c17 9 20 12 20 30c0 81 2 127 -12 145
c-12 17 -47 19 -64 14c-41 -13 -47 -45 -67 -93c-10 -27 -61 -37 -60 -21c3 62 58 111 115 133c33 13 95 28 127 1c36 -30 31 -106 31 -138v-140c0 -61 0 -72 20 -86c10 -7 23 -8 38 2c12 8 23 25 32 19zM158 128c-18 -22 -21 -42 -17 -57c5 -17 21 -30 36 -35
c17 -5 36 -1 50 9c32 24 32 55 32 107c0 15 -3 25 -11 30c-4 4 -15 5 -29 -4c-22 -12 -46 -33 -61 -50z" />
    <glyph glyph-name="b" unicode="b" horiz-adv-x="498" 
d="M188 392c67 39 124 59 207 9c60 -36 95 -112 99 -172c5 -72 -14 -139 -82 -194c-50 -40 -127 -52 -185 -38c-30 8 -30 8 -58 18c-15 6 -25 -9 -33 -26c-3 -9 -9 -24 -21 -24c-8 0 -15 3 -15 11c0 14 4 47 4 59v576c0 29 0 43 -26 55c-7 4 -20 6 -23 12c-4 6 1 14 14 17
c9 3 24 9 39 17c21 10 44 29 58 21c17 -9 8 -48 8 -95v-224c0 -26 4 -27 14 -22zM174 332v-166c0 -27 -1 -93 54 -128c30 -18 78 -31 115 -11c62 34 85 121 85 164c1 51 -15 125 -83 166c-43 25 -123 31 -152 17c-19 -9 -19 -23 -19 -42z" />
    <glyph glyph-name="c" unicode="c" horiz-adv-x="392" 
d="M382 65c7 5 13 -6 9 -10c-40 -52 -94 -70 -134 -71c-51 -2 -115 14 -161 76c-51 69 -44 152 -23 209c24 69 67 133 154 156c26 6 121 14 150 -15c9 -9 13 -22 12 -33c-1 -8 -3 -17 -14 -20c-8 -3 -23 -3 -42 13c-21 18 -49 45 -90 36c-44 -10 -80 -56 -99 -104
c-27 -67 -28 -142 13 -201c34 -50 89 -72 132 -71c39 1 62 10 93 35z" />
    <glyph glyph-name="d" unicode="d" horiz-adv-x="511" 
d="M161 345c-44 -53 -46 -135 -35 -179c11 -50 42 -104 99 -124c29 -11 95 -7 114 3c28 13 28 25 28 74v118c0 58 2 100 -46 134c-31 23 -74 19 -94 14c-21 -6 -46 -16 -66 -40zM431 638v-600c0 -10 1 -18 13 -17c27 4 26 4 41 7c8 2 10 -16 3 -19c-40 -15 -97 -26 -97 -26
c-8 -2 -13 -3 -17 -1c-7 3 -8 9 -8 21c0 7 -1 12 -1 22c0 8 -4 11 -10 7c-40 -24 -158 -53 -229 4c-73 60 -74 156 -61 212c15 67 64 135 139 154c28 7 71 7 91 2c20 -4 33 -6 43 -9c21 -6 23 9 23 37v216c0 34 0 41 -39 54c-9 3 -24 7 -23 20c1 9 12 12 23 12
c0 0 28 -1 45 -1c19 0 49 1 49 1c16 0 18 -11 18 -28c0 0 -3 -21 -3 -68z" />
    <glyph glyph-name="e" unicode="e" horiz-adv-x="409" 
d="M374 297h-216c-16 0 -20 -8 -23 -14c-19 -28 -18 -112 7 -157c27 -51 85 -82 128 -87c52 -6 84 16 124 46c5 4 13 -4 8 -10c-38 -53 -106 -93 -168 -91c-62 1 -119 46 -152 111c-35 68 -33 175 12 243c43 66 106 92 159 93c52 1 100 -26 138 -86c3 -4 8 -15 10 -20
c6 -11 8 -28 -27 -28zM307 329c16 9 26 20 28 32c1 12 -7 23 -19 33c-21 16 -52 26 -79 18c-21 -6 -44 -20 -58 -33c-9 -7 -22 -20 -28 -29c-13 -16 -10 -27 3 -31c33 -6 124 -2 153 10z" />
    <glyph glyph-name="f" unicode="f" horiz-adv-x="283" 
d="M312 409c15 0 16 -42 0 -42h-93c-17 0 -17 -14 -17 -22v-230c0 -69 4 -74 19 -85c10 -7 29 -12 51 -15c7 0 9 -15 -1 -15c0 0 -63 4 -103 4c-41 0 -105 -4 -105 -4c-10 0 -8 15 -1 15c22 3 41 9 51 15c16 11 19 23 19 86v229c0 8 0 22 -17 22h-39c-11 0 -12 16 -1 21
l37 15c18 7 20 9 20 45v29c0 94 35 179 146 231c33 16 91 14 120 2c15 -7 23 -17 22 -26c-1 -7 -11 -22 -20 -30c-11 -10 -25 -9 -40 -2c-42 21 -51 35 -86 20c-54 -22 -65 -88 -68 -112c-5 -35 -4 -130 -4 -130c0 -8 0 -21 17 -21h93z" />
    <glyph glyph-name="g" unicode="g" horiz-adv-x="468" 
d="M480 341h-61c-19 0 -23 -3 -20 -17c6 -31 1 -56 0 -72c-3 -21 -13 -47 -26 -71c-41 -75 -108 -73 -178 -77c-22 -2 -40 -9 -49 -29c-5 -10 -3 -27 4 -35c17 -20 54 -17 85 -17h31c44 0 135 3 179 -64c18 -28 26 -80 8 -121c-39 -88 -123 -118 -226 -130
c-30 -4 -133 -4 -173 41c-28 30 -31 69 -22 101c14 51 64 79 96 100c8 5 10 13 -1 22c-25 23 -64 64 -57 94c6 21 29 29 62 40l26 9c9 1 8 10 4 12c-54 55 -71 116 -63 171c6 39 31 87 71 111c63 37 131 25 185 -10c3 -2 7 -6 11 -9c11 -8 20 -6 37 -6h77c16 0 17 -43 0 -43
zM167 215c9 -36 31 -72 65 -84c19 -7 46 -3 64 10c44 35 43 107 40 144c-3 32 -25 99 -64 119c-20 10 -45 8 -63 -2c-57 -34 -54 -141 -42 -187zM91 -190c7 -33 37 -54 64 -63c49 -16 148 -19 212 36c32 27 54 67 52 101c-1 27 -12 40 -36 50c-33 16 -195 31 -226 12
c-44 -27 -74 -101 -66 -136z" />
    <glyph glyph-name="h" unicode="h" horiz-adv-x="530" 
d="M96 666c-8 4 -20 6 -24 12s2 14 14 17c10 3 24 9 40 17c20 10 43 29 57 21c17 -9 8 -48 8 -95v-247c0 -23 9 -19 14 -15c60 48 126 73 188 42c72 -36 67 -114 67 -162v-141c0 -69 4 -74 20 -85c10 -7 30 -12 50 -15c8 0 10 -15 0 -15c0 0 -63 4 -103 4
c-41 0 -97 -4 -97 -4c-10 0 -8 15 -1 15c22 3 32 9 42 15c17 11 19 23 19 86v131c0 56 6 108 -42 135c-30 17 -74 15 -106 -4c-57 -34 -51 -121 -51 -167v-96c0 -69 4 -74 19 -85c10 -7 20 -12 42 -15c7 0 9 -15 -1 -15c0 0 -54 4 -94 4c-41 0 -105 -4 -105 -4
c-10 0 -8 15 -1 15c22 3 41 9 51 15c16 11 19 23 19 86v495c0 29 0 43 -25 55z" />
    <glyph glyph-name="i" unicode="i" horiz-adv-x="276" 
d="M132 258c0 46 -3 74 -44 82c-9 2 -7 17 0 19c37 11 78 30 107 69c2 3 13 6 12 -8c0 -17 -5 -51 -5 -71v-234c0 -69 4 -74 19 -85c10 -7 29 -12 51 -15c7 0 9 -15 -1 -15c0 0 -63 4 -103 4c-41 0 -105 -4 -105 -4c-10 0 -8 15 -1 15c22 3 41 9 51 15c16 11 19 23 19 86
v142zM130 635c0 28 23 51 51 51s52 -23 52 -51s-24 -51 -52 -51s-51 23 -51 51z" />
    <glyph glyph-name="j" unicode="j" horiz-adv-x="276" 
d="M105 635c0 28 22 51 51 51c28 0 51 -23 51 -51s-23 -51 -51 -51c-29 0 -51 23 -51 51zM92 341c-9 2 -7 17 0 18c36 12 77 31 106 70c3 3 14 6 13 -8c-1 -17 -5 -52 -5 -71v-375c0 -74 -14 -154 -103 -223c-14 -11 -28 -18 -41 -22c-17 -6 -20 16 -10 23
c26 17 57 42 74 110c10 38 10 59 10 109v286c0 47 -3 75 -44 83z" />
    <glyph glyph-name="k" unicode="k" horiz-adv-x="517" 
d="M194 251c0 -17 21 -9 33 0l111 91c11 10 20 21 20 30c-1 19 -17 24 -39 28c-8 1 -9 16 1 16c0 0 56 -4 97 -4c40 0 75 4 75 4c10 0 9 -15 1 -16c-13 -1 -39 -11 -58 -26l-135 -96c-9 -7 -22 -16 -23 -26c-2 -11 9 -23 29 -44c0 0 152 -162 171 -178c11 -10 23 -13 42 -15
c7 0 9 -15 -1 -15c0 0 -54 4 -94 4c-41 0 -106 -4 -106 -4c-10 0 -8 15 0 15c31 5 41 10 43 18c2 5 1 11 -8 21l-128 148c-10 13 -31 11 -31 -5v-82c0 -69 3 -74 19 -85c10 -7 29 -12 51 -15c7 0 9 -15 -1 -15c0 0 -63 4 -103 4c-41 0 -105 -4 -105 -4c-10 0 -9 15 -1 15
c22 3 41 9 51 15c16 11 19 23 19 86v495c0 29 0 43 -26 55c-7 4 -20 6 -23 12c-4 6 1 14 14 17c9 3 24 9 39 17c21 10 44 29 58 21c17 -9 8 -48 8 -95v-387z" />
    <glyph glyph-name="l" unicode="l" horiz-adv-x="276" 
d="M102 666c-7 4 -20 6 -24 12c-3 6 2 14 15 17c9 3 23 9 39 17c21 10 44 29 57 21c18 -9 8 -48 8 -95v-522c0 -63 3 -75 20 -86c10 -6 29 -12 51 -15c7 0 9 -15 -1 -15c0 0 -63 4 -103 4c-41 0 -106 -4 -106 -4c-10 0 -8 15 -1 15c22 3 41 9 51 15c17 11 19 23 19 86v495
c0 25 0 43 -25 55z" />
    <glyph glyph-name="m" unicode="m" horiz-adv-x="803" 
d="M80 341c-9 2 -7 17 0 18c36 12 77 31 107 70c2 3 15 6 12 -8c-2 -16 -4 -30 -5 -42c-1 -14 7 -14 14 -8c43 38 110 80 177 49c7 -3 19 -8 34 -24c18 -18 26 -28 35 -28c7 0 16 10 34 25c10 8 25 19 36 26c36 20 102 14 138 -8c65 -39 65 -121 65 -155v-141
c0 -69 4 -74 19 -85c10 -7 29 -12 51 -15c7 0 9 -15 -1 -15c0 0 -63 4 -103 4c-41 0 -105 -4 -105 -4c-10 0 -8 15 -1 15c22 3 41 9 51 15c16 11 19 23 19 86v135c0 26 5 90 -36 122c-21 17 -90 24 -122 -2c-37 -28 -38 -68 -38 -112v-144c0 -69 4 -74 19 -85
c10 -7 30 -12 51 -15c8 0 9 -15 -1 -15c0 0 -62 4 -102 4c-41 0 -106 -4 -106 -4c-10 0 -8 15 -1 15c22 3 41 9 51 15c17 11 19 23 19 86v135c0 36 6 93 -36 119c-30 19 -79 17 -118 -4c-49 -28 -43 -88 -43 -129v-122c0 -69 3 -74 19 -85c10 -7 29 -12 51 -15
c7 0 9 -15 -1 -15c0 0 -63 4 -103 4c-41 0 -105 -4 -105 -4c-10 0 -9 15 -1 15c22 3 41 9 51 15c16 11 19 23 19 86v142c0 46 -3 75 -44 83z" />
    <glyph glyph-name="n" unicode="n" horiz-adv-x="538" 
d="M381 422c23 -8 46 -25 58 -44c27 -41 26 -83 26 -110v-153c0 -69 4 -74 19 -85c10 -7 29 -12 51 -15c7 0 9 -15 -1 -15c0 0 -63 4 -103 4c-41 0 -105 -4 -105 -4c-10 0 -8 15 -1 15c22 3 41 9 51 15c16 11 19 23 19 86v144c0 25 5 89 -36 116c-31 19 -87 15 -125 -6
c-49 -27 -44 -87 -44 -128v-127c0 -69 4 -74 19 -85c10 -7 29 -12 51 -15c8 0 9 -15 -1 -15c0 0 -62 4 -102 4c-41 0 -106 -4 -106 -4c-10 0 -8 15 -1 15c22 3 41 9 51 15c16 11 19 23 19 86v142c0 46 -3 75 -44 83c-9 2 -7 17 0 18c37 12 78 31 107 70c3 3 15 6 13 -8
c-3 -16 -5 -25 -6 -38c-1 -14 7 -14 15 -7c45 40 108 71 176 46z" />
    <glyph glyph-name="o" unicode="o" horiz-adv-x="490" 
d="M246 429c44 7 123 -7 177 -61c59 -61 77 -140 59 -209c-15 -58 -53 -130 -130 -160c-70 -26 -152 -18 -209 23c-57 40 -91 137 -89 184c2 77 29 142 113 195c19 12 55 24 79 28zM225 406c-59 -27 -86 -98 -93 -159c-7 -53 8 -171 68 -222c25 -20 62 -30 94 -20
c60 18 101 97 113 137c21 70 22 140 -42 224c-32 41 -72 51 -105 49c-14 -1 -29 -6 -35 -9z" />
    <glyph glyph-name="p" unicode="p" horiz-adv-x="499" 
d="M186 274v-87c0 -61 -6 -119 53 -151c41 -21 87 -16 124 6c60 34 78 122 77 165c-1 65 -34 115 -98 146c-40 20 -111 28 -138 9c-19 -13 -18 -44 -18 -88zM117 258c0 46 -4 84 -43 87c-9 1 -8 13 0 14c26 3 75 18 106 69c3 4 15 6 13 -8l-6 -31c0 -12 9 -12 15 -7
c43 33 123 51 193 11c54 -31 94 -72 103 -140c7 -56 -13 -141 -70 -201c-51 -54 -116 -63 -174 -51c-27 5 -48 14 -57 6c-11 -10 -10 -37 -10 -83v-110c0 -68 4 -73 20 -84c10 -8 29 -12 51 -15c7 -1 9 -15 -1 -15c0 0 -63 3 -103 3c-41 0 -106 -3 -106 -3
c-10 0 -8 14 -1 15c22 3 41 8 51 15c17 11 19 23 19 85v443z" />
    <glyph glyph-name="q" unicode="q" horiz-adv-x="500" 
d="M385 251c0 31 6 85 -54 123c-33 21 -96 15 -119 3c-55 -30 -82 -88 -82 -156s26 -125 83 -158s117 -25 157 -7c13 6 15 8 15 24v171zM456 -186c0 -68 4 -73 19 -84c10 -8 29 -12 51 -15c7 -1 9 -15 -1 -15c0 0 -63 3 -103 3c-41 0 -105 -3 -105 -3c-10 0 -9 14 -1 15
c22 3 41 8 51 15c16 11 19 23 19 85v188c0 22 -4 28 -16 22c-60 -27 -139 -35 -204 -1c-63 32 -110 90 -111 162c-1 68 24 143 87 189c93 66 177 35 250 15c13 -3 26 -13 35 7l12 28c6 11 17 7 17 -1v-610z" />
    <glyph glyph-name="r" unicode="r" horiz-adv-x="333" 
d="M126 250c0 47 -2 74 -44 88c-11 3 -8 19 1 21c27 9 69 27 105 70c3 3 15 6 13 -8c0 0 -4 -29 -5 -44c0 -3 5 -7 8 -4c20 17 64 70 109 56c17 -6 33 -15 35 -37c2 -14 -3 -32 -12 -37c-14 -8 -28 -11 -51 -1c-30 12 -45 23 -67 6c-25 -19 -22 -70 -22 -108v-137
c0 -72 3 -74 19 -85c10 -7 29 -12 51 -15c7 0 9 -15 -1 -15c0 0 -63 4 -103 4c-41 0 -106 -4 -106 -4c-10 0 -8 15 0 15c21 3 40 9 50 15c17 11 20 23 20 86v134z" />
    <glyph glyph-name="s" unicode="s" horiz-adv-x="325" 
d="M164 428c40 8 102 1 122 -13c11 -8 5 -59 6 -88c1 -8 -12 -12 -17 1c-5 12 -12 27 -19 39c-11 19 -29 31 -47 35c-20 6 -51 3 -71 -14c-18 -16 -24 -35 -22 -54c5 -37 44 -58 81 -76l17 -8c67 -32 107 -62 109 -122c1 -33 -14 -93 -59 -119c-47 -29 -131 -35 -183 -6
c-21 12 -19 12 -21 32c0 3 -1 21 -1 35c0 11 1 25 1 27c0 8 -1 19 8 19c11 1 13 -18 17 -27c15 -41 36 -64 72 -74c18 -4 51 -4 73 15c23 19 32 45 29 68c-4 46 -49 65 -90 89l-15 9c-47 27 -98 58 -93 123c5 55 43 97 103 109z" />
    <glyph glyph-name="t" unicode="t" horiz-adv-x="308" 
d="M308 416c8 0 16 -7 16 -21c0 -16 -6 -21 -15 -21h-109c-21 0 -23 -5 -23 -34v-200c0 -41 -4 -76 24 -96c33 -23 61 -16 97 2c9 5 20 -11 4 -25c-6 -6 -9 -7 -17 -14c-42 -28 -90 -30 -129 -8c-55 30 -50 120 -50 164v177c0 29 -2 34 -23 34h-32c-8 0 -12 13 -1 16
c14 5 45 15 65 33c19 17 29 37 37 57c2 4 6 14 15 13s10 -10 10 -17v-26c0 -29 2 -34 23 -34h108z" />
    <glyph glyph-name="u" unicode="u" horiz-adv-x="512" 
d="M371 340c0 34 0 41 -39 55c-9 3 -23 3 -23 12c0 10 17 9 23 9c0 0 31 -1 51 -1c16 0 40 1 40 1c16 0 18 -11 18 -28v-272c0 -49 3 -75 23 -81c6 -2 29 -4 49 -4c6 0 8 -14 1 -16c-55 -11 -73 -11 -123 -28c-12 -3 -21 0 -20 21v29c0 6 -6 9 -11 5
c-40 -37 -125 -74 -175 -52c-68 30 -70 100 -70 161v189c0 34 0 41 -39 55c-10 3 -23 3 -23 12c0 10 16 9 23 9c0 0 25 -1 41 -1c19 0 50 1 50 1c16 0 18 -11 18 -28v-218c0 -67 -6 -104 42 -131c27 -15 76 -12 114 11c32 19 30 64 30 115v175z" />
    <glyph glyph-name="v" unicode="v" horiz-adv-x="481" 
d="M399 311l-112 -308c-8 -19 -25 -32 -39 6l-122 299c-10 29 -23 70 -43 80c-11 5 -26 10 -46 12c-7 1 -9 16 1 16c0 0 65 -4 106 -4c40 0 100 4 100 4c10 0 9 -15 3 -16c-14 -1 -40 -3 -53 -14c-17 -15 1 -55 14 -91l60 -146c14 -36 28 -32 38 -1l50 150
c13 41 26 72 12 89c-8 8 -26 12 -44 13c-7 1 -9 16 1 16c0 0 37 -4 78 -4c22 0 75 4 75 4c10 0 9 -15 2 -16c-55 -9 -56 -18 -81 -89z" />
    <glyph glyph-name="w" unicode="w" horiz-adv-x="701" 
d="M294 130l34 92c21 56 26 63 16 88l-18 48c-19 40 -36 37 -63 37c-41 0 -67 1 -77 -13c-9 -12 3 -40 22 -90l62 -161c6 -16 18 -17 24 -1zM626 321l-126 -319c-6 -17 -22 -34 -37 6l-83 209c-5 16 -15 8 -20 -3l-82 -212c-6 -14 -19 -34 -34 6l-118 300
c-21 55 -48 87 -81 92c-8 1 -10 16 0 16c0 0 121 -3 200 -3c84 0 217 3 217 3c10 0 9 -15 3 -16c-20 -3 -56 -2 -61 -23c-3 -9 2 -29 20 -78l66 -167c8 -18 20 -21 27 -1l57 156c17 50 28 80 12 100c-7 8 -25 12 -44 13c-8 1 -9 16 1 16c0 0 38 -4 78 -4c22 0 75 4 75 4
c10 0 9 -15 3 -16c-45 -8 -44 -2 -73 -79z" />
    <glyph glyph-name="x" unicode="x" horiz-adv-x="478" 
d="M186 86c-30 -40 -8 -61 42 -71c9 -1 9 -15 -1 -15c0 0 -57 3 -98 3c-22 0 -84 -3 -84 -3c-10 0 -8 15 -1 15c48 8 62 26 100 71l74 89c9 10 11 11 0 27l-101 139c-12 18 -24 33 -38 44c-8 6 -19 13 -38 15c-9 1 -9 16 1 16c0 0 54 -3 94 -3c41 0 97 3 97 3
c10 0 9 -15 3 -16c-25 -4 -49 -8 -46 -31c2 -10 13 -26 20 -36l57 -78c3 -5 8 -7 13 2l38 53c20 31 26 56 20 69c-6 15 -18 18 -38 21c-8 2 -9 16 1 16c0 0 47 -3 88 -3c22 0 84 3 84 3c10 0 9 -15 3 -16c-46 -7 -64 -11 -98 -60l-79 -103c-10 -14 -5 -20 0 -28l107 -144
c22 -29 46 -41 77 -50c9 -2 9 -15 -1 -15c0 0 -63 3 -103 3c-41 0 -84 -3 -84 -3c-10 0 -9 15 -2 15c47 9 40 30 23 54l-64 87c-4 5 -9 5 -14 -2z" />
    <glyph glyph-name="y" unicode="y" horiz-adv-x="446" 
d="M35 400c-9 3 -9 16 1 16c0 0 45 -3 86 -3c40 0 101 3 101 3c10 0 9 -15 3 -16c-36 -3 -49 -16 -55 -25c-9 -16 -1 -37 15 -87l52 -171c13 -38 25 -22 30 -6l57 162c13 39 29 84 16 104c-10 15 -30 22 -51 23c-8 1 -9 16 1 16c0 0 38 -3 79 -3c22 0 75 3 75 3
c10 0 9 -15 3 -16c-33 -4 -47 -23 -56 -47l-201 -535c-14 -38 -28 -84 -59 -91c-18 -5 -46 -2 -58 14c-8 7 -12 22 -8 36c5 14 19 26 38 25c22 -1 40 -10 48 11l45 121c15 43 10 48 -13 122l-88 282c-11 38 -26 52 -61 62z" />
    <glyph glyph-name="z" unicode="z" horiz-adv-x="385" 
d="M114 467c11 0 7 -16 6 -25s-2 -17 7 -23c8 -4 17 -3 50 -4c0 0 34 -1 56 -1c25 0 63 1 63 1c48 2 77 3 84 -10c7 -11 -8 -31 -45 -86l-173 -257c-13 -19 -11 -27 11 -27c31 -1 56 -1 87 0c39 3 77 4 88 35c3 8 8 21 11 28c5 14 8 19 17 18c6 -1 6 -10 6 -18
c0 0 -1 -24 -3 -38c-2 -22 -5 -56 -10 -61c-10 -11 -46 1 -77 1c0 0 -65 2 -106 2c-45 0 -114 -2 -114 -2c-25 0 -25 18 -10 36l225 324c5 8 7 14 -1 18c-35 6 -128 14 -171 -10c-10 -7 -22 -26 -31 -40c-8 -11 -21 -7 -18 3l33 112c4 11 7 24 15 24z" />
    <glyph glyph-name="braceleft" unicode="{" horiz-adv-x="458" 
d="M458 774v-28c-128 -22 -159 -50 -159 -180v-79c-2 -53 11 -108 -54 -158c-43 -33 -114 -46 -160 -54c146 -20 207 -48 214 -210v-79c0 -51 -6 -104 59 -148c32 -23 59 -29 100 -33v-29c-66 0 -132 7 -189 65c-51 52 -41 92 -42 154v81c0 49 7 103 -55 141
c-32 21 -67 26 -117 34v47c118 17 172 42 172 176v80c1 68 -9 116 60 173c41 32 113 46 171 47z" />
    <glyph glyph-name="bar" unicode="|" horiz-adv-x="166" 
d="M131 -128h-43v974h43v-974z" />
    <glyph glyph-name="braceright" unicode="}" horiz-adv-x="458" 
d="M57 772c49 0 139 -14 184 -62c51 -55 45 -99 45 -156v-73c0 -44 -8 -108 52 -148c37 -25 80 -31 120 -37v-45c-131 -23 -166 -41 -172 -181v-78c0 -74 3 -135 -87 -187c-45 -27 -80 -31 -142 -32v29c128 15 159 73 159 183v78c1 65 -15 109 56 163c39 29 98 38 156 47
c-139 25 -212 45 -212 208v73c-5 70 11 118 -74 165c-29 17 -61 23 -85 27v26z" />
    <glyph glyph-name="asciitilde" unicode="~" horiz-adv-x="351" 
d="M314 680h24c-8 -32 -24 -82 -62 -96c-49 -17 -72 16 -121 34c-17 6 -31 7 -45 -4c-7 -5 -12 -13 -22 -36h-25c9 37 23 83 66 94c55 17 71 -27 128 -38c16 -3 30 0 42 16c7 7 11 22 15 30z" />
    <glyph glyph-name="Adieresis" unicode="&#xc4;" horiz-adv-x="698" 
d="M299 372c-3 -11 -8 -25 9 -25c0 0 36 -2 59 -2c24 0 63 2 63 2c13 0 8 13 5 22l-57 176c-3 10 -11 12 -16 1zM649 37c17 -4 28 -6 49 -10c16 -2 14 -28 -2 -27c-7 0 -60 5 -123 5s-110 -5 -117 -5c-16 -1 -18 25 -2 27l55 10c12 3 14 22 0 79l-34 121
c-13 47 -22 62 -45 62c0 0 -39 2 -64 2c-26 0 -66 -2 -66 -2c-29 0 -32 -20 -53 -85l-29 -86c-21 -66 -15 -83 4 -89c26 -7 35 -8 50 -12c16 -3 14 -28 -2 -27c-7 0 -51 5 -113 5c-63 0 -92 -5 -100 -5c-15 -1 -18 24 -1 27c22 5 44 8 57 12c13 5 19 27 32 59l233 584
c8 22 28 41 41 3l192 -582c20 -62 23 -62 38 -66zM286 827c0 27 21 47 47 47s48 -20 48 -47c0 -26 -22 -47 -48 -47s-47 21 -47 47zM453 827c0 27 21 47 47 47c27 0 49 -20 49 -47c0 -26 -22 -47 -49 -47c-26 0 -47 21 -47 47z" />
    <glyph glyph-name="Aring" unicode="&#xc5;" horiz-adv-x="698" 
d="M302 372c-4 -11 -8 -25 9 -25c0 0 36 -2 58 -2c25 0 64 2 64 2c13 0 7 13 5 22l-58 176c-2 10 -11 12 -15 1zM652 37c17 -4 28 -6 49 -10c16 -2 13 -28 -2 -27c-7 0 -60 5 -123 5s-110 -5 -117 -5c-16 -1 -19 25 -2 27l54 10c13 3 15 22 0 79l-33 121
c-13 47 -22 62 -45 62c0 0 -39 2 -64 2c-26 0 -66 -2 -66 -2c-29 0 -32 -20 -54 -85l-28 -86c-22 -66 -15 -83 4 -89c26 -7 34 -8 50 -12c16 -3 13 -28 -2 -27c-7 0 -51 5 -114 5s-92 -5 -99 -5c-15 -1 -18 24 -2 27c23 5 45 8 58 12c12 5 19 27 31 59l233 584
c9 22 29 41 41 3l192 -582c20 -62 24 -62 39 -66zM319 872c0 51 41 92 92 92s92 -41 92 -92s-41 -92 -92 -92s-92 41 -92 92zM411 816c31 0 56 25 56 56s-25 55 -56 55s-55 -24 -55 -55s24 -56 55 -56z" />
    <glyph glyph-name="Ccedilla" unicode="&#xc7;" horiz-adv-x="618" 
d="M390 -21c-45 4 -91 15 -126 30c-104 45 -184 137 -202 231c-18 96 -3 245 90 340c96 99 251 110 350 93c20 -3 95 -21 104 -42c7 -16 9 -48 9 -81c0 -6 -7 -9 -11 -2c-53 85 -102 115 -193 107c-92 -7 -156 -53 -209 -148c-57 -103 -55 -264 -1 -367
c38 -74 125 -126 183 -132c48 -5 132 17 187 78c13 15 29 34 34 42c4 6 12 3 12 -4c-4 -50 -7 -96 -35 -111c-42 -26 -99 -36 -156 -36l-39 -59c22 4 40 6 61 0c30 -8 52 -30 56 -56c6 -26 -2 -54 -27 -76c-47 -43 -133 -27 -187 -7l17 32c50 -18 84 -21 109 -8
c18 9 25 21 26 37c1 15 -4 29 -14 36c-19 15 -49 11 -82 2l-17 13z" />
    <glyph glyph-name="Eacute" unicode="&#xc9;" horiz-adv-x="548" 
d="M205 5c-63 0 -119 -5 -127 -5c-15 -1 -18 25 -2 27c22 4 34 5 60 12c10 3 21 9 21 29v529c0 20 -11 26 -21 29c-26 7 -38 8 -60 12c-16 3 -13 28 2 27c8 0 137 -3 200 -3c62 0 170 2 170 2c43 0 76 8 78 -14c0 -2 -3 -29 -3 -61c0 -21 1 -46 2 -65c0 -5 -14 -9 -16 1
c-2 5 -13 45 -14 47c-8 19 -11 32 -35 41c-19 8 -97 16 -97 16c-65 9 -90 12 -104 0c-8 -8 -11 -25 -11 -58v-157c0 -15 -1 -36 6 -43c10 -10 21 -8 33 -8h96c16 0 27 3 32 4c21 5 27 12 34 32c5 14 9 26 15 47c3 8 16 7 16 0c0 -11 -2 -54 -2 -97c0 -50 2 -100 2 -100
c0 -12 -13 -12 -16 -4c-8 22 -10 33 -15 47c-7 19 -13 26 -34 32c-5 1 -16 4 -32 4h-96c-12 0 -23 1 -33 -9c-7 -6 -6 -27 -6 -42v-143c0 -62 2 -78 19 -89c22 -15 138 -19 186 0c55 22 67 57 90 108c3 9 17 5 14 -5l-10 -57c-17 -99 -11 -93 -97 -91c0 0 -182 5 -245 5z
M341 745h-37l62 71c12 14 71 93 103 83c10 -4 21 -14 24 -28c4 -28 -61 -64 -84 -79z" />
    <glyph glyph-name="Ntilde" unicode="&#xd1;" horiz-adv-x="834" 
d="M768 628c-29 -6 -30 -49 -30 -79l-7 -554c0 -25 -2 -33 -9 -38c-8 -5 -21 13 -29 21l-475 565c-2 4 -10 3 -10 -5l5 -413c0 -6 1 -38 2 -46c3 -28 24 -34 51 -41c22 -5 38 -7 60 -11c16 -2 13 -28 -2 -27c-7 0 -66 5 -128 5c-63 0 -120 -5 -127 -5c-15 -1 -18 25 -2 27
c22 4 38 6 59 12c16 5 34 16 35 69l8 439c0 27 3 73 -28 81c-18 4 -58 8 -70 10c-16 3 -14 28 2 27c4 0 75 -3 147 0c15 0 18 3 32 -13l430 -511c3 -5 11 -2 10 5l-1 398c0 44 -10 72 -42 82c-26 8 -38 8 -59 12c-17 3 -14 28 1 27c8 0 46 -4 109 -4s115 4 123 4
c15 1 18 -24 1 -27c-21 -4 -33 -6 -56 -10zM613 847h25c-8 -32 -25 -82 -63 -95c-48 -18 -72 15 -121 33c-16 7 -31 8 -45 -3c-7 -6 -11 -13 -21 -37h-26c9 38 23 83 67 95c54 16 71 -27 127 -38c16 -3 30 0 43 15c6 7 11 23 14 30z" />
    <glyph glyph-name="Odieresis" unicode="&#xd6;" horiz-adv-x="757" 
d="M368 678c85 11 226 -21 304 -111c89 -104 100 -242 71 -338c-32 -113 -132 -202 -242 -236c-108 -33 -213 -15 -318 70c-108 87 -135 201 -125 304c10 105 68 212 197 277c43 21 87 30 113 34zM167 388c-8 -98 10 -254 116 -330c67 -48 155 -55 213 -31
c91 38 138 155 148 229c18 119 8 262 -102 352c-58 47 -163 50 -205 34c-121 -42 -164 -166 -170 -254zM298 793c0 26 21 47 48 47c26 0 48 -21 48 -47c0 -27 -22 -48 -48 -48c-27 0 -48 21 -48 48zM466 793c0 26 21 47 47 47c27 0 48 -21 48 -47c0 -27 -21 -48 -48 -48
c-26 0 -47 21 -47 48z" />
    <glyph glyph-name="Udieresis" unicode="&#xdc;" horiz-adv-x="746" 
d="M517 638c-17 1 -14 28 2 27c7 0 67 -3 108 -3c58 0 105 3 112 3c15 1 18 -24 2 -27l-57 -10c-29 -6 -30 -49 -30 -79v-310c0 -76 -7 -175 -104 -231c-70 -39 -237 -43 -318 5c-88 51 -86 127 -86 200v384c0 20 -11 26 -21 29c-26 7 -38 8 -59 12c-17 3 -14 28 1 27
c8 0 64 -4 127 -4s115 4 123 4c15 1 18 -24 1 -27c-21 -4 -33 -5 -59 -12c-10 -3 -22 -9 -22 -29v-385c0 -64 -6 -132 71 -175c53 -30 167 -29 219 0c84 49 91 142 91 208v304c0 30 0 70 -30 79c-20 6 -37 7 -71 10zM308 793c0 26 20 47 47 47c26 0 48 -21 48 -47
c0 -27 -22 -48 -48 -48c-27 0 -47 21 -47 48zM475 793c0 26 21 47 47 47c27 0 49 -21 49 -47c0 -27 -22 -48 -49 -48c-26 0 -47 21 -47 48z" />
    <glyph glyph-name="aacute" unicode="&#xe1;" horiz-adv-x="404" 
d="M422 71c11 -7 2 -25 -4 -34c-8 -10 -18 -22 -33 -32c-23 -13 -48 -18 -71 -8c-8 4 -29 13 -37 22c-13 15 -20 22 -36 9c-28 -22 -95 -62 -139 -40c-20 10 -30 27 -31 48c-2 44 33 98 82 128c16 10 34 19 62 30l27 12c16 8 20 11 20 30c0 81 2 124 -12 143
c-13 17 -47 19 -64 13c-41 -13 -47 -44 -67 -93c-11 -27 -62 -37 -61 -21c4 62 58 111 116 133c33 13 94 28 127 1c36 -30 31 -105 31 -137v-139c0 -60 0 -72 20 -86c9 -6 23 -8 37 2c12 8 24 25 33 19zM161 126c-18 -21 -21 -42 -17 -57c5 -17 21 -30 36 -34
c17 -6 36 -2 50 9c32 23 32 54 32 106c0 15 -4 25 -11 30c-4 4 -15 5 -29 -3c-23 -13 -46 -34 -61 -51zM228 470h-37l62 70c12 14 71 93 103 83c10 -3 22 -13 24 -28c4 -27 -61 -64 -83 -79z" />
    <glyph glyph-name="agrave" unicode="&#xe0;" horiz-adv-x="404" 
d="M422 71c11 -7 2 -25 -4 -34c-8 -10 -18 -22 -33 -32c-23 -13 -48 -18 -71 -8c-8 4 -29 13 -37 22c-13 15 -20 22 -36 9c-28 -22 -95 -62 -139 -40c-20 10 -30 27 -31 48c-2 44 33 98 82 128c16 10 34 19 62 30l27 12c16 8 20 11 20 30c0 81 2 124 -12 143
c-13 17 -47 19 -64 13c-41 -13 -47 -44 -67 -93c-11 -27 -62 -37 -61 -21c4 62 58 111 116 133c33 13 94 28 127 1c36 -30 31 -105 31 -137v-139c0 -60 0 -72 20 -86c9 -6 23 -8 37 2c12 8 24 25 33 19zM161 126c-18 -21 -21 -42 -17 -57c5 -17 21 -30 36 -34
c17 -6 36 -2 50 9c32 23 32 54 32 106c0 15 -4 25 -11 30c-4 4 -15 5 -29 -3c-23 -13 -46 -34 -61 -51zM278 470h-37l-69 48c-19 13 -89 53 -84 81c2 11 11 22 26 26c32 8 73 -49 99 -79z" />
    <glyph glyph-name="acircumflex" unicode="&#xe2;" horiz-adv-x="404" 
d="M422 71c11 -7 2 -25 -4 -34c-8 -10 -18 -22 -33 -32c-23 -13 -48 -18 -71 -8c-8 4 -29 13 -37 22c-13 15 -20 22 -36 9c-28 -22 -95 -62 -139 -40c-20 10 -30 27 -31 48c-2 44 33 98 82 128c16 10 34 19 62 30l27 12c16 8 20 11 20 30c0 81 2 124 -12 143
c-13 17 -47 19 -64 13c-41 -13 -47 -44 -67 -93c-11 -27 -62 -37 -61 -21c4 62 58 111 116 133c33 13 94 28 127 1c36 -30 31 -105 31 -137v-139c0 -60 0 -72 20 -86c9 -6 23 -8 37 2c12 8 24 25 33 19zM161 126c-18 -21 -21 -42 -17 -57c5 -17 21 -30 36 -34
c17 -6 36 -2 50 9c32 23 32 54 32 106c0 15 -4 25 -11 30c-4 4 -15 5 -29 -3c-23 -13 -46 -34 -61 -51zM213 621h61l100 -151h-34l-97 100l-96 -100h-34z" />
    <glyph glyph-name="adieresis" unicode="&#xe4;" horiz-adv-x="404" 
d="M422 71c11 -7 2 -25 -4 -34c-8 -10 -18 -22 -33 -32c-23 -13 -48 -18 -71 -8c-8 4 -29 13 -37 22c-13 15 -20 22 -36 9c-28 -22 -95 -62 -139 -40c-20 10 -30 27 -31 48c-2 44 33 98 82 128c16 10 34 19 62 30l27 12c16 8 20 11 20 30c0 81 2 124 -12 143
c-13 17 -47 19 -64 13c-41 -13 -47 -44 -67 -93c-11 -27 -62 -37 -61 -21c4 62 58 111 116 133c33 13 94 28 127 1c36 -30 31 -105 31 -137v-139c0 -60 0 -72 20 -86c9 -6 23 -8 37 2c12 8 24 25 33 19zM161 126c-18 -21 -21 -42 -17 -57c5 -17 21 -30 36 -34
c17 -6 36 -2 50 9c32 23 32 54 32 106c0 15 -4 25 -11 30c-4 4 -15 5 -29 -3c-23 -13 -46 -34 -61 -51zM118 517c0 26 21 47 48 47c26 0 48 -21 48 -47c0 -27 -22 -47 -48 -47c-27 0 -48 20 -48 47zM286 517c0 26 21 47 47 47s48 -21 48 -47c0 -27 -22 -47 -48 -47
s-47 20 -47 47z" />
    <glyph glyph-name="atilde" unicode="&#xe3;" horiz-adv-x="404" 
d="M422 71c11 -7 2 -25 -4 -34c-8 -10 -18 -22 -33 -32c-23 -13 -48 -18 -71 -8c-8 4 -29 13 -37 22c-13 15 -20 22 -36 9c-28 -22 -95 -62 -139 -40c-20 10 -30 27 -31 48c-2 44 33 98 82 128c16 10 34 19 62 30l27 12c16 8 20 11 20 30c0 81 2 124 -12 143
c-13 17 -47 19 -64 13c-41 -13 -47 -44 -67 -93c-11 -27 -62 -37 -61 -21c4 62 58 111 116 133c33 13 94 28 127 1c36 -30 31 -105 31 -137v-139c0 -60 0 -72 20 -86c9 -6 23 -8 37 2c12 8 24 25 33 19zM161 126c-18 -21 -21 -42 -17 -57c5 -17 21 -30 36 -34
c17 -6 36 -2 50 9c32 23 32 54 32 106c0 15 -4 25 -11 30c-4 4 -15 5 -29 -3c-23 -13 -46 -34 -61 -51zM357 571h24c-8 -31 -24 -81 -63 -95c-48 -17 -71 15 -121 34c-16 6 -30 7 -44 -4c-7 -6 -12 -13 -22 -36h-25c9 37 22 82 66 94c55 17 71 -27 127 -38c17 -3 30 0 43 15
c6 8 11 23 15 30z" />
    <glyph glyph-name="aring" unicode="&#xe5;" horiz-adv-x="404" 
d="M422 71c11 -7 2 -25 -4 -34c-8 -10 -18 -22 -33 -32c-23 -13 -48 -18 -71 -8c-8 4 -29 13 -37 22c-13 15 -20 22 -36 9c-28 -22 -95 -62 -139 -40c-20 10 -30 27 -31 48c-2 44 33 98 82 128c16 10 34 19 62 30l27 12c16 8 20 11 20 30c0 81 2 124 -12 143
c-13 17 -47 19 -64 13c-41 -13 -47 -44 -67 -93c-11 -27 -62 -37 -61 -21c4 62 58 111 116 133c33 13 94 28 127 1c36 -30 31 -105 31 -137v-139c0 -60 0 -72 20 -86c9 -6 23 -8 37 2c12 8 24 25 33 19zM161 126c-18 -21 -21 -42 -17 -57c5 -17 21 -30 36 -34
c17 -6 36 -2 50 9c32 23 32 54 32 106c0 15 -4 25 -11 30c-4 4 -15 5 -29 -3c-23 -13 -46 -34 -61 -51zM151 561c0 51 41 92 92 92s92 -41 92 -92s-41 -91 -92 -91s-92 40 -92 91zM243 506c31 0 55 24 55 55s-24 56 -55 56s-56 -25 -56 -56s25 -55 56 -55z" />
    <glyph glyph-name="ccedilla" unicode="&#xe7;" horiz-adv-x="392" 
d="M229 -20c-44 5 -95 24 -133 75c-51 69 -44 163 -23 221c24 68 67 133 154 155c26 7 121 14 150 -14c9 -9 12 -23 12 -34c0 -7 -3 -16 -14 -20c-8 0 -23 -3 -42 14c-21 17 -49 44 -90 35c-44 -10 -80 -55 -99 -104c-27 -67 -28 -153 13 -212c34 -51 89 -71 132 -71
c39 0 62 10 93 34c7 6 13 -5 9 -10c-37 -48 -87 -71 -126 -71l-39 -60c18 4 40 6 61 0c30 -8 51 -30 56 -56s-2 -54 -27 -76c-47 -43 -133 -27 -187 -7l17 32c50 -18 83 -23 109 -8c18 9 26 23 26 37c0 16 -4 29 -14 36c-20 16 -50 11 -82 2l-17 13z" />
    <glyph glyph-name="eacute" unicode="&#xe9;" horiz-adv-x="409" 
d="M377 302h-216c-16 0 -20 -7 -24 -14c-18 -28 -17 -111 8 -156c27 -52 84 -83 128 -87c52 -7 84 15 124 45c4 5 12 -4 8 -10c-38 -53 -107 -93 -168 -91c-62 2 -120 46 -152 111c-35 68 -33 176 11 243c44 66 107 93 160 94c52 1 100 -27 138 -87c3 -3 7 -14 10 -20
c5 -11 7 -28 -27 -28zM309 335c17 8 27 20 29 32c0 12 -7 22 -20 32c-20 17 -51 27 -78 19c-22 -7 -44 -20 -58 -33c-9 -7 -22 -20 -28 -29c-13 -17 -10 -28 3 -31c32 -7 123 -3 152 10zM270 470h-37l62 70c12 14 71 93 103 83c10 -3 21 -13 24 -28c4 -27 -61 -64 -84 -79z
" />
    <glyph glyph-name="egrave" unicode="&#xe8;" horiz-adv-x="409" 
d="M374 302h-216c-16 0 -20 -7 -23 -14c-19 -28 -18 -111 7 -156c27 -52 85 -83 128 -87c52 -7 84 15 124 45c5 5 13 -4 8 -10c-38 -53 -106 -93 -168 -91s-119 46 -152 111c-35 68 -33 176 12 243c43 66 106 93 159 94c52 1 100 -27 138 -87c3 -3 8 -14 10 -20
c6 -11 8 -28 -27 -28zM307 335c16 8 26 20 28 32c1 12 -7 22 -19 32c-21 17 -52 27 -79 19c-21 -7 -44 -20 -58 -33c-9 -7 -22 -20 -28 -29c-13 -17 -10 -28 3 -31c33 -7 124 -3 153 10zM280 470h-36l-69 48c-19 13 -89 53 -84 81c2 11 11 22 25 26c32 8 74 -49 100 -79z
" />
    <glyph glyph-name="ecircumflex" unicode="&#xea;" horiz-adv-x="409" 
d="M378 302h-216c-16 0 -20 -7 -24 -14c-18 -28 -17 -111 8 -156c27 -52 84 -83 128 -87c52 -7 84 15 124 45c4 5 12 -4 8 -10c-38 -53 -107 -93 -169 -91c-61 2 -119 46 -151 111c-35 68 -33 176 11 243c44 66 107 93 160 94c51 1 100 -27 138 -87c3 -3 7 -14 10 -20
c5 -11 7 -28 -27 -28zM310 335c17 8 27 20 28 32s-6 22 -19 32c-21 17 -51 27 -78 19c-22 -7 -44 -20 -58 -33c-9 -7 -22 -20 -28 -29c-13 -17 -10 -28 2 -31c33 -7 124 -3 153 10zM237 621h61l101 -151h-34l-97 100l-96 -100h-35z" />
    <glyph glyph-name="edieresis" unicode="&#xeb;" horiz-adv-x="409" 
d="M377 302h-216c-16 0 -20 -7 -24 -14c-18 -28 -17 -111 8 -156c27 -52 84 -83 128 -87c52 -7 84 15 124 45c4 5 12 -4 8 -10c-38 -53 -107 -93 -168 -91c-62 2 -120 46 -152 111c-35 68 -33 176 11 243c44 66 107 93 160 94c52 1 100 -27 138 -87c3 -3 7 -14 10 -20
c5 -11 7 -28 -27 -28zM309 335c17 8 27 20 29 32c0 12 -7 22 -20 32c-20 17 -51 27 -78 19c-22 -7 -44 -20 -58 -33c-9 -7 -22 -20 -28 -29c-13 -17 -10 -28 3 -31c32 -7 123 -3 152 10zM124 517c0 26 21 47 47 47s48 -21 48 -47c0 -27 -22 -47 -48 -47s-47 20 -47 47z
M291 517c0 26 21 47 47 47c27 0 49 -21 49 -47c0 -27 -22 -47 -49 -47c-26 0 -47 20 -47 47z" />
    <glyph glyph-name="iacute" unicode="&#xed;" horiz-adv-x="276" 
d="M180 470h-37l62 70c12 14 71 93 103 83c10 -3 21 -13 24 -28c4 -27 -61 -64 -84 -79zM129 258c0 46 -3 74 -43 82c-10 2 -8 17 0 19c36 11 77 30 106 69c3 3 14 6 13 -8c-1 -17 -6 -51 -6 -71v-234c0 -69 4 -74 19 -85c10 -7 29 -12 51 -15c8 0 9 -15 -1 -15
c0 0 -62 4 -102 4c-41 0 -106 -4 -106 -4c-10 0 -8 15 -1 15c22 3 41 9 51 15c16 11 19 23 19 86v142z" />
    <glyph glyph-name="igrave" unicode="&#xec;" horiz-adv-x="276" 
d="M220 470h-36l-69 48c-19 13 -90 53 -84 81c2 11 11 22 25 26c32 8 74 -49 100 -79zM129 258c0 46 -3 74 -43 82c-10 2 -8 17 0 19c36 11 77 30 106 69c3 3 14 6 13 -8c-1 -17 -6 -51 -6 -71v-234c0 -69 4 -74 19 -85c10 -7 29 -12 51 -15c8 0 9 -15 -1 -15
c0 0 -62 4 -102 4c-41 0 -106 -4 -106 -4c-10 0 -8 15 -1 15c22 3 41 9 51 15c16 11 19 23 19 86v142z" />
    <glyph glyph-name="icircumflex" unicode="&#xee;" horiz-adv-x="276" 
d="M146 621h61l101 -151h-34l-97 100l-96 -100h-35zM129 258c0 46 -3 74 -43 82c-10 2 -8 17 0 19c36 11 77 30 106 69c3 3 14 6 13 -8c-1 -17 -6 -51 -6 -71v-234c0 -69 4 -74 19 -85c10 -7 29 -12 51 -15c8 0 9 -15 -1 -15c0 0 -62 4 -102 4c-41 0 -106 -4 -106 -4
c-10 0 -8 15 -1 15c22 3 41 9 51 15c16 11 19 23 19 86v142z" />
    <glyph glyph-name="idieresis" unicode="&#xef;" horiz-adv-x="276" 
d="M64 517c0 26 21 47 47 47s48 -21 48 -47c0 -27 -22 -47 -48 -47s-47 20 -47 47zM231 517c0 26 21 47 47 47c27 0 49 -21 49 -47c0 -27 -22 -47 -49 -47c-26 0 -47 20 -47 47zM132 258c0 46 -3 74 -44 82c-9 2 -7 17 0 19c37 11 78 30 107 69c2 3 13 6 12 -8
c0 -17 -5 -51 -5 -71v-234c0 -69 4 -74 19 -85c10 -7 29 -12 51 -15c7 0 9 -15 -1 -15c0 0 -63 4 -103 4c-41 0 -105 -4 -105 -4c-10 0 -8 15 -1 15c22 3 41 9 51 15c16 11 19 23 19 86v142z" />
    <glyph glyph-name="ntilde" unicode="&#xf1;" horiz-adv-x="538" 
d="M420 571h25c-8 -31 -25 -81 -63 -95c-48 -17 -72 15 -121 34c-16 6 -31 7 -44 -4c-8 -6 -12 -13 -22 -36h-26c9 37 23 82 67 94c54 17 71 -27 127 -38c16 -3 30 0 43 15c6 8 11 23 14 30zM383 422c23 -8 46 -25 58 -44c27 -41 26 -83 26 -110v-153c0 -69 3 -74 19 -85
c10 -7 29 -12 51 -15c7 0 9 -15 -1 -15c0 0 -63 4 -103 4c-41 0 -105 -4 -105 -4c-10 0 -9 15 -1 15c21 3 41 9 51 15c16 11 19 23 19 86v144c0 25 5 89 -37 116c-30 19 -86 15 -124 -6c-49 -27 -44 -87 -44 -128v-127c0 -69 4 -74 19 -85c10 -7 29 -12 51 -15
c7 0 9 -15 -1 -15c0 0 -63 4 -103 4c-41 0 -105 -4 -105 -4c-10 0 -8 15 -1 15c22 3 41 9 51 15c16 11 19 23 19 86v142c0 46 -3 75 -44 83c-9 2 -7 17 0 18c37 12 78 31 107 70c2 3 15 6 12 -8c-2 -16 -4 -25 -5 -38c-1 -14 7 -14 15 -7c45 40 108 71 176 46z" />
    <glyph glyph-name="oacute" unicode="&#xf3;" horiz-adv-x="490" 
d="M248 429c44 8 124 -7 178 -61c59 -61 77 -140 59 -209c-15 -58 -54 -130 -130 -160c-70 -26 -152 -18 -209 23c-58 40 -91 137 -90 184c2 77 29 142 112 195c19 12 59 24 80 28zM227 406c-59 -27 -85 -98 -92 -159c-8 -53 8 -171 68 -222c24 -20 62 -30 94 -20
c60 18 101 97 112 137c21 70 23 140 -41 224c-32 41 -72 51 -105 49c-15 -1 -29 -6 -36 -9zM292 470h-37l62 70c11 14 71 93 102 83c10 -3 22 -13 25 -28c4 -27 -61 -64 -84 -79z" />
    <glyph glyph-name="ograve" unicode="&#xf2;" horiz-adv-x="490" 
d="M245 429c43 8 124 -7 177 -61c59 -61 78 -140 59 -209c-15 -58 -53 -130 -130 -160c-70 -26 -152 -18 -209 23c-57 40 -91 137 -89 184c2 77 28 142 112 195c19 12 59 24 80 28zM224 406c-59 -27 -86 -98 -93 -159c-7 -53 8 -171 68 -222c25 -20 62 -30 94 -20
c60 18 101 97 113 137c21 70 23 140 -42 224c-32 41 -72 51 -105 49c-14 -1 -29 -6 -35 -9zM319 470h-36l-69 48c-19 13 -89 53 -84 81c2 11 11 22 26 26c31 8 73 -49 99 -79z" />
    <glyph glyph-name="ocircumflex" unicode="&#xf4;" horiz-adv-x="490" 
d="M248 429c44 8 124 -7 178 -61c59 -61 77 -140 59 -209c-15 -58 -54 -130 -130 -160c-70 -26 -152 -18 -209 23c-58 40 -91 137 -90 184c2 77 29 142 112 195c19 12 59 24 80 28zM227 406c-59 -27 -85 -98 -92 -159c-8 -53 8 -171 68 -222c24 -20 62 -30 94 -20
c60 18 101 97 112 137c21 70 23 140 -41 224c-32 41 -72 51 -105 49c-15 -1 -29 -6 -36 -9zM249 621h61l100 -151h-33l-98 100l-95 -100h-35z" />
    <glyph glyph-name="odieresis" unicode="&#xf6;" horiz-adv-x="490" 
d="M248 429c44 8 124 -7 178 -61c59 -61 77 -140 59 -209c-15 -58 -54 -130 -130 -160c-70 -26 -152 -18 -209 23c-58 40 -91 137 -90 184c2 77 29 142 112 195c19 12 59 24 80 28zM227 406c-59 -27 -85 -98 -92 -159c-8 -53 8 -171 68 -222c24 -20 62 -30 94 -20
c60 18 101 97 112 137c21 70 23 140 -41 224c-32 41 -72 51 -105 49c-15 -1 -29 -6 -36 -9zM155 517c0 26 21 47 47 47s48 -21 48 -47c0 -27 -22 -47 -48 -47s-47 20 -47 47zM322 517c0 26 21 47 47 47c27 0 49 -21 49 -47c0 -27 -22 -47 -49 -47c-26 0 -47 20 -47 47z" />
    <glyph glyph-name="otilde" unicode="&#xf5;" horiz-adv-x="490" 
d="M246 429c43 8 123 -7 177 -61c59 -61 77 -140 59 -209c-15 -58 -53 -130 -130 -160c-70 -26 -152 -18 -209 23c-57 40 -91 137 -89 184c2 77 28 142 112 195c19 12 59 24 80 28zM225 406c-59 -27 -86 -98 -93 -159c-7 -53 8 -171 68 -222c25 -20 62 -30 94 -20
c60 18 101 97 113 137c21 70 22 140 -42 224c-32 41 -72 51 -105 49c-14 -1 -29 -6 -35 -9zM409 571h24c-8 -31 -24 -81 -63 -95c-48 -17 -72 15 -121 34c-16 6 -31 7 -44 -4c-8 -6 -12 -13 -22 -36h-26c10 37 23 82 67 94c54 17 71 -27 127 -38c17 -3 30 0 43 15
c6 8 11 23 15 30z" />
    <glyph glyph-name="uacute" unicode="&#xfa;" horiz-adv-x="512" 
d="M371 340c0 34 0 41 -39 55c-9 3 -23 3 -23 12c0 10 17 9 23 9c0 0 31 -1 51 -1c16 0 40 1 40 1c16 0 18 -11 18 -28v-272c0 -49 3 -75 23 -81c6 -2 29 -4 49 -4c6 0 8 -14 1 -16c-55 -11 -73 -11 -123 -28c-12 -3 -21 0 -20 21v29c0 6 -6 9 -11 5
c-40 -37 -125 -74 -175 -52c-68 30 -70 100 -70 161v189c0 34 0 41 -39 55c-10 3 -23 3 -23 12c0 10 16 9 23 9c0 0 25 -1 41 -1c19 0 50 1 50 1c16 0 18 -11 18 -28v-218c0 -67 -6 -104 42 -131c27 -15 76 -12 114 11c32 19 30 64 30 115v175zM289 453h-37l62 71
c12 14 71 93 103 83c10 -4 22 -14 24 -28c4 -28 -61 -64 -83 -79z" />
    <glyph glyph-name="ugrave" unicode="&#xf9;" horiz-adv-x="512" 
d="M374 340c0 34 0 41 -39 55c-9 3 -23 3 -23 12c0 10 16 9 23 9c0 0 31 -1 51 -1c15 0 40 1 40 1c16 0 18 -11 18 -28v-272c0 -49 3 -75 23 -81c6 -2 29 -4 49 -4c5 0 8 -14 1 -16c-56 -11 -73 -11 -123 -28c-13 -3 -21 0 -20 21v29c0 6 -6 9 -11 5
c-40 -37 -126 -74 -176 -52c-67 30 -70 100 -70 161v189c0 34 0 41 -39 55c-9 3 -22 3 -22 12c0 10 16 9 22 9c0 0 26 -1 42 -1c19 0 49 1 49 1c17 0 18 -11 18 -28v-218c0 -67 -5 -104 42 -131c28 -15 77 -12 115 11c32 19 30 64 30 115v175zM310 453h-36l-69 48
c-19 14 -89 53 -84 81c2 11 11 23 25 27c32 8 74 -49 100 -79z" />
    <glyph glyph-name="ucircumflex" unicode="&#xfb;" horiz-adv-x="512" 
d="M375 340c0 34 0 41 -39 55c-9 3 -23 3 -23 12c0 10 16 9 23 9c0 0 31 -1 51 -1c15 0 40 1 40 1c16 0 18 -11 18 -28v-272c0 -49 3 -75 23 -81c6 -2 29 -4 49 -4c5 0 8 -14 1 -16c-56 -11 -73 -11 -123 -28c-13 -3 -21 0 -20 21v29c0 6 -6 9 -11 5
c-40 -37 -126 -74 -176 -52c-67 30 -70 100 -70 161v189c0 34 0 41 -39 55c-9 3 -23 3 -23 12c0 10 17 9 23 9c0 0 26 -1 42 -1c19 0 49 1 49 1c17 0 18 -11 18 -28v-218c0 -67 -5 -104 42 -131c28 -15 77 -12 115 11c32 19 30 64 30 115v175zM243 604h61l100 -151h-34
l-97 99l-96 -99h-34z" />
    <glyph glyph-name="udieresis" unicode="&#xfc;" horiz-adv-x="512" 
d="M375 340c0 34 0 41 -39 55c-9 3 -23 3 -23 12c0 10 16 9 23 9c0 0 31 -1 51 -1c15 0 40 1 40 1c16 0 18 -11 18 -28v-272c0 -49 3 -75 23 -81c6 -2 29 -4 49 -4c5 0 8 -14 1 -16c-56 -11 -73 -11 -123 -28c-13 -3 -21 0 -20 21v29c0 6 -6 9 -11 5
c-40 -37 -126 -74 -176 -52c-67 30 -70 100 -70 161v189c0 34 0 41 -39 55c-9 3 -23 3 -23 12c0 10 17 9 23 9c0 0 26 -1 42 -1c19 0 49 1 49 1c17 0 18 -11 18 -28v-218c0 -67 -5 -104 42 -131c28 -15 77 -12 115 11c32 19 30 64 30 115v175zM157 500c0 27 21 48 48 48
c26 0 48 -21 48 -48c0 -26 -22 -47 -48 -47c-27 0 -48 21 -48 47zM325 500c0 27 21 48 47 48c27 0 48 -21 48 -48c0 -26 -21 -47 -48 -47c-26 0 -47 21 -47 47z" />
    <glyph glyph-name="dagger" unicode="&#x2020;" horiz-adv-x="646" 
d="M518 141c0 -58 -4 -85 28 -106c31 -20 61 -14 96 2c6 4 13 -2 8 -10c-38 -46 -96 -56 -139 -39c-58 24 -54 90 -54 152v202c0 23 0 24 -17 24h-30c-12 0 -10 17 -1 21c58 22 66 55 78 91c3 7 7 20 -15 28c-23 8 -70 30 -70 30c-43 18 -110 56 -150 32
c-25 -15 -33 -35 -34 -58c-1 -21 7 -43 33 -61c27 -20 96 -19 115 -32c10 -8 17 -21 17 -34c0 -11 -5 -22 -13 -24c-5 -2 -14 -4 -32 7c-40 21 -55 52 -94 42c-48 -13 -89 -59 -108 -112c-19 -58 -6 -158 24 -204c29 -46 87 -75 132 -72c30 2 61 15 87 30c4 2 10 -4 7 -9
c-32 -64 -114 -69 -159 -65c-68 8 -121 53 -151 116c-30 65 -18 178 22 241c49 76 103 85 135 96c5 0 4 7 1 9c-32 17 -52 47 -49 89c2 32 22 66 56 78c70 26 134 -25 191 -55l44 -23c15 -7 19 -9 25 0c6 7 11 16 23 12c9 -4 13 -11 9 -25c-3 -14 -9 -20 -15 -30v-50
c0 -20 2 -25 20 -25h114c15 0 16 -43 0 -43h-118c-16 0 -16 -1 -16 -24v-201z" />
    <glyph glyph-name="cent" unicode="&#xa2;" horiz-adv-x="389" 
d="M212 -22c-39 7 -85 27 -117 73c-51 69 -45 164 -24 221c25 68 68 133 155 156c4 1 13 2 21 3l10 129h21l-10 -127c35 1 88 -1 107 -20c9 -9 10 -23 12 -34c1 -7 -3 -16 -14 -20c-8 -2 -23 -2 -42 14c-16 14 -36 33 -64 36l-29 -380c15 -5 34 -8 50 -8c39 0 61 10 92 35
c7 5 13 -6 9 -11c-40 -51 -94 -70 -134 -70h-21l-8 -114h-22zM245 409h-4c-44 -10 -80 -56 -99 -104c-26 -68 -28 -154 13 -213c17 -25 42 -45 62 -54z" />
    <glyph glyph-name="sterling" unicode="&#xa3;" horiz-adv-x="571" 
d="M278 312h123v-33h-115c14 -63 20 -113 -10 -190c45 -21 163 -68 214 -37c41 25 57 105 61 133l23 -5c-13 -76 -23 -166 -117 -195c-71 -22 -107 2 -199 68c-44 -57 -86 -76 -133 -71c-21 2 -53 16 -62 47c-6 18 -7 43 11 63c25 30 71 34 107 27c32 -6 56 -16 69 -21
c17 59 -10 127 -32 181h-129v33h120c-16 77 -23 174 54 241c47 41 121 51 173 35c36 -12 79 -38 89 -80c4 -15 2 -35 -12 -49c-9 -9 -22 -14 -37 -9c-16 4 -28 16 -33 35c-6 21 7 51 -14 72c-20 20 -58 22 -81 16c-43 -9 -73 -33 -89 -80c-13 -43 -1 -119 19 -181zM160 97
c-25 3 -54 -3 -69 -23c-9 -12 -10 -27 -5 -40c10 -21 30 -31 51 -33c35 -3 72 23 100 65c-35 20 -61 30 -77 31z" />
    <glyph glyph-name="bullet" unicode="&#x2022;" horiz-adv-x="173" 
d="M101 439c15 5 34 2 47 -8c12 -10 22 -27 19 -46c-1 -16 -10 -32 -26 -40c-15 -8 -32 -9 -48 0c-14 7 -27 24 -27 42c-1 21 10 43 35 52z" />
    <glyph glyph-name="germandbls" unicode="&#xdf;" horiz-adv-x="597" 
d="M289 419c11 -8 7 -59 7 -88c0 -7 -12 -12 -18 2c-4 12 -11 26 -19 38c-11 19 -29 31 -46 36c-20 5 -51 2 -71 -15c-18 -15 -22 -34 -22 -54c5 -37 44 -58 80 -75l17 -8c68 -32 110 -62 110 -122c0 -34 -14 -93 -59 -119c-48 -29 -132 -36 -183 -7c-21 12 -21 13 -21 32
c0 4 -1 21 -1 36c0 11 1 27 1 27c0 7 -1 19 8 19c11 0 13 -18 16 -27c16 -41 37 -65 72 -74c18 -5 52 -5 74 15c23 19 29 44 29 68c-5 45 -49 64 -90 88l-16 9c-46 27 -98 58 -92 124c4 55 41 97 102 108c9 2 19 4 28 4c-22 20 -47 55 -38 91c6 29 23 54 58 69
c56 24 115 -15 172 -45l43 -24c19 -8 20 -7 26 0c5 7 11 16 23 12c9 -4 12 -11 9 -25c-4 -14 -9 -20 -16 -30v-50c0 -20 2 -25 20 -25h114c15 0 16 -43 0 -43h-117c-17 0 -17 -1 -17 -24v-201c0 -58 -3 -85 28 -106c31 -20 61 -14 97 2c5 4 13 -2 7 -10
c-37 -46 -95 -56 -138 -39c-58 24 -55 90 -55 152v202c0 23 0 24 -16 24h-30c-13 0 -10 17 -2 21c58 22 66 55 78 91c0 7 8 20 -14 28c-23 8 -70 30 -70 30c-46 19 -104 49 -142 23c-20 -14 -30 -34 -30 -58c0 -21 16 -53 33 -65c31 0 59 -7 71 -17z" />
    <glyph glyph-name="acute" unicode="&#xb4;" horiz-adv-x="246" 
d="M64 525h-38l62 71c12 14 71 93 103 83c10 -4 22 -14 25 -28c3 -28 -61 -64 -84 -80z" />
    <glyph glyph-name="dieresis" unicode="&#xa8;" horiz-adv-x="328" 
d="M55 632c0 27 21 48 47 48s48 -21 48 -48c0 -26 -22 -47 -48 -47s-47 21 -47 47zM222 632c0 27 21 48 47 48c27 0 49 -21 49 -48c0 -26 -22 -47 -49 -47c-26 0 -47 21 -47 47z" />
    <glyph glyph-name="AE" unicode="&#xc6;" horiz-adv-x="343" 
d="M138 490c-6 4 -25 21 -31 27c-15 15 -24 23 -36 44c-15 27 -18 67 -4 89c16 22 28 30 44 30s28 -9 35 -19c8 -12 6 -26 2 -31c-5 -9 -16 -15 -25 -21c-13 -9 -18 -14 -21 -23c-6 -23 28 -58 50 -83c7 -7 -1 -20 -14 -13zM326 490c-7 4 -26 21 -31 27
c-16 15 -25 23 -37 44c-15 27 -18 67 -3 89s27 30 43 30c17 0 29 -9 35 -19c8 -12 6 -26 3 -31c-6 -9 -17 -15 -26 -21c-12 -9 -18 -14 -21 -23c-6 -23 29 -58 50 -83c8 -7 -1 -20 -13 -13z" />
    <glyph glyph-name="infinity" unicode="&#x221e;" horiz-adv-x="446" 
d="M35 400c-9 3 -9 16 1 16c0 0 45 -3 86 -3c40 0 101 3 101 3c10 0 9 -15 3 -16c-36 -3 -49 -16 -55 -25c-9 -16 -1 -37 15 -87l52 -171c13 -38 25 -22 30 -6l57 162c13 39 29 84 16 104c-10 15 -30 22 -51 23c-8 1 -9 16 1 16c0 0 38 -3 79 -3c22 0 75 3 75 3
c10 0 9 -15 3 -16c-33 -4 -47 -23 -56 -47l-201 -535c-14 -38 -28 -84 -59 -91c-18 -5 -46 -2 -58 14c-8 7 -12 22 -8 36c5 14 19 26 38 25c22 -1 40 -10 48 11l45 121c15 43 10 48 -13 122l-88 282c-11 38 -26 52 -61 62zM276 470h-38l62 70c12 14 71 93 103 83
c10 -3 22 -13 25 -28c3 -27 -61 -64 -84 -79z" />
    <glyph glyph-name="ae" unicode="&#xe6;" horiz-adv-x="166" 
d="M146 490c-6 4 -25 21 -30 27c-16 15 -25 23 -37 44c-15 27 -18 67 -3 89s27 30 43 30c17 0 28 -9 35 -19c8 -12 6 -26 3 -31c-6 -9 -17 -15 -26 -21c-13 -9 -18 -14 -21 -23c-6 -23 28 -58 50 -83c7 -7 -1 -20 -14 -13z" />
    <glyph glyph-name="florin" unicode="&#x192;" horiz-adv-x="533" 
d="M379 345c0 8 0 22 -18 22h-147c-17 0 -17 -14 -17 -22v-230c0 -69 3 -74 19 -85c10 -7 29 -12 51 -15c7 0 9 -15 -1 -15c0 0 -63 4 -103 4c-41 0 -106 -4 -106 -4c-10 0 -8 15 -1 15c22 3 41 9 51 15c17 11 19 23 19 86v229c0 8 0 22 -17 22h-39c-11 0 -12 16 -1 21
l37 15c19 7 20 9 20 45v29c0 94 36 179 146 231c34 16 91 14 120 2c16 -7 24 -17 23 -26c-1 -7 -11 -22 -20 -30c-12 -10 -26 -9 -40 -2c-42 21 -51 35 -87 20c-53 -22 -64 -88 -68 -112c-4 -35 -3 -130 -3 -130c0 -8 0 -21 17 -21h147c18 0 18 13 18 21v27
c0 94 40 193 149 246c35 18 93 24 123 6c11 -7 20 -17 19 -29c-1 -8 -8 -25 -23 -32c-19 -9 -33 5 -58 19c-23 13 -51 15 -75 0c-65 -43 -65 -137 -65 -204v-33c0 -8 0 -21 17 -21h93c14 0 15 -42 0 -42h-93c-17 0 -17 -14 -17 -22v-230c0 -69 3 -74 19 -85
c10 -7 29 -12 51 -15c7 0 9 -15 -1 -15c0 0 -63 4 -103 4c-41 0 -106 -4 -106 -4c-10 0 -8 15 -1 15c22 3 41 9 51 15c17 11 20 23 20 86v229z" />
    <glyph glyph-name="Agrave" unicode="&#xc0;" horiz-adv-x="698" 
d="M299 372c-3 -11 -8 -25 9 -25c0 0 36 -2 59 -2c24 0 63 2 63 2c13 0 8 13 5 22l-57 176c-3 10 -11 12 -16 1zM649 37c17 -4 28 -6 49 -10c16 -2 14 -28 -2 -27c-7 0 -60 5 -123 5s-110 -5 -117 -5c-16 -1 -18 25 -2 27l55 10c12 3 14 22 0 79l-34 121
c-13 47 -22 62 -45 62c0 0 -39 2 -64 2c-26 0 -66 -2 -66 -2c-29 0 -32 -20 -53 -85l-29 -86c-21 -66 -15 -83 4 -89c26 -7 35 -8 50 -12c16 -3 14 -28 -2 -27c-7 0 -51 5 -113 5c-63 0 -92 -5 -100 -5c-15 -1 -18 24 -1 27c22 5 44 8 57 12c13 5 19 27 32 59l233 584
c8 22 28 41 41 3l192 -582c20 -62 23 -62 38 -66zM441 780h-36l-69 48c-19 14 -89 53 -84 81c2 11 11 23 26 26c31 9 73 -49 99 -79z" />
    <glyph glyph-name="Atilde" unicode="&#xc3;" horiz-adv-x="698" 
d="M299 372c-3 -11 -8 -25 9 -25c0 0 36 -2 59 -2c24 0 63 2 63 2c13 0 8 13 5 22l-57 176c-3 10 -11 12 -16 1zM649 37c17 -4 28 -6 49 -10c16 -2 14 -28 -2 -27c-7 0 -60 5 -123 5s-110 -5 -117 -5c-16 -1 -18 25 -2 27l55 10c12 3 14 22 0 79l-34 121
c-13 47 -22 62 -45 62c0 0 -39 2 -64 2c-26 0 -66 -2 -66 -2c-29 0 -32 -20 -53 -85l-29 -86c-21 -66 -15 -83 4 -89c26 -7 35 -8 50 -12c16 -3 14 -28 -2 -27c-7 0 -51 5 -113 5c-63 0 -92 -5 -100 -5c-15 -1 -18 24 -1 27c22 5 44 8 57 12c13 5 19 27 32 59l233 584
c8 22 28 41 41 3l192 -582c20 -62 23 -62 38 -66zM546 882h25c-9 -32 -25 -82 -63 -96c-48 -17 -72 16 -121 34c-17 6 -31 7 -45 -4c-7 -5 -12 -13 -22 -36h-25c9 37 23 83 66 94c55 17 71 -27 128 -38c16 -3 30 0 42 16c7 7 11 22 15 30z" />
    <glyph glyph-name="Otilde" unicode="&#xd5;" horiz-adv-x="757" 
d="M368 678c85 11 226 -21 304 -111c89 -104 100 -242 71 -338c-32 -113 -132 -202 -242 -236c-108 -33 -213 -15 -318 70c-108 87 -135 201 -125 304c10 105 68 212 197 277c43 21 87 30 113 34zM167 388c-8 -98 10 -254 116 -330c67 -48 155 -55 213 -31
c91 38 138 155 148 229c18 119 8 262 -102 352c-58 47 -163 50 -205 34c-121 -42 -164 -166 -170 -254zM568 847h24c-8 -32 -24 -82 -62 -95c-49 -18 -72 15 -121 33c-17 7 -31 8 -45 -3c-7 -6 -12 -13 -22 -37h-25c9 38 22 83 66 95c55 16 71 -27 127 -38c17 -3 30 0 43 15
c7 7 11 23 15 30z" />
    <glyph glyph-name="endash" unicode="&#x2013;" horiz-adv-x="836" 
d="M836 232c-16 -57 -17 -52 -30 -52h-734c-15 0 -14 6 -11 16c16 58 18 51 30 51h734c16 0 14 -5 11 -15z" />
    <glyph glyph-name="emdash" unicode="&#x2014;" horiz-adv-x="885" 
d="M880 232c-16 -57 -17 -52 -30 -52h-784c-14 0 -13 6 -10 16c16 58 18 51 30 51h783c15 0 14 -5 11 -15z" />
    <glyph glyph-name="quotedblleft" unicode="&#x201c;" horiz-adv-x="343" 
d="M152 664c-22 -24 -56 -60 -50 -83c3 -9 8 -13 21 -22c9 -7 20 -12 25 -21c4 -6 6 -19 -2 -31c-7 -10 -19 -19 -35 -19s-28 7 -44 30c-14 22 -11 62 4 88c12 21 21 29 36 45c6 5 25 22 31 26c13 7 21 -5 14 -13zM339 664c-21 -24 -56 -60 -50 -83c3 -9 9 -13 21 -22
c9 -7 20 -12 26 -21c3 -6 5 -19 -3 -31c-6 -10 -18 -19 -35 -19c-16 0 -28 7 -43 30c-15 22 -12 62 3 88c12 21 21 29 37 45c5 5 24 22 31 26c12 7 21 -5 13 -13z" />
    <glyph glyph-name="quotedblright" unicode="&#x201d;" horiz-adv-x="343" 
d="M248 503c22 25 57 60 50 83c-2 9 -8 14 -20 23c-10 6 -20 12 -26 21c-4 5 -5 19 3 31c6 10 18 19 34 19c17 0 29 -8 44 -30s12 -62 -4 -89c-11 -21 -21 -29 -36 -44c-5 -6 -25 -23 -31 -27c-13 -7 -21 6 -14 13zM61 503c22 25 56 60 50 83c-3 9 -8 14 -21 23
c-9 6 -20 12 -25 21c-4 5 -6 19 2 31c7 10 19 19 35 19s28 -8 44 -30c14 -22 11 -62 -4 -89c-12 -21 -21 -29 -36 -44c-6 -6 -25 -23 -31 -27c-13 -7 -21 6 -14 13z" />
    <glyph glyph-name="quoteleft" unicode="&#x2018;" horiz-adv-x="157" 
d="M149 664c-22 -24 -56 -60 -50 -83c3 -9 8 -13 21 -22c9 -7 20 -12 26 -21c3 -6 5 -19 -3 -31c-7 -10 -18 -19 -35 -19c-16 0 -28 7 -43 30c-15 22 -12 62 3 88c12 21 21 29 37 45c5 5 24 22 31 26c12 7 21 -5 13 -13z" />
    <glyph glyph-name="quoteright" unicode="&#x2019;" horiz-adv-x="153" 
d="M56 503c21 25 56 60 50 83c-3 9 -9 14 -21 23c-9 6 -20 12 -26 21c-3 5 -5 19 3 31c6 10 18 19 34 19c17 0 29 -8 44 -30s12 -62 -4 -89c-11 -21 -20 -29 -36 -44c-5 -6 -24 -23 -31 -27c-13 -7 -21 6 -13 13z" />
    <glyph glyph-name="ydieresis" unicode="&#xff;" horiz-adv-x="446" 
d="M36 400c-9 3 -9 16 1 16c0 0 45 -3 86 -3c40 0 101 3 101 3c10 0 9 -15 3 -16c-36 -3 -50 -16 -55 -25c-9 -16 -1 -37 15 -87l52 -171c13 -38 25 -22 30 -6l57 162c13 39 29 84 16 104c-10 15 -30 22 -51 23c-8 1 -9 16 1 16c0 0 38 -3 79 -3c22 0 75 3 75 3
c10 0 9 -15 3 -16c-33 -4 -47 -23 -56 -47l-201 -535c-15 -38 -28 -84 -59 -91c-18 -5 -46 -2 -58 14c-8 7 -12 22 -8 36c5 14 19 26 38 25c21 -1 40 -10 48 11l45 121c15 43 9 48 -13 122l-88 282c-11 38 -26 52 -61 62zM148 517c0 26 21 47 48 47c26 0 48 -21 48 -47
c0 -27 -22 -47 -48 -47c-27 0 -48 20 -48 47zM316 517c0 26 21 47 47 47s48 -21 48 -47c0 -27 -22 -47 -48 -47s-47 20 -47 47z" />
    <glyph glyph-name="Ydieresis" unicode="&#x178;" horiz-adv-x="728" 
d="M659 601l-215 -260c-31 -38 -27 -39 -27 -69v-204c0 -23 12 -26 22 -29c25 -7 37 -8 59 -12c16 -2 13 -28 -2 -27c-7 0 -60 5 -123 5s-119 -5 -126 -5c-16 -1 -19 25 -2 27c22 4 33 5 59 12c10 3 22 9 22 29v196c0 26 2 27 -16 55l-178 271c-16 25 -24 40 -51 43
c-10 1 -5 1 -29 5c-17 3 -14 28 2 27c7 0 63 -2 126 -2s117 2 124 2c15 1 16 -26 2 -27c-10 -1 -26 -2 -35 -3c-18 -1 -54 -6 -24 -51l152 -229c4 -7 10 -15 21 5l122 172c36 51 49 72 45 84c-6 22 -30 18 -67 22c-16 2 -11 27 2 27c8 0 71 -2 112 -2c30 0 86 2 93 2
c15 1 16 -25 2 -26c-10 -1 -23 -2 -37 -7c-10 -3 -25 -21 -33 -31zM410 745h-37l62 71c12 14 71 93 103 83c10 -4 22 -14 24 -28c4 -28 -61 -64 -83 -79z" />
    <glyph glyph-name="fraction" unicode="&#x2044;" horiz-adv-x="728" 
d="M659 601l-215 -260c-31 -38 -27 -39 -27 -69v-204c0 -23 12 -26 22 -29c25 -7 37 -8 59 -12c16 -2 13 -28 -2 -27c-7 0 -60 5 -123 5s-119 -5 -126 -5c-16 -1 -19 25 -2 27c22 4 33 5 59 12c10 3 22 9 22 29v196c0 26 2 27 -16 55l-178 271c-16 25 -24 40 -51 43
c-10 1 -5 1 -29 5c-17 3 -14 28 2 27c7 0 63 -2 126 -2s117 2 124 2c15 1 16 -26 2 -27c-10 -1 -26 -2 -35 -3c-18 -1 -54 -6 -24 -51l152 -229c4 -7 10 -15 21 5l122 172c36 51 49 72 45 84c-6 22 -30 18 -67 22c-16 2 -11 27 2 27c8 0 71 -2 112 -2c30 0 86 2 93 2
c15 1 16 -25 2 -26c-10 -1 -23 -2 -37 -7c-10 -3 -25 -21 -33 -31zM286 793c0 26 21 47 47 47s48 -21 48 -47c0 -27 -22 -48 -48 -48s-47 21 -47 48zM453 793c0 26 21 47 47 47c27 0 49 -21 49 -47c0 -27 -22 -48 -49 -48c-26 0 -47 21 -47 48z" />
    <glyph glyph-name="guilsinglleft" unicode="&#x2039;" horiz-adv-x="768" 
d="M577 367h-111c-17 0 -17 -14 -17 -22v-230c0 -69 3 -74 19 -85c10 -7 29 -12 51 -15c7 0 9 -15 -1 -15c0 0 -63 4 -103 4c-41 0 -106 -4 -106 -4c-10 0 -8 15 -1 15c22 3 41 9 51 15c17 11 20 23 20 86v229c0 8 0 22 -18 22h-147c-17 0 -17 -14 -17 -22v-230
c0 -69 3 -74 19 -85c10 -7 29 -12 51 -15c7 0 9 -15 -1 -15c0 0 -63 4 -103 4c-41 0 -106 -4 -106 -4c-10 0 -8 15 -1 15c22 3 41 9 51 15c17 11 19 23 19 86v229c0 8 0 22 -17 22h-39c-11 0 -12 16 -1 21l37 15c19 7 20 9 20 45v29c0 94 36 179 146 231c34 16 91 14 120 2
c16 -7 24 -17 23 -26c-1 -7 -11 -22 -20 -30c-12 -10 -26 -9 -40 -2c-42 21 -51 35 -87 20c-53 -22 -64 -88 -68 -112c-4 -35 -3 -130 -3 -130c0 -8 0 -21 17 -21h147c18 0 18 13 18 21v27c0 94 40 193 149 246c35 18 93 24 123 6c11 -7 20 -17 19 -29c-1 -8 -8 -25 -23 -32
c-19 -9 -33 5 -58 19c-23 13 -51 15 -75 0c-65 -43 -65 -137 -65 -204v-33c0 -8 0 -21 17 -21h93c46 0 99 0 127 28c4 3 14 6 13 -8c-1 -17 -6 -50 -6 -70v-244c0 -69 4 -74 19 -85c10 -7 30 -12 51 -15c8 0 10 -15 0 -15c0 0 -63 4 -103 4c-41 0 -106 -4 -106 -4
c-10 0 -8 15 -1 15c22 3 41 9 51 15c17 11 19 23 19 86v197c0 38 -1 54 -46 54z" />
    <glyph glyph-name="guilsinglright" unicode="&#x203a;" horiz-adv-x="768" 
d="M467 367c-18 0 -18 -14 -18 -22v-230c0 -69 4 -74 20 -85c10 -7 29 -15 51 -15c7 0 9 -15 -1 -15c0 0 -63 4 -103 4c-41 0 -106 -4 -106 -4c-10 0 -8 15 -1 15c22 0 41 9 51 15c17 11 19 23 19 86v229c0 8 0 22 -17 22h-147c-18 0 -18 -14 -18 -22v-230
c0 -69 4 -74 20 -85c10 -7 29 -15 51 -15c7 0 9 -15 -1 -15c0 0 -63 4 -103 4c-41 0 -106 -4 -106 -4c-10 0 -8 15 -1 15c22 0 41 9 51 15c17 11 19 23 19 86v229c0 8 0 22 -17 22h-39c-11 0 -12 16 -1 21l37 15c19 7 20 9 20 45v29c0 94 36 179 146 231c34 16 91 14 120 2
c16 -7 23 -17 23 -26c0 -7 -11 -22 -20 -30c-12 -10 -26 -9 -40 -2c-42 21 -51 35 -87 20c-53 -22 -64 -88 -68 -112c-4 -35 -4 -130 -4 -130c0 -8 0 -21 18 -21h147c17 0 17 13 17 21v27c0 94 41 193 150 246c35 18 94 29 123 6l4 -4l28 27c3 2 13 5 13 -8
c0 -17 -5 -52 -5 -71v-537c0 -63 2 -75 19 -86c10 -6 29 -15 51 -15c7 0 9 -15 -1 -15c0 0 -63 4 -103 4c-41 0 -106 -4 -106 -4c-10 0 -8 15 -1 15c22 0 41 9 51 15c17 11 19 23 19 86v229c0 8 0 22 -17 22h-137zM604 409c17 0 17 13 17 21v154c0 27 0 64 -31 83
c-23 14 -51 15 -75 0c-66 -43 -66 -137 -66 -204v-33c0 -8 0 -21 18 -21h137z" />
    <glyph glyph-name="fi" unicode="&#xfb01;" horiz-adv-x="523" 
d="M130 457c0 94 41 193 149 246c36 18 94 24 123 6c12 -7 20 -17 19 -29c-1 -8 -8 -25 -22 -32c-20 -9 -33 5 -59 19c-22 13 -51 15 -74 0c-66 -43 -66 -137 -66 -204v-33c0 -8 0 -21 17 -21h93c47 0 99 0 128 28c3 3 13 6 12 -8c-1 -17 -5 -50 -5 -70v-244
c0 -69 4 -74 19 -85c10 -7 29 -12 51 -15c7 0 9 -15 -1 -15c0 0 -63 4 -103 4c-41 0 -105 -4 -105 -4c-10 0 -8 15 -1 15c22 3 41 9 51 15c16 11 19 23 19 86v197c0 38 -1 54 -47 54h-111c-17 0 -17 -14 -17 -22v-230c0 -69 4 -74 19 -85c10 -7 29 -12 51 -15
c8 0 9 -15 -1 -15c0 0 -62 4 -102 4c-41 0 -106 -4 -106 -4c-10 0 -8 15 -1 15c22 3 41 9 51 15c16 11 19 23 19 86v229c0 8 0 22 -17 22h-39c-11 0 -12 16 -1 21l37 15c18 6 20 9 20 45v9z" />
    <glyph glyph-name="fl" unicode="&#xfb02;" horiz-adv-x="523" 
d="M130 457c0 85 41 193 149 246c36 18 95 29 123 6l5 -4l28 27c3 2 13 5 13 -8c0 -17 -6 -52 -6 -71v-537c0 -63 3 -75 19 -86c10 -6 29 -15 51 -15c8 0 9 -15 -1 -15c0 0 -62 4 -102 4c-41 0 -106 -4 -106 -4c-10 0 -8 15 -1 15c22 0 41 9 51 15c16 11 19 23 19 86v229
c0 8 0 22 -17 22h-138c-17 0 -17 -14 -17 -22v-230c0 -69 4 -74 19 -85c10 -7 29 -15 51 -15c8 0 9 -15 -1 -15c0 0 -62 4 -102 4c-41 0 -106 -4 -106 -4c-10 0 -8 15 -1 15c22 0 41 9 51 15c16 11 19 23 19 86v229c0 8 0 22 -17 22h-39c-11 0 -12 16 -1 21l37 15
c18 7 20 9 20 45v9zM355 409c17 0 17 13 17 21v154c0 27 0 64 -32 83c-22 14 -51 15 -74 0c-66 -43 -66 -137 -66 -204v-33c0 -8 0 -21 17 -21h138z" />
    <glyph glyph-name="periodcentered" unicode="&#xb7;" horiz-adv-x="415" 
d="M212 0h46l-53 -79c28 4 50 7 76 0c38 -10 65 -38 71 -71c7 -32 -3 -67 -34 -95c-59 -53 -166 -33 -233 -8l21 39c61 -22 103 -28 136 -10c22 12 30 29 33 47c3 20 -7 36 -18 45c-26 19 -62 14 -103 3l-20 15z" />
    <glyph glyph-name="Acircumflex" unicode="&#xc2;" horiz-adv-x="698" 
d="M303 372c-4 -11 -8 -25 9 -25c0 0 36 -2 58 -2c25 0 64 2 64 2c13 0 7 13 5 22l-58 176c-2 10 -11 12 -15 1zM652 37c18 -4 29 -6 50 -10c16 -2 13 -28 -2 -27c-8 0 -60 5 -123 5s-110 -5 -117 -5c-16 -1 -19 25 -2 27l54 10c13 3 15 22 0 79l-33 121
c-13 47 -22 62 -45 62c0 0 -39 2 -65 2c-25 0 -65 -2 -65 -2c-29 0 -32 -20 -54 -85l-28 -86c-22 -66 -15 -83 4 -89c26 -7 34 -8 50 -12c16 -3 13 -28 -2 -27c-7 0 -51 5 -114 5s-92 -5 -99 -5c-16 -1 -18 24 -2 27c23 5 45 8 57 12c13 5 20 27 32 59l233 584
c8 22 28 41 41 3l192 -582c20 -62 24 -62 38 -66zM386 931h61l100 -151h-34l-97 99l-96 -99h-34z" />
    <glyph glyph-name="Ecircumflex" unicode="&#xca;" horiz-adv-x="548" 
d="M205 5c-63 0 -119 -5 -127 -5c-15 -1 -18 25 -2 27c22 4 34 5 60 12c10 3 21 9 21 29v529c0 20 -11 26 -21 29c-26 7 -38 8 -60 12c-16 3 -13 28 2 27c8 0 137 -3 200 -3c62 0 170 2 170 2c43 0 76 8 78 -14c0 -2 -3 -29 -3 -61c0 -21 1 -46 2 -65c0 -5 -14 -9 -16 1
c-2 5 -13 45 -14 47c-8 19 -11 32 -35 41c-19 8 -97 16 -97 16c-65 9 -90 12 -104 0c-8 -8 -11 -25 -11 -58v-157c0 -15 -1 -36 6 -43c10 -10 21 -8 33 -8h96c16 0 27 3 32 4c21 5 27 12 34 32c5 14 9 26 15 47c3 8 16 7 16 0c0 -11 -2 -54 -2 -97c0 -50 2 -100 2 -100
c0 -12 -13 -12 -16 -4c-8 22 -10 33 -15 47c-7 19 -13 26 -34 32c-5 1 -16 4 -32 4h-96c-12 0 -23 1 -33 -9c-7 -6 -6 -27 -6 -42v-143c0 -62 2 -78 19 -89c22 -15 138 -19 186 0c55 22 67 57 90 108c3 9 17 5 14 -5l-10 -57c-17 -99 -11 -93 -97 -91c0 0 -182 5 -245 5z
M304 897h61l100 -152h-34l-97 100l-96 -100h-34z" />
    <glyph glyph-name="Aacute" unicode="&#xc1;" horiz-adv-x="698" 
d="M299 372c-3 -11 -8 -25 9 -25c0 0 36 -2 59 -2c24 0 63 2 63 2c13 0 8 13 5 22l-57 176c-3 10 -11 12 -16 1zM649 37c17 -4 28 -6 49 -10c16 -2 14 -28 -2 -27c-7 0 -60 5 -123 5s-110 -5 -117 -5c-16 -1 -18 25 -2 27l55 10c12 3 14 22 0 79l-34 121
c-13 47 -22 62 -45 62c0 0 -39 2 -64 2c-26 0 -66 -2 -66 -2c-29 0 -32 -20 -53 -85l-29 -86c-21 -66 -15 -83 4 -89c26 -7 35 -8 50 -12c16 -3 14 -28 -2 -27c-7 0 -51 5 -113 5c-63 0 -92 -5 -100 -5c-15 -1 -18 24 -1 27c22 5 44 8 57 12c13 5 19 27 32 59l233 584
c8 22 28 41 41 3l192 -582c20 -62 23 -62 38 -66zM425 780h-37l61 71c12 13 71 93 103 83c10 -4 22 -14 25 -29c4 -27 -61 -63 -84 -79z" />
    <glyph glyph-name="Edieresis" unicode="&#xcb;" horiz-adv-x="548" 
d="M205 5c-63 0 -119 -5 -127 -5c-15 -1 -18 25 -2 27c22 4 34 5 60 12c10 3 21 9 21 29v529c0 20 -11 26 -21 29c-26 7 -38 8 -60 12c-16 3 -13 28 2 27c8 0 137 -3 200 -3c62 0 170 2 170 2c43 0 76 8 78 -14c0 -2 -3 -29 -3 -61c0 -21 1 -46 2 -65c0 -5 -14 -9 -16 1
c-2 5 -13 45 -14 47c-8 19 -11 32 -35 41c-19 8 -97 16 -97 16c-65 9 -90 12 -104 0c-8 -8 -11 -25 -11 -58v-157c0 -15 -1 -36 6 -43c10 -10 21 -8 33 -8h96c16 0 27 3 32 4c21 5 27 12 34 32c5 14 9 26 15 47c3 8 16 7 16 0c0 -11 -2 -54 -2 -97c0 -50 2 -100 2 -100
c0 -12 -13 -12 -16 -4c-8 22 -10 33 -15 47c-7 19 -13 26 -34 32c-5 1 -16 4 -32 4h-96c-12 0 -23 1 -33 -9c-7 -6 -6 -27 -6 -42v-143c0 -62 2 -78 19 -89c22 -15 138 -19 186 0c55 22 67 57 90 108c3 9 17 5 14 -5l-10 -57c-17 -99 -11 -93 -97 -91c0 0 -182 5 -245 5z
M217 793c0 26 20 47 47 47c26 0 48 -21 48 -47c0 -27 -22 -48 -48 -48c-27 0 -47 21 -47 48zM384 793c0 26 21 47 47 47c27 0 49 -21 49 -47c0 -27 -22 -48 -49 -48c-26 0 -47 21 -47 48z" />
    <glyph glyph-name="Egrave" unicode="&#xc8;" horiz-adv-x="548" 
d="M205 5c-63 0 -119 -5 -127 -5c-15 -1 -18 25 -2 27c22 4 34 5 60 12c10 3 21 9 21 29v529c0 20 -11 26 -21 29c-26 7 -38 8 -60 12c-16 3 -13 28 2 27c8 0 137 -3 200 -3c62 0 170 2 170 2c43 0 76 8 78 -14c0 -2 -3 -29 -3 -61c0 -21 1 -46 2 -65c0 -5 -14 -9 -16 1
c-2 5 -13 45 -14 47c-8 19 -11 32 -35 41c-19 8 -97 16 -97 16c-65 9 -90 12 -104 0c-8 -8 -11 -25 -11 -58v-157c0 -15 -1 -36 6 -43c10 -10 21 -8 33 -8h96c16 0 27 3 32 4c21 5 27 12 34 32c5 14 9 26 15 47c3 8 16 7 16 0c0 -11 -2 -54 -2 -97c0 -50 2 -100 2 -100
c0 -12 -13 -12 -16 -4c-8 22 -10 33 -15 47c-7 19 -13 26 -34 32c-5 1 -16 4 -32 4h-96c-12 0 -23 1 -33 -9c-7 -6 -6 -27 -6 -42v-143c0 -62 2 -78 19 -89c22 -15 138 -19 186 0c55 22 67 57 90 108c3 9 17 5 14 -5l-10 -57c-17 -99 -11 -93 -97 -91c0 0 -182 5 -245 5z
M378 745h-37l-69 48c-19 14 -89 53 -84 81c2 11 11 23 26 27c32 8 74 -49 99 -79z" />
    <glyph glyph-name="Iacute" unicode="&#xcd;" horiz-adv-x="331" 
d="M238 68c0 -20 12 -26 22 -29c26 -7 38 -8 59 -12c17 -2 14 -28 -1 -27c-8 0 -60 5 -123 5s-119 -5 -127 -5c-15 -1 -18 25 -2 27c22 4 34 5 60 12c10 3 21 9 21 29v529c0 20 -11 26 -21 29c-26 7 -38 8 -60 12c-16 3 -13 28 2 27c8 0 64 -4 127 -4s115 4 123 4
c15 1 18 -24 1 -27c-21 -4 -33 -5 -59 -12c-10 -3 -22 -9 -22 -29v-529zM223 745h-37l61 71c12 14 71 93 103 83c10 -4 22 -14 25 -28c4 -28 -61 -64 -84 -79z" />
    <glyph glyph-name="Icircumflex" unicode="&#xce;" horiz-adv-x="331" 
d="M238 68c0 -20 12 -26 22 -29c26 -7 38 -8 59 -12c17 -2 14 -28 -1 -27c-8 0 -60 5 -123 5s-119 -5 -127 -5c-15 -1 -18 25 -2 27c22 4 34 5 60 12c10 3 21 9 21 29v529c0 20 -11 26 -21 29c-26 7 -38 8 -60 12c-16 3 -13 28 2 27c8 0 64 -4 127 -4s115 4 123 4
c15 1 18 -24 1 -27c-21 -4 -33 -5 -59 -12c-10 -3 -22 -9 -22 -29v-529zM186 897h61l100 -152h-34l-97 100l-96 -100h-34z" />
    <glyph glyph-name="Idieresis" unicode="&#xcf;" horiz-adv-x="331" 
d="M238 68c0 -20 12 -26 22 -29c26 -7 38 -8 59 -12c17 -2 14 -28 -1 -27c-8 0 -60 5 -123 5s-119 -5 -127 -5c-15 -1 -18 25 -2 27c22 4 34 5 60 12c10 3 21 9 21 29v529c0 20 -11 26 -21 29c-26 7 -38 8 -60 12c-16 3 -13 28 2 27c8 0 64 -4 127 -4s115 4 123 4
c15 1 18 -24 1 -27c-21 -4 -33 -5 -59 -12c-10 -3 -22 -9 -22 -29v-529zM80 793c0 26 21 47 47 47c27 0 49 -21 49 -47c0 -27 -22 -48 -49 -48c-26 0 -47 21 -47 48zM247 793c0 26 21 47 48 47c26 0 48 -21 48 -47c0 -27 -22 -48 -48 -48c-27 0 -48 21 -48 48z" />
    <glyph glyph-name="Igrave" unicode="&#xcc;" horiz-adv-x="331" 
d="M238 68c0 -20 12 -26 22 -29c26 -7 38 -8 59 -12c17 -2 14 -28 -1 -27c-8 0 -60 5 -123 5s-119 -5 -127 -5c-15 -1 -18 25 -2 27c22 4 34 5 60 12c10 3 21 9 21 29v529c0 20 -11 26 -21 29c-26 7 -38 8 -60 12c-16 3 -13 28 2 27c8 0 64 -4 127 -4s115 4 123 4
c15 1 18 -24 1 -27c-21 -4 -33 -5 -59 -12c-10 -3 -22 -9 -22 -29v-529zM250 745h-36l-69 48c-19 14 -89 53 -84 81c2 11 11 23 25 27c32 8 74 -49 100 -79z" />
    <glyph glyph-name="Oacute" unicode="&#xd3;" horiz-adv-x="757" 
d="M368 678c85 11 226 -21 304 -111c89 -104 100 -242 71 -338c-32 -113 -132 -202 -242 -236c-108 -33 -213 -15 -318 70c-108 87 -135 201 -125 304c10 105 68 212 197 277c43 21 87 30 113 34zM167 388c-8 -98 10 -254 116 -330c67 -48 155 -55 213 -31
c91 38 138 155 148 229c18 119 8 262 -102 352c-58 47 -163 50 -205 34c-121 -42 -164 -166 -170 -254zM432 745h-37l62 71c12 14 71 93 103 83c10 -4 21 -14 24 -28c4 -28 -61 -64 -84 -79z" />
    <glyph glyph-name="Ocircumflex" unicode="&#xd4;" horiz-adv-x="757" 
d="M368 678c85 11 226 -21 304 -111c89 -104 100 -242 71 -338c-32 -113 -132 -202 -242 -236c-108 -33 -213 -15 -318 70c-108 87 -135 201 -125 304c10 105 68 212 197 277c43 21 87 30 113 34zM167 388c-8 -98 10 -254 116 -330c67 -48 155 -55 213 -31
c91 38 138 155 148 229c18 119 8 262 -102 352c-58 47 -163 50 -205 34c-121 -42 -164 -166 -170 -254zM386 897h61l100 -152h-34l-97 100l-96 -100h-34z" />
    <glyph glyph-name="Ograve" unicode="&#xd2;" horiz-adv-x="757" 
d="M368 678c85 11 226 -21 304 -111c89 -104 100 -242 71 -338c-32 -113 -132 -202 -242 -236c-108 -33 -213 -15 -318 70c-108 87 -135 201 -125 304c10 105 68 212 197 277c43 21 87 30 113 34zM167 388c-8 -98 10 -254 116 -330c67 -48 155 -55 213 -31
c91 38 138 155 148 229c18 119 8 262 -102 352c-58 47 -163 50 -205 34c-121 -42 -164 -166 -170 -254zM432 745h-36l-69 48c-19 14 -90 53 -84 81c2 11 11 23 25 27c32 8 74 -49 100 -79z" />
    <glyph glyph-name="Uacute" unicode="&#xda;" horiz-adv-x="746" 
d="M517 638c-17 1 -14 28 2 27c7 0 67 -3 108 -3c58 0 105 3 112 3c15 1 18 -24 2 -27l-57 -10c-29 -6 -30 -49 -30 -79v-310c0 -76 -7 -175 -104 -231c-70 -39 -237 -43 -318 5c-88 51 -86 127 -86 200v384c0 20 -11 26 -21 29c-26 7 -38 8 -59 12c-17 3 -14 28 1 27
c8 0 64 -4 127 -4s115 4 123 4c15 1 18 -24 1 -27c-21 -4 -33 -5 -59 -12c-10 -3 -22 -9 -22 -29v-385c0 -64 -6 -132 71 -175c53 -30 167 -29 219 0c84 49 91 142 91 208v304c0 30 0 70 -30 79c-20 6 -37 7 -71 10zM450 745h-37l62 71c12 14 71 93 103 83
c10 -4 22 -14 24 -28c4 -28 -61 -64 -83 -79z" />
    <glyph glyph-name="Ucircumflex" unicode="&#xdb;" horiz-adv-x="746" 
d="M517 638c-17 1 -14 28 2 27c7 0 67 -3 108 -3c58 0 105 3 112 3c15 1 18 -24 2 -27l-57 -10c-29 -6 -30 -49 -30 -79v-310c0 -76 -7 -175 -104 -231c-70 -39 -237 -43 -318 5c-88 51 -86 127 -86 200v384c0 20 -11 26 -21 29c-26 7 -38 8 -59 12c-17 3 -14 28 1 27
c8 0 64 -4 127 -4s115 4 123 4c15 1 18 -24 1 -27c-21 -4 -33 -5 -59 -12c-10 -3 -22 -9 -22 -29v-385c0 -64 -6 -132 71 -175c53 -30 167 -29 219 0c84 49 91 142 91 208v304c0 30 0 70 -30 79c-20 6 -37 7 -71 10zM395 897h61l100 -152h-34l-97 100l-96 -100h-34z" />
    <glyph glyph-name="Ugrave" unicode="&#xd9;" horiz-adv-x="746" 
d="M517 638c-17 1 -14 28 2 27c7 0 67 -3 108 -3c58 0 105 3 112 3c15 1 18 -24 2 -27l-57 -10c-29 -6 -30 -49 -30 -79v-310c0 -76 -7 -175 -104 -231c-70 -39 -237 -43 -318 5c-88 51 -86 127 -86 200v384c0 20 -11 26 -21 29c-26 7 -38 8 -59 12c-17 3 -14 28 1 27
c8 0 64 -4 127 -4s115 4 123 4c15 1 18 -24 1 -27c-21 -4 -33 -5 -59 -12c-10 -3 -22 -9 -22 -29v-385c0 -64 -6 -132 71 -175c53 -30 167 -29 219 0c84 49 91 142 91 208v304c0 30 0 70 -30 79c-20 6 -37 7 -71 10zM478 745h-37l-69 48c-19 14 -89 53 -84 81
c2 11 11 23 26 27c32 8 74 -49 99 -79z" />
    <glyph glyph-name="dotlessi" unicode="&#x131;" horiz-adv-x="276" 
d="M128 258c0 46 -2 74 -43 82c-9 2 -8 17 0 19c36 11 77 30 106 69c3 3 14 6 13 -8c-1 -17 -6 -51 -6 -71v-234c0 -69 4 -74 19 -85c10 -7 30 -12 51 -15c8 0 10 -15 0 -15c0 0 -63 4 -103 4c-41 0 -106 -4 -106 -4c-10 0 -8 15 -1 15c22 3 41 9 51 15c17 11 19 23 19 86
v142z" />
    <glyph glyph-name="circumflex" unicode="&#x2c6;" horiz-adv-x="327" 
d="M157 680h60l101 -151h-34l-97 99l-96 -100h-35z" />
    <glyph glyph-name="tilde" unicode="&#x2dc;" horiz-adv-x="342" 
d="M310 680h25c-8 -32 -25 -82 -63 -96c-48 -17 -72 16 -121 34c-16 6 -31 7 -45 -4c-7 -5 -11 -13 -21 -36h-26c9 37 23 83 67 94c54 17 71 -27 127 -38c16 -3 30 0 43 16c6 7 11 22 14 30z" />
    <glyph glyph-name="ring" unicode="&#x2da;" horiz-adv-x="248" 
d="M63 588c0 51 41 92 92 92s92 -41 92 -92s-41 -92 -92 -92s-92 41 -92 92zM155 532c31 0 55 25 55 56s-24 55 -55 55s-56 -24 -56 -55s25 -56 56 -56z" />
    </font>
</defs>
</svg>
