<?xml version="1.0" standalone="no"?>
<!DOCTYPE svg PUBLIC "-//W3C//DTD SVG 1.1//EN" "http://www.w3.org/Graphics/SVG/1.1/DTD/svg11.dtd" >
<svg>
<metadata>
Created by FontForge 20090914 at Fri Feb 24 12:39:19 2012
 By root
Converted by ALLTYPE
</metadata>
<defs>
<font id="Garamond-Italic" horiz-adv-x="769" >
  <font-face 
    font-family="Garamond Regular"
    font-weight="500"
    font-style="italic"
    font-stretch="normal"
    units-per-em="1000"
    panose-1="0 0 0 0 0 0 0 0 0 0"
    ascent="800"
    descent="-200"
    x-height="418"
    cap-height="668"
    bbox="-138.4 -225 1086 736"
    underline-thickness="50"
    underline-position="-55"
    slope="23853"
    unicode-range="U+0020-U+F002"
  />
<missing-glyph 
 />
    <glyph glyph-name=".notdef" 
 />
    <glyph glyph-name="glyph1" horiz-adv-x="0" 
 />
    <glyph glyph-name="space" horiz-adv-x="278" 
 />
    <glyph glyph-name="exclam" unicode=" " horiz-adv-x="278" 
 />
    <glyph glyph-name="exclam" unicode="&#xa0;" horiz-adv-x="278" 
 />
    <glyph glyph-name="quotedbl" unicode="!" horiz-adv-x="232" 
d="M184 46q-3 -13 -10 -23t-18 -18q-10 -7 -21 -11t-22 -4q-12 0 -21 4t-15 11q-6 8 -7.5 17.5t2.5 21.5q3 11 9.5 21t16.5 18q11 8 22 12.5t23 4.5q11 0 19.5 -4.5t14.5 -12.5t8 -18t-1 -21v2v0zM180 193h-27l29 171q1 7 2.5 14.5t2.5 14.5q1 8 2.5 15.5t2.5 15.5
q3 16 6.5 32t7.5 32q2 15 5 30.5t7 31.5l8 31.5l8 31.5v0.5t1 1.5v0.5v1.5t0.5 1.5t0.5 1.5v0.5v1.5q4 10 9.5 19t12.5 17q8 8 17.5 12.5t21.5 4.5q11 0 18 -4.5t10 -12.5q2 -8 3 -17t-1 -19v-1.5v-0.5q0 -1 -0.5 -1.5t-0.5 -1.5v-1.5v-0.5q-1 -1 -1 -1.5v-0.5
q-4 -16 -8.5 -31.5l-9.5 -31.5q-2 -8 -4.5 -16l-4.5 -15q-3 -8 -5.5 -15.5t-4.5 -15.5l-6 -16t-5 -16l-6 -16l-6 -16t-5.5 -16t-5.5 -15q-3 -8 -5.5 -15.5t-5.5 -15.5l-63 -169v0v0z" />
    <glyph glyph-name="numbersign" unicode="&#x22;" horiz-adv-x="333" 
d="M215 399h-35l51 269h78l-94 -269v0v0zM366 399h-35l51 269h77l-93 -269v0v0z" />
    <glyph glyph-name="dollar" unicode="#" horiz-adv-x="567" 
d="M437 250l-102 -250h-37l100 250h-112l-101 -250h-39l100 250h-140l11 38h145l43 106h-136l11 39h141l95 235h40l-94 -235h111l96 235h37l-94 -235h131l-11 -39h-136l-43 -106h129l-11 -38h-134v0v0zM457 394h-111l-43 -106h111l43 106v0v0z" />
    <glyph glyph-name="percent" unicode="$" horiz-adv-x="467" 
d="M403 736h32l-16 -59q0 -2 0.5 -2h1.5h0.5t1.5 1h0.5h1.5h0.5h1.5q5 0 12 -0.5t15 -2.5q5 -1 9 -1.5t9 -1.5q4 -1 8.5 -1.5t8.5 -1.5q14 -4 26 -9.5t22 -11.5q10 -7 14 -15t1 -17q-1 -5 -4.5 -9.5t-9.5 -9.5q-2 -1 -3.5 -2.5l-3.5 -3.5q-4 -2 -7.5 -4t-6.5 -3
q-2 -1 -4 -1.5t-4 -0.5q-1 -1 -2.5 -1h-3.5q-3 0 -6 2.5t-7 6.5q-3 5 -7.5 10.5l-9.5 11.5l-11 10.5t-14 9.5q-8 5 -18 7.5t-21 2.5l-67 -250q2 -3 4 -4.5t4 -3.5l2 -2t2 -1l2 -2l2 -2q23 -17 43 -37t36 -43q17 -22 20.5 -51.5t-5.5 -64.5q-10 -38 -30.5 -69.5t-51.5 -56.5
t-64 -40t-71 -22l-17 -65h-32l17 64q-18 1 -35 2.5t-33 4.5q-16 2 -31 7.5t-29 15.5q-1 1 -2.5 2t-3.5 2q0 1 -1 1.5t-1 1.5q-1 0 -2 0.5t-1 1.5q-4 4 -8 8.5t-7 8.5q-3 5 -3 10.5t1 11.5q2 5 4.5 9t8.5 8q5 4 10 7t10 5q2 1 4 1.5t4 1.5h2t2 1h1h2l2 2q4 -2 7.5 -5t7.5 -9
q3 -6 8 -12.5t11 -13.5q5 -7 13 -14t17 -13q10 -6 22.5 -9t28.5 -3l74 278q-25 16 -45 35t-37 40t-21 50t4 66q9 34 27 64t46 55q28 26 59 41t67 20l17 63v0v0zM246 31q20 4 39 15t37 27q18 17 30 35t17 39q6 23 4 42.5t-12 35.5t-22 29.5t-26 24.5l-67 -248v0v0zM376 637
q-20 -7 -38 -17.5t-32 -25.5q-15 -15 -25.5 -32t-15.5 -37t-3.5 -36.5t10.5 -29.5q8 -13 18.5 -24.5t22.5 -22.5v0h1v-1v0v0h1q0 -1 0.5 -1h0.5l60 227v0v0z" />
    <glyph glyph-name="ampersand" unicode="%" horiz-adv-x="792" 
d="M812 205q-2 -10 -5 -18.5l-6 -16.5l-6 -17.5t-7 -16.5q-13 -28 -30 -53t-38 -48q-21 -22 -47 -33t-57 -11t-51 11t-29 33q-10 23 -13.5 48t-1.5 53l2 16.5l2 17.5l4 16.5l4 16.5t4.5 16l5.5 17l6.5 17t7.5 18q13 27 30 52t39 47q21 23 47 34.5t57 11.5q30 0 50 -11.5
t30 -34.5q9 -22 12.5 -47t1.5 -52l-2 -18t-3 -17q-1 -9 -3 -17l-4 -16v2v0zM743 206q2 5 3.5 13.5t4.5 20.5q1 4 1.5 8t1.5 8q2 8 3.5 16.5t2.5 17.5q2 18 1.5 35t-4.5 32q-3 15 -11.5 23t-22.5 8q-15 0 -28 -8t-25 -23q-11 -15 -20 -32t-17 -35l-10 -25.5t-8 -24.5
t-5.5 -21t-4.5 -15q-1 -7 -3.5 -16t-5.5 -21q-4 -12 -5.5 -24t-3.5 -25q-2 -19 -2 -36t3 -32q4 -15 12.5 -22.5t23.5 -7.5q14 0 27 7.5t24 22.5q12 15 22 32t17 36q4 9 6.5 17t5.5 16q2 4 3.5 8t2.5 8q3 12 6 21t4 16l1 2v0zM666 635h42l-81 -123l-332 -512h-42l80 123
l333 512v0v0zM425 429q-1 -5 -2.5 -9.5t-2.5 -8.5q-2 -5 -3 -9t-3 -9q-1 -4 -3 -8.5t-3 -8.5l-3.5 -9l-3.5 -9q-13 -27 -30.5 -52t-38.5 -48q-21 -22 -47 -33.5t-56 -11.5t-50 11.5t-29 33.5q-10 23 -13.5 48t-0.5 52v9t1 9q0 4 0.5 8.5t1.5 8.5l4 17.5l4 16.5t4.5 16
l5.5 17l3.5 9l3.5 9q1 4 3 8.5t4 8.5q13 27 30 52.5t38 48.5q22 23 48 34.5t57 11.5q30 0 50 -11.5t29 -34.5t12.5 -48.5t1.5 -52.5q0 -4 -0.5 -8.5t-1.5 -8.5q-1 -5 -1.5 -9t-1.5 -9q-1 -9 -3 -17l-4 -16v2v0zM356 430q2 5 3.5 14t4.5 21t5.5 24.5t4.5 25.5q2 18 1 35
t-4 32q-4 15 -12.5 23t-22.5 8q-15 0 -28 -8t-24 -23q-12 -15 -21 -32t-16 -35q-6 -13 -10.5 -25.5l-8.5 -24.5l-5.5 -21.5t-4.5 -15.5q-1 -7 -3.5 -16t-5.5 -21q-4 -12 -5.5 -24t-3.5 -25q-2 -19 -2 -36t3 -32q4 -15 12.5 -22.5t23.5 -7.5q14 0 27 7.5t24 22.5q12 15 22 32
t17 36q4 9 6.5 17t5.5 16q2 4 3.5 8t2.5 8q3 12 6 21t4 16l1 2v0z" />
    <glyph glyph-name="quotesingle" unicode="&#x26;" horiz-adv-x="669" 
d="M517 342l8 30q3 -2 6.5 -2.5t6.5 -0.5q3 -1 6.5 -1h6.5q6 -1 13 -1.5t14 -0.5q6 -1 12.5 -1h13.5h13.5h13.5h25.5t24.5 1l25 2l26 2l-8 -28q-23 -3 -43 -10t-37 -18q-18 -12 -35 -25.5t-34 -28.5l-5.5 -5.5l-4.5 -4.5q-3 -3 -6 -5.5t-5 -4.5q-6 -5 -11.5 -10.5
l-10.5 -10.5l-10.5 -10l-10.5 -10l-11.5 -11l-10.5 -10l-10.5 -10.5l-10.5 -10.5q3 -4 6 -10t7 -12q2 -3 3.5 -6t3.5 -6q2 -4 4 -7l4 -6q6 -12 13.5 -22.5t16.5 -19.5q8 -9 18 -13.5t22 -4.5q8 0 16 1.5t16 5.5l16.5 8.5l16.5 8.5q2 1 3.5 2t3.5 2q1 1 2 1.5t2 1.5
q1 0 2 0.5t2 1.5l13 -18q-2 -4 -4 -6l-4 -4q-1 0 -1.5 -1t-1.5 -1l-1 -1h-1l-2 -2l-2 -2q-4 -3 -7.5 -6t-6.5 -6l-21.5 -15.5t-22.5 -14.5q-16 -8 -31.5 -13t-30.5 -5q-19 0 -34 6t-26 16q-10 12 -19.5 25t-17.5 27l-6 10.5t-5 10.5q-1 3 -2.5 5.5t-2.5 4.5q-2 3 -3 5.5
t-3 4.5l-2.5 -2.5l-3.5 -3.5l-1.5 -1.5l-1.5 -1.5q-3 -2 -5 -4l-4 -4q-22 -19 -45 -36t-47 -32q-25 -15 -50.5 -22.5t-51.5 -7.5q-34 0 -60 11t-43 33q-18 23 -21.5 52t5.5 63q8 29 23.5 54t40.5 44q25 20 51 37t54 31q2 1 4 2.5t5 2.5l3 1.5t2 1.5q2 0 3 0.5t2 1.5
q-8 11 -15 24t-12 27q-6 14 -6 30t4 32q7 26 22 46t39 36q23 15 47 23t48 8v0h1v0v0h0.5h1.5q20 -1 37 -8t30 -21q14 -14 17.5 -32.5t-2.5 -41.5q-5 -20 -17 -37.5t-29 -31.5q-18 -15 -36 -27t-37 -21q1 -2 2.5 -4t2.5 -4q2 -3 3.5 -5t2.5 -4q2 -2 3.5 -4t3.5 -4t3.5 -4
t3.5 -4l0.5 -0.5t0.5 -1.5l0.5 -0.5l1.5 -1.5q0 -1 1 -2l2 -2q5 -6 9.5 -12l9.5 -13q5 -6 9.5 -12.5t9.5 -12.5q8 -13 15.5 -26.5t14.5 -28.5q4 5 9.5 9.5l11.5 9.5t12 11l12 12l10.5 10l10.5 10l10.5 10.5t10.5 11.5q2 3 4.5 6t4.5 6q2 2 4 5l4 6q4 5 7 10.5t5 11.5
q2 7 1 12t-6 8q-3 2 -5.5 3t-5.5 2q-3 0 -5.5 1t-5.5 1h-3.5t-3.5 1h-2.5h-3.5h-6h-5v2v0zM278 300l-3.5 -3.5t-3.5 -2.5l-3 -1.5t-2 -1.5q-19 -10 -36 -22.5t-34 -26.5q-17 -15 -28 -32t-16 -37q-6 -24 -4 -44.5t13 -37.5t28.5 -25.5t42.5 -8.5q20 0 40.5 5.5t41.5 16.5
t39.5 23.5t35.5 26.5l-26.5 43.5l-27.5 42.5l-18.5 28l-19.5 28l-9.5 13.5l-9.5 13.5v2v0zM336 356q14 7 26.5 16.5t23.5 20.5t19 24t12 29v0l1 1v0v0v0.5v1.5q3 13 2.5 25t-5.5 23q-4 11 -14 16.5t-25 5.5q-13 0 -24.5 -4.5t-22.5 -13.5t-18 -19.5t-11 -23.5q-4 -15 -3 -28
t6 -24q4 -12 10.5 -22t14.5 -19l0.5 -1l0.5 -1q0 -1 0.5 -2t1.5 -2q0 -1 0.5 -1.5t1.5 -0.5l1.5 -1.5l1.5 -1.5v2v0z" />
    <glyph glyph-name="parenleft" unicode="'" horiz-adv-x="218" 
d="M177 46q-3 -13 -10 -23t-18 -18q-10 -7 -21 -11t-22 -4q-12 0 -21 4t-15 11q-6 8 -7.5 17.5t2.5 21.5q3 11 9.5 21t16.5 18q11 8 22 12.5t23 4.5q11 0 19.5 -4.5t14.5 -12.5t8 -18t-1 -21v2v0z" />
    <glyph glyph-name="parenright" unicode="(" horiz-adv-x="286" 
d="M444 714l13 -21q-53 -49 -96.5 -102.5t-76.5 -112.5q-34 -59 -58.5 -119t-41.5 -122q-1 -5 -2.5 -10.5t-2.5 -10.5t-2.5 -10.5t-2.5 -10.5t-2.5 -10.5t-2.5 -10.5l-2 -11.5l-2 -10.5q-9 -49 -12 -96.5t1 -93.5q4 -47 17 -89t35 -79l-25 -19q-33 46 -55.5 99.5
t-33.5 115.5q-11 60 -8 123t20 128q4 14 8.5 28t10.5 29l5.5 15l5.5 15l6.5 14.5t7.5 14.5q24 50 55.5 99t71.5 96q39 47 81 87t88 73v2v0z" />
    <glyph glyph-name="asterisk" unicode=")" horiz-adv-x="286" 
d="M-27 -225l-14 21q53 47 96 100t75 110q33 59 58.5 119.5t41.5 121.5l2 8t2 9q1 4 2 8.5t2 8.5l2 8t2 9q1 4 2 8.5t2 8.5q10 51 13.5 101t1.5 99q-4 50 -16.5 94t-35.5 84l26 21q32 -47 54.5 -101t33.5 -116q11 -61 7.5 -125t-20.5 -129q-1 -5 -3 -10.5l-4 -10.5
q-1 -6 -3 -11.5l-4 -10.5q-3 -10 -7 -20.5t-9 -21.5q-23 -55 -54.5 -107t-72.5 -103t-86 -94t-93 -79h-1v0z" />
    <glyph glyph-name="plus" unicode="*" horiz-adv-x="417" 
d="M339 517l11 5q2 -5 4.5 -8.5t4.5 -8.5q1 -3 2.5 -6t3.5 -6q1 -1 1.5 -2.5t1.5 -3.5q2 -4 3.5 -7.5t3.5 -6.5q1 -4 2.5 -7.5t2.5 -6.5l4 -13.5t3 -12.5q1 -7 1 -13t-2 -11q-1 -7 -5.5 -12t-11.5 -10q-3 -2 -6 -3.5t-6 -2.5q-4 -1 -7 -1.5t-6 -0.5q-7 0 -11.5 2.5t-6.5 6.5
q-3 5 -4 10.5t0 11.5v1v1v0v1v0.5v1.5v3.5t1 2.5q1 11 2.5 22.5t3.5 23.5l4 24t6 24v2v0zM311 532l5 -9q-4 -5 -9 -10.5l-10 -11.5l-6 -6l-6 -6q-1 -2 -2 -3l-2 -2l-4 -4l-4 -4q-4 -3 -7.5 -6.5t-6.5 -7.5q-2 -1 -3.5 -2.5l-3.5 -3.5l-11.5 -9.5t-10.5 -7.5q-5 -4 -9.5 -7
t-9.5 -5t-9 -3t-7 -1q-7 0 -11.5 2.5t-7.5 6.5q-4 5 -4.5 10.5t0.5 11.5q3 9 9.5 17t18.5 15q8 5 17.5 9.5l19.5 9.5q3 1 6.5 2.5t6.5 2.5q4 2 8.5 3.5t9.5 2.5q4 2 8.5 3.5t8.5 2.5q8 2 14.5 4.5t11.5 3.5v2v0zM369 541l3 11q1 -1 2 -0.5t2 0.5q2 1 5 2t7 2q4 2 8.5 3.5
t8.5 2.5q2 0 3.5 0.5t3.5 1.5q2 0 3.5 0.5t3.5 1.5t4 1.5t4 1.5q2 0 4 0.5t4 1.5l8 2l8 2q3 1 7 2l8 2q8 2 14.5 2.5t12.5 0.5q7 0 12 -2.5t8 -7.5q3 -4 4.5 -10t-0.5 -13t-6.5 -13t-12.5 -11q-7 -4 -13.5 -6t-13.5 -2q-5 0 -11 0.5t-13 1.5q-4 1 -7.5 1.5t-6.5 1.5
t-6.5 1.5t-7.5 1.5h-2.5t-2.5 1q-2 0 -3 0.5t-3 0.5q-1 0 -2.5 0.5t-2.5 1.5q-2 0 -3 0.5l-3 1.5q-3 1 -5.5 1.5t-4.5 0.5q-1 1 -2.5 1.5t-2.5 0.5q-3 1 -5.5 1.5t-4.5 1.5q-1 0 -1.5 0.5t-1.5 0.5v2v0zM328 568l-10 -10q-4 -1 -10 0.5l-14 3.5q-7 2 -14 5t-15 6l-21 10
t-19 11t-11.5 13.5t-0.5 15.5q2 6 5.5 11.5t9.5 10.5q5 5 11 7.5t12 2.5q4 0 7.5 -1t7.5 -3q3 -2 6 -5t7 -6q4 -4 7 -7.5t6 -8.5q3 -4 6 -8.5t6 -9.5l6 -12t6 -11q2 -3 3 -5t3 -5q1 -2 2.5 -3.5t2.5 -3.5l1 2v0zM362 573l-12 2l19 74q1 1 1.5 3.5t1.5 5.5l2 6l2 6
q2 8 6.5 15t9.5 14q5 6 12.5 9.5t17.5 3.5q6 0 11 -2t8 -6q4 -4 5.5 -9.5t-0.5 -12.5q-2 -6 -5 -12t-7 -12q-4 -7 -9 -13.5l-10 -13.5q-1 -1 -2.5 -3t-2.5 -3l-3.5 -3.5t-2.5 -3.5q-3 -4 -6 -7t-5 -6q-4 -5 -8.5 -9.5t-8.5 -9.5q-4 -4 -7.5 -8t-6.5 -7v2v0z" />
    <glyph glyph-name="comma" unicode="+" horiz-adv-x="501" 
d="M119 363h205l52 194h44l-52 -194h206l-12 -43h-206l-51 -193h-44l51 193h-205l12 43v0v0z" />
    <glyph glyph-name="hyphen" unicode="," horiz-adv-x="218" 
d="M-12 -142l11 29q17 1 34 5.5t34 13.5q18 9 29.5 23.5t16.5 34.5q2 8 1 13.5t-6 7.5q-3 2 -7 4t-8 3q-1 1 -2.5 1.5t-2.5 0.5h-1.5h-0.5q-1 1 -1.5 1h-0.5h-1.5h-0.5q-1 1 -1.5 1h-0.5q-7 2 -13 5t-11 7q-5 5 -6 14.5t3 23.5q3 12 10.5 22t18.5 17q11 8 22 11.5t23 3.5
q17 0 27.5 -6.5t16.5 -18.5q5 -13 7 -26.5t1 -27.5q0 -2 -0.5 -4t-0.5 -3q0 -2 -0.5 -3.5t-0.5 -3.5q0 -1 -0.5 -2.5t-0.5 -3.5q0 -1 -0.5 -2t-0.5 -2q-9 -34 -27 -59.5t-44 -43.5q-25 -18 -54.5 -27t-60.5 -9h-1v0z" />
    <glyph glyph-name="period" unicode="-" horiz-adv-x="215" 
d="M67 252h215l-17 -65h-215l17 65v0v0z" />
    <glyph glyph-name="slash" unicode="." horiz-adv-x="218" 
d="M177 46q-3 -13 -10 -23t-18 -18q-10 -7 -21 -11t-22 -4q-12 0 -21 4t-15 11q-6 8 -7.5 17.5t2.5 21.5q3 11 9.5 21t16.5 18q11 8 22 12.5t23 4.5q11 0 19.5 -4.5t14.5 -12.5t8 -18t-1 -21v2v0z" />
    <glyph glyph-name="zero" unicode="/" horiz-adv-x="416" 
d="M547 714l36 -19l-293 -409l-363 -511l-37 19l292 408l365 512v0v0z" />
    <glyph glyph-name="one" unicode="0" horiz-adv-x="467" 
d="M516 311q-4 -14 -8.5 -28t-9.5 -28q-5 -15 -10.5 -29.5t-12.5 -28.5q-19 -39 -43.5 -74.5t-54.5 -67.5q-31 -32 -68 -47.5t-79 -15.5q-44 0 -72.5 16t-40.5 49q-13 33 -17.5 70t-1.5 77l4 30t5 30q2 15 5.5 29.5t7.5 27.5q3 12 7 25.5t9 28.5q5 14 11.5 29l13.5 30
q18 39 42 75t55 69q30 33 67.5 49.5t80.5 16.5t70.5 -17t40.5 -50t17.5 -69.5t2.5 -76.5q-1 -16 -3.5 -32t-5.5 -32t-6 -30l-6 -28v2v0zM427 305l2 8q3 10 7 25t8 33q5 18 8 37l6 38q4 31 4 59.5t-4 54.5q-5 26 -19.5 39t-39.5 13q-24 0 -45 -12t-39 -36
q-19 -24 -34.5 -49.5t-27.5 -54.5q-9 -19 -16.5 -38t-12.5 -37q-7 -18 -11 -32t-6 -25l-7 -26l-9 -35q-5 -19 -8.5 -39.5t-5.5 -41.5q-4 -31 -3.5 -58.5t5.5 -53.5q4 -25 19 -38t40 -13t46 11.5t40 35.5q18 24 33 50.5t28 54.5l13.5 36t11.5 36l9.5 31.5l7.5 24.5v2v0z" />
    <glyph glyph-name="two" unicode="1" horiz-adv-x="467" 
d="M443 659l17 -13l-18.5 -56l-16.5 -54l-6.5 -27t-7.5 -27q-4 -14 -7.5 -27.5t-7.5 -27.5l-71 -264l-7 -27q-8 -31 -10.5 -51.5t0.5 -31.5q3 -10 20.5 -16t48.5 -7l-8 -30h-31.5t-32.5 1q-11 1 -21.5 1t-20.5 1h-10.5h-10.5h-5.5h-5.5h-3h-3q-4 -1 -8 -1h-8h-16h-16
q-8 -1 -16 -1.5t-16 -0.5h-16h-16l8 32q2 -2 3.5 -2h2.5h1.5t1.5 1h0.5h1.5q28 3 46.5 9t28.5 14q9 8 18 27.5t17 50.5l8 31l111 413q-3 -2 -5.5 -3.5t-4.5 -2.5t-4.5 -2t-5.5 -2q-2 -1 -4.5 -2t-4.5 -1q-2 -1 -4.5 -2t-4.5 -2l-14.5 -6l-14.5 -6q-2 -1 -4.5 -2t-4.5 -2
q-5 -1 -9.5 -2.5t-8.5 -3.5l-8 32q23 8 46 18.5l46 21.5l23.5 11.5t22.5 11.5l22.5 12.5t23.5 12.5v2v0z" />
    <glyph glyph-name="three" unicode="2" horiz-adv-x="467" 
d="M211 490l-23 16q20 25 45.5 49t56.5 46q30 21 61.5 32t62.5 11q34 0 58.5 -11.5t39.5 -34.5q15 -22 18 -50.5t-6 -62.5l-2 -6l-2 -6q-1 -2 -1 -3t-1 -2q-1 -2 -1.5 -4t-1.5 -4q-1 -3 -2.5 -6t-2.5 -6q-2 -3 -3 -6t-3 -6q-13 -24 -31 -48t-40 -47l-45 -45l-46 -42
l-22.5 -19l-21.5 -18q-10 -9 -20 -17t-19 -16l-142 -117q2 -2 3.5 -2h2.5h3.5h3.5q2 -1 3.5 -1h2.5h2h2h1h2l101 2q2 -2 4.5 -2h5.5h6h6q2 -1 4.5 -1h5.5h6h6q20 0 40.5 3t40.5 9t37.5 19.5t32.5 33.5l25 -6l-88 -122h-20.5h-21.5h-20.5h-20.5h-10.5h-10.5h-10.5h-10.5
h-20.5h-21.5h-16h-16h-16h-16h-31.5h-30.5h-16h-16h-8h-7h-8h-8l-6 24q15 11 33.5 26l39.5 32l41.5 36l43.5 38l38.5 35l38.5 37q20 19 38 38l35 38l19.5 22.5l18.5 23.5q9 11 17.5 22.5t15.5 22.5q15 23 25 44t15 41q6 22 3.5 40t-13.5 33q-11 14 -27 21.5t-37 7.5
q-22 0 -42 -7.5t-39 -22.5t-36 -31t-31 -33v2v0z" />
    <glyph glyph-name="four" unicode="3" horiz-adv-x="467" 
d="M237 524l-21 20q20 20 42 37.5t45 32.5q24 15 49.5 22.5t53.5 7.5t49 -10t35 -30t17.5 -44t-4.5 -52q-8 -30 -23 -53t-38 -40q-22 -16 -47 -30t-52 -25q34 -2 58.5 -14t40.5 -33q15 -22 18 -50.5t-7 -63.5q-12 -46 -38.5 -83.5t-67.5 -66.5t-83 -43t-86 -14h-2.5h-3.5
q-4 0 -8.5 0.5t-10.5 1.5l-14.5 2t-15.5 3q-14 1 -25.5 6.5t-21.5 12.5q-10 8 -13.5 19t0.5 25q2 7 6.5 13t11.5 11q8 5 14.5 8t13.5 4v0h1v0v0h0.5h1.5q2 0 4 -0.5t5 -0.5l4 -2l4 -2q4 -3 7 -6t6 -7q1 -1 2 -2.5t2 -3.5q0 -1 1 -1.5t1 -1.5q1 -2 2.5 -4t4.5 -4
q4 -7 9.5 -13.5t12.5 -11.5q6 -6 15.5 -8.5t21.5 -2.5q23 0 43 8.5t37 25.5t30.5 36t23.5 40q2 3 3 6t2 7q2 3 3 6l2 6q1 2 1.5 4t1.5 4q1 1 1 2t1 3l2 6l2 6q9 35 6 62t-19 46q-16 18 -41 27.5t-59 9.5l-21 2l8 30q29 1 57.5 10t54.5 24q27 15 45 39t27 57q5 20 3.5 37.5
t-10.5 31.5t-24 21.5t-35 7.5q-18 0 -34.5 -5t-31.5 -16q-15 -10 -29.5 -22.5t-26.5 -26.5v2v0z" />
    <glyph glyph-name="five" unicode="4" horiz-adv-x="467" 
d="M445 633l87 30l-111 -416h70l-16 -58h-70l-50 -189h-73l50 189h-259l23 62l349 382v0v0zM348 247l88 331l-300 -331h212v0v0z" />
    <glyph glyph-name="six" unicode="5" horiz-adv-x="467" 
d="M309 638h249l-35 -70h-206l-64 -139q3 -1 6 -1t7 1q3 0 6 0.5t6 0.5h6t6 1h6h6q44 0 78.5 -12.5t57.5 -36.5q23 -25 29 -61t-6 -83q-14 -51 -42 -94.5t-70 -79.5q-42 -37 -89 -54.5t-100 -17.5h-5.5h-5.5q-2 1 -5 1h-6t-6 0.5t-6 0.5q-4 1 -7 1.5t-6 0.5q-13 2 -23.5 5.5
t-19.5 10.5q-9 6 -12 16t0 23q2 8 7.5 15t12.5 13q8 6 15.5 9t15.5 3q6 0 11.5 -1.5t9.5 -4.5q3 -3 7.5 -6t8.5 -7q2 -1 2.5 -2.5t1.5 -3.5l1.5 -1.5t1.5 -0.5l1.5 -1.5l1.5 -1.5q5 -6 10.5 -11l11.5 -10q7 -4 15.5 -6.5t18.5 -2.5q24 0 46 9t43 28q20 19 36 40t28 43
q2 5 4.5 10.5t4.5 11.5q2 5 4.5 10.5t3.5 10.5q10 38 7 68t-18 52q-16 21 -43 32t-65 11h-8.5t-8.5 -1q-5 0 -9 -0.5t-9 -1.5t-9.5 -2t-9.5 -1q-4 -1 -8.5 -2t-8.5 -2l-6 10l123 281v0v0z" />
    <glyph glyph-name="seven" unicode="6" horiz-adv-x="467" 
d="M545 667l7 -23q-61 -31 -111 -66.5t-90 -76.5t-73 -90.5t-60 -108.5q17 13 35 24.5t37 21.5q17 10 36.5 15t39.5 5q35 0 58.5 -13.5t36.5 -39.5t16.5 -54.5t-2.5 -60.5v-2t-1 -1q0 -1 -0.5 -2t-0.5 -2v-1.5v-1.5q-1 -1 -1 -1.5v-1.5q-11 -41 -33.5 -75.5t-57.5 -63.5
q-35 -28 -73.5 -42t-79.5 -14q-46 0 -75.5 16t-41.5 49t-14 70t6 77q1 2 1.5 4.5t1.5 4.5q0 1 0.5 1.5t0.5 1.5q0 2 0.5 3.5t1.5 3.5q19 71 60.5 137t105.5 127q65 61 132.5 105.5t137.5 72.5v2v0zM202 262q-2 -7 -4 -12l-4 -10q-1 -2 -2 -4.5t-1 -4.5q-1 -1 -1 -2v-2
q-1 -1 -1 -2.5t-1 -3.5q-2 -7 -4 -15.5l-4 -16.5q-2 -6 -2.5 -12t-0.5 -12q-1 -2 -1 -4v-4q-4 -24 -2 -45t9 -41q7 -19 23 -29.5t41 -12.5q26 0 48.5 10t41.5 29q19 20 31.5 42t19.5 47q1 5 2 9.5t2 8.5q0 5 1 10l2 10q2 23 -2.5 43t-12.5 39q-9 18 -25.5 27.5t-41.5 9.5
q-15 0 -29.5 -4t-28.5 -12q-15 -8 -28.5 -17.5t-25.5 -20.5l1 2v0z" />
    <glyph glyph-name="eight" unicode="7" horiz-adv-x="467" 
d="M240 638h362l4 -13l-76 -113l-345 -512h-73l11.5 15.5l13.5 17.5l12.5 16.5l13.5 17.5l4 6l4 6q2 2 4.5 5t4.5 6l4 6t5 6q2 2 4 5l4 6l326 459h-126l-56 -1q-22 -2 -41 -5.5t-35 -9.5t-31.5 -19.5t-29.5 -35.5l-29 2l65 135v0v0z" />
    <glyph glyph-name="nine" unicode="8" horiz-adv-x="467" 
d="M376 344q20 -17 37.5 -36t32.5 -42q14 -22 17 -49t-5 -59q-10 -38 -32.5 -68.5t-55.5 -53.5q-34 -22 -69 -33t-71 -11q-35 0 -63.5 9.5t-51.5 30.5q-22 21 -28 50.5t4 67.5q8 31 25 56.5t44 46.5q26 20 53.5 37.5t56.5 30.5q-1 1 -2.5 2t-2.5 2t-2.5 2t-2.5 2
q-17 14 -31 30t-25 33q-10 17 -11.5 40.5t6.5 52.5q9 35 28.5 63.5t49.5 50.5q30 23 62 34t66 11q33 0 59.5 -9t45.5 -27t24 -45t-5 -62q-7 -28 -22 -52t-36 -44q-21 -19 -44.5 -35t-51.5 -28l1 2v0zM292 302q-22 -13 -41.5 -28t-36.5 -33q-16 -18 -27 -38t-17 -43
q-1 -1 -1 -2v-2t-0.5 -1.5l-0.5 -0.5q0 -1 -0.5 -1.5l-0.5 -0.5q-4 -25 -1.5 -47t12.5 -42t28.5 -30t43.5 -10q22 0 42 7t39 22q18 14 30 32t18 40q8 27 5 50t-15 42q-13 19 -27 36t-31 32q-3 2 -5.5 4t-4.5 4t-4.5 4t-4.5 4v2v0zM355 364q17 8 32.5 20.5t29.5 27.5t24 32
t14 36q7 25 6.5 47t-8.5 41q-8 20 -25.5 29.5t-44.5 9.5q-19 0 -37 -6.5t-35 -18.5q-19 -12 -30 -27.5t-16 -35.5q-6 -22 -3.5 -41.5t12.5 -35.5q11 -16 23 -30t27 -26q2 -1 4 -2.5t4 -3.5q2 -1 4 -2.5t4 -3.5q4 -3 7.5 -6t7.5 -6v2v0z" />
    <glyph glyph-name="colon" unicode="9" horiz-adv-x="467" 
d="M99 -17l-8 30q56 26 104.5 59t89.5 70q40 38 73.5 85t58.5 103q-16 -13 -33.5 -24.5t-35.5 -21.5q-9 -5 -18.5 -9t-18.5 -6q-9 -3 -18.5 -4t-18.5 -1q-34 0 -59.5 13t-40.5 40q-16 27 -18.5 57t6.5 63q11 43 33.5 79.5t56.5 66.5t72.5 45.5t83.5 15.5t74 -17t42 -51
q14 -34 16 -71t-8 -78v-1.5v-1.5q-1 -1 -1 -1.5v-1.5t-0.5 -1.5l-0.5 -0.5q0 -1 -0.5 -1.5t-0.5 -1.5q-19 -73 -60.5 -137.5t-104.5 -121.5q-64 -57 -129.5 -101t-135.5 -73v0v0zM434 374l0.5 1.5t1.5 2.5q0 1 0.5 2t0.5 2q0 2 0.5 3.5t1.5 2.5q1 2 1.5 3.5t0.5 2.5t0.5 2
l1.5 3q1 1 1.5 2.5t0.5 2.5q0 2 0.5 3l1.5 3q0 1 0.5 2.5t0.5 2.5q1 4 2 7.5t2 7.5q0 4 1 8l2 8q2 8 3 16t2 17q2 23 -0.5 45t-9.5 41q-7 20 -24 29.5t-43 9.5q-25 0 -45.5 -9t-37.5 -27q-16 -18 -28 -38t-19 -41l-2 -4t-1 -4q0 -1 -0.5 -2l-0.5 -1q-1 -1 -1 -2v-2
q-1 -5 -2.5 -10.5t-2.5 -11.5t-1.5 -11.5t-0.5 -10.5q-1 -21 3 -40.5t12 -36.5q9 -18 25 -26.5t39 -8.5q8 0 15 1t15 3q7 2 14.5 5t14.5 7q14 8 27.5 17.5t26.5 20.5l1 2v0z" />
    <glyph glyph-name="semicolon" unicode=":" horiz-adv-x="218" 
d="M177 46q-3 -13 -10 -23t-18 -18q-10 -7 -21 -11t-22 -4q-12 0 -21 4t-15 11q-6 8 -7.5 17.5t2.5 21.5q3 11 9.5 21t16.5 18q11 8 22 12.5t23 4.5q11 0 19.5 -4.5t14.5 -12.5t8 -18t-1 -21v2v0zM261 362q-3 -13 -9.5 -23t-17.5 -18q-10 -8 -21.5 -12t-22.5 -4
q-12 0 -20.5 4t-14.5 12t-7.5 18t1.5 21t10 21t17 18q11 8 21.5 12.5t22.5 4.5q11 0 20 -4.5t15 -12.5t7.5 -18t-1.5 -21v2v0z" />
    <glyph glyph-name="less" unicode=";" horiz-adv-x="218" 
d="M-12 -142l11 29q17 1 34 5.5t34 13.5q18 9 29.5 23.5t16.5 34.5q2 8 1 13.5t-6 7.5q-3 2 -7 4t-8 3q-1 1 -2.5 1.5t-2.5 0.5h-1.5h-0.5q-1 1 -1.5 1h-0.5h-1.5h-0.5q-1 1 -1.5 1h-0.5q-7 2 -13 5t-11 7q-5 5 -6 14.5t3 23.5q3 12 10.5 22t18.5 17q11 8 22 11.5t23 3.5
q17 0 27.5 -6.5t16.5 -18.5q5 -13 7 -26.5t1 -27.5q0 -2 -0.5 -4t-0.5 -3q0 -2 -0.5 -3.5t-0.5 -3.5q0 -1 -0.5 -2.5t-0.5 -3.5q0 -1 -0.5 -2t-0.5 -2q-9 -34 -27 -59.5t-44 -43.5q-25 -18 -54.5 -27t-60.5 -9h-1v0zM253 363q-4 -13 -10.5 -23.5t-17.5 -18.5
q-10 -8 -21.5 -12t-22.5 -4t-19.5 4t-14.5 12t-7.5 18t1.5 22q4 11 10.5 21t16.5 18q11 8 22 12.5t22 4.5t19.5 -4.5t14.5 -12.5t8 -18t-2 -21l1 2v0z" />
    <glyph glyph-name="equal" unicode="&#x3c;" horiz-adv-x="501" 
d="M621 614l-10 -38l-366 -203l255 -209l-26 -100l-340 277l1 6l486 267v0v0z" />
    <glyph glyph-name="greater" unicode="=" horiz-adv-x="501" 
d="M100 292h455l-12 -42h-455l12 42v0v0zM138 433h455l-12 -42h-455l12 42v0v0z" />
    <glyph glyph-name="question" unicode="&#x3e;" horiz-adv-x="501" 
d="M60 64l10 38l366 203l-256 209l27 100l340 -277l-2 -7l-485 -266v0v0z" />
    <glyph glyph-name="at" unicode="?" horiz-adv-x="314" 
d="M186 46q-3 -13 -10 -23t-18 -18q-10 -7 -21 -11t-22 -4t-20 4t-15 11q-7 8 -8.5 17.5t2.5 21.5q3 11 9.5 21t17.5 18t22 12.5t22 4.5t19.5 -4.5t14.5 -12.5t8 -18t-1 -21v2v0zM183 204h-33l46 171q0 -2 0.5 -2h1.5h0.5t1.5 1h0.5h1.5q25 3 49 10.5t47 19.5t38.5 32
t22.5 48q0 1 0.5 1.5t0.5 1.5l0.5 0.5t0.5 1.5v1.5t1 1.5v1.5v1.5q4 20 1 39t-12 36t-24 25.5t-37 8.5h-4.5h-4.5q-2 -1 -4 -1h-4q-4 -1 -7.5 -1.5t-6.5 -1.5q-4 -1 -6.5 -2t-4.5 -1q-4 -1 -6.5 -1.5t-4.5 -1.5v0h-1q0 -1 -0.5 -1h-0.5h-1.5h-0.5v0v0h-1v0v0v0h-1v0
q-4 0 -7 2.5t-5 6.5q-2 5 -4 9.5t-2 10.5v3.5v3.5q-1 1 -1 3v3q0 3 0.5 6t1.5 5v3q2 4 5.5 7.5t8.5 6.5t10.5 5t12.5 3h4.5h5.5h2t3 1h2h2v0h1v0v0h0.5h1.5q26 -1 49 -14t42 -38q18 -25 29.5 -52t15.5 -56q1 -10 1.5 -20t0.5 -19q-1 -10 -2 -19t-3 -18q0 -1 -0.5 -2l-0.5 -1
q-1 -1 -1 -2v-2q-1 -1 -1.5 -2.5t-1.5 -3.5q-4 -11 -10.5 -22t-14.5 -22q-8 -10 -17.5 -19t-20.5 -16q-1 -1 -2.5 -2t-2.5 -2l-3 -1.5l-3 -1.5q-1 -1 -2.5 -1.5t-2.5 -1.5t-2.5 -1.5t-2.5 -1.5q-8 -4 -16.5 -7.5t-16.5 -5.5q-6 -2 -11 -3l-10 -2q-2 -1 -3.5 -1.5t-3.5 -0.5
q-10 -3 -19 -6t-17 -8q-7 -4 -12 -12.5t-9 -21.5l-16 -59v0v0z" />
    <glyph glyph-name="A" unicode="@" horiz-adv-x="735" 
d="M689 185h40q-28 -44 -65.5 -78t-82.5 -59q-46 -25 -92 -38t-91 -17h-7.5h-6.5h-2.5h-2.5h-1.5t-1.5 -1h-3.5h-3.5q-68 0 -120 24.5t-87 75.5q-36 50 -44.5 109t9.5 126q20 71 60 132t102 113t129 78t139 26q60 0 109 -19.5t86 -57.5q38 -39 48 -90t-7 -115l-2 -6t-1 -6
l-2 -6l-2 -6q-2 -6 -4.5 -12l-4.5 -11q-19 -40 -47 -77.5t-66 -71.5t-79 -50.5t-85 -16.5h-1.5h-0.5h-1.5h-0.5q-12 0 -23 3.5t-20 9.5t-13 16t-3 23q-14 -11 -29 -20t-32 -17q-8 -4 -16 -6.5t-16 -4.5q-9 -2 -17 -3t-16 -1q-26 0 -44 10t-27 29q-10 20 -11 42t6 47
q2 9 5 18.5t7 19.5q5 10 9.5 20t10.5 20q19 37 46 70.5t61 64.5t71 46.5t77 15.5h2h2h2h2q13 -1 25 -5t22 -10q10 -7 16 -17t7 -24l26 45h78l-164 -266q-1 -4 -3 -7l-4 -6q-2 -4 -4.5 -7.5l-4.5 -6.5q0 -1 -0.5 -2t-1.5 -2t-1.5 -2t-0.5 -2l-2 -4l-2 -4q-1 -1 -1.5 -2.5
t-1.5 -3.5q-2 -3 -3.5 -5.5t-2.5 -5.5q-2 -4 -3 -8t-2 -7q-1 -5 -1 -9t2 -7t6.5 -4t9.5 -1q32 0 60.5 12t56.5 37q28 24 49.5 51t37.5 57l5.5 9.5t4.5 9.5q2 4 4 9t4 9q4 9 7 18l6 18q14 55 4.5 99t-42.5 78q-34 34 -76.5 51t-95.5 17q-62 0 -120.5 -23t-113.5 -70
q-55 -46 -90 -99.5t-52 -114.5q-16 -60 -8.5 -112.5t38.5 -97.5t76.5 -67.5t106.5 -22.5q43 0 84 10t81 30t76 48.5t67 65.5v2v0zM468 267l96 158q2 1 3 3t2 5q0 2 0.5 3l1.5 3q1 1 1.5 2.5t0.5 2.5v2t1 2v2t1 2q2 11 0 20.5t-7 18.5q-4 9 -12.5 13.5t-19.5 4.5
q-23 0 -46.5 -12.5t-48.5 -38.5q-25 -25 -46 -53.5t-40 -58.5l-21 -37t-18 -35l-12.5 -32.5t-8.5 -25.5q-4 -12 -3 -22.5t5 -19.5q5 -9 14 -13t22 -4q17 0 32 6t30 18q16 12 28.5 25.5t24.5 28.5q2 4 4.5 7.5l5.5 7.5q2 4 4.5 7.5l5.5 7.5v2v0z" />
    <glyph glyph-name="B" unicode="A" horiz-adv-x="641" 
d="M477 661l65 26v-38t1 -36l2 -36l2 -35l22 -320v-14v-12t0.5 -12t1.5 -11q0 -6 0.5 -12t1.5 -12t1.5 -12t0.5 -12q2 -12 3.5 -23.5t3.5 -22.5q2 -13 7.5 -21.5t14.5 -12.5q8 -4 19 -7t24 -5l-1 -1h1h0.5h1.5l-8 -32h-14.5h-14.5q-8 0 -15 0.5t-15 0.5q-10 1 -19.5 1
t-18.5 1h-9.5h-9.5h-7.5h-7.5h-4h-4q-6 -1 -11.5 -1h-10.5q-10 -1 -20.5 -1.5t-21.5 -0.5h-8h-7h-7.5h-6.5l9 34q-1 -2 -0.5 -2h1.5h2h2h2t2 1h3.5h2.5h2t3 1h2.5h2.5q7 1 13.5 3t13.5 5t11.5 8.5t6.5 12.5v4t1 4v4t1 5v2v2q0 3 0.5 5.5t-0.5 5.5v7.5v7.5q-1 2 -1 4.5v4.5
q-1 2 -1 4.5t1 4.5l-7 139h-209l-63 -101q-1 -3 -2 -4.5t-2 -3.5q-1 -1 -2 -2.5t-2 -3.5q-1 -1 -2 -2.5t-1 -2.5q-1 -1 -1 -1.5v-0.5q-1 -1 -1 -2t-1 -2l-8 -12.5l-8 -13.5q-2 -3 -4 -6.5t-4 -6.5l-9.5 -19.5t-6.5 -18.5q-2 -7 -1 -12.5t6 -8.5t11 -5t13 -4h3h3q1 -1 2.5 -1
h2.5h1.5h1.5h0.5h0.5q1 -1 2.5 -1h2.5h0.5h1.5h0.5h1.5l-8 -32h-13.5h-12.5q-7 0 -13.5 0.5t-13.5 0.5q-9 1 -17.5 1t-16.5 1h-8.5h-8.5h-8.5h-8.5q-9 -1 -17.5 -1t-16.5 -1q-12 -1 -24 -1h-23l7 34q1 -2 2 -2h2h2t2 1h1h2h4t5 1q2 0 4 0.5t4 0.5q4 1 8.5 2.5t8.5 2.5
q5 2 9.5 5t10.5 8l11 11t12 13l14 16.5t14 18.5l13.5 20l13.5 20l20.5 31t19.5 29l15.5 25t11.5 18l129 201q8 11 16 23.5l16 25.5l16.5 26l17.5 26l16 25t17 26l8 12.5l8 13.5l8 12.5l8 12.5l1 2v0zM480 314l-14 257l-162 -257h176v0v0z" />
    <glyph glyph-name="C" unicode="B" horiz-adv-x="588" 
d="M441 365q39 -4 71.5 -15t57.5 -30t31 -51.5t-6 -77.5q-14 -53 -42.5 -90.5t-71.5 -59.5t-88 -32t-92 -10h-8.5h-8.5q-5 1 -9 1h-9h-18h-17q-9 0 -18 0.5t-18 1.5h-8.5t-8.5 1h-9h-9h-7.5h-7.5q-4 -1 -7.5 -1h-7.5h-7.5h-6.5q-4 -1 -7.5 -1h-6.5h-2.5h-2.5h-1.5h-0.5
q-1 -1 -1.5 -1h-0.5h-6h-6h-7h-6h-12h-12l9 34q18 -2 33 0.5t26 8.5q11 5 20 18.5t15 34.5l19 67l92 343l17 66q5 21 2.5 34.5t-11.5 17.5q-9 5 -23 7.5t-33 2.5l9 36l3 -1.5t3 -0.5q1 -1 2.5 -1h2.5h3.5h3.5q1 -1 3 -1h4h3.5h2.5q2 -1 3.5 -1h2.5h6.5h7.5q2 0 4 -0.5
t4 -0.5q4 0 8 -0.5t8 -0.5h12.5h13.5h18h18q6 0 12.5 0.5t13.5 0.5q3 0 6.5 0.5t6.5 0.5h9.5h9.5h9h9h9.5t9.5 1h9h9l52 2q31 -2 55 -11.5t41 -27.5q18 -18 22.5 -43.5t-4.5 -58.5q-10 -36 -28.5 -63t-44.5 -47q-28 -19 -58 -32.5t-63 -21.5v2v0zM295 334l-43 -161
q-1 -4 -1.5 -6.5t-1.5 -4.5q0 -1 -0.5 -2t-0.5 -2q0 -2 -0.5 -3t-0.5 -2q-1 -1 -1.5 -2.5t-0.5 -2.5l-1.5 -3t-0.5 -3q-1 -3 -1.5 -6t-1.5 -6q-7 -28 -8.5 -46.5t3.5 -29.5q5 -10 22.5 -15t45.5 -5q37 0 69.5 10t60.5 30t47 49t29 67q12 45 4.5 73.5t-33.5 41.5t-56.5 20
t-65.5 8h-3h-3h-3.5h-3.5h-6h-6h-5.5h-4.5h-5h-4q-3 -1 -5.5 -1h-4.5h-4.5h-4.5v2v0zM306 375q2 -2 4.5 -2h4.5h4.5h4.5q35 1 69 7.5t68 19.5q32 12 54.5 40.5t34.5 73.5q8 30 3 52t-23 35q-19 13 -41 19.5t-48 7.5h-2h-2h-1.5h-0.5h-7.5h-7.5h-4h-4q-2 -1 -3.5 -1h-3.5h-4
h-4q-2 -1 -4 -1h-4h-7.5h-7.5l-68 -251v0v0z" />
    <glyph glyph-name="D" unicode="C" horiz-adv-x="680" 
d="M776 488l-34 -6q2 39 -8.5 68t-30.5 47q-22 18 -52.5 27.5t-71.5 9.5q-63 0 -119 -22t-105 -66q-48 -43 -80 -95.5t-49 -113.5q-17 -64 -13.5 -119t28.5 -99q24 -44 70.5 -66t113.5 -22q44 0 81 10.5t67 31.5t55.5 52.5t46.5 72.5l34 -1l-64 -154q-31 -13 -61.5 -22
t-61.5 -17q-31 -7 -61.5 -10.5t-60.5 -3.5q-78 0 -137 21.5t-99 66.5t-49 108t13 144q21 77 64 139.5t108 110.5t135.5 72t146.5 24h6h6q2 -1 5 -1h6h5.5t5.5 -1q3 0 5.5 -0.5t5.5 -0.5q21 -2 42 -6t41 -10l20 -6t21 -5l20 -6l20 -6q0 -1 1 -1.5t2 -0.5h1.5h1.5q0 -1 0.5 -1
h1.5l-23 -143v0v0z" />
    <glyph glyph-name="E" unicode="D" horiz-adv-x="744" 
d="M213 633l9 34q3 -2 6 -2.5t6 -0.5h3h2q1 -1 2.5 -1h2.5q9 -1 18 -1.5t18 -0.5q9 -1 18 -1h18h34.5t35.5 1h18t18 1q8 0 17 0.5t18 0.5h34.5t36.5 1h18t18 1h17h18q70 0 116 -24.5t68 -74.5q23 -49 26 -106t-14 -121q-10 -35 -25 -69t-36 -67t-47.5 -62t-58.5 -54
q-35 -28 -69.5 -46t-68.5 -27q-35 -9 -70.5 -12.5t-73.5 -3.5h-11.5h-10.5q-6 1 -11.5 1h-11.5q-5 0 -10.5 0.5t-10.5 0.5h-11.5h-10.5q-11 0 -22.5 0.5t-22.5 1.5h-11.5t-10.5 1h-10.5h-10.5q-16 0 -32.5 -0.5t-33.5 -1.5q-16 -1 -32 -1h-32l9 34q18 -2 33.5 0.5t27.5 7.5
t21.5 18.5t15.5 35.5l19 67l91 340l17 66q5 20 3 33t-10 18q-9 5 -22.5 8t-31.5 3v2v0zM374 620q-2 -7 -3.5 -13t-3.5 -11q-1 -6 -2.5 -11t-2.5 -10q-2 -6 -3.5 -11.5t-3.5 -10.5q-1 -6 -2.5 -11.5t-3.5 -10.5l-86 -322l-14 -50q-2 -10 -4.5 -18t-4.5 -16q-1 -4 -1.5 -8
t-1.5 -7q-1 -4 -1.5 -8t-0.5 -8q-1 -6 -0.5 -12t1.5 -11t3.5 -9.5t6.5 -7.5t9 -4.5t11 -3.5q6 -1 12.5 -2.5t13.5 -1.5q3 0 5.5 -0.5t5.5 -0.5q3 -1 5.5 -1h5.5h11.5h9.5h3.5h2.5h3.5h2.5q25 0 50.5 3t50.5 9q26 5 50.5 17t48.5 30q28 20 50.5 44.5t40.5 52.5
q18 29 32.5 57.5t23.5 58.5q0 2 1 3.5t2 3.5q0 1 1 3t1 3q1 3 1.5 6t1.5 6q19 70 13 123t-37 89t-80 54.5t-117 18.5h-6.5h-6.5q-4 -1 -7.5 -1h-6.5h-6.5h-6.5q-4 -1 -7 -1h-6h-2.5h-3.5h-1.5h-0.5h-1.5h-1.5q-6 -1 -12 -1.5t-11 -0.5h-10.5h-10.5l1 2v0z" />
    <glyph glyph-name="F" unicode="E" horiz-adv-x="575" 
d="M644 531l-38 -8v-1v0q-1 0 -1 0.5v0.5v0.5v1.5v4.5t1 5.5v3v3q0 1 0.5 2.5t0.5 2.5q1 8 0.5 14.5t-1.5 13.5t-4 13t-7 10q-6 6 -14.5 10.5t-17.5 7.5l-20.5 4t-21.5 3h-5.5t-5.5 1h-1.5h-1.5h-3.5h-3.5h-11h-10h-8.5h-9.5h-8h-8q-5 -1 -9.5 -1h-9.5h-4h-4h-5h-4
q-10 0 -17.5 -1t-11.5 -3t-7.5 -8t-5.5 -17l-62 -230h105q26 -2 46.5 1t34.5 9t25 23.5t18 45.5l35 2q-1 -5 -2.5 -9.5t-2.5 -9.5q-3 -8 -5.5 -16.5t-4.5 -16.5q-2 -6 -3.5 -12.5t-3.5 -12.5q-2 -7 -3.5 -13.5t-3.5 -12.5q-1 -3 -1.5 -6t-1.5 -6q-1 -4 -2 -7l-2 -6t-1.5 -6
t-0.5 -6q-1 -3 -1.5 -6t-1.5 -6t-1.5 -6t-1.5 -6q-1 -4 -1.5 -7t-0.5 -6l-2 -12l-2 -12l-38 2q6 28 4.5 45t-12.5 21q-10 5 -29.5 7.5t-47.5 2.5l-102 2l-37 -137l-10 -38q-1 -4 -1.5 -7t-1.5 -5q-1 -3 -1.5 -5.5t-0.5 -4.5q-3 -10 -4.5 -19t-3.5 -18t-2 -15t2 -10
q2 -5 5 -8.5t7 -5.5q5 -2 10 -3.5t11 -2.5q8 -1 16.5 -2.5t17.5 -1.5h18h18l30 2q37 -2 65.5 2t48.5 13t41 32.5t42 61.5l32 -7l-72 -144h-41.5t-40.5 1h-20t-20 1h-20h-20h-10t-10 1h-10h-10h-20h-20l-114 1q-16 -2 -32 -3t-31 -1h-15h-16h-15h-16l9 35q19 -2 33.5 0.5
t26.5 7.5q11 5 20 18.5t15 34.5l19 68l92 340l16 65q5 20 3 33.5t-10 18.5q-9 5 -22.5 7.5t-32.5 2.5l9 37q14 -2 27.5 -3.5t27.5 -1.5q14 -1 28 -1h28q14 -1 27.5 -1h27.5h28h28h14h14h13h14h14t14 1h14h14q14 0 27.5 0.5t27.5 1.5q14 0 28 0.5t28 1.5l-21 -135v0v0z" />
    <glyph glyph-name="G" unicode="F" horiz-adv-x="505" 
d="M618 524l-35 -3q5 26 1.5 46t-14.5 32q-10 12 -29.5 18t-46.5 7h-10h-10h-5.5t-4.5 1h-5.5h-4.5h-11h-10h-5.5t-4.5 1h-4.5h-4.5q-13 0 -21.5 -1t-13.5 -3q-4 -1 -7 -6.5t-5 -13.5q-1 -3 -1.5 -5.5t-1.5 -4.5q-1 -3 -1 -5v-4q-1 -3 -1.5 -5.5t-1.5 -4.5q-1 -3 -1.5 -5.5
t-0.5 -4.5l-59 -218h93q33 -2 54 0.5t31 6.5q10 5 19 16t16 27q1 3 2.5 6.5t2.5 7.5q1 3 3 7l4 8l34 2q0 -2 -1 -3.5t-1 -3.5l-2 -6l-2 -6q-1 -2 -1.5 -4t-0.5 -4q-1 -3 -1.5 -5t-1.5 -4l-6 -17.5t-5 -16.5t-4.5 -16.5t-4.5 -16.5q-1 -3 -1.5 -6t-1.5 -6q-1 -4 -1.5 -7
t-1.5 -6l-2 -8l-2 -8q-1 -2 -1 -4t-1 -4q0 -1 -0.5 -2t-0.5 -2t-0.5 -2t-0.5 -2q-1 -2 -1 -4v-4q-1 -2 -1.5 -4t-0.5 -4q-1 -3 -1.5 -5t-1.5 -4q-1 -4 -1.5 -8t-1.5 -8l-33 2q0 -1 0.5 -0.5t0.5 1.5v1.5v1.5v2t1 2l0.5 1t0.5 2q2 15 2 26.5t-4 20.5t-20.5 13.5t-46.5 4.5
l-117 2l-38 -141l-16 -66q-6 -23 -4 -37t11 -19q9 -4 23.5 -6.5t33.5 -2.5l-9 -33h-14.5h-15.5h-7.5t-6.5 1q-4 0 -7.5 0.5t-7.5 0.5h-14.5h-15.5h-7.5t-6.5 1h-6.5h-7.5h-5.5h-5.5h-3h-3q-4 -1 -8 -1h-8h-16h-16q-8 -1 -16 -1.5t-16 -0.5h-16h-16l9 35q19 -2 33.5 0.5
t26.5 7.5q11 5 20 18.5t15 34.5l19 68l92 340l16 65q5 22 3 35.5t-12 17.5q-10 5 -24 7t-33 2l9 37q7 -2 14 -2.5t14 -1.5q7 0 14 -0.5t14 -0.5q14 -1 28.5 -1h29.5q14 -1 28 -1h29h28.5h28.5h24h24h12t13 1h12h12q12 0 24 0.5t25 1.5h12t13 1q6 0 12 0.5t12 0.5l-22 -142v0
v0z" />
    <glyph glyph-name="H" unicode="G" horiz-adv-x="704" 
d="M767 492l-31 -5q1 37 -9 64.5t-30 45.5q-21 18 -51.5 27t-69.5 9q-70 0 -127.5 -25t-103.5 -75q-46 -49 -77.5 -105.5t-48.5 -118.5q-16 -58 -12 -108t29 -91q25 -40 67.5 -60.5t103.5 -20.5q29 0 53.5 4t44.5 13q20 8 34 28t22 51l6 24q8 27 10 45t-3 25
q-4 8 -21.5 12.5t-49.5 5.5l-22 3l9 36q16 -4 32.5 -5.5t32.5 -2.5t32 -1h32t32 0.5t32 1.5q8 0 16 0.5t16 1.5t16 1.5t16 1.5l-9 -34q-22 -2 -35.5 -6.5t-19.5 -10.5q-7 -7 -14 -20.5t-13 -34.5l-16 -57l-5.5 -22.5t-4.5 -20.5t-2.5 -20t-0.5 -20l-25.5 -8t-24.5 -7
l-25.5 -6l-25.5 -6q-17 -2 -33.5 -4.5t-32.5 -4.5l-16.5 -2l-16.5 -2h-10h-10h-4.5t-4.5 -1h-5.5h-4.5q-73 0 -129.5 20.5t-96.5 63.5t-49.5 103t10.5 137q23 86 65 152.5t105 114.5q62 48 135.5 72.5t158.5 24.5h5.5h4.5q2 -1 4.5 -1h5.5h5.5h5.5q2 -1 5 -1h6
q21 -2 42 -5.5t41 -8.5q7 -2 13.5 -3.5t12.5 -3.5q13 -4 26.5 -7.5t25.5 -7.5l-23 -145v0v0z" />
    <glyph glyph-name="I" unicode="H" horiz-adv-x="780" 
d="M305 368h367l37 136l15 65q5 20 3 33t-10 18t-22 8t-34 3l9 37q5 -2 10 -2.5t10 -1.5q5 0 10 -0.5t10 -0.5t10 -0.5t11 -0.5q5 -1 10 -1h10h10h10h10.5h10.5h15.5h15.5q7 0 15 0.5t15 0.5q10 0 20.5 0.5t21.5 1.5q5 1 10.5 1.5t10.5 0.5l-9 -33h-11q-19 -2 -33 -5.5
t-24 -9.5q-9 -6 -16.5 -18.5t-12.5 -32.5l-18 -63l-92 -340l-16 -66q-5 -20 -4.5 -33.5t6.5 -19.5t18.5 -9t31.5 -3l11 2l-9 -35h-30t-30 1t-30 1.5t-30 0.5h-12h-12q-6 -1 -12 -1h-12t-12 -0.5t-11 -0.5q-6 -1 -12 -1h-12h-7.5h-7.5h-8h-8l9 35q20 -2 35 0.5t27 8.5
q11 5 19.5 18t14.5 34l20 68l44 161h-367l-44 -161l-16 -66q-6 -23 -4 -36.5t11 -18.5t23 -7.5t33 -2.5l-9 -33h-16h-16q-9 0 -17 0.5t-16 0.5q-11 1 -21.5 1t-20.5 1h-10.5h-10.5h-7.5h-7.5h-4h-4q-6 -1 -11.5 -1h-10.5q-11 -1 -22 -1.5t-22 -0.5h-8h-7h-7.5h-7.5l9 35
q19 -2 34 0.5t27 7.5t21 18t15 35l19 68l92 340l16 65q5 21 3.5 34.5t-11.5 17.5q-9 5 -23 7.5t-33 2.5l9 37q15 -2 30 -3.5t31 -2.5q15 -1 30.5 -1h31.5h15.5h15.5q7 0 15 0.5t15 0.5q10 1 20.5 1.5t21.5 0.5q5 1 10.5 1.5t10.5 0.5l-9 -33h-11q-18 -2 -32 -5.5t-24 -9.5
t-17.5 -18.5t-12.5 -32.5l-18 -63l-37 -136v0v0z" />
    <glyph glyph-name="J" unicode="I" horiz-adv-x="328" 
d="M211 633l9 35q8 -2 15.5 -3t14.5 -1q7 -1 15 -1.5t16 -0.5q4 0 8 -0.5t8 -0.5h7h8h8h8h7h8h15.5h15.5q7 0 15 0.5t15 0.5q8 0 15.5 0.5t15.5 1.5q7 0 15 0.5t15 1.5l-9 -33h-12q-18 -2 -32 -5.5t-24 -9.5t-17.5 -18.5t-12.5 -32.5l-18 -63l-92 -340l-16 -66
q-6 -23 -4 -36.5t11 -18.5t23.5 -7.5t33.5 -2.5l-9 -33h-8h-7h-8h-8q-7 0 -14.5 0.5t-15.5 1.5h-8h-7h-8h-8h-7.5t-6.5 1h-7.5h-7.5h-10.5h-10.5q-11 -1 -21.5 -1t-20.5 -1q-7 0 -15 -0.5t-15 -0.5h-15.5h-15.5l9 35q19 -2 34 0.5t27 7.5t21 18t15 35l19 68l92 340l16 65
q5 20 3 33.5t-11 18.5t-23 7.5t-33 2.5v2v0z" />
    <glyph glyph-name="K" unicode="J" horiz-adv-x="310" 
d="M211 668q4 -2 8 -2.5t8 -0.5q3 -1 7 -1h8q7 -1 15 -1.5t16 -0.5h7.5h7.5q4 -1 7.5 -1h7.5h16h16h15.5h14.5h7.5t7.5 1h8h8q8 0 15.5 0.5t15.5 1.5q8 0 15.5 0.5t14.5 1.5l-9 -33q-1 -2 -2.5 -2h-3.5h-1.5h-1.5q-1 -1 -1.5 -1h-1.5h-2.5h-3.5h-2h-2l-13.5 -2l-12.5 -2
q-2 -1 -4 -1.5t-4 -1.5q-8 -3 -14 -10.5t-11 -18.5q-4 -8 -7 -16.5t-5 -16.5t-4.5 -16.5t-4.5 -16.5l-20 -74l-46 -173l-4 -15.5l-4 -14.5q-1 -5 -2 -9.5t-2 -9.5q-1 -2 -1 -4.5t-1 -4.5l-4 -14.5l-4 -14.5q-1 -4 -2 -7.5t-1 -6.5q-1 -4 -2 -7.5t-2 -6.5q-5 -20 -10.5 -39
t-11.5 -37q-3 -9 -5.5 -17.5t-5.5 -17.5q-7 -19 -16 -37t-20 -35l-8 -12l-8 -12l-13.5 -16l-14.5 -17q-7 -8 -15.5 -16.5l-17.5 -17.5q-5 -5 -10.5 -9.5l-11.5 -9.5q-5 -5 -11 -10t-13 -10q-11 -9 -24 -18l-27 -18q-8 -6 -16 -10.5t-17 -8.5q-4 -2 -8.5 -4t-8.5 -4
q-4 -1 -7.5 -2.5t-6.5 -2.5q-2 0 -4.5 -0.5t-4.5 -1.5q-5 -2 -10.5 -2.5t-11.5 -0.5h-2h-2q-2 1 -3.5 1h-3.5h-3.5h-3.5q-2 1 -4 1h-4q-5 1 -9.5 2.5t-8.5 3.5q-5 2 -6.5 5t-0.5 8q1 2 3 5t5 8q1 2 2.5 4t3.5 4q1 3 3 5l4 4l2.5 2.5t2.5 3.5l2.5 2.5t2.5 3.5q3 3 5.5 5
t4.5 4l2.5 2.5l2.5 2.5l3 1.5l3 1.5q3 1 4.5 2.5t3.5 1.5h1.5h0.5h1.5t0.5 -1h1.5h0.5h1.5h0.5q5 -2 10.5 -4.5t11.5 -3.5q5 -2 10.5 -3t12.5 -1q25 0 45.5 9.5t36.5 29.5q16 19 29 40t23 44l7.5 19t6.5 18q1 5 2.5 9t2.5 9q1 4 2.5 8.5t2.5 8.5l34 122l31 117l41 155
q3 9 6 19.5t5 20.5q2 5 3 10.5t3 11.5q1 5 2.5 10.5t2.5 11.5q2 5 3.5 10.5t2.5 10.5q1 3 1.5 5.5t1.5 5.5q0 2 0.5 5t1.5 6q5 23 2 36t-11 17q-9 5 -23 7.5t-33 3.5h-1.5h-1.5h-1.5h-0.5l9 37v0v0z" />
    <glyph glyph-name="L" unicode="K" horiz-adv-x="677" 
d="M295 336l155 131l18 14.5l19 16.5q3 3 6.5 5.5t6.5 5.5l12.5 12l13.5 12q3 3 6 5.5t6 5.5q1 2 3 3.5t3 2.5q3 2 5.5 4t4.5 5q2 2 4.5 4t5.5 4l2.5 2.5t3.5 2.5l2 2l2 2l1 1l2 2l4 4l4 4t4 4.5t3 4.5q2 2 3.5 4t2.5 4q0 1 0.5 2t1.5 2t1.5 2t0.5 2q1 5 0 8.5t-4 4.5
q-3 2 -6.5 3t-7.5 2h-2t-2 1h-2h-2h-3.5h-3.5l-11 2l9 35q7 -2 13.5 -2.5t13.5 -1.5q6 -1 12.5 -1.5t13.5 -0.5q14 -1 27.5 -1h26.5h28.5t29.5 1q7 0 14.5 0.5t14.5 1.5q7 0 14.5 0.5t14.5 1.5l-9 -33q-22 -2 -43 -7.5t-40 -14.5q-18 -9 -35.5 -19.5t-34.5 -24.5l-6 -4
t-5 -4q-3 -3 -6 -5l-6 -4l-10.5 -8.5l-11.5 -9.5l-148 -120l102 -208q3 -8 6.5 -16.5t7.5 -16.5q3 -9 7 -17.5l8 -16.5q10 -20 22 -38.5t26 -35.5q14 -16 32.5 -24.5t41.5 -8.5l-8 -30h-13.5h-12.5h-13.5h-13.5h-26h-26q-12 0 -21 1t-14 4q-6 2 -11 6t-10 10q-2 2 -4 5t-4 7
q-2 3 -4 7.5t-4 8.5q-1 3 -3 6t-3 6q-2 3 -3.5 6t-3.5 6q-1 3 -2.5 6t-2.5 7q-2 3 -3 6.5t-3 6.5t-3.5 6l-3.5 7q-1 3 -2.5 6t-3.5 6q-1 3 -2.5 6t-2.5 7q-2 3 -3 6t-3 6l-92 203l-82 -68l-33 -120l-15 -66q-6 -23 -4 -36.5t11 -18.5t23 -7.5t33 -2.5l-9 -33h-8h-8h-7.5
h-7.5q-11 0 -22.5 0.5t-22.5 1.5h-11.5t-10.5 1h-10.5h-11.5h-5.5h-5.5h-3h-3q-4 -1 -8 -1h-8h-14.5h-15.5q-8 -1 -16 -1.5t-16 -0.5h-8h-7h-8h-8l9 35q19 -2 34 0.5t27 7.5t21 18t15 35l19 68l92 340l16 65q5 21 3.5 34.5t-11.5 17.5q-9 5 -23 7.5t-33 2.5l9 37
q15 -2 30 -3.5t30 -2.5t30.5 -1h31.5h15.5h15.5q7 0 15 0.5t15 0.5q10 1 20.5 1.5t21.5 0.5q5 1 10.5 1.5t10.5 0.5l-9 -33h-12q-18 -2 -32 -5.5t-24 -9.5q-9 -6 -16.5 -18.5t-12.5 -32.5l-19 -63l-45 -168v0v0z" />
    <glyph glyph-name="M" unicode="L" horiz-adv-x="525" 
d="M538 149l31 -9l-79 -140q-40 1 -80.5 1.5t-81.5 0.5h-40.5t-40.5 1h-40.5h-40.5h-15t-15 -1q-8 0 -15.5 -0.5t-15.5 -0.5q-7 0 -15 -0.5t-15 -0.5h-15.5h-15.5l9 35q19 -2 33.5 0.5t26.5 7.5q11 5 20 18.5t14 34.5l20 68l92 340l15 65q5 20 3.5 33.5t-10.5 18.5
t-22.5 7.5t-31.5 2.5l9 37q4 -2 7.5 -2.5t7.5 -0.5q3 -1 6.5 -1h7.5q7 -1 14 -1.5t14 -0.5h6.5h7.5q3 -1 6.5 -1h7.5h15.5h14.5h32t32 1q8 0 16.5 0.5t17.5 0.5q8 1 16.5 1.5t16.5 1.5l-9 -33h-13q-19 -2 -33 -5.5t-24 -9.5q-9 -6 -16.5 -18.5t-12.5 -32.5l-18 -63l-89 -330
l-16 -62l-1.5 -4.5t-0.5 -3.5q0 -1 -0.5 -1.5t-0.5 -1.5q-1 -2 -1.5 -4t0.5 -4q-2 -7 -2.5 -14t-0.5 -13t2.5 -11t7.5 -8q3 -3 9 -4.5t13 -2.5q8 -1 17 -1.5t18 -0.5h4h4h4.5h4.5q39 0 71 3t56 10q12 3 24.5 11t24.5 20t24 28t24 37v2v0z" />
    <glyph glyph-name="N" unicode="M" horiz-adv-x="883" 
d="M211 668q2 -2 4.5 -2.5t5.5 -0.5q2 -1 4.5 -1h4.5q4 -1 9 -1h10q5 -1 9.5 -1h8.5h10h10h10.5h10.5h10.5t11.5 1h10t12 1q5 0 10.5 0.5t10.5 1.5q4 -26 8.5 -51.5l9.5 -51.5q5 -25 9.5 -50.5l9.5 -51.5l69 -317l239 319q5 7 11 14.5l13 15.5q6 8 12 17t13 18q2 2 4 4.5
t5 5.5q2 2 4 5l4 6l8 10.5l8 11.5l16.5 24l16.5 24t15 24l14 23l21.5 -2t20.5 -1q11 -1 21.5 -1h20.5h19.5t19.5 1h10t10 1q5 0 10 0.5t10 1.5l-8 -31h-21q-20 -2 -35 -5.5t-25 -9.5t-17.5 -19t-12.5 -33q-1 -3 -1.5 -6t-1.5 -6t-1.5 -6t-0.5 -6l-86 -355l-15 -59
q-7 -30 -9.5 -49t1.5 -28q3 -9 19 -14t45 -6l-9 -33h-31.5t-30.5 1t-30 1.5t-30 0.5h-10.5h-10.5q-11 -1 -21.5 -1t-20.5 -1q-7 0 -15 -0.5t-15 -0.5h-15.5h-15.5l9 35q24 -1 41.5 3.5t27.5 12.5q11 8 19.5 23.5t14.5 39.5l10 38l100 387l-307 -414q-2 -5 -4.5 -8t-4.5 -6
q-3 -3 -4.5 -6t-3.5 -5q-10 -12 -18.5 -24l-16.5 -24q-9 -12 -16.5 -24l-15.5 -24l-16 2l-4 15l-105 512l-92 -327q-3 -8 -4.5 -14.5t-3.5 -12.5q0 -2 -0.5 -4t-1.5 -4q-3 -9 -5.5 -17.5t-4.5 -16.5q-5 -22 -7.5 -40.5t-1.5 -33.5t15 -22.5t41 -7.5l8 2l-9 -35h-7.5h-6.5h-3
h-3h-3.5h-3.5h-10t-10 1q-6 0 -11 0.5t-10 0.5h-10t-10 1h-10h-10h-8.5h-8.5q-9 -1 -17.5 -1t-16.5 -1q-6 0 -12 -0.5t-12 -0.5h-13h-12l9 35q1 -2 2 -2h2h1.5t1.5 1h0.5h1.5h3.5h2.5h3.5t2.5 1q3 0 5.5 0.5t5.5 0.5q3 1 5.5 1.5t5.5 1.5q6 2 11.5 5t9.5 7q5 5 9 11.5
l8 13.5q4 8 7.5 16t7.5 16q2 5 3.5 10.5t2.5 10.5q1 3 2 5.5t2 4.5q0 3 1 5.5t2 4.5v2t1 2v1.5t1 1.5v0.5v1.5l10 36l92 303q0 1 0.5 2.5t1.5 3.5q0 1 0.5 2t0.5 2q0 2 0.5 3l1.5 3q0 1 0.5 2.5t1.5 2.5q0 2 0.5 3.5t1.5 2.5q1 2 1.5 3.5t0.5 2.5q0 2 0.5 3l1.5 3
q0 1 0.5 2.5t0.5 2.5q0 2 0.5 3l1.5 3q1 1 1.5 2.5t0.5 2.5q1 3 1.5 6t1.5 6q5 20 5 33.5t-6 20.5q-5 8 -17 11.5t-31 3.5l-24 2l8 33v0v0z" />
    <glyph glyph-name="O" unicode="N" horiz-adv-x="761" 
d="M218 668q5 -2 10.5 -3t10.5 -1h3.5h3.5h1.5h1.5q3 -1 5.5 -1h5.5h5.5h5.5q2 -1 4.5 -1h5.5h10.5h11.5h4.5h5.5h4.5h4.5h4.5t5.5 1h4.5h5.5h4.5t5.5 1h4.5h4.5q5 0 10 0.5t10 1.5l5 -6l252 -512l62 232l16 58l24 104q6 25 7 42.5t-2 27.5q-4 9 -19.5 14t-42.5 6l9 36
q6 -2 12.5 -3t13.5 -1q6 -1 12.5 -1.5t13.5 -0.5q6 -1 12.5 -1h13.5h13.5h13.5h13.5h13.5h6t7 1h6.5h7.5q6 0 13 0.5t14 1.5q7 0 13.5 0.5t13.5 1.5l-9 -32q-2 -2 -4.5 -2h-4.5h-5h-4q-3 0 -5.5 -0.5t-4.5 -0.5q-2 -1 -4.5 -1.5t-5.5 -0.5q-2 -1 -4.5 -1.5t-4.5 -1.5
q-3 -1 -5.5 -2t-4.5 -2q-7 -4 -12 -9.5t-10 -12.5q-3 -4 -5 -7.5t-4 -6.5q-2 -4 -3.5 -7.5t-2.5 -7.5l-2 -6l-2 -6q-1 -1 -1 -2.5t-1 -3.5q-1 -4 -2 -8.5t-2 -7.5l-2 -4l-30 -106l-123 -443h-18l-40 78l-259 512l-77 -296q-1 -5 -2 -9t-2 -7q0 -1 -0.5 -3t-1.5 -3
q0 -2 -0.5 -3.5t-1.5 -3.5q-2 -10 -4.5 -20t-4.5 -19q-3 -10 -5.5 -20t-4.5 -20q-5 -19 -9 -38.5t-7 -39.5t0 -33t10 -18q8 -5 20.5 -7.5t31.5 -2.5l-8 -31h-14h-14t-14 0.5t-14 1.5h-14.5h-14.5h-7.5t-6.5 1h-2h-2h-4.5h-4.5h-4.5h-4.5h-2.5h-2.5q-3 -1 -6.5 -1h-6.5h-6h-6
q-3 -1 -6 -1h-6h-3.5h-3.5q-1 -1 -2.5 -1h-3.5h-3h-3h-3.5h-3.5h-3h-3h-3.5h-3.5h-6h-6l8 33q29 -2 47 5t27 20q8 14 16 32.5t15 41.5v0.5t1 1.5v1.5v1.5l22 73l85 302l9 34q7 26 7.5 43.5t-6.5 24.5t-22.5 11.5t-39.5 6.5l9 36v0v0z" />
    <glyph glyph-name="P" unicode="O" horiz-adv-x="775" 
d="M824 334q-20 -76 -62 -137.5t-105 -110.5q-64 -49 -132.5 -72.5t-142.5 -23.5q-75 0 -130 24.5t-91 73.5q-36 50 -43.5 111.5t12.5 135.5t62 135t106 109q65 48 133.5 72.5t140.5 24.5q73 0 127.5 -24.5t90.5 -74.5q37 -49 45.5 -110.5t-11.5 -134.5v2v0zM728 324
q2 5 3.5 11.5t2.5 13.5q1 3 1.5 6.5t1.5 7.5q0 3 0.5 6.5t1.5 7.5q5 48 -3 93t-29 85q-20 41 -57 61t-90 20q-62 0 -115.5 -23t-98.5 -68t-75 -96t-46 -108q0 -2 -0.5 -4t-1.5 -4q-1 -3 -1.5 -5t-0.5 -4q-1 -2 -1.5 -4t-0.5 -4t-0.5 -4t-1.5 -4q-10 -53 -4 -101.5t27 -92.5
q22 -44 62 -66t98 -22q60 0 112.5 22.5t95.5 67.5q44 45 73 95t45 105q1 1 1 1.5v1.5q1 1 1 1.5v1.5v2v0z" />
    <glyph glyph-name="Q" unicode="P" horiz-adv-x="512" 
d="M338 290l9 33q35 1 65 11.5t57 31.5q26 20 44 48t28 63q11 40 6.5 69t-23.5 47t-47 27t-64 9h-8.5h-9.5h-4.5h-4.5q-2 -1 -4 -1h-4l-6 -16t-5 -16q-1 -8 -3.5 -16t-4.5 -16q-3 -8 -5.5 -16t-4.5 -16l-4 -16l-4 -16l-91 -336l-16 -66q-7 -24 -4.5 -37.5t12.5 -18.5
q9 -4 24 -6.5t34 -2.5l-9 -33h-14.5h-15.5q-7 0 -14.5 0.5t-15.5 1.5h-15.5h-15.5h-7.5t-6.5 1h-7.5h-7.5q-16 0 -32.5 -0.5t-33.5 -1.5q-16 -1 -32 -1h-32l9 35q19 -2 34 0.5t27 7.5t21 18t15 35l20 68l92 340q1 2 2 6l2 8q0 2 0.5 4t1.5 4t1.5 4t0.5 4v0.5v1.5v0l1 1v0.5
v0.5q5 23 6.5 40t-0.5 29q-1 12 -17.5 18t-46.5 6l9 37q5 -2 10 -3t10 -1h10.5h10.5q4 -1 9 -1h10h10.5h10.5h7h7q7 0 14 0.5t14 0.5h10t11 1q5 0 10 0.5t10 0.5q10 0 20 0.5t21 1.5h10.5t10.5 1h10.5h10.5l34 2q40 -2 68.5 -14t44.5 -36q17 -24 20.5 -56t-7.5 -72
q-13 -50 -41.5 -88.5t-70.5 -64.5q-43 -26 -86.5 -39t-89.5 -13v2v0z" />
    <glyph glyph-name="R" unicode="Q" horiz-adv-x="773" 
d="M436 -7l108 -59v0l1 -1h0.5h0.5h0.5h0.5q0 -1 0.5 -1.5t1.5 -0.5q33 -18 67.5 -35t71.5 -33q36 -16 76 -24t83 -8h12.5t12.5 1q13 0 25.5 1l24.5 2q19 2 38.5 5.5t38.5 8.5l-4 -25h-2t-1 -1h-2h-2t-2.5 -0.5t-3.5 -1.5q-3 0 -6 -0.5t-6 -1.5q-3 0 -6.5 -0.5t-6.5 -1.5
t-6 -1.5t-5 -1.5q-3 0 -6 -0.5t-6 -1.5q-23 -5 -46 -8.5t-46 -6.5t-45.5 -4.5t-45.5 -1.5q-30 0 -60.5 6t-62.5 17q-32 12 -64 25.5t-64 30.5l-25.5 13.5t-23.5 13.5q-6 4 -12 7.5t-12 6.5l-13 7.5t-12 6.5l-44 26.5l-43 25.5q-21 13 -40.5 23l-37.5 20q-40 22 -67 53.5
t-41 73.5t-13.5 88t13.5 97q20 74 61.5 135t105.5 110q65 49 133.5 73.5t141.5 24.5q71 0 125 -24.5t91 -73.5t46 -109.5t-10 -132.5q-19 -71 -54.5 -128t-87.5 -101q-51 -43 -112.5 -71.5t-132.5 -41.5v0v0zM728 325q0 1 0.5 2.5t0.5 3.5q0 1 0.5 3t0.5 4q1 2 1.5 4t1.5 4
q0 2 0.5 4t1.5 4q9 53 3.5 101t-27.5 92q-21 44 -60 66t-98 22t-111 -22.5t-96 -66.5q-44 -45 -74 -94t-46 -102q0 -1 -0.5 -1.5l-0.5 -0.5q0 -1 -0.5 -1.5t-0.5 -1.5v-1.5v-1.5q-1 -1 -1 -1.5v-1.5q-16 -59 -14.5 -113t20.5 -102q19 -49 61 -73t108 -24q60 0 112.5 22.5
t95.5 67.5q44 45 74 95t46 105v1.5t1 1.5v1.5v1.5l1 2v0z" />
    <glyph glyph-name="S" unicode="R" horiz-adv-x="638" 
d="M646 31l-8 -31h-67q-29 0 -48 2t-27 8q-7 5 -12.5 12.5t-8.5 16.5q-1 2 -1.5 4.5t-1.5 5.5q-1 2 -1.5 4.5t-1.5 5.5l-107 252q-5 -2 -9.5 -3t-9.5 -1h-8.5h-9.5q-5 -1 -9.5 -1h-9.5h-8.5h-9.5l-39 -142l-16 -66q-6 -23 -4 -37t11 -19t23.5 -7.5t33.5 -2.5l-9 -32h-15h-15
q-8 0 -15.5 0.5t-15.5 0.5q-15 1 -30 1.5t-30 0.5h-10.5h-10.5q-11 -1 -21.5 -1t-20.5 -1q-16 -1 -31.5 -1h-30.5l9 34q18 -2 33 0.5t27 7.5t21 18.5t15 35.5l19 68l92 340l16 65q5 20 3 33.5t-11 18.5t-22.5 7.5t-32.5 2.5l9 37q5 -2 9.5 -2.5t9.5 -1.5t9.5 -1.5t9.5 -0.5
q10 -1 19.5 -1h19.5h24.5t25.5 1q12 0 25 1l26 2q12 0 24 0.5t25 1.5h12.5t12.5 1h4.5h4.5h8.5h8.5q33 0 58.5 -11t43.5 -32q18 -22 23.5 -49.5t-4.5 -61.5q-9 -34 -25 -62.5t-39 -51.5q-23 -24 -51 -41.5t-61 -29.5q1 -2 2.5 -4.5t2.5 -4.5t2.5 -4.5t2.5 -4.5
q2 -5 4.5 -10.5t4.5 -10.5q0 -1 0.5 -1.5l0.5 -0.5q1 -1 1 -1.5v-1.5l0.5 -0.5t0.5 -1.5v0v0q0 -1 0.5 -1.5l1.5 -1.5l60 -127q2 -6 4.5 -12t5.5 -12q2 -3 3.5 -6.5t3.5 -6.5q1 -4 3 -7t3 -6q2 -3 3.5 -6t2.5 -6q2 -3 3.5 -5.5t3.5 -4.5q3 -6 7 -11.5l8 -10.5q3 -5 6.5 -9
t7.5 -7q5 -4 11.5 -6l13.5 -4l14.5 -2l14.5 -2v2v0zM298 346h35q32 -2 62.5 7.5t59.5 28.5t48 46t29 61q10 37 5.5 64t-23.5 43q-18 17 -44 25t-59 8h-4h-4q-3 -1 -5 -1h-4h-4.5h-4.5q-2 -1 -4.5 -1h-4.5q-1 -2 -1.5 -5t-1.5 -5q-2 -5 -3.5 -10t-2.5 -10l-4 -14.5l-4 -15.5
q-1 -4 -2.5 -8t-2.5 -8t-2.5 -7.5t-2.5 -7.5q-1 -7 -3.5 -14.5t-4.5 -15.5l-43 -160v0v0z" />
    <glyph glyph-name="T" unicode="S" horiz-adv-x="457" 
d="M553 537l-35 -7q0 20 -4.5 39.5t-14.5 35.5q-10 17 -26.5 26t-39.5 10q-25 0 -49.5 -7.5t-49.5 -22.5q-24 -15 -39 -35.5t-23 -47.5q-6 -24 -3.5 -44t15.5 -35q12 -16 27 -30.5t34 -28.5q3 -3 6.5 -5.5t7.5 -4.5q3 -3 6 -5.5t7 -4.5q22 -16 41 -35.5t35 -41.5
q17 -22 20 -51t-7 -67q-12 -45 -38 -79.5t-65 -58.5q-40 -24 -80.5 -35.5t-81.5 -11.5q-20 0 -39 2.5t-37 7.5q-19 3 -36 9.5t-33 14.5q2 8 3 16.5l2 17.5l2 16.5l2 16.5l2 16.5l2 17.5q0 8 1 16.5l2 16.5l40 9q-1 -29 3 -53.5t14 -45.5q9 -21 30 -31.5t52 -12.5
q26 0 52.5 8.5t52.5 24.5q26 17 43 39.5t24 50.5q8 27 4.5 49t-17.5 38q-13 17 -29.5 33t-35.5 31q-2 1 -3.5 2t-2.5 2q-1 0 -1.5 1t-1.5 1l-2 2l-2 2q-1 0 -2 1l-2 2q-22 17 -40.5 35.5t-35.5 39.5q-16 21 -19 49.5t7 64.5q12 44 36.5 77t62.5 55t77.5 33t79.5 11
q15 0 29.5 -1.5t28.5 -4.5q7 -1 14 -3t14 -3l14 -4l14 -4q-3 -16 -5 -31l-4 -30q0 -5 -0.5 -10t-0.5 -10q-1 -10 -1.5 -20t-0.5 -20v2v0z" />
    <glyph glyph-name="U" unicode="T" horiz-adv-x="569" 
d="M227 686h16q5 -6 12 -9.5t14 -5.5t14.5 -3.5t15.5 -2.5q2 0 4 -0.5t5 -0.5q2 -1 4 -1h4h4.5h4.5q2 -1 4.5 -1h4.5h10h11q5 -1 10 -1h10h10h11h10h10h20h20h21.5h20.5h9.5h9.5h9h9h18.5t19.5 1h18t18 1q6 0 12.5 0.5t13.5 0.5q3 0 6.5 0.5t6.5 0.5q11 1 23 2.5t24 3.5
q11 2 22.5 5.5l23.5 7.5l17 2l-19.5 -37l-18.5 -36q-4 -9 -8.5 -18t-9.5 -18q-4 -10 -8.5 -19t-8.5 -18l-32 2q2 2 3.5 5.5t2.5 7.5q2 4 3 7.5t2 7.5q5 17 2 28t-13 15q-10 5 -22.5 7t-26.5 2l-111 2l-124 -460l-16 -66q-7 -25 -4.5 -38.5t13.5 -18.5q10 -4 24.5 -6t33.5 -2
l-9 -33h-31.5t-31.5 1q-8 0 -15.5 0.5t-15.5 0.5q-8 1 -15.5 1h-15.5h-8h-8q-4 -1 -8 -1h-8h-8h-7q-4 -1 -8 -1h-8h-4h-4q-2 -1 -4 -1h-4h-7.5h-7.5h-8h-8h-7.5h-7.5l9 35q19 -2 33.5 0.5t26.5 7.5q11 5 20 18.5t15 34.5l20 68l124 460h-65q-28 -2 -49 -4.5t-37 -7.5
q-16 -4 -33 -19t-36 -39q-1 -1 -1.5 -2t-1.5 -1q-1 -1 -1.5 -2t-1.5 -2q0 -1 -0.5 -2t-1.5 -1q-1 -1 -1.5 -2t-1.5 -2l-33 2q8 10 14.5 22l13.5 24q8 12 14.5 24l12.5 24q1 2 2 3.5t2 2.5q0 1 0.5 2t1.5 2q0 1 0.5 1.5l0.5 0.5q2 5 4.5 9.5t4.5 8.5q2 2 3 4.5t3 4.5
q1 2 2.5 4.5t2.5 4.5v2v0z" />
    <glyph glyph-name="V" unicode="U" horiz-adv-x="729" 
d="M201 634l9 34q6 -2 12.5 -3t13.5 -1q6 -1 12.5 -1.5t13.5 -0.5q6 -1 12.5 -1h13.5h13.5h13.5h16h17q8 0 16 0.5t16 0.5l33.5 2l32.5 2l-9 -32q-1 -2 -2 -2h-2h-1.5h-1.5h-2h-2q-1 -1 -2 -1h-2h-2h-1h-2h-2q-2 0 -4 -0.5t-4 -0.5q-4 -1 -8 -1.5t-8 -1.5q-6 -1 -11 -4
t-10 -7q-6 -4 -10.5 -10t-7.5 -12q-1 -2 -2 -4.5t-2 -4.5q-2 -5 -4 -9.5t-4 -9.5q0 -2 -0.5 -4.5t-1.5 -4.5t-1.5 -4t-0.5 -4l-7 -24l-59 -220q-14 -54 -20 -102t-2 -90q3 -42 37.5 -63t99.5 -21q66 0 113 19.5t74 58.5t48.5 86.5t36.5 102.5l11 40l29 109l19 76
q0 -1 0 -0.5t1 1.5v1.5v1.5q1 2 1.5 3.5t0.5 2.5q5 22 7 40t1 32t-15.5 21.5t-43.5 7.5l9 36q6 -2 12 -3l12 -2q5 0 11 -0.5t12 -0.5q12 -1 24 -1h24h12h13q6 0 12 0.5t12 0.5q8 0 16.5 0.5t17.5 1.5q4 1 8.5 1.5t8.5 0.5l-9 -32q-23 -2 -39.5 -9.5t-25.5 -22.5t-16 -32.5
t-13 -37.5q-1 -6 -2.5 -11.5t-3.5 -10.5q-1 -6 -2.5 -11.5t-2.5 -10.5q-3 -6 -4.5 -12t-3.5 -11q-1 -6 -2.5 -11.5t-3.5 -10.5l-33 -125q-19 -71 -47 -130.5t-63 -107.5q-36 -48 -96 -71.5t-143 -23.5h-5.5h-5.5q-1 1 -1.5 1h-1.5h-3.5h-3.5h-5.5h-4.5q-3 1 -5.5 1h-5.5
q-28 3 -53.5 9.5t-49.5 16.5q-23 11 -38 30.5t-22 46.5q-4 10 -5 20.5t-1 22.5q1 12 2.5 24t4.5 25q2 9 3.5 18t3.5 18t4.5 17.5t4.5 16.5l65 244l9 31q6 22 8.5 41t1.5 34t-15.5 22.5t-41.5 7.5v2v0z" />
    <glyph glyph-name="W" unicode="V" horiz-adv-x="587" 
d="M142 634l9 34q14 -4 27.5 -5.5t27.5 -1.5h28.5h28.5h28.5t29.5 1q8 0 15.5 0.5t15.5 0.5q7 1 15 1.5t15 1.5l-9 -32q-1 -1 -2 -1.5l-1 -0.5q-1 -1 -2 -1h-2h-3.5h-3.5q-10 -1 -18 -4t-16 -7t-13.5 -10.5t-7.5 -15.5q-2 -8 -3.5 -16t-0.5 -16l2 -14.5t3 -14.5q-1 -1 -1 -2
v-2q-1 -1 -0.5 -1.5t1.5 -0.5l45 -370l234 353q2 1 3.5 4t3.5 6q1 2 2.5 3.5t2.5 3.5q1 1 2.5 3t2.5 3l9.5 15.5t9.5 14.5q5 8 8.5 16t5.5 16q3 10 0.5 16.5t-9.5 10.5q-6 4 -14 6t-17 3h-1.5t-1.5 1h-1.5h-1.5h-1.5h-0.5h-1.5h-1.5l9 36q4 -2 8.5 -2.5t8.5 -1.5
q8 -1 16.5 -1.5t17.5 -0.5q13 -1 26 -1h26h12h13q6 0 12 0.5t12 0.5q8 0 16.5 0.5t17.5 1.5q4 1 8.5 1.5t8.5 0.5l-9 -32q-26 -2 -47 -11t-37 -26q-17 -18 -31 -37t-28 -40q-1 -2 -2.5 -4t-2.5 -4t-2.5 -4t-1.5 -4q-2 -2 -3.5 -4.5t-2.5 -5.5q-1 -1 -1.5 -2t-1.5 -2t-2 -3
t-2 -3q-1 -2 -2 -3.5t-2 -3.5l-206 -302q-2 -4 -4 -7.5t-4 -6.5q-3 -4 -5 -7l-4 -6l-7.5 -13.5t-7.5 -12.5q-1 -1 -2 -3t-2 -3q-1 -2 -2 -3.5t-2 -3.5q-2 -3 -3.5 -6t-3.5 -6q-3 -4 -5.5 -8.5l-5.5 -9.5l-11.5 -17.5t-10.5 -17.5l-18 -25l-17 -22h-16q-1 13 -2.5 27t-3.5 29
q-2 14 -3.5 28.5t-3.5 29.5q-1 5 -2 9.5t-2 8.5v4.5v5.5q-1 2 -1 4.5v5.5l-35 292q-1 4 -2 10l-2 12q-1 3 -1.5 6t-0.5 7q-1 3 -1 6v6q-1 2 -1 4v4q-1 2 -1.5 4t0.5 4q0 2 -0.5 4t-0.5 5q-1 2 -1.5 4t-0.5 4v4v4q-1 2 -1 4v4q0 1 -0.5 2.5t-0.5 2.5q-1 3 -1.5 5.5t-0.5 5.5
q0 2 -0.5 4t-0.5 4q0 1 -0.5 3t-0.5 4q-2 14 -6.5 25t-10.5 19t-17.5 13.5t-31.5 6.5l-1 2v0z" />
    <glyph glyph-name="X" unicode="W" horiz-adv-x="878" 
d="M144 635l8 32q4 -2 7.5 -2.5t6.5 -0.5h3h3q1 -1 2.5 -1h2.5q9 -1 18.5 -1.5t19.5 -0.5q9 -1 18.5 -1h19.5h14h14q6 0 13 0.5t14 0.5l28 2l28 2l-8 -30q-2 -2 -3.5 -2.5t-3.5 -0.5h-2h-2q-7 -1 -14 -3t-14 -5t-11 -8.5t-6 -13.5q0 -1 -0.5 -2.5t-0.5 -2.5q-1 -2 -1.5 -4.5
t-0.5 -4.5q0 -1 -0.5 -3t-0.5 -3q0 -2 0.5 -3.5t0.5 -3.5v-10t1 -10q0 -2 0.5 -4.5t1.5 -4.5q0 -3 0.5 -5.5t0.5 -4.5q1 -4 1.5 -7.5t1.5 -6.5q0 -1 0.5 -2.5t0.5 -3.5v-2.5v-3.5l48 -373l148 206l-34 199q-1 -1 -1.5 -0.5t-0.5 1.5q1 1 0.5 1.5l-0.5 0.5v1.5v0.5q-1 0 -1 1
v2v1.5v1.5q-3 14 -7 27.5t-9 25.5q-6 12 -17 19t-29 8l9 34q2 -1 3.5 -1.5t3.5 -0.5q1 -1 3 -1h3h3.5h2.5q2 -1 3.5 -1h2.5q10 -1 19.5 -1.5t19.5 -0.5q10 -1 19.5 -1h19.5h12h12t12 0.5t12 1.5h5h6h3.5t2.5 1h3.5h2.5h3.5t3.5 1h3h3h3.5t2.5 1h3.5h2.5l-8 -30
q-9 -2 -16.5 -4l-14.5 -4t-12 -8t-7 -15q-2 -7 -3 -14.5t0 -15.5q0 -7 1 -14.5l2 -15.5v-1.5v-0.5v-1v0v-1v-1v-1.5v-0.5q0 -1 0.5 -1.5t0.5 -1.5l18 -101l77 109v-1h1v0.5v0.5l0.5 0.5t0.5 1.5l0.5 0.5l0.5 0.5q5 6 9.5 13t9.5 14q2 4 4 7.5t4 7.5q1 3 2.5 6.5t2.5 7.5
q2 10 0.5 16.5t-6.5 9.5q-6 3 -13.5 4.5t-15.5 1.5l9 34q2 -2 4.5 -2.5t5.5 -0.5h3h2q1 -1 2.5 -1h2.5h2h3q1 -1 2.5 -1h2.5h5h6q5 -1 10 -1.5t10 -0.5h10.5h10.5h10.5h11.5h5.5t5.5 1h5h6q5 0 10.5 0.5t11.5 1.5q5 0 11 0.5t12 1.5l-8 -30q-19 -2 -33.5 -6.5t-25.5 -12.5
q-11 -9 -21.5 -19.5t-20.5 -24.5q-1 -2 -2.5 -4t-2.5 -3q-1 -2 -2.5 -3.5t-2.5 -3.5t-2.5 -4t-2.5 -3q-1 -2 -2.5 -3.5t-2.5 -3.5l-118 -163l43 -244l218 311q7 9 14 19.5l14 20.5l14 22l14 22q0 1 0.5 1.5l1.5 1.5l0.5 0.5l1.5 1.5q0 1 0.5 2t1.5 2q0 1 0.5 1.5l0.5 0.5
q4 5 7.5 10.5t6.5 11.5l6 12l6 12q3 12 1 20t-10 12q-7 5 -15 7.5t-18 3.5h-1.5t-0.5 1h-1.5h-0.5h-2h-2l9 34q3 -2 6 -2.5t6 -0.5q2 -1 5 -1h6q6 -1 12.5 -1.5t13.5 -0.5h6h7q3 -1 6 -1h6h6h7h6h6h24t24 1l24 2l25 2l-9 -32q-1 -2 -1.5 -2h-0.5h-1.5h-0.5q-1 -1 -1.5 -1
h-0.5h-1.5h-0.5q-10 -1 -17 -2t-13 -3q-7 -2 -13 -6t-12 -9l-2.5 -2.5t-2.5 -3.5q-1 -1 -2 -1.5l-1 -0.5l-1 -1v0l-1 -1l-1 -1q-8 -8 -15.5 -17t-15.5 -20l-8 -10.5t-7 -10.5l-8 -10.5l-8 -10.5l-12 -18t-12 -17l-11.5 -16.5l-10.5 -14.5l-223 -317l-16.5 -24.5t-15.5 -22.5
l-14.5 -22.5t-15.5 -22.5v-1v0v0v0l-1 -1v0q-4 -7 -8.5 -13.5l-9.5 -13.5q-2 -3 -4 -6.5t-4 -6.5q-3 -3 -5 -5.5t-4 -5.5h-11l-55 294l-211 -294h-11l-2 11l-69 512q-1 -1 -1 -0.5v1.5v0.5t1 1.5v0.5v0.5q-1 3 -1.5 6.5t-0.5 7.5q-1 4 -1.5 7.5t-0.5 7.5q-2 16 -6.5 30.5
t-10.5 27.5q-6 14 -18.5 20.5t-31.5 6.5v2v0z" />
    <glyph glyph-name="Y" unicode="X" horiz-adv-x="593" 
d="M176 636l8 32q8 -2 15 -3t15 -2q7 0 14.5 -0.5t14.5 -0.5q15 -1 30 -1h30h32t32 1q17 0 33.5 1.5t32.5 2.5l-8 -30h-14q-1 -1 -2 -1.5l-1 -0.5h-2h-2h-2h-2q-1 -1 -2 -1h-2q-6 0 -11.5 -1t-10.5 -3q-4 -2 -8.5 -5t-6.5 -8l-0.5 -0.5l-0.5 -0.5q0 -1 -0.5 -1h-0.5v-1v0
v-0.5v-0.5l-1 -1v0v-1.5v-0.5q0 -1 -0.5 -1.5t-0.5 -1.5t-0.5 -1.5t-0.5 -1.5v-0.5v-1.5v0v0v-1.5v-1.5q0 -4 0.5 -8.5t1.5 -9.5q2 -4 3.5 -8.5t3.5 -8.5q1 -2 1.5 -4.5t1.5 -4.5t1.5 -4t1.5 -4l49 -142l114 123q2 1 4.5 3.5l5.5 5.5l3.5 3.5l3.5 3.5l3 3t3 4l2 2l2 2
q0 1 1 2l2 2l4.5 4.5l4.5 4.5q3 5 6.5 9.5t7.5 8.5q2 5 4.5 8.5t4.5 7.5q2 9 0 15.5t-7 9.5q-4 2 -8.5 3.5t-9.5 2.5q-2 1 -4.5 1.5t-4.5 0.5h-4h-4h-4h-4l8 34q4 -2 8.5 -2.5t8.5 -1.5q8 -1 16.5 -1.5t17.5 -0.5q7 0 13.5 -0.5t13.5 -0.5h12.5h13.5h28.5t29.5 1
q7 0 14.5 0.5t14.5 1.5q7 0 14.5 0.5t14.5 1.5l-8 -30q-25 -2 -47 -9.5t-41 -22.5l-38 -31.5t-36 -34.5l-2.5 -2.5t-2.5 -3.5l-2.5 -2.5l-2.5 -2.5l-2.5 -2.5l-2.5 -2.5q-1 -2 -2.5 -3t-2.5 -2l-149 -156l59 -170l4 -15.5t5 -15.5q2 -8 5 -16.5t7 -16.5q6 -18 15 -34.5
t20 -31.5t25.5 -23t33.5 -9l-8 -29q-16 0 -31.5 0.5t-31.5 1.5h-16t-16 1h-5h-5h-10.5h-10.5h-12h-12q-6 -1 -11.5 -1h-11.5q-12 -1 -23.5 -1.5t-22.5 -0.5h-8h-8h-7.5h-7.5l8 31q1 -2 1.5 -2h1.5h2h2h4.5h5.5h3.5t2.5 1h3.5h2.5q8 1 15 3t14 5t12 8.5t7 13.5q1 4 0.5 10
t-2.5 14t-4 17l-4 18q-1 1 -1.5 2t-0.5 2l-0.5 1l-0.5 1q0 1 -0.5 2t-0.5 2l-0.5 1t-0.5 2q-2 7 -4.5 13.5t-4.5 12.5q-3 6 -4.5 11t-3.5 9l-38 116l-164 -178q-1 -2 -2 -3l-2 -2l-2 -2l-2 -2l-2.5 -2.5l-3.5 -3.5l-4.5 -4.5l-4.5 -4.5q-2 -3 -3.5 -5.5t-3.5 -4.5
q-4 -4 -7 -9.5t-5 -10.5v1q-2 -9 -0.5 -15t6.5 -9q5 -4 11.5 -6t13.5 -3q4 -1 7.5 -1h7.5h3.5h3.5h3h3l-8 -29h-26.5t-27.5 1q-7 0 -13.5 0.5t-12.5 0.5q-7 1 -13.5 1h-13.5h-14t-13 -1q-7 0 -14 -0.5t-14 -0.5q-13 -1 -26.5 -1h-25.5l6 31q24 1 47.5 10.5t44.5 26.5
t40.5 36l38.5 39q3 3 5.5 6t5.5 6q2 2 4.5 5t5.5 6q2 3 4.5 6t5.5 6q2 2 4.5 5t5.5 6l136 148l-63 177l-2.5 5t-2.5 7q-1 3 -2.5 6.5t-3.5 7.5q-6 18 -14 34t-19 31q-11 14 -27 21.5t-39 7.5v2v0z" />
    <glyph glyph-name="Z" unicode="Y" horiz-adv-x="538" 
d="M140 636l8 32q8 -2 15 -3t13 -1q5 -1 12 -1.5t14 -0.5q7 -1 13.5 -1h13.5h14h14h15.5h14.5h8h8q3 0 7 0.5t8 0.5q8 0 15.5 0.5t15.5 1.5h8t8 1q3 0 7 0.5t8 0.5l-8 -30q-1 -1 -2.5 -1.5t-2.5 -0.5q-1 -1 -2.5 -1h-2.5h-2.5h-2.5q-2 -1 -3 -1h-2q-7 -1 -13.5 -3t-12.5 -5
t-9.5 -7.5t-5.5 -12.5v1q-2 -8 -2.5 -15.5t0.5 -13.5q2 -7 3.5 -13t2.5 -12q1 -1 1.5 -2.5t0.5 -3.5q0 -1 0.5 -1.5t0.5 -1.5t0.5 -1.5t0.5 -1.5t0.5 -2.5t1.5 -3.5l55 -201l145 181q2 1 4.5 4t5.5 7q2 2 3.5 4t3.5 4t3.5 4.5t3.5 4.5q1 2 2.5 4t3.5 4q1 1 1.5 2t1.5 2
t2 2.5t3 3.5l4 6l4 6q1 2 3 5l4 6q3 6 5.5 11.5t3.5 9.5l1 3q2 7 0 12t-7 8t-11 4.5t-12 2.5h-2t-2 1h-1.5h-1.5h-2h-1h-2h-2l8 34q7 -2 13.5 -3t13.5 -1q6 -1 13 -1.5t14 -0.5q6 -1 13 -1h14h13.5h13.5h12h12q5 0 11 0.5t12 0.5t11.5 0.5t11.5 1.5q6 0 11.5 0.5t11.5 1.5
l-8 -30q-27 -2 -48.5 -10.5t-38.5 -22.5q-16 -14 -32 -30.5t-31 -36.5q-3 -4 -6 -7.5t-6 -7.5q-1 -1 -2 -2.5t-2 -3.5q-2 -2 -4 -4.5t-4 -5.5l-183 -232l-30 -109q-1 -4 -1.5 -7t-1.5 -6q0 -1 -0.5 -2.5t-0.5 -2.5l-1.5 -3t-0.5 -3q-1 -1 -1.5 -2.5t-0.5 -2.5l-1.5 -3
t-0.5 -3q0 -1 -0.5 -2.5t-0.5 -2.5l-1.5 -3t-0.5 -3q-5 -22 -6.5 -37.5t1.5 -26.5q3 -10 17 -15.5t37 -5.5l12 2l-9 -35h-31.5t-30.5 1t-30 1.5t-30 0.5h-16h-16h-8h-7q-4 -1 -8 -1h-8q-8 -1 -16 -1.5t-16 -0.5h-8h-7h-8h-8l9 35q1 -2 2 -2h2h2h2q14 0 26.5 3t24.5 7
q13 5 21.5 15t14.5 26q1 2 1.5 3.5t0.5 2.5q1 1 1 2v2q1 2 2 4.5t1 4.5q2 5 3.5 10t2.5 10l10 41l30 112l-80 276q-4 16 -10.5 30t-14.5 26q-8 11 -21.5 18t-33.5 8l-1 2v0z" />
    <glyph glyph-name="bracketleft" unicode="Z" horiz-adv-x="595" 
d="M259 682h11q2 -4 3.5 -6t3.5 -4q1 -1 2.5 -2t3.5 -2q1 0 1.5 -0.5t1.5 -0.5q5 -1 11.5 -2.5t13.5 -2.5q8 -1 16 -1.5t17 -0.5q4 -1 8.5 -1h8.5h4.5h5.5h4.5h4.5h15h15h14.5h14.5h15.5t15.5 1h15h15h7.5h7.5h6.5h7.5h7.5t7.5 1h7.5h7.5h22t23 1h22h22h22.5t22.5 1h22.5
h22.5l4 -9l-23.5 -23.5l-22.5 -22.5l-12 -12l-11 -11l-11.5 -12l-10.5 -12l-4 -4l-4 -4q0 -1 -1 -2l-1 -1q-1 -2 -2.5 -3t-2.5 -3l-8 -8l-8 -8q-1 -1 -2.5 -3t-3.5 -3q-1 -2 -2.5 -3.5l-3.5 -3.5l-6 -6t-5 -6l-438 -460h155l3 -1.5t3 -0.5h2.5h2.5h3h3h2.5h2.5q44 0 79 4.5
t62 13.5q26 9 54 38t56 78l29 -6q-1 -3 -2.5 -5.5t-2.5 -5.5l-5.5 -9.5t-4.5 -9.5q-4 -7 -7 -14l-6 -14q-8 -14 -15 -28t-13 -28l-13.5 -28t-11.5 -27h-2.5h-3.5h-2h-1h-2h-2h-2h-1h-2h-2h-2.5h-3.5l-106 2l-97 1q-7 -2 -14.5 -2h-15.5h-14.5h-15.5h-8h-8q-4 -1 -7.5 -1
h-7.5h-14.5h-15.5l-120 1q-2 -1 -4.5 -1h-4.5h-4h-4h-4.5h-4.5h-4h-4l-5 13q8 7 15.5 15l15.5 16l16 16l16 16q4 4 8 7.5t8 7.5q3 4 7 8l8 8l8 8t8 9l8 8l8 8l455 482h-132h-49q-35 -2 -65.5 -6.5t-56.5 -12.5q-25 -8 -48 -32t-43 -64l-30 7l76 168v0v0z" />
    <glyph glyph-name="backslash" unicode="[" horiz-adv-x="286" 
d="M264 701h176l-9 -33h-105l-89 -335l-137 -511h105l-9 -33h-176l107 400l137 512v0v0z" />
    <glyph glyph-name="bracketright" unicode="\" horiz-adv-x="416" 
d="M252 714l73 -409l91 -511l-47 -19l-73 408l-90 512l46 19v0v0z" />
    <glyph glyph-name="asciicircum" unicode="]" horiz-adv-x="286" 
d="M152 -211h-175l9 33h104l89 334l137 512h-105l9 33h176l-107 -401l-137 -511v0v0z" />
    <glyph glyph-name="underscore" unicode="^" horiz-adv-x="501" 
d="M601 286h-39l-118 313l-293 -313h-100l388 415h6l156 -415v0v0z" />
    <glyph glyph-name="grave" unicode="_" horiz-adv-x="501" 
d="M-1 -88h454l-12 -43h-454l12 43v0v0z" />
    <glyph glyph-name="a" unicode="`" horiz-adv-x="501" 
d="M440 662l24 -172l-24 -10l-80 162v-1v0h-1v0v0v1q-1 0 -1 0.5v0.5q-1 2 -1.5 3.5t-0.5 2.5t-0.5 1.5t-0.5 1.5l0.5 0.5t0.5 1.5t1 2l2 2q2 1 4.5 1.5t5.5 0.5l71 2v0v0z" />
    <glyph glyph-name="b" unicode="a" horiz-adv-x="415" 
d="M402 52l7 -19q-12 -9 -24 -16t-25 -13q-13 -4 -26 -7t-25 -3q-15 0 -23.5 4t-11.5 13t-3 19.5t2 23.5q-16 -13 -33.5 -25t-34.5 -22q-9 -4 -18.5 -7.5t-18.5 -5.5t-18.5 -3.5t-18.5 -1.5q-21 0 -36 6.5t-25 19.5q-10 14 -11.5 31t3.5 37q6 21 17 36.5t28 25.5t34.5 18
t36.5 14q2 1 5 2l6 2q2 0 3 0.5l3 1.5q1 0 2.5 0.5t2.5 1.5l118 41l9 33q1 1 1.5 3.5t0.5 4.5q0 3 0.5 5.5t1.5 5.5q2 6 3 12t2 13q2 13 1 25t-4 23t-12 17t-24 6q-4 0 -8 -0.5t-9 -1.5q-2 -1 -4.5 -1.5t-5.5 -1.5t-5.5 -1.5t-4.5 -1.5q-10 -4 -19.5 -8.5t-18.5 -10.5
t-15 -12.5t-8 -14.5q-5 -12 -10.5 -19.5t-13.5 -11.5q-7 -4 -16.5 -6.5t-21.5 -3.5q-2 0 -3.5 0.5t-3.5 1.5q-1 2 -1 3.5t1 3.5q3 11 8 20.5t12 16.5q8 8 16.5 14.5t18.5 12.5l10.5 6l12.5 7l12.5 8l13.5 8l10.5 6l10.5 6t11 6l12 6l14.5 6l15.5 6q2 1 4.5 1.5t4.5 1.5
q5 1 9.5 1.5t8.5 0.5q32 0 50.5 -11t22.5 -33t2.5 -46.5t-7.5 -50.5v-1.5v-0.5q-1 -1 -1 -1.5v-0.5q-1 -1 -1 -2v-2q-1 -6 -3 -11.5t-3 -10.5q-2 -6 -3.5 -11.5t-3.5 -10.5l-6 -22l-6 -22q-1 -6 -3 -12t-3 -11q-2 -6 -3.5 -11.5t-3.5 -10.5l-6 -22l-6 -22q0 -2 -0.5 -4
t-1.5 -4q0 -2 -0.5 -4t-1.5 -4q-1 -9 -1 -16.5t1 -15.5q1 -7 5.5 -10.5t12.5 -3.5q3 0 6 1t7 2q3 2 6.5 3.5t7.5 3.5q1 1 2 1.5t2 1.5q2 1 2.5 1t1.5 1q1 0 1.5 0.5l0.5 0.5v2v0zM311 198q-2 -2 -4.5 -3t-5.5 -2q-5 -1 -9.5 -2.5l-10.5 -3.5q-4 -1 -8 -2.5t-8 -2.5
q-5 -2 -9 -3t-8 -3q-18 -6 -34.5 -14t-32.5 -17q-16 -10 -25.5 -22.5t-14.5 -29.5q-4 -12 -2.5 -22t7.5 -18q5 -9 14 -13t21 -4q4 0 8 0.5t8 0.5q8 2 16 5t16 7l22.5 14.5t22.5 15.5l0.5 0.5l1.5 1.5q2 1 2.5 1.5l1.5 1.5l31 114v0v0z" />
    <glyph glyph-name="c" unicode="b" horiz-adv-x="502" 
d="M244 366q4 1 8.5 3t9.5 5q2 2 4.5 3t4.5 3q2 1 4.5 2.5t5.5 2.5l15.5 7.5t15.5 6.5q8 4 15.5 7l15.5 6q16 5 32.5 8t34.5 3q35 0 59.5 -13.5t38.5 -39.5t19 -54.5t2 -60.5l-2 -10t-1 -10q-1 -3 -1.5 -5.5t-0.5 -4.5q-1 -3 -1.5 -5.5t-1.5 -4.5q-13 -48 -39 -87.5
t-66 -71.5t-83.5 -47.5t-91.5 -15.5h-6.5h-6.5q-4 1 -7 1h-6t-6 0.5t-6 0.5q-4 1 -7 1h-6q-3 1 -6 1.5t-6 0.5q-4 1 -7 1h-6t-7.5 0.5t-8.5 0.5h-4h-4h-8h-8t-8.5 -0.5t-8.5 -1.5q-4 0 -8.5 -0.5t-9.5 -1.5q-2 0 -4 -0.5t-4 -1.5q-3 0 -5 -0.5t-4 -1.5l33 123l104 386l17 67
q4 15 4.5 27t-1.5 21q-3 8 -13.5 12.5t-27.5 4.5l8 28q17 2 33 7.5t32 12.5q6 2 11 4.5t11 4.5l22 10.5l22 11.5l16 -7q-10 -27 -18.5 -52.5l-16.5 -51.5l-10 -34l-10 -34q-3 -8 -5 -16.5t-5 -17.5l-35 -133v0v0zM236 337l-39 -145q-1 -2 -1 -3v-1v0v0q-1 -4 -2 -8.5
t-3 -9.5q0 -2 -0.5 -4t-0.5 -4q-1 -3 -1.5 -5t-0.5 -4q-5 -24 -6 -45t3 -41q4 -19 20.5 -29t46.5 -10q36 0 67 13t56 38q25 26 42.5 55.5t26.5 62.5v1.5t1 1.5v1.5v1.5t0.5 2t0.5 2q1 0 1 1v2q5 29 2.5 56t-13.5 51q-12 24 -34 36.5t-54 12.5q-14 0 -28.5 -2t-28.5 -7
q-7 -2 -14 -4.5t-13 -5.5l-14 -6l-14 -6v2v0z" />
    <glyph glyph-name="d" unicode="c" horiz-adv-x="398" 
d="M391 89l13 -18q-19 -19 -40.5 -33t-45.5 -25q-23 -10 -46 -15t-46 -5q-46 0 -78 15.5t-47 46.5q-16 32 -18.5 70t9.5 81q12 45 37.5 84t63.5 70q38 32 80.5 47.5t88.5 15.5q5 0 11.5 -0.5t13.5 -2.5q8 -1 15.5 -3l14.5 -4q13 -4 24 -9.5t21 -12.5q9 -7 12.5 -15t1.5 -17
q-2 -4 -5.5 -8.5t-9.5 -9.5q-2 -1 -3.5 -2.5t-3.5 -2.5q-4 -3 -7.5 -4.5t-6.5 -2.5q-1 0 -2 -0.5l-1 -0.5q-1 -1 -2 -1h-2h-1.5h-0.5h-1.5h-1.5v2q-5 -2 -8.5 0.5t-6.5 7.5l-6 10.5t-7 11.5t-10 11.5l-12 10.5q-7 5 -14.5 7.5t-18.5 2.5q-28 0 -53.5 -11t-48.5 -33
t-39.5 -46t-24.5 -50q-1 -1 -1.5 -2l-0.5 -1v-1v-1l-0.5 -0.5t-0.5 -1.5v-1.5v-1.5q-1 -1 -1 -1.5v-1.5q-1 -5 -2.5 -10t-2.5 -10l-2 -10.5t-1 -10.5q-4 -29 0 -55.5t15 -50.5q12 -24 33.5 -36t54.5 -12q8 0 15.5 1l15.5 2l15.5 4t15.5 5q15 6 30 14t29 18v2v0z" />
    <glyph glyph-name="e" unicode="d" horiz-adv-x="515" 
d="M482 41l-7 -29q-8 -2 -15.5 -2.5t-15.5 -1.5l-15.5 -2l-15.5 -2l-31.5 -6t-31.5 -8l-10 17q1 1 1.5 3t1.5 5q0 2 0.5 3l1.5 3q1 1 1.5 2.5t1.5 2.5v0.5v1.5q1 1 1 1.5v1.5q0 2 0.5 3.5t1.5 3.5q1 1 1.5 3t1.5 3q0 2 0.5 3.5t1.5 3.5q1 1 1.5 3t0.5 3q-19 -13 -38.5 -24
t-39.5 -21t-40.5 -14t-40.5 -4q-36 0 -60.5 12.5t-36.5 38.5q-13 26 -17.5 55t-0.5 60v6t1 6q0 2 0.5 5t1.5 6q1 5 2.5 10.5t2.5 11.5q12 44 36.5 82.5t63.5 70.5q38 32 79.5 48.5t86.5 16.5q9 0 17.5 -1t16.5 -3q4 -1 8.5 -2t8.5 -2q13 -4 23.5 -9t20.5 -12l31 114l15 61
q5 16 5 28t-2 20t-12.5 12t-28.5 4l8 28q17 2 33 7.5t32 12.5l33 15.5t32 16.5l16 -8q-10 -26 -18 -51l-15 -49q-8 -25 -15 -49.5l-14 -49.5l-81 -302l-15 -58l-6 -21.5t-5 -19.5q-3 -10 -4.5 -18t-1.5 -15q-1 -12 1.5 -19t9.5 -9q6 -2 13.5 -3.5t17.5 -1.5v2v0zM373 100
q1 1 1.5 3t1.5 5q0 2 0.5 3l1.5 3q0 1 0.5 2.5t1.5 2.5q0 2 0.5 4.5t1.5 5.5q0 2 0.5 3l1.5 3q0 1 0.5 2.5t0.5 2.5q1 2 1.5 4.5t1.5 4.5q0 2 0.5 4.5t1.5 4.5t1.5 4.5t1.5 4.5q0 2 0.5 4.5t1.5 5.5q3 10 5.5 20t4.5 20q1 5 2.5 10t2.5 10q3 10 5.5 20.5t4.5 20.5
q1 5 2.5 10.5t2.5 10.5q4 21 0 37.5t-15 28.5q-12 11 -28.5 17t-36.5 6q-34 0 -63 -12.5t-52 -38.5q-23 -25 -39 -53.5t-24 -59.5q-1 -5 -2.5 -10t-2.5 -10q0 -2 -0.5 -4.5t-0.5 -4.5q-1 -3 -1.5 -5.5t-0.5 -4.5q-2 -26 1.5 -50t14.5 -45q11 -22 30.5 -32.5t48.5 -10.5
q8 0 15.5 1l15.5 2q8 2 15.5 4.5t15.5 6.5q16 7 30 16t27 21v2v0z" />
    <glyph glyph-name="f" unicode="e" horiz-adv-x="386" 
d="M374 84l9 -20q-20 -18 -41 -31.5t-44 -22.5q-11 -4 -22 -7t-22 -5t-22 -3.5t-22 -1.5q-37 0 -64 14t-42 42q-16 29 -21 60.5t2 65.5q0 2 0.5 3t0.5 3q0 1 0.5 2.5t0.5 2.5q1 3 1.5 6t1.5 6q11 44 34.5 83t59.5 73q35 35 76.5 52t87.5 17q26 0 46 -9t34 -27t18 -39.5
t-3 -47.5q-4 -13 -8.5 -22t-9.5 -13q-6 -4 -14.5 -6t-20.5 -2l-216 2q-2 -5 -3.5 -9.5t-3.5 -8.5q-1 -2 -1.5 -4t-0.5 -3q-1 -2 -1.5 -4t-1.5 -4q-9 -34 -6.5 -64t15.5 -57t37.5 -40.5t60.5 -13.5q7 0 13.5 0.5t13.5 1.5q6 1 12.5 2.5t13.5 3.5l26 10.5t26 12.5v2v0z
M190 293h144q1 -2 1.5 -2h1.5h2h2h6t6 1q2 0 5 1l6 2q5 2 9 7t6 13q5 15 2.5 28t-10.5 23t-19.5 15t-26.5 5q-22 0 -42 -7.5t-37 -21.5q-16 -14 -30.5 -30.5t-25.5 -35.5v2v0z" />
    <glyph glyph-name="g" unicode="f" horiz-adv-x="316" 
d="M285 401h138l-26 -41h-123l-53 -196q0 -3 -0.5 -5.5t-1.5 -4.5t-1.5 -4t-0.5 -4l-2 -8l-2 -8q-1 -3 -2 -5.5t-2 -5.5q-1 -1 -1 -2.5t-1 -2.5q0 -2 -0.5 -4t-1.5 -4t-1.5 -4t-0.5 -4q-4 -18 -5.5 -30.5t0.5 -20.5t13.5 -12t30.5 -4l23 2l-8 -33h-13.5h-13.5t-13.5 0.5
t-12.5 1.5h-14h-13h-6.5t-6.5 1h-6.5h-6.5h-10.5h-10.5q-5 -1 -10 -1h-10q-10 -1 -20 -1.5t-20 -0.5h-3h-3h-3.5h-3.5h-3h-3h-3.5h-3.5l8 33q20 -2 34 1.5t22 10.5q8 8 14.5 21t11.5 32q0 2 0.5 4t1.5 4t1.5 4t0.5 4q1 2 1.5 4t1.5 4q0 2 0.5 4t1.5 4q0 4 1 8l2 8q0 2 0.5 4
t1.5 4t1.5 4t0.5 4l53 198h-63l18 34q16 1 28 4.5t19 8.5t13.5 15t12.5 26q19 53 47 97.5t65 81.5q37 38 84 56.5t105 18.5h3.5h3.5q2 -1 4 -1h5q5 -1 10 -1.5t10 -2.5q8 -2 14.5 -5t12.5 -8q5 -4 7.5 -9.5t0.5 -12.5v-1.5v-0.5q-1 -1 -1 -1.5v-0.5q0 -1 -0.5 -1.5
l-1.5 -1.5q-3 -6 -8 -11.5t-11 -10.5q-3 -3 -6 -5l-6 -4q-4 -2 -7 -3l-6 -2q-2 -1 -3.5 -1.5t-3.5 -0.5h-2.5h-3.5q-3 0 -5.5 0.5t-4.5 2.5l-2.5 2.5l-2.5 2.5q-1 2 -3 4t-3 4q-2 2 -3.5 4.5t-3.5 4.5q-3 2 -5 4t-4 5q-3 2 -5 4t-5 4q-4 4 -11 6t-15 2q-27 0 -49.5 -11
t-40.5 -34q-18 -22 -31.5 -46.5t-24.5 -51.5q-6 -13 -10.5 -26.5t-8.5 -27.5l-7.5 -25l-6.5 -22l-6 -22v0v0z" />
    <glyph glyph-name="h" unicode="g" horiz-adv-x="437" 
d="M531 390l-9 -35l-95 1q2 -10 2.5 -18.5t0.5 -16.5t-1 -16.5t-3 -16.5q-9 -34 -28.5 -58.5t-48.5 -41.5q-29 -16 -58.5 -24.5t-58.5 -8.5h-1.5h-0.5v0v0h-1v0q-1 -1 -2.5 -2t-2.5 -1q-1 -1 -2.5 -2t-2.5 -2q-1 0 -1.5 -0.5l-1.5 -1.5q-2 -1 -3.5 -2t-2.5 -2
q-7 -4 -13.5 -9.5l-12.5 -10.5q-6 -6 -9.5 -12t-5.5 -12q-2 -8 -0.5 -13.5t6.5 -8.5t11 -5t13 -3q3 -1 6 -1h6h3h3h2.5h2.5l49 2q1 -2 2.5 -2h2.5h1.5h1.5h0.5h1.5h4.5h4.5q3 -1 5.5 -1h5.5h10.5h11.5q21 -1 38.5 -6.5t33.5 -13.5t20.5 -25t-2.5 -42q-10 -36 -33 -66.5
t-58 -54.5t-71 -40.5t-73 -25.5q-4 -1 -8.5 -1.5t-8.5 -1.5q-5 -1 -9 -1.5t-9 -1.5q-8 -1 -15.5 -1.5t-15.5 -0.5q-29 0 -52.5 8t-40.5 25q-16 16 -19.5 40t3.5 55q3 12 9.5 23t16.5 21t20.5 19.5t21.5 18.5q2 2 4 3.5t4 2.5t4 3t4 3q2 2 4 3.5t5 3.5q2 1 4 3l4 4
q-5 5 -9.5 11t-6.5 13q-3 7 -3 14.5t2 15.5v2t1 2v1v2t0.5 1.5l1.5 1.5l1.5 1.5t0.5 1.5l97 75q-19 7 -33 18.5t-24 26.5q-9 15 -10 35t5 44q9 32 28 57t48 43t58.5 27t58.5 10v0h1v0v0h0.5h1.5h3.5h2.5q2 -1 3.5 -1h2.5h3.5h2.5q2 -1 3.5 -1h2.5q10 -1 19 -4t18 -7
q8 -4 15.5 -9.5t12.5 -13.5l119 3v0v0zM125 9q-8 -8 -15 -16t-13 -16q-7 -8 -11.5 -17t-7.5 -19q-7 -27 -2.5 -47.5t21.5 -33.5q17 -14 37.5 -21t45.5 -7h4.5h5.5q2 1 4.5 1h5.5q5 1 10 1.5t10 1.5q6 1 11.5 3l11.5 4q12 4 23.5 9.5t22.5 12.5q17 10 28 24.5t18 32.5
q6 25 0 40.5t-25 22.5q-18 7 -38.5 11t-44.5 4h-8h-8h-4h-3h-3.5h-3.5q-11 0 -21.5 0.5t-19.5 1.5q-10 0 -17.5 1.5t-13.5 3.5v2v0zM351 280l0.5 1.5t0.5 2.5q0 3 0.5 6t1.5 6q0 2 0.5 4.5t1.5 5.5q0 2 0.5 4.5t0.5 4.5q2 15 -0.5 28.5t-7.5 26.5q-5 12 -15 19t-27 8
q-19 0 -35 -7t-29 -21t-23 -29t-15 -32v-1.5v-0.5q-1 -1 -1 -1.5v-0.5v-1.5v-0.5q-1 -1 -1 -1.5v-0.5q0 -2 -0.5 -4t-1.5 -3q-1 -2 -1.5 -4t-0.5 -4q-1 -4 -1.5 -8t0.5 -8q-2 -15 -0.5 -29t7.5 -27q5 -13 16.5 -20t28.5 -7q19 0 35 7t29 21t22.5 30t13.5 34l1 2v0z" />
    <glyph glyph-name="i" unicode="h" horiz-adv-x="535" 
d="M264 354q4 1 8.5 3t9.5 5t9.5 6t9.5 6q15 9 31 17.5t33 15.5q17 8 33 12t31 4q41 0 63.5 -12.5t27.5 -36.5t3.5 -53t-10.5 -63l-6 -20l-6 -20q-1 -5 -2.5 -10t-2.5 -9q-1 -5 -2.5 -10t-2.5 -10l-6 -20t-5 -20q-1 -5 -2.5 -10t-2.5 -9q-1 -5 -2.5 -10t-2.5 -10
q-1 -2 -1.5 -4t-1.5 -4v-2v-1q-1 -1 -1 -2v-2q-2 -7 -3 -13.5t-1 -12.5q-1 -6 0 -10.5t3 -6.5q2 -3 4 -4.5t6 -3.5q2 -1 5.5 -1.5t7.5 -0.5q2 -1 4.5 -1h5.5h4.5h4.5l3 2l-8 -33h-25.5t-24.5 1t-24 1.5t-24 0.5h-8.5h-8.5q-9 -1 -17.5 -1t-16.5 -1q-6 0 -12 -0.5t-12 -0.5
h-13h-12l8 33q20 -2 34.5 1t22.5 9t15.5 19t12.5 33q1 2 1.5 4.5t1.5 5.5q1 2 1.5 4.5t1.5 5.5v2v2v0v1v1v1q0 1 0.5 2t0.5 2q1 0 1 1v2q1 3 2 6.5t2 7.5q1 3 2 6.5t2 7.5q1 3 1.5 5t1.5 5q0 1 0.5 2t0.5 3q1 3 2.5 6.5t2.5 7.5q2 7 3.5 14t3.5 14q1 4 2 7.5t2 7.5
q1 3 2 6.5t2 7.5t1.5 8t1.5 8q1 2 1.5 4.5t0.5 4.5t0.5 4.5t1.5 4.5q3 17 2.5 33t-5.5 31t-18 22.5t-34 7.5q-17 0 -34.5 -3.5t-34.5 -11.5q-17 -7 -33.5 -17t-31.5 -21l-42 -154q0 -3 -0.5 -5.5t-1.5 -4.5t-1.5 -4t-0.5 -4l-2 -8l-2 -8q-1 -3 -2 -5.5t-2 -5.5
q-1 -1 -1 -2.5t-1 -2.5q0 -2 -0.5 -4t-1.5 -4t-1.5 -4t-0.5 -4q-4 -18 -5.5 -30.5t0.5 -20.5t13.5 -12t30.5 -4l6 2l-8 -33h-12h-12t-12 0.5t-12 1.5h-13h-12h-6t-5 1h-6h-6h-6.5h-6.5h-3.5h-3.5q-5 -1 -9.5 -1h-9.5q-10 -1 -19.5 -1.5t-18.5 -0.5h-7.5h-6.5h-6h-6l8 33
q21 -2 36 1.5t23 10.5t14.5 20.5t12.5 34.5l16 64l92 342l16 62q5 16 5 28.5t-3 20.5t-13.5 12t-28.5 4l8 28q8 1 16.5 3l17.5 4l16.5 6t16.5 7q9 3 17 7t17 7q8 4 16 8.5t17 8.5l14 -7q-1 -5 -3 -9.5t-3 -9.5l-6 -16.5l-6 -16.5l-8 -25t-7 -24q-4 -13 -8.5 -25.5
t-7.5 -24.5q-1 -6 -3 -12.5t-3 -12.5q-2 -7 -3.5 -13t-3.5 -12l-41 -150v0v0z" />
    <glyph glyph-name="j" unicode="i" horiz-adv-x="276" 
d="M142 354l8 26q17 3 34.5 8t33.5 12q17 7 33.5 14.5t32.5 16.5l16 -6l-6 -15.5t-5 -14.5q-4 -7 -6.5 -14t-4.5 -14q-3 -7 -5.5 -14.5t-4.5 -14.5q-1 -4 -2 -7.5t-1 -6.5q-1 -4 -2 -7.5t-2 -6.5l-22 -85q-2 -10 -4.5 -18t-4.5 -16q-1 -4 -2 -7.5t-2 -7.5t-2 -7.5t-2 -7.5
q-3 -8 -5.5 -16t-4.5 -16l-2 -8t-2 -7l-2 -8l-2 -8q-4 -18 -5.5 -30.5t0.5 -20.5t13.5 -12t30.5 -4l5 2l-8 -33h-25t-24 1q-6 0 -12 0.5t-11 0.5q-6 1 -12 1h-12h-4.5h-4.5h-2.5h-2.5q-3 -1 -6.5 -1h-6.5h-13h-12q-7 -1 -13.5 -1.5t-12.5 -0.5h-13.5h-12.5l8 33
q21 -2 36 1.5t23 10.5t14.5 20.5t12.5 34.5l6 22.5l6 23.5l6 23l6 24q3 8 4.5 15.5t3.5 14.5l2 8l2 8l6 22.5l6 23.5q5 17 5.5 30t-2.5 21q-4 8 -14.5 12t-28.5 4v2v0zM355 648q-3 -11 -9 -19.5t-15 -14.5q-9 -7 -18 -10t-18 -3t-16.5 3t-12.5 10q-6 6 -7 14t2 17
q2 10 7.5 18.5t15.5 15.5q9 8 18.5 11.5t19.5 3.5t17 -3.5t12 -11.5q4 -7 5 -15.5t-1 -17.5v2v0z" />
    <glyph glyph-name="k" unicode="j" horiz-adv-x="240" 
d="M-28 -184l-7 24l22 13t17 12l16 12t15 12q15 13 25.5 27.5t16.5 29.5t13 34.5t14 41.5q0 1 0.5 2.5t1.5 2.5q0 1 0.5 2t0.5 2q0 2 0.5 3l1.5 3q0 1 0.5 2.5t0.5 2.5q1 2 1.5 4.5t1.5 4.5q0 2 0.5 4.5t1.5 4.5q1 3 2 6.5t2 6.5q0 2 1 3.5t1 3.5q1 2 1.5 4.5t1.5 5.5
q1 2 1.5 4.5t0.5 4.5q1 2 1.5 4.5t1.5 5.5q1 2 1.5 4.5t0.5 4.5l31 114l14 56q4 15 4.5 27t-1.5 20q-4 8 -14 12.5t-28 4.5l8 28q17 4 33.5 9t32.5 12q16 6 32.5 14l33.5 17l14 -7l-11 -30l-10 -28t-9 -28.5l-8 -28.5l-20 -78l-40 -148l-7.5 -28t-7.5 -25
q-8 -24 -15.5 -42.5t-14.5 -33.5q-10 -23 -28.5 -43t-44.5 -38q-10 -7 -21.5 -14t-24.5 -14l-26 -14.5l-30 -15.5h-1v0zM350 649q-2 -11 -8 -19.5t-15 -15.5t-18 -10t-19 -3q-9 0 -16.5 3t-12.5 10q-5 6 -6 14t2 18q2 10 7.5 18.5t15.5 15.5q8 7 17.5 10.5t19.5 3.5t17 -3.5
t12 -11.5q4 -7 5 -15t-1 -17v2v0z" />
    <glyph glyph-name="l" unicode="k" horiz-adv-x="484" 
d="M241 33l-8 -33h-6h-6h-7h-6h-6t-6 1q-4 0 -7 0.5t-6 0.5h-13.5h-12.5h-6t-5 1h-6h-6h-6.5h-6.5q-3 -1 -6.5 -1h-6.5h-12h-12q-3 0 -6 -0.5t-6 -0.5q-4 -1 -7 -1h-6h-12h-12l8 33q20 -2 34.5 1t22.5 10t15 20.5t12 33.5q0 2 0.5 4t1.5 4t1.5 4t0.5 4q1 2 1.5 4t1.5 4
q0 2 0.5 4t1.5 4q0 4 1 8l2 8q0 2 0.5 4t1.5 4t1.5 4t0.5 4l92 344l16 62q5 16 5 28t-2 20q-3 8 -13.5 12.5t-27.5 4.5l8 28q17 2 33 7.5t32 12.5q6 2 11 4.5t11 4.5l22 10.5l22 11.5l16 -7q-1 -5 -3 -9.5t-3 -9.5l-6 -16.5l-6 -16.5q-5 -13 -9 -25t-7 -24
q-4 -13 -8.5 -25.5t-7.5 -24.5q-1 -6 -3 -12.5t-3 -12.5q-2 -7 -3.5 -13t-3.5 -12l-92 -340l-16 -62q-5 -19 -6.5 -32.5t0.5 -21.5q1 -9 12 -13t31 -4l7 2v0v0zM374 385l9 33q5 -2 10 -3t11 -1h12h12q5 -1 10 -1h11h6h6h5h6h22.5t23.5 1q11 0 22.5 0.5t22.5 1.5l-8 -31
q-28 -2 -54.5 -10t-49.5 -23l-48 -31.5t-47 -34.5q-1 -1 -1.5 -2t-2.5 -2q-1 -1 -2 -1.5t-1 -1.5l-8 -6l-8 -6t-7 -5.5t-6 -4.5l64 -131q1 -4 2 -6.5t2 -4.5q1 -3 2 -5.5t2 -4.5q1 -3 2.5 -6t3.5 -6q1 -1 1.5 -2.5t1.5 -2.5q5 -12 12 -22t15 -18t20.5 -12.5t30.5 -6.5
l-8 -29h-8h-8h-4h-3h-4h-4h-4t-4 1h-4h-4h-7.5h-7.5h-8h-8h-4h-4q-2 -1 -4 -1h-4h-4h-4h-4h-4h-8h-8l-22.5 58.5t-25.5 57.5q-13 29 -27.5 56.5l-28.5 55.5l108 87q2 1 4 2.5t5 2.5q2 2 5 4l6 4l3.5 3.5t3.5 2.5l3.5 3.5t3.5 2.5q4 3 7 6l6 6q1 1 1.5 2t1.5 2l0.5 1t1.5 2
q0 1 0.5 2t1.5 2q1 0 1.5 1t0.5 2v3q1 2 0.5 5t-3.5 4q-1 1 -3.5 2t-4.5 2q-1 0 -2 0.5t-2 0.5h-2.5h-3.5h-2.5h-2.5l-5 2v0v0z" />
    <glyph glyph-name="m" unicode="l" horiz-adv-x="267" 
d="M242 33l-8 -33h-24t-24 1q-6 0 -12 0.5t-11 0.5q-6 1 -12 1h-12h-12.5t-13.5 -1q-7 0 -13.5 -0.5t-12.5 -0.5q-13 -1 -25.5 -1h-25.5l8 33q21 -2 35 2t22 11q8 8 14.5 21.5t11.5 32.5l16 64l92 343l15 61q4 14 4.5 26t-1.5 21t-12.5 13.5t-27.5 4.5l7 28q17 2 33.5 7.5
t32.5 12.5q8 3 16 7t17 7q8 4 16 8.5t16 8.5l16 -7q-10 -26 -18.5 -51t-15.5 -50l-14 -49.5l-14 -49.5l-92 -341q-1 -6 -2 -10.5t-3 -9.5q0 -2 -0.5 -4t-1.5 -4t-1.5 -4t-0.5 -4l-2 -4t-1 -4q-1 -3 -1.5 -5t-0.5 -4q-1 -2 -1.5 -4t-0.5 -4q-1 -3 -1.5 -5t-1.5 -4
q-4 -17 -5 -29t1 -20q2 -7 13 -10.5t30 -3.5l9 2v0v0z" />
    <glyph glyph-name="n" unicode="m" horiz-adv-x="797" 
d="M526 354q4 1 8 3t8 5q4 2 8 4.5t8 5.5q13 8 26.5 14.5t26.5 13.5q14 7 27.5 12t26.5 8q3 0 6.5 0.5t7.5 1.5h3.5t3.5 1h3h3q38 0 60.5 -12t28.5 -36q7 -24 6 -52t-10 -61l-6 -20.5t-5 -21.5l-6 -20t-5 -20q-2 -5 -3.5 -10t-2.5 -10q-1 -2 -1.5 -4t-0.5 -3q-1 -4 -2 -7
t-2 -7q-1 -5 -2.5 -10t-2.5 -10q-2 -6 -3 -11t-3 -10q0 -1 -0.5 -1.5t-0.5 -1.5t-0.5 -1.5t-0.5 -1.5v-1.5v-0.5q0 -1 -0.5 -1.5t-0.5 -1.5q-2 -7 -3 -14t-1 -13q-1 -6 0 -10.5t3 -7.5t4 -4.5t6 -2.5l6 -2t7 -1q2 0 3 -0.5t3 -0.5h2.5h2.5h4.5h4.5l4 2l-8 -33h-6h-6h-6h-5
q-9 0 -18 0.5t-18 1.5h-8.5t-8.5 1h-9h-9h-6.5h-6.5q-3 -1 -6.5 -1h-6.5h-6h-6q-4 -1 -7 -1h-6h-3h-3q-2 -1 -3.5 -1h-3.5h-6h-6h-3h-3h-3.5h-3.5h-6h-6l8 33q24 -2 38.5 2t21.5 11q6 8 12 21t10 31q2 8 4.5 16.5t4.5 16.5t4.5 16.5t4.5 17.5l4 16t4 17q2 8 4.5 16.5
t4.5 16.5q0 2 0.5 3.5t1.5 3.5q0 1 0.5 3t0.5 3q0 2 0.5 3.5t1.5 3.5q1 1 1.5 3t0.5 4q4 21 5 40t-1 37q-3 18 -18 27t-42 9q-16 0 -31.5 -3.5t-31.5 -11.5q-16 -7 -30.5 -15t-28.5 -17q-1 -2 -1.5 -4.5t-1.5 -4.5v-2v-2t-0.5 -2t-0.5 -2q-1 -2 -1.5 -4.5t-0.5 -4.5
q-1 -2 -1.5 -4t-1.5 -4l-50 -188l-1.5 -6t-1.5 -4v-2v-1q-1 -1 -1 -2v-2q-2 -7 -3 -13.5t-1 -12.5q-1 -6 0 -10.5t3 -6.5q2 -3 4 -4.5t6 -3.5q2 -1 5.5 -1.5t7.5 -0.5q2 -1 4.5 -1h5.5h4.5h4.5l7 2l-8 -33h-6h-6h-3h-3h-3.5h-3.5h-6h-6h-2.5t-3.5 1h-2.5h-3.5h-6t-6 1h-7h-6
h-6t-5 1h-6h-6h-6h-6q-4 -1 -7 -1h-6h-12h-11q-6 -1 -12 -1.5t-12 -0.5h-12h-12l8 33q19 -2 32 1.5t21 10.5q8 8 14 20t10 29q1 5 2.5 9.5t2.5 9.5q1 4 2.5 9t2.5 10q2 5 3 10t3 10q1 4 2.5 9t2.5 10l4 18.5t5 19.5q1 5 2.5 10t2.5 10q1 4 2.5 9t2.5 10q7 24 9 45t0 40
q-1 19 -17 28.5t-45 9.5q-15 0 -29.5 -3.5t-28.5 -9.5q-16 -7 -29.5 -14.5l-27.5 -15.5l-45 -164q0 -3 -0.5 -5.5t-1.5 -4.5t-1.5 -4t-0.5 -4l-2 -8l-2 -8q-1 -3 -2 -5.5t-2 -5.5q-1 -1 -1 -2.5t-1 -2.5q0 -2 -0.5 -4t-1.5 -4t-1.5 -4t-0.5 -4q-4 -18 -5.5 -30.5t0.5 -20.5
t13.5 -12t30.5 -4l4 2l-8 -33h-25.5t-24.5 1t-24 1.5t-24 0.5h-6.5h-6.5q-3 -1 -6.5 -1h-6.5h-6h-6q-4 -1 -7 -1h-6h-3h-3q-2 -1 -3.5 -1h-3.5h-6h-6h-3h-3h-3.5h-3.5h-6h-6l8 33q22 -2 37 1t23 10t14.5 21t12.5 35l6 23.5l6 23.5q2 11 5 22.5l6 23.5q5 16 8.5 31l7.5 31
l4 15.5l4 15.5q5 17 6 29t-1 20q-3 8 -13 12.5t-28 4.5l8 29q16 2 31.5 7.5t31.5 12.5l21.5 9.5t20.5 9.5q5 3 10.5 5.5t10.5 5.5l18 -7q0 -2 -1 -3.5t-1 -3.5q-1 -2 -2 -4.5t-2 -5.5q-2 -4 -3.5 -8t-2.5 -7q-1 -4 -2.5 -8t-2.5 -8q-1 -2 -2 -4.5t-2 -5.5q-1 -1 -1 -2.5
t-1 -2.5q4 2 8.5 4.5t8.5 5.5q5 2 9.5 4.5l9.5 5.5q8 5 17 9.5t19 8.5q8 5 17.5 8.5t19.5 6.5q5 2 10.5 3.5t11.5 2.5q6 2 11.5 2.5t10.5 0.5q19 0 35.5 -4.5t29.5 -13.5q14 -9 22.5 -22t10.5 -31v2v0z" />
    <glyph glyph-name="o" unicode="n" horiz-adv-x="543" 
d="M264 319l-42 -155q0 -3 -1 -5.5t-1 -4.5l-2 -4t-1 -4t-0.5 -4t-1.5 -3q-1 -2 -1.5 -4t-0.5 -4l-2 -8l-2 -8t-2 -7.5t-2 -7.5q-5 -18 -6.5 -31t0.5 -21q1 -9 12 -13t31 -4l8 2l-8 -33h-3h-3h-3.5h-3.5h-6h-6q-10 0 -20 0.5t-19 1.5h-9.5t-9.5 1h-8.5h-9.5h-6.5h-6.5
q-3 -1 -6.5 -1h-6.5h-6h-6h-7h-6q-7 -1 -13.5 -1.5t-12.5 -0.5h-12h-12l8 33q20 -2 34.5 1t23.5 10q8 6 15.5 19.5t12.5 34.5l6 22.5l6 23.5q3 8 4.5 16t3.5 16l2 8l2 8t2 7.5t2 7.5l4 15.5l4 15.5q2 6 3.5 12t2.5 12q2 5 3.5 11t2.5 12q5 18 6 31.5t-1 20.5q-2 8 -13 11.5
t-29 3.5l7 28q17 4 32.5 9.5t31.5 12.5q8 3 16 6.5t17 6.5l16 8l16 8l17 -7q-2 -5 -3.5 -9.5t-3.5 -9.5q-2 -4 -3.5 -8.5t-3.5 -9.5l-6 -17.5t-5 -16.5q2 1 3.5 2t3.5 2q1 1 3 2t3 2q4 2 7.5 4t7.5 4q16 10 33.5 19l36.5 18q13 6 24.5 9.5t23.5 5.5q6 1 12 1.5t12 0.5
q35 0 55.5 -11.5t27.5 -34.5q8 -22 7.5 -48.5t-8.5 -56.5l-6 -22.5l-6 -22.5l-6 -22l-6 -22q-4 -11 -7 -22.5l-6 -22.5l-6 -22l-6 -22q-1 -1 -1 -2v-2q-1 -1 -1 -2v-1q-2 -7 -3.5 -14.5t-1.5 -13.5q-1 -6 0.5 -10.5t3.5 -6.5q2 -3 5 -5t7 -3l8 -2t8 -1h4h4h4h4l2 2l-8 -33
h-3h-3h-3.5h-3.5h-6h-6h-7h-6h-2.5t-3.5 1h-2.5h-3.5h-6.5t-6.5 1h-7h-6h-6t-6 1h-6h-6h-6h-6q-4 -1 -7 -1h-6h-6h-6q-3 -1 -6 -1h-6h-3.5h-3.5q-1 -1 -2.5 -1h-3.5h-6h-6h-6h-6h-6h-6l8 33q22 -2 36.5 1.5t22.5 10.5q8 8 14.5 21.5t12.5 33.5q1 3 1.5 5.5t1.5 5.5
q1 6 2.5 11.5t3.5 11.5q1 5 2 9t3 9q1 4 2 8.5t2 8.5l4 16.5l4 17.5q1 5 2 9t3 9q1 4 2.5 8.5t2.5 8.5q0 1 0.5 2.5t0.5 2.5q0 3 0.5 5.5t1.5 5.5q0 2 0.5 4t1.5 5q1 2 1.5 4t0.5 4q3 19 2.5 36t-4.5 33q-5 15 -18 23t-36 8q-17 0 -33.5 -4t-33.5 -12q-16 -8 -32.5 -17.5
t-30.5 -20.5v2v0z" />
    <glyph glyph-name="p" unicode="o" horiz-adv-x="509" 
d="M527 207q-13 -47 -39.5 -85.5t-67.5 -68.5q-41 -31 -83.5 -45.5t-86.5 -14.5q-48 0 -82.5 15t-56.5 46t-26.5 70t8.5 86t39.5 85.5t68.5 69.5q41 31 84 46.5t89 15.5q47 0 81 -16.5t55 -48.5q20 -33 24.5 -72t-7.5 -85v2v0zM447 198q1 4 2 9t2 11q0 3 0.5 6t1.5 6
q0 2 0.5 5t0.5 6q2 28 -2 53.5t-15 48.5t-32 35t-51 12q-32 0 -60 -12.5t-51 -36.5q-24 -25 -40 -51.5t-24 -55.5v-1.5v-0.5v0v0v-1v0l-4 -14.5t-3 -15.5l-2 -14.5t-1 -15.5q-2 -27 2 -51.5t14 -47.5q10 -22 30 -33.5t51 -11.5q35 0 64 13t52 39t38.5 54.5t24.5 59.5v0l1 1
v0v0v0.5v1.5l1 2v0z" />
    <glyph glyph-name="q" unicode="p" horiz-adv-x="521" 
d="M176 17l-37 -140q-5 -18 -6 -31t1 -21t12.5 -12.5t29.5 -4.5h8l-9 -33q-7 1 -13 1.5t-12 0.5q-6 1 -12 1.5t-12 0.5h-6.5h-6.5q-3 1 -6 1h-6h-6h-6h-7h-6h-13.5h-12.5h-6t-6 -1h-7h-6q-7 0 -13.5 -0.5t-11.5 -1.5h-5.5t-6.5 -1q-3 0 -6.5 -0.5t-6.5 -0.5l8 33
q18 0 31.5 2.5t22.5 7.5t16 18.5t13 34.5q1 2 1.5 4.5t1.5 4.5q0 2 0.5 4.5t1.5 4.5q0 2 0.5 4t1.5 4t1.5 4t0.5 4t0.5 4t1.5 4q0 3 0.5 5t1.5 4q0 2 0.5 4t1.5 4q1 3 1.5 5t0.5 4l77 286l16 63q4 14 5 26t0 20t-10 12t-26 5h-0.5t-0.5 1h-1.5h-0.5h-1.5h-1.5l7 28
q17 3 32.5 8.5t31.5 12.5q17 7 32.5 14.5l31.5 15.5l18 -7q0 -2 -1 -3.5t-1 -3.5q-1 -2 -2 -4.5t-2 -4.5q0 -1 -1 -2.5t-1 -2.5q-1 -2 -2 -4.5t-2 -4.5q-1 -4 -2.5 -7.5t-2.5 -6.5q-1 -4 -2.5 -7.5t-2.5 -6.5v0l1 1h0.5h0.5l1 0.5t2 1.5q17 10 34.5 19l36.5 18
q17 8 35.5 12.5t37.5 4.5q42 0 70 -16t43 -48q15 -31 17.5 -66.5t-8.5 -74.5v-1.5v-0.5q-1 -1 -1 -1.5v-0.5v-1.5v-0.5q-1 -1 -1 -1.5v-1.5q-13 -40 -37.5 -77.5t-61.5 -71.5t-77 -50.5t-84 -16.5q-14 0 -28 1.5t-27 4.5q-13 2 -25 6t-23 10v2v0zM192 75q4 -11 10.5 -18.5
t16.5 -12.5q9 -5 18.5 -8.5t20.5 -5.5q3 -1 6 -1.5t6 -0.5h6h6q34 0 63 12.5t52 37.5q23 26 39.5 53.5t26.5 58.5v1.5v1.5q1 1 1 1.5v1.5q9 33 8 63t-12 56t-35 39t-61 13h-4h-3q-2 -1 -3.5 -1h-3.5q-3 0 -6.5 -0.5t-7.5 -1.5t-9 -2t-9 -2q-5 -2 -9.5 -3t-9.5 -3
q-8 -3 -15 -6t-13 -7q-2 -1 -4.5 -2t-4.5 -2l-70 -262v0v0z" />
    <glyph glyph-name="r" unicode="q" horiz-adv-x="488" 
d="M461 376l64 51l14 -9l-10 -27t-9 -25q-5 -13 -8.5 -25t-6.5 -24l-8 -25.5l-8 -24.5q-1 -6 -3 -12.5t-3 -12.5q-2 -7 -3.5 -13t-3.5 -12l-75 -278q0 -2 -1 -4t-1 -4q-1 -1 -2 -3t-1 -4t-0.5 -4t-1.5 -4t-1.5 -4t-0.5 -4t-0.5 -4t-1.5 -4q-1 -1 -1.5 -3t-0.5 -4l-2 -8
l-2 -8q-5 -20 -6.5 -33.5t0.5 -20.5q2 -8 13 -11.5t30 -3.5h8l-9 -33h-3h-3q-2 1 -3.5 1h-3.5h-2.5h-2.5q-2 1 -3 1h-3q-4 0 -9 0.5t-9 0.5q-5 1 -9.5 1h-9.5t-11.5 0.5t-12.5 0.5h-6h-6h-13.5h-12.5q-7 0 -13.5 -0.5t-13.5 -0.5l-25.5 -2t-26.5 -2l9 33q22 0 37 3.5t23 9.5
q8 7 14.5 21t12.5 35l2 8l2 8q0 2 0.5 4t1.5 3q1 2 1.5 4t0.5 4q1 4 1.5 8t1.5 8q0 2 0.5 4t1.5 3q1 2 1.5 4t0.5 4l35 129q-19 -17 -39 -30t-40 -24q-21 -11 -42.5 -16t-43.5 -5q-35 0 -59.5 12.5t-36.5 38.5q-13 26 -18 55t-1 61q0 5 0.5 10.5t1.5 10.5t2.5 10.5t2.5 11.5
q12 44 37 82.5t62 71.5q38 33 79.5 49.5t87.5 16.5q17 0 32 -3.5t28 -9.5q13 -7 24 -16t20 -20v2v0zM373 104l39 145q8 25 9.5 49t-1.5 46t-21 33t-51 11q-34 0 -63 -12.5t-52 -37.5t-39 -53t-24 -59q-1 -3 -1.5 -6t-1.5 -5q-1 -3 -1.5 -6t-0.5 -6l-2 -11.5t-1 -10.5
q-2 -25 2.5 -48t14.5 -44q9 -21 28 -31.5t47 -10.5h4.5h5.5t6 0.5t6 1.5q12 2 25.5 6.5t26.5 11.5t24 16t21 19v2v0z" />
    <glyph glyph-name="s" unicode="r" horiz-adv-x="348" 
d="M147 356l6 24q17 4 32.5 9.5t31.5 12.5q16 6 31.5 13.5l31.5 15.5l12 -2l-24 -90q1 -1 1 -0.5t1 0.5l2 2l2 2l4 4l4 4q13 14 27.5 26t30.5 23t33 17t35 6h1.5h1.5q1 -1 1.5 -1h1.5h4h4q4 -1 7.5 -3.5t6.5 -5.5t4.5 -6.5t-0.5 -8.5q0 -1 -0.5 -2.5t-1.5 -3.5
q-1 -1 -1.5 -2.5t-0.5 -3.5q0 -1 -0.5 -3t-1.5 -3q-1 -2 -1.5 -3.5t-1.5 -3.5q-3 -6 -6.5 -11.5t-7.5 -10.5q-2 -3 -4.5 -4.5t-4.5 -3.5q-3 -1 -5.5 -1.5t-4.5 -0.5h-5.5t-4.5 1q-2 0 -3.5 0.5t-2.5 0.5t-1.5 0.5t-1.5 0.5h-1.5h-0.5q-1 0 -1.5 0.5t-1.5 0.5t-2 0.5t-2 1.5
q-4 1 -7.5 1.5t-6.5 1.5q-4 1 -7.5 1.5t-7.5 0.5q-10 0 -20.5 -3.5t-20.5 -10.5t-18 -15t-13 -17q-4 -5 -7 -11t-6 -13q-1 -2 -1.5 -4.5t-1.5 -5.5q-1 -1 -1 -2t-1 -2q-1 -4 -2 -7.5t-2 -7.5q-3 -7 -4.5 -13.5t-3.5 -12.5t-3.5 -11.5t-2.5 -10.5q-2 -7 -3.5 -13.5
t-3.5 -12.5q-2 -7 -3.5 -13.5t-3.5 -12.5q-3 -7 -4.5 -14t-3.5 -13q-2 -7 -3.5 -13.5t-3.5 -12.5q-5 -18 -6.5 -31t0.5 -21q1 -9 12 -13t31 -4l10 2l-8 -33h-13.5h-12.5q-7 0 -13.5 0.5t-13.5 0.5q-9 1 -17.5 1t-16.5 1h-8.5h-8.5h-8.5h-8.5q-9 -1 -17.5 -1t-16.5 -1
q-6 0 -12 -0.5t-12 -0.5h-13h-12l8 33q22 -2 37 1t23 10t14.5 21t12.5 35q1 4 2 7.5t2 7.5l2 8l2 8t1.5 7.5t1.5 7.5q0 2 0.5 4t1.5 4t1.5 4t0.5 4q1 3 2 6.5t2 7.5q1 3 2 6.5t2 7.5l4 14l4 14q1 3 2 6.5t2 7.5q1 3 2 6.5t2 7.5q1 3 2 6.5t2 7.5q0 3 1 6.5t2 7.5q5 20 7 34
t2 24q-1 9 -11.5 15t-30.5 7v2v0z" />
    <glyph glyph-name="t" unicode="s" horiz-adv-x="336" 
d="M383 406l-13 -85l-27 -4v-1v0h-1v0v0l1 1v0.5v0.5q-1 14 -4.5 26t-9.5 23t-17 17t-26 6q-13 0 -25 -4t-23 -12q-11 -7 -18 -17.5t-11 -23.5q-4 -15 -2 -27.5t10 -22.5t17.5 -19.5t21.5 -18.5q2 -1 3.5 -2.5l3.5 -3.5q1 -1 2 -1.5t2 -0.5q0 -1 1 -1.5t2 -1.5
q14 -10 26 -22t22 -26q10 -13 12.5 -30.5t-3.5 -40.5q-8 -28 -24.5 -50.5t-41.5 -39.5q-24 -16 -50 -24t-53 -8h-4h-4q-2 1 -4 1h-4h-4h-3q-2 1 -4 1h-4q-10 1 -19.5 2.5t-17.5 2.5q-9 2 -17.5 5t-16.5 7l15 104l28 5q-1 -20 1 -36.5t7 -31.5t18.5 -22.5t35.5 -7.5
q15 0 29.5 4.5t27.5 13.5t22 21t13 28q3 12 1.5 22.5t-8.5 19.5q-3 5 -7 9t-8 9q-4 4 -8 8.5t-9 8.5q-4 2 -7 4t-5 4q-3 2 -6 4.5t-5 4.5q-13 11 -25 23.5t-22 25.5q-10 14 -11.5 32.5t4.5 40.5q8 28 22.5 49.5t37.5 36.5t47.5 23t51.5 8h3.5h2.5q2 -1 3.5 -1h2.5h3h3h2.5
h2.5q8 -1 16.5 -3l16.5 -4q4 -1 8 -2.5t8 -2.5q4 -2 7.5 -3t7.5 -3v2v0z" />
    <glyph glyph-name="u" unicode="t" horiz-adv-x="303" 
d="M279 522h27l-36 -127h128l-24 -40h-118l-33 -121q-1 -5 -2 -9l-2 -8q-2 -8 -3.5 -16t-4.5 -16l-6 -23.5l-6 -22.5q0 -1 -0.5 -2.5t-0.5 -2.5l-1.5 -3t-0.5 -3q0 -1 -0.5 -2.5t-0.5 -2.5q-1 -2 -1 -3v-3q-4 -16 -4 -30t4 -28q2 -13 14 -19.5t31 -6.5q7 0 13.5 1l13.5 2
q7 2 14 3.5t15 4.5l3 -24q-6 -4 -12 -6t-12 -5q-7 -2 -13 -3.5t-12 -3.5q-12 -2 -24 -4.5t-23 -3.5h-2.5t-2.5 -1h-3h-2h-4.5h-4.5q-25 0 -41.5 5.5t-25.5 17.5t-9.5 30.5t6.5 42.5q1 3 1.5 6.5t1.5 7.5q1 3 2.5 7t2.5 8q0 2 0.5 3.5t1.5 3.5q1 1 1.5 3t0.5 4t0.5 3.5
t1.5 3.5q1 1 1.5 3t0.5 4l56 209h-55l14 28q20 11 39.5 25.5t37.5 32.5t32.5 37.5t25.5 41.5v2v0z" />
    <glyph glyph-name="v" unicode="u" horiz-adv-x="522" 
d="M494 39l-8 -29q-11 -2 -22 -3.5t-22 -3.5q-6 -1 -11 -1.5t-11 -1.5q-16 -1 -32.5 -5l-33.5 -8l-8 13l6 14.5t7 15.5l6 16t5 16q-19 -15 -39.5 -28t-43.5 -24q-11 -5 -22 -8.5t-22 -6.5t-22 -4.5t-22 -1.5q-30 0 -48.5 9.5t-25.5 29.5q-6 20 -6.5 42.5t3.5 47.5
q0 2 0.5 3.5t0.5 3.5l0.5 0.5t0.5 1.5t0.5 2t0.5 2q0 2 0.5 3.5t1.5 3.5q0 1 0.5 3t0.5 3q1 2 1.5 4.5t1.5 5.5q1 2 1.5 4.5t0.5 4.5q2 5 3.5 10t3.5 10q1 5 2.5 9.5t2.5 8.5q1 5 2.5 10t2.5 10q2 6 3.5 12t2.5 12l2 6l2 6l2 6l2 6q2 6 3.5 12t2.5 12l2 6l2 6q0 3 1 6l2 6
q5 19 5 31.5t-5 19.5q-4 6 -15 9.5t-29 3.5l9 34q1 -2 2.5 -2.5t2.5 -0.5h1.5h1.5h0.5h1.5h31.5t30.5 1q15 0 31.5 2t32.5 5l-17.5 -56.5l-16.5 -57.5l-16 -56.5l-16 -57.5v-1.5v-0.5q-1 -1 -1 -1.5v-1.5q-1 -1 -1 -2.5v-2.5q-1 -2 -1.5 -4t-0.5 -4t-0.5 -4t-1.5 -4
q0 -1 -0.5 -2.5t-0.5 -3.5q-1 -2 -1.5 -4.5t-0.5 -5.5q-4 -19 -4.5 -36.5t2.5 -33.5t17 -24t38 -8q16 0 31.5 3t30.5 10q15 6 30 14t31 18l42 160q0 1 0.5 2.5t1.5 3.5t1.5 4t0.5 4q1 2 1 3t1 3v1t1 2q0 2 1 4l2 4q0 2 0.5 4t1.5 4t1.5 4t0.5 4q1 2 1.5 4t1.5 5q0 2 0.5 4
t1.5 4q5 18 5.5 30.5t-4.5 19.5q-4 7 -15 10.5t-30 3.5l9 34q0 -2 1 -2.5t2 -0.5h2h2h2h2h1h2h4h4q1 0 2 -0.5t2 -0.5h1h2h4h4h12h13q6 0 12 0.5t12 1.5q4 1 8.5 1.5t8.5 0.5q9 1 17.5 2.5t16.5 2.5l-7 -18l-9.5 -33t-9.5 -32q-4 -16 -8.5 -31.5t-9.5 -30.5l-4 -16t-4 -15
l-4 -16l-4 -16q-4 -16 -8.5 -31.5l-8.5 -30.5q-1 -2 -1.5 -4t-0.5 -4q0 -1 -0.5 -2l-0.5 -1q-1 -1 -1 -2v-2q-4 -13 -7 -25.5t-5 -23.5t-3 -18.5t0 -10.5q1 -5 3.5 -8.5t6.5 -5.5q5 -1 9.5 -2.5t9.5 -2.5h2h2q1 -1 2 -1h2h4h4v0h1v0v0h0.5h1.5v2v0z" />
    <glyph glyph-name="w" unicode="v" horiz-adv-x="438" 
d="M100 385l9 34q5 -2 11 -3t12 -1q3 0 6 -0.5t6 -0.5q2 -1 5 -1h6q5 -1 11 -1h12h12h12h13.5h13.5q6 0 12.5 0.5t13.5 0.5q14 0 27.5 1.5t27.5 2.5l-9 -32h-14q-1 -2 -2 -2h-1v0v0h-1v0q-5 0 -9.5 -1t-8.5 -3q-2 0 -4.5 -1t-4.5 -2q-7 -3 -11.5 -7.5t-6.5 -11.5
q0 -2 -0.5 -4t-1.5 -4v-2v-1v-2v-2t-0.5 -3t-0.5 -3q0 -2 0.5 -3.5t0.5 -3.5q1 -3 1.5 -6t1.5 -6v-5.5t1 -4.5v-4.5t1 -4.5l25 -185l95 139q2 2 4.5 6t6.5 8q3 5 6 9.5t7 9.5q1 1 1 1.5t1 0.5q1 2 2 3.5t2 2.5q2 2 3.5 4.5t2.5 5.5q2 3 4.5 6t4.5 7l4 6t3 6l6 12t4 12
q2 8 1 13.5t-6 8.5t-10.5 5t-11.5 3h-2.5t-2.5 1h-2h-2h-4h-4l10 36q10 -3 20.5 -4.5t21.5 -1.5q11 -1 22 -1h22h10h10h4.5t5.5 1h4.5h5.5t6.5 0.5t7.5 0.5q2 0 3.5 0.5t3.5 0.5q5 0 10 0.5t11 1.5l-9 -32q-5 -2 -10 -3l-10 -2q-3 0 -5 -0.5t-5 -1.5q-2 0 -4.5 -1t-4.5 -2
q-5 -2 -9.5 -4.5t-8.5 -6.5q-4 -3 -8 -7t-7 -8l-8 -8t-8 -9l-14.5 -18.5t-14.5 -19.5l-9.5 -13.5l-8.5 -12.5l-9 -13t-8 -11l-98 -140l-19.5 -30l-19.5 -28t-19 -28l-17 -27h-19v3.5v3.5q0 1 -0.5 2.5t-0.5 2.5q0 2 -0.5 3.5t-0.5 2.5q0 2 -0.5 3.5t-0.5 2.5v1.5v1.5v0.5
v1.5q-1 1 -1 2v2q0 3 -0.5 6t-0.5 6q0 1 -0.5 2.5t-0.5 3.5q0 4 -0.5 8.5t-0.5 8.5q0 5 -0.5 9t-1.5 9q-1 4 -1.5 8.5t-1.5 8.5l-22 162q-1 3 -2 8.5t-2 12.5q0 4 -1 7.5t-1 7.5q-1 4 -2 7.5t-1 7.5l-2 8l-2 8t-1.5 7.5t-1.5 7.5q-1 5 -2.5 9t-3.5 8l-3.5 7t-3.5 6l-7.5 5.5
t-7.5 3.5q-2 1 -4 1.5t-4 1.5q-3 0 -5 0.5t-4 1.5h-2.5h-2.5h-1.5t-0.5 1h-0.5h-1.5v2v0z" />
    <glyph glyph-name="x" unicode="w" horiz-adv-x="616" 
d="M100 385l9 33q9 -2 18.5 -3.5t19.5 -2.5q5 0 10 -0.5t11 -0.5h10h10h22.5t23.5 1l24 2l24 2l-8 -31q-2 -2 -4 -2.5t-4 -0.5h-2h-2q-1 -1 -2 -1h-2q-4 -1 -7.5 -2t-6.5 -2q-2 -1 -3.5 -1.5t-3.5 -1.5q-5 -3 -8 -7t-5 -9q-1 -2 -1.5 -4t-0.5 -4q0 -1 -0.5 -2l-0.5 -1
q0 -1 0.5 -2t1.5 -2q-1 -3 -1 -5.5t1 -4.5q0 -3 0.5 -5t1.5 -4v-2v-2v-0.5v-1.5v-1.5t1 -0.5q0 -1 0.5 -1.5t0.5 -1.5l19 -192l127 182q-1 1 -1.5 3.5t-0.5 5.5q0 2 -0.5 3t-0.5 3v2.5v2.5q-1 12 -4.5 22.5t-7.5 19.5q-4 8 -14.5 12.5t-27.5 5.5l10 35q5 -2 11 -3t12 -1
q4 0 8 -0.5t8 -1.5h4h4h6h6q3 -1 6 -1h6h6h7h6h6h12.5h13.5h6t7 1h6.5h6.5q6 0 12.5 0.5t13.5 1.5q6 0 12.5 0.5t13.5 1.5l-8 -31q-2 -2 -4 -2.5t-4 -1.5h-2h-2h-2.5h-2.5q-2 -1 -3 -1h-3h-1.5h-0.5h-1.5h-0.5q-7 0 -13.5 -1t-12.5 -3q-7 -2 -11.5 -7t-6.5 -13q0 -1 -0.5 -2
t-0.5 -2q-1 -4 -1.5 -7t0.5 -6q0 -4 0.5 -8t1.5 -8l26 -202l98 157q1 0 1 0.5t1 0.5q1 2 2 3.5t2 3.5q2 2 3.5 5t3.5 6q2 2 3 4.5t3 4.5l6 10l6 10q5 8 8 15.5t5 14.5q2 8 1.5 13t-4.5 6q-2 1 -4 1.5t-4 1.5t-4 1.5t-4 0.5h-5.5h-4.5t-4 1l-4 2l10 35q9 -2 18.5 -3l19.5 -2
t19.5 -1h19.5h4h5h4h4h4t5 1h4h4h4t4 1h4.5h4.5q5 0 9.5 0.5t8.5 1.5l-8 -31q-14 -2 -26 -8t-23 -16q-10 -10 -18.5 -21l-16.5 -22q-3 -4 -5.5 -8t-4.5 -8l-5.5 -7.5l-4.5 -6.5l-116 -174l-19.5 -31l-18.5 -30l-18 -29.5t-18 -27.5h-19q0 5 -1 11t-1 13l-2 12.5t-1 13.5
l-2 13.5t-1 13.5l-2 12.5l-2 13.5l-22 157l-108 -155q-3 -5 -5.5 -8.5t-4.5 -7.5q-1 -2 -2.5 -3.5t-2.5 -3.5q-4 -5 -7.5 -10.5l-6.5 -10.5l-12 -16t-11 -16q-4 -7 -9.5 -14.5l-10.5 -14.5h-18q-1 7 -1.5 15.5t-0.5 17.5q0 5 -0.5 9t-0.5 9q-1 4 -1.5 8.5t-0.5 8.5
q-1 2 -1 3.5v2.5q-1 2 -1 4t1 4l-2 14t-1 14q-1 7 -1.5 14t-0.5 14l-15 137q-1 1 -1.5 3t0.5 5q-1 3 -1 6v6v0v0q-1 0 -1 0.5v0.5v0.5t1 1.5q-2 15 -4.5 29t-6.5 27q-4 14 -14.5 22t-27.5 11v2v0z" />
    <glyph glyph-name="y" unicode="x" horiz-adv-x="449" 
d="M123 386l9 32q11 -2 21.5 -3.5t22.5 -2.5q11 -1 22.5 -1h22.5h12h12q5 0 11 0.5t12 0.5l24 2l24 2l-8 -30h-9q-1 -2 -1.5 -2h-0.5v0v0h-1.5h-1.5q-1 -1 -1.5 -1h-0.5h-2h-2q-3 -1 -6 -1.5t-6 -2.5q-3 -1 -4.5 -3t-2.5 -5q-1 -5 -1 -11t1 -14q1 -4 2 -7.5t3 -6.5
q1 -4 2.5 -7.5t3.5 -7.5q0 -1 0.5 -1.5t0.5 -1.5t0.5 -2.5t1.5 -2.5q1 -2 2 -3.5t2 -3.5q2 -7 4.5 -13t5.5 -11q3 -6 5.5 -10.5t3.5 -7.5l3.5 3.5t3.5 2.5l3.5 3.5l3.5 3.5l3.5 3.5t2.5 3.5q2 1 3.5 3t3.5 3l11.5 12l10.5 12q3 3 5.5 6t5.5 6q8 9 14.5 18.5t10.5 19.5
q2 7 1 11.5t-5 6.5t-9 3.5t-11 1.5h-1.5t-0.5 1v0v0h-0.5h-0.5h-2h-2l9 34q5 -2 10 -3t10 -1q5 -1 10 -1.5t11 -0.5h5.5h5.5q2 -1 4.5 -1h5.5h10.5h11.5h19.5t18.5 1q6 1 12.5 1.5t13.5 0.5q3 1 6.5 1.5t6.5 0.5l-8 -30q-20 -2 -39.5 -9.5t-38.5 -22.5t-37 -31t-35 -33
q-3 -4 -6.5 -8t-7.5 -8l-7.5 -7.5t-6.5 -7.5q-7 -7 -13 -14t-12 -13l48 -117q1 -5 2.5 -8.5t2.5 -7.5q1 -1 1 -2.5t1 -3.5t2 -4.5t2 -4.5q2 -6 5 -12l6 -12t6 -10.5t7 -7.5q2 -3 5.5 -5t7.5 -3q3 -1 7 -2t8 -1v0v0v0h1v0v0h2h2q1 -1 2 -1h2q2 -1 3.5 -1.5t3.5 -0.5l-7 -28
h-22t-22 1q-10 1 -20.5 1.5t-21.5 0.5h-6.5h-6.5h-3.5h-3.5q-5 -1 -9.5 -1h-9.5q-10 -1 -19.5 -1.5t-18.5 -0.5h-3h-3h-3.5h-3.5h-6h-6l8 30h8q0 -2 1 -2h2h1.5h1.5h0.5h1.5q5 0 9 1.5t8 2.5q5 2 8 5.5t4 8.5v2v2v0.5t1 1.5v0.5v1.5q-1 3 -1.5 6t-1.5 6q0 2 -0.5 3t-0.5 3
l-0.5 0.5l-0.5 0.5q0 1 -0.5 2t-0.5 2q-1 1 -1.5 2t-1.5 2v1.5v1.5q-1 0 -1 0.5v1.5l-37 89l-9 -11t-13 -13l-14 -14l-15 -15q-1 -2 -3 -4l-4 -4l-2.5 -2.5l-3.5 -3.5l-17 -19l-15 -17q-7 -9 -11 -15.5t-5 -11.5v1q-1 -5 -0.5 -8t3.5 -5q2 -1 6 -2.5t8 -1.5h0.5h0.5v0v0
q0 -1 0.5 -1h1.5h1.5h1.5h0.5h1.5h0.5h1.5h0.5h1.5l7 2l-8 -30h-20.5t-21.5 1q-5 0 -10 0.5t-10 0.5q-6 1 -11 1h-10h-3.5h-3.5h-2h-2q-3 -1 -5.5 -1h-4.5h-10h-10q-5 -1 -10 -1.5t-10 -0.5h-10h-10l8 30q15 0 28 3t24 8t21.5 12.5t21.5 16.5l6 6l7 7q3 3 7 6.5t8 7.5
l106 107l-52 124q-2 4 -4 7.5t-3 7.5q-2 4 -3.5 7.5t-3.5 6.5q-4 7 -9 12t-11 8t-15.5 4.5t-22.5 2.5v2v0z" />
    <glyph glyph-name="z" unicode="y" horiz-adv-x="432" 
d="M100 386l9 32q5 -2 10.5 -3t11.5 -1q5 -1 10.5 -1.5t11.5 -0.5h5.5h5.5q2 -1 5 -1h6h12h12h12h13q6 0 12 0.5t12 0.5q8 1 16.5 1.5t17.5 0.5q4 1 8.5 1.5t8.5 0.5l-8 -30q-2 -2 -4.5 -2h-5.5h-2.5h-3.5q-1 -1 -2.5 -1h-2.5q-6 -1 -11.5 -3l-10.5 -4q-6 -3 -9 -7t-5 -10
q-1 -2 -1.5 -4t-0.5 -4q0 -1 -0.5 -2l-0.5 -1q0 -1 0.5 -2t0.5 -2q-1 -4 -1 -8t1 -8q0 -4 0.5 -8t1.5 -7q0 -1 -0.5 -2l-0.5 -1q0 -1 0.5 -2t0.5 -2v-1.5t1 -1.5v-1.5v-1.5l24 -202l92 142q2 2 4.5 5t4.5 7q2 2 3 4t3 4q1 2 2.5 4t2.5 4q7 10 13.5 20.5l13.5 21.5t12 22
t8 22q2 8 0.5 14t-6.5 9q-3 2 -7.5 3.5t-8.5 2.5q-2 0 -4 0.5t-4 0.5h-2h-1h-2h-2h-2.5h-3.5l9 34q2 -2 4.5 -2.5t5.5 -0.5h3h3q1 -1 2.5 -1h2.5h3h2q1 -1 2.5 -1h2.5h6h6q5 -1 10.5 -1.5t11.5 -0.5h10.5h11.5h21.5t20.5 1l22 2l22 2l-8 -30q-26 -5 -46 -13.5t-32 -22.5
q-14 -14 -26.5 -30.5t-23.5 -35.5l-4 -6t-3 -5q-2 -3 -3.5 -6t-3.5 -6l-4 -6t-3 -5l-4 -6l-4 -6l-150 -223l-14 -20.5l-16 -23.5l-18.5 -27.5l-19.5 -27.5q-16 -23 -35 -44.5t-39 -40.5q-20 -20 -39.5 -29.5t-39.5 -9.5q-8 0 -14.5 3t-9.5 9q-5 6 -6.5 13t0.5 15
q3 10 7.5 17t12.5 12q8 4 16.5 7t16.5 5q2 0 2.5 0.5l1.5 1.5h1.5h0.5h3.5h2.5q19 3 35 10.5t30 21.5q13 13 25.5 28t23.5 31q2 2 3 4t3 4q1 2 2.5 4t2.5 4t2.5 4t3.5 4q1 2 2.5 4t2.5 4q1 1 1 1.5t1 0.5v0v0l1 1l2 2l-29 243l-6 42q-1 5 -2 11t-1 12q-1 6 -1.5 11.5
t-0.5 10.5q-1 11 -5 20t-9 15q-4 6 -15 10t-27 6l-1 2v0z" />
    <glyph glyph-name="braceleft" unicode="z" horiz-adv-x="415" 
d="M178 433h19q4 -4 8 -6.5t8 -4.5q3 -2 6.5 -3.5t7.5 -2.5q5 -1 9.5 -2.5t10.5 -1.5q5 -1 12 -1h14l218 2l2 -11l-363 -365q10 -2 20 -3t20 -1h20.5h19.5q29 0 52 1.5t41 5.5t37 16t40 33q2 3 5 6l6 6q2 3 5 7t7 8l24 -5l-64 -111h-12.5h-12.5h-13h-12h-12h-12h-13h-12
l-63 2q-11 -2 -22.5 -2h-22.5h-22h-22h-11.5h-10.5h-11.5h-11.5h-22h-22l-5 11q6 4 12 10t13 12l12.5 12.5l13.5 13.5l6 6t6 7l6 6l6 6t6.5 6t6.5 7q3 3 6.5 6t6.5 6l265 271h-104q-22 -2 -40.5 -5t-32.5 -9q-15 -6 -28.5 -20.5t-27.5 -37.5l-27 6l54 119v0v0z" />
    <glyph glyph-name="bar" unicode="{" horiz-adv-x="501" 
d="M187 311l4 15q20 -1 38.5 3t35.5 11q17 8 28 23.5t18 39.5q1 5 2.5 10t2.5 10q2 5 2.5 10t1.5 10q1 2 1.5 4.5t1.5 5.5q1 2 1.5 4.5t1.5 5.5q1 4 2 7.5t2 7.5q0 4 1 7.5t2 7.5t2 7.5t2 7.5t2 7.5t2 7.5q12 46 26.5 82t30.5 61q17 26 51.5 39.5t86.5 14.5h6.5h7.5h7.5
t7.5 1h6.5h7.5h7.5h7.5l-6 -20q-31 -2 -56.5 -7.5t-45.5 -14.5q-21 -10 -36.5 -32.5t-25.5 -57.5l-46 -171q-6 -20 -15 -36.5t-22 -29.5q-12 -13 -28.5 -21t-37.5 -13l-1 -1q20 -5 31.5 -15t15.5 -27q4 -16 4 -33.5t-3 -35.5q0 -1 -0.5 -2l-0.5 -1q0 -1 -0.5 -2t-0.5 -2
q-1 -2 -1.5 -4t-0.5 -4l-6 -19.5t-5 -18.5l-5.5 -19t-4.5 -18l-6 -19.5t-5 -18.5q-1 -5 -2.5 -10t-2.5 -9q-2 -5 -3 -9.5t-3 -9.5q-10 -38 -9.5 -64t12.5 -39q11 -14 36 -21t62 -7l-6 -22h-15q-40 1 -72.5 6t-55.5 14q-24 9 -29 38.5t8 78.5l9.5 33.5l8.5 32.5l10 33.5
l10 32.5l2 8t2 9l2 8l2 8t2.5 8t2.5 9q1 4 2.5 8t2.5 8q8 26 6 43.5t-13 25.5q-12 8 -28.5 12.5t-39.5 5.5v2v0z" />
    <glyph glyph-name="braceright" unicode="|" horiz-adv-x="501" 
d="M401 667h54l-86 -323l-137 -511h-54l86 322l137 512v0v0z" />
    <glyph glyph-name="asciitilde" unicode="}" horiz-adv-x="501" 
d="M483 326l-4 -15q-22 -2 -41 -6.5t-35 -12.5q-16 -7 -27.5 -23.5t-17.5 -41.5q-4 -13 -7.5 -25.5t-6.5 -25.5q-4 -13 -6.5 -25.5t-4.5 -24.5q-4 -13 -7.5 -26l-6.5 -25q-2 -6 -3.5 -12.5t-2.5 -12.5q-2 -7 -3.5 -13.5t-3.5 -12.5q-10 -37 -26 -63t-36 -41t-49 -23t-67 -9
h-7.5h-7.5h-7.5t-7.5 -1h-7.5h-7.5h-7.5h-7.5l6 22q32 0 57.5 5t46.5 16q20 10 35 32.5t25 55.5l6 22.5l6 22.5l6 22.5t7 23.5l6 22.5l6 22.5l6 22.5l6 23.5q6 21 14.5 39.5t20.5 34.5t30 26.5t42 14.5l1 5q-18 3 -30 11t-18 21q-5 13 -6 29t4 35l33 124q12 43 14.5 73.5
t-3.5 48.5q-6 17 -31.5 26.5t-71.5 10.5l6 24q1 -2 2 -2h2h1.5h1.5h0.5h1.5q1 -1 2 -1h2h1.5h1.5h0.5h1.5q47 0 79.5 -5t51.5 -16q20 -10 22 -45t-14 -94l-6 -19.5l-6 -19.5q-1 -5 -2.5 -10t-2.5 -9q-1 -5 -2.5 -9.5t-2.5 -9.5l-6 -20l-6 -20q-2 -10 -4.5 -19.5t-5.5 -18.5
q-7 -25 -4 -40.5t15 -23.5q11 -7 28 -11.5t39 -5.5v2v0z" />
    <glyph glyph-name="bullet" unicode="~" horiz-adv-x="501" 
d="M564 400l14 -8q-16 -20 -36 -37t-43 -32t-45.5 -22t-45.5 -7q-13 0 -25 1.5t-23 4.5q-7 2 -14 4.5t-14 4.5l-7 3.5t-7 2.5q-10 4 -21 7.5t-22 6.5t-22.5 5t-23.5 2q-13 0 -26 -3.5t-24 -10.5l-22 -14.5l-22 -15.5q-1 -1 -2 -1.5l-1 -0.5l-1 -1v0l-1 -1l-1 -1q-2 -1 -3 -2
l-2 -2t-2 -1.5t-2 -1.5l-0.5 -0.5l-0.5 -0.5q-1 0 -1.5 -0.5l-0.5 -0.5l-13 11v-1v0l0.5 0.5l1.5 1.5q17 17 36.5 33t41.5 31t44.5 22.5t45.5 7.5q12 0 23 -1.5t21 -4.5q11 -3 21 -6.5t20 -7.5t20.5 -7.5t20.5 -6.5t21.5 -4.5t23.5 -1.5q8 0 15.5 1t15.5 3t15.5 4.5
t15.5 6.5q16 8 29.5 17.5t26.5 21.5l1 2v0z" />
    <glyph glyph-name="Adieresis" unicode="&#xc4;" 
 />
    <glyph glyph-name="Aring" unicode="&#xc5;" 
 />
    <glyph glyph-name="Ccedilla" unicode="&#xc7;" 
 />
    <glyph glyph-name="Eacute" unicode="&#xc9;" 
 />
    <glyph glyph-name="Ntilde" unicode="&#xd1;" 
 />
    <glyph glyph-name="Odieresis" unicode="&#xd6;" 
 />
    <glyph glyph-name="Udieresis" unicode="&#xdc;" 
 />
    <glyph glyph-name="aacute" unicode="&#xe1;" 
 />
    <glyph glyph-name="agrave" unicode="&#xe0;" 
 />
    <glyph glyph-name="acircumflex" unicode="&#xe2;" 
 />
    <glyph glyph-name="adieresis" unicode="&#xe4;" 
 />
    <glyph glyph-name="atilde" unicode="&#xe3;" 
 />
    <glyph glyph-name="aring" unicode="&#xe5;" 
 />
    <glyph glyph-name="ccedilla" unicode="&#xe7;" 
 />
    <glyph glyph-name="eacute" unicode="&#xe9;" 
 />
    <glyph glyph-name="egrave" unicode="&#xe8;" 
 />
    <glyph glyph-name="ecircumflex" unicode="&#xea;" 
 />
    <glyph glyph-name="edieresis" unicode="&#xeb;" 
 />
    <glyph glyph-name="iacute" unicode="&#xed;" 
 />
    <glyph glyph-name="igrave" unicode="&#xec;" 
 />
    <glyph glyph-name="icircumflex" unicode="&#xee;" 
 />
    <glyph glyph-name="idieresis" unicode="&#xef;" 
 />
    <glyph glyph-name="ntilde" unicode="&#xf1;" 
 />
    <glyph glyph-name="oacute" unicode="&#xf3;" 
 />
    <glyph glyph-name="ograve" unicode="&#xf2;" 
 />
    <glyph glyph-name="ocircumflex" unicode="&#xf4;" 
 />
    <glyph glyph-name="odieresis" unicode="&#xf6;" 
 />
    <glyph glyph-name="otilde" unicode="&#xf5;" 
 />
    <glyph glyph-name="uacute" unicode="&#xfa;" 
 />
    <glyph glyph-name="ugrave" unicode="&#xf9;" 
 />
    <glyph glyph-name="ucircumflex" unicode="&#xfb;" 
 />
    <glyph glyph-name="udieresis" unicode="&#xfc;" 
 />
    <glyph glyph-name="dagger" unicode="&#x2020;" 
 />
    <glyph glyph-name="glyph131" 
 />
    <glyph glyph-name="cent" unicode="&#xa2;" 
 />
    <glyph glyph-name="sterling" unicode="&#xa3;" 
 />
    <glyph glyph-name="section" unicode="&#xa7;" 
 />
    <glyph glyph-name="glyph135" horiz-adv-x="670" 
 />
    <glyph glyph-name="paragraph" unicode="&#xb6;" 
 />
    <glyph glyph-name="germandbls" unicode="&#xdf;" 
 />
    <glyph glyph-name="registered" unicode="&#xae;" 
 />
    <glyph glyph-name="copyright" unicode="&#xa9;" 
 />
    <glyph glyph-name="trademark" unicode="&#x2122;" 
 />
    <glyph glyph-name="acute" unicode="&#xb4;" 
 />
    <glyph glyph-name="dieresis" unicode="&#xa8;" 
 />
    <glyph glyph-name="notequal" unicode="&#x2260;" 
 />
    <glyph glyph-name="AE" unicode="&#xc6;" 
 />
    <glyph glyph-name="Oslash" unicode="&#xd8;" 
 />
    <glyph glyph-name="infinity" unicode="&#x221e;" 
 />
    <glyph glyph-name="plusminus" unicode="&#xb1;" 
 />
    <glyph glyph-name="lessequal" unicode="&#x2264;" 
 />
    <glyph glyph-name="greaterequal" unicode="&#x2265;" 
 />
    <glyph glyph-name="yen" unicode="&#xa5;" 
 />
    <glyph glyph-name="uni00B5" unicode="&#xb5;" 
 />
    <glyph glyph-name="partialdiff" unicode="&#x2202;" 
 />
    <glyph glyph-name="Sigma" unicode="&#x3a3;" 
 />
    <glyph glyph-name="product" unicode="&#x220f;" 
 />
    <glyph glyph-name="pi" unicode="&#x3c0;" 
 />
    <glyph glyph-name="integral" unicode="&#x222b;" 
 />
    <glyph glyph-name="ordfeminine" unicode="&#xaa;" 
 />
    <glyph glyph-name="ordmasculine" unicode="&#xba;" 
 />
    <glyph glyph-name="Omega" unicode="&#x3a9;" 
 />
    <glyph glyph-name="ae" unicode="&#xe6;" 
 />
    <glyph glyph-name="oslash" unicode="&#xf8;" 
 />
    <glyph glyph-name="questiondown" unicode="&#xbf;" 
 />
    <glyph glyph-name="exclamdown" unicode="&#xa1;" 
 />
    <glyph glyph-name="logicalnot" unicode="&#xac;" 
 />
    <glyph glyph-name="radical" unicode="&#x221a;" 
 />
    <glyph glyph-name="florin" unicode="&#x192;" 
 />
    <glyph glyph-name="approxequal" unicode="&#x2248;" 
 />
    <glyph glyph-name="uni2206" unicode="&#x2206;" 
 />
    <glyph glyph-name="guillemotleft" unicode="&#xab;" 
 />
    <glyph glyph-name="guillemotright" unicode="&#xbb;" 
 />
    <glyph glyph-name="ellipsis" unicode="&#x2026;" 
 />
    <glyph glyph-name="Agrave" unicode="&#xc0;" 
 />
    <glyph glyph-name="Atilde" unicode="&#xc3;" 
 />
    <glyph glyph-name="Otilde" unicode="&#xd5;" 
 />
    <glyph glyph-name="OE" unicode="&#x152;" 
 />
    <glyph glyph-name="oe" unicode="&#x153;" 
 />
    <glyph glyph-name="glyph177" 
 />
    <glyph glyph-name="emdash" unicode="&#x2014;" 
 />
    <glyph glyph-name="quotedblleft" unicode="&#x201c;" 
 />
    <glyph glyph-name="quotedblright" unicode="&#x201d;" 
 />
    <glyph glyph-name="quoteleft" unicode="&#x2018;" 
 />
    <glyph glyph-name="quoteright" unicode="&#x2019;" 
 />
    <glyph glyph-name="divide" unicode="&#xf7;" 
 />
    <glyph glyph-name="lozenge" unicode="&#x25ca;" 
 />
    <glyph glyph-name="ydieresis" unicode="&#xff;" 
 />
    <glyph glyph-name="Ydieresis" unicode="&#x178;" 
 />
    <glyph glyph-name="uni2215" unicode="&#x2215;" 
 />
    <glyph glyph-name="currency" unicode="&#xa4;" 
 />
    <glyph glyph-name="guilsinglleft" unicode="&#x2039;" 
 />
    <glyph glyph-name="guilsinglright" unicode="&#x203a;" 
 />
    <glyph glyph-name="uniF001" unicode="&#xf001;" 
 />
    <glyph glyph-name="uniF002" unicode="&#xf002;" 
 />
    <glyph glyph-name="daggerdbl" unicode="&#x2021;" 
 />
    <glyph glyph-name="uni2219" unicode="&#x2219;" 
 />
    <glyph glyph-name="quotesinglbase" unicode="&#x201a;" 
 />
    <glyph glyph-name="quotedblbase" unicode="&#x201e;" 
 />
    <glyph glyph-name="perthousand" unicode="&#x2030;" 
 />
    <glyph glyph-name="Acircumflex" unicode="&#xc2;" 
 />
    <glyph glyph-name="Ecircumflex" unicode="&#xca;" 
 />
    <glyph glyph-name="Aacute" unicode="&#xc1;" 
 />
    <glyph glyph-name="Edieresis" unicode="&#xcb;" 
 />
    <glyph glyph-name="Egrave" unicode="&#xc8;" 
 />
    <glyph glyph-name="Iacute" unicode="&#xcd;" 
 />
    <glyph glyph-name="Icircumflex" unicode="&#xce;" 
 />
    <glyph glyph-name="Idieresis" unicode="&#xcf;" 
 />
    <glyph glyph-name="Igrave" unicode="&#xcc;" 
 />
    <glyph glyph-name="Oacute" unicode="&#xd3;" 
 />
    <glyph glyph-name="Ocircumflex" unicode="&#xd4;" 
 />
    <glyph glyph-name="uniF000" unicode="&#xf000;" 
 />
    <glyph glyph-name="Ograve" unicode="&#xd2;" 
 />
    <glyph glyph-name="Uacute" unicode="&#xda;" 
 />
    <glyph glyph-name="Ucircumflex" unicode="&#xdb;" 
 />
    <glyph glyph-name="Ugrave" unicode="&#xd9;" 
 />
    <glyph glyph-name="dotlessi" unicode="&#x131;" 
 />
    <glyph glyph-name="tilde" unicode="&#x2dc;" 
 />
    <glyph glyph-name="circumflex" unicode="&#x2c6;" 
 />
    <glyph glyph-name="uni02C9" unicode="&#x2c9;" 
 />
    <glyph glyph-name="breve" unicode="&#x2d8;" 
 />
    <glyph glyph-name="dotaccent" unicode="&#x2d9;" 
 />
    <glyph glyph-name="ring" unicode="&#x2da;" 
 />
    <glyph glyph-name="cedilla" unicode="&#xb8;" 
 />
    <glyph glyph-name="uni02BA" unicode="&#x2ba;" 
 />
    <glyph glyph-name="ogonek" unicode="&#x2db;" 
 />
    <glyph glyph-name="caron" unicode="&#x2c7;" 
 />
    <glyph glyph-name="Lslash" unicode="&#x141;" 
 />
    <glyph glyph-name="lslash" unicode="&#x142;" 
 />
    <glyph glyph-name="Scaron" unicode="&#x160;" 
 />
    <glyph glyph-name="scaron" unicode="&#x161;" 
 />
    <glyph glyph-name="Zcaron" unicode="&#x17d;" 
 />
    <glyph glyph-name="zcaron" unicode="&#x17e;" 
 />
    <glyph glyph-name="brokenbar" unicode="&#xa6;" 
 />
    <glyph glyph-name="Eth" unicode="&#xd0;" 
 />
    <glyph glyph-name="eth" unicode="&#xf0;" 
 />
    <glyph glyph-name="Yacute" unicode="&#xdd;" 
 />
    <glyph glyph-name="yacute" unicode="&#xfd;" 
 />
    <glyph glyph-name="Thorn" unicode="&#xde;" 
 />
    <glyph glyph-name="thorn" unicode="&#xfe;" 
 />
    <glyph glyph-name="minus" unicode="&#x2212;" 
 />
    <glyph glyph-name="multiply" unicode="&#xd7;" 
 />
    <glyph glyph-name="uni00B9" unicode="&#xb9;" 
 />
    <glyph glyph-name="uni00B2" unicode="&#xb2;" 
 />
    <glyph glyph-name="uni00B3" unicode="&#xb3;" 
 />
    <glyph glyph-name="onehalf" unicode="&#xbd;" 
 />
    <glyph glyph-name="onequarter" unicode="&#xbc;" 
 />
    <glyph glyph-name="threequarters" unicode="&#xbe;" 
 />
    <glyph glyph-name="franc" unicode="&#x20a3;" 
 />
    <glyph glyph-name="Gbreve" unicode="&#x11e;" 
 />
    <glyph glyph-name="gbreve" unicode="&#x11f;" 
 />
    <glyph glyph-name="Idotaccent" unicode="&#x130;" 
 />
    <glyph glyph-name="Scedilla" unicode="&#x15e;" 
 />
    <glyph glyph-name="scedilla" unicode="&#x15f;" 
 />
    <glyph glyph-name="Cacute" unicode="&#x106;" 
 />
    <glyph glyph-name="cacute" unicode="&#x107;" 
 />
    <glyph glyph-name="Ccaron" unicode="&#x10c;" 
 />
    <glyph glyph-name="ccaron" unicode="&#x10d;" 
 />
    <glyph glyph-name="dcroat" unicode="&#x111;" 
 />
    <glyph glyph-name="arrowright" unicode="&#x2192;" 
 />
    <glyph glyph-name="house" unicode="&#x2302;" 
 />
    <glyph glyph-name="endash" unicode="&#x2013;" 
 />
    <glyph glyph-name="uni00AD" unicode="&#xad;" 
 />
    <glyph glyph-name="filledbox" unicode="&#x25a0;" 
 />
    <glyph glyph-name="glyph262" unicode="&#x2022;" 
 />
    <glyph glyph-name="macron" unicode="&#xaf;" 
 />
    <glyph glyph-name="degree" unicode="&#xb0;" 
 />
    <glyph glyph-name="periodcentered" unicode="&#xb7;" 
 />
    <glyph glyph-name="underscoredbl" unicode="&#x2017;" 
 />
    <glyph glyph-name="exclamdbl" unicode="&#x203c;" 
 />
    <glyph glyph-name="uni207F" unicode="&#x207f;" 
 />
    <glyph glyph-name="peseta" unicode="&#x20a7;" 
 />
    <glyph glyph-name="Gamma" unicode="&#x393;" 
 />
    <glyph glyph-name="Theta" unicode="&#x398;" 
 />
    <glyph glyph-name="Phi" unicode="&#x3a6;" 
 />
    <glyph glyph-name="alpha" unicode="&#x3b1;" 
 />
    <glyph glyph-name="delta" unicode="&#x3b4;" 
 />
    <glyph glyph-name="epsilon" unicode="&#x3b5;" 
 />
    <glyph glyph-name="sigma" unicode="&#x3c3;" 
 />
    <glyph glyph-name="tau" unicode="&#x3c4;" 
 />
    <glyph glyph-name="phi" unicode="&#x3c6;" 
 />
    <glyph glyph-name="arrowleft" unicode="&#x2190;" 
 />
    <glyph glyph-name="arrowup" unicode="&#x2191;" 
 />
    <glyph glyph-name="arrowdown" unicode="&#x2193;" 
 />
    <glyph glyph-name="arrowboth" unicode="&#x2194;" 
 />
    <glyph glyph-name="arrowupdn" unicode="&#x2195;" 
 />
    <glyph glyph-name="arrowupdnbse" unicode="&#x21a8;" 
 />
    <glyph glyph-name="orthogonal" unicode="&#x221f;" 
 />
    <glyph glyph-name="intersection" unicode="&#x2229;" 
 />
    <glyph glyph-name="equivalence" unicode="&#x2261;" 
 />
    <glyph glyph-name="revlogicalnot" unicode="&#x2310;" 
 />
    <glyph glyph-name="integraltp" unicode="&#x2320;" 
 />
    <glyph glyph-name="integralbt" unicode="&#x2321;" 
 />
    <glyph glyph-name="filledrect" unicode="&#x25ac;" 
 />
    <glyph glyph-name="circle" unicode="&#x25cb;" 
 />
    <glyph glyph-name="triagup" unicode="&#x25b2;" 
 />
    <glyph glyph-name="triagrt" unicode="&#x25ba;" 
 />
    <glyph glyph-name="triagdn" unicode="&#x25bc;" 
 />
    <glyph glyph-name="triaglf" unicode="&#x25c4;" 
 />
    <glyph glyph-name="invbullet" unicode="&#x25d8;" 
 />
    <glyph glyph-name="invcircle" unicode="&#x25d9;" 
 />
    <glyph glyph-name="Rcaron" unicode="&#x158;" 
 />
    <glyph glyph-name="upblock" unicode="&#x2580;" 
 />
    <glyph glyph-name="dnblock" unicode="&#x2584;" 
 />
    <glyph glyph-name="block" unicode="&#x2588;" 
 />
    <glyph glyph-name="lfblock" unicode="&#x258c;" 
 />
    <glyph glyph-name="rtblock" unicode="&#x2590;" 
 />
    <glyph glyph-name="ltshade" unicode="&#x2591;" 
 />
    <glyph glyph-name="shade" unicode="&#x2592;" 
 />
    <glyph glyph-name="dkshade" unicode="&#x2593;" 
 />
    <glyph glyph-name="smileface" unicode="&#x263a;" 
 />
    <glyph glyph-name="invsmileface" unicode="&#x263b;" 
 />
    <glyph glyph-name="sun" unicode="&#x263c;" 
 />
    <glyph glyph-name="female" unicode="&#x2640;" 
 />
    <glyph glyph-name="male" unicode="&#x2642;" 
 />
    <glyph glyph-name="spade" unicode="&#x2660;" 
 />
    <glyph glyph-name="club" unicode="&#x2663;" 
 />
    <glyph glyph-name="heart" unicode="&#x2665;" 
 />
    <glyph glyph-name="diamond" unicode="&#x2666;" 
 />
    <glyph glyph-name="musicalnote" unicode="&#x266a;" 
 />
    <glyph glyph-name="musicalnotedbl" unicode="&#x266b;" 
 />
    <glyph glyph-name="Abreve" unicode="&#x102;" 
 />
    <glyph glyph-name="abreve" unicode="&#x103;" 
 />
    <glyph glyph-name="Aogonek" unicode="&#x104;" 
 />
    <glyph glyph-name="aogonek" unicode="&#x105;" 
 />
    <glyph glyph-name="Dcaron" unicode="&#x10e;" 
 />
    <glyph glyph-name="dcaron" unicode="&#x10f;" 
 />
    <glyph glyph-name="Dcroat" unicode="&#x110;" 
 />
    <glyph glyph-name="Eogonek" unicode="&#x118;" 
 />
    <glyph glyph-name="eogonek" unicode="&#x119;" 
 />
    <glyph glyph-name="Ecaron" unicode="&#x11a;" 
 />
    <glyph glyph-name="ecaron" unicode="&#x11b;" 
 />
    <glyph glyph-name="Lacute" unicode="&#x139;" 
 />
    <glyph glyph-name="lacute" unicode="&#x13a;" 
 />
    <glyph glyph-name="Lcaron" unicode="&#x13d;" 
 />
    <glyph glyph-name="lcaron" unicode="&#x13e;" 
 />
    <glyph glyph-name="Nacute" unicode="&#x143;" 
 />
    <glyph glyph-name="nacute" unicode="&#x144;" 
 />
    <glyph glyph-name="Ncaron" unicode="&#x147;" 
 />
    <glyph glyph-name="ncaron" unicode="&#x148;" 
 />
    <glyph glyph-name="Ohungarumlaut" unicode="&#x150;" 
 />
    <glyph glyph-name="ohungarumlaut" unicode="&#x151;" 
 />
    <glyph glyph-name="Racute" unicode="&#x154;" 
 />
    <glyph glyph-name="racute" unicode="&#x155;" 
 />
    <glyph glyph-name="rcaron" unicode="&#x159;" 
 />
    <glyph glyph-name="Sacute" unicode="&#x15a;" 
 />
    <glyph glyph-name="sacute" unicode="&#x15b;" 
 />
    <glyph glyph-name="Tcommaaccent" unicode="&#x162;" 
 />
    <glyph glyph-name="tcommaaccent" unicode="&#x163;" 
 />
    <glyph glyph-name="Tcaron" unicode="&#x164;" 
 />
    <glyph glyph-name="tcaron" unicode="&#x165;" 
 />
    <glyph glyph-name="Uring" unicode="&#x16e;" 
 />
    <glyph glyph-name="uring" unicode="&#x16f;" 
 />
    <glyph glyph-name="uhungarumlaut" unicode="&#x171;" 
 />
    <glyph glyph-name="Uhungarumlaut" unicode="&#x170;" 
 />
    <glyph glyph-name="Zacute" unicode="&#x179;" 
 />
    <glyph glyph-name="zacute" unicode="&#x17a;" 
 />
    <glyph glyph-name="Zdotaccent" unicode="&#x17b;" 
 />
    <glyph glyph-name="zdotaccent" unicode="&#x17c;" 
 />
    <glyph glyph-name="Ldot" unicode="&#x13f;" 
 />
    <glyph glyph-name="ldot" unicode="&#x140;" 
 />
    <glyph glyph-name="SF100000" unicode="&#x2500;" 
 />
    <glyph glyph-name="SF110000" unicode="&#x2502;" 
 />
    <glyph glyph-name="SF010000" unicode="&#x250c;" 
 />
    <glyph glyph-name="SF030000" unicode="&#x2510;" 
 />
    <glyph glyph-name="SF020000" unicode="&#x2514;" 
 />
    <glyph glyph-name="SF040000" unicode="&#x2518;" 
 />
    <glyph glyph-name="SF080000" unicode="&#x251c;" 
 />
    <glyph glyph-name="SF090000" unicode="&#x2524;" 
 />
    <glyph glyph-name="SF060000" unicode="&#x252c;" 
 />
    <glyph glyph-name="SF070000" unicode="&#x2534;" 
 />
    <glyph glyph-name="SF050000" unicode="&#x253c;" 
 />
    <glyph glyph-name="SF430000" unicode="&#x2550;" 
 />
    <glyph glyph-name="SF240000" unicode="&#x2551;" 
 />
    <glyph glyph-name="SF510000" unicode="&#x2552;" 
 />
    <glyph glyph-name="SF520000" unicode="&#x2553;" 
 />
    <glyph glyph-name="SF390000" unicode="&#x2554;" 
 />
    <glyph glyph-name="SF220000" unicode="&#x2555;" 
 />
    <glyph glyph-name="SF210000" unicode="&#x2556;" 
 />
    <glyph glyph-name="SF250000" unicode="&#x2557;" 
 />
    <glyph glyph-name="SF500000" unicode="&#x2558;" 
 />
    <glyph glyph-name="SF490000" unicode="&#x2559;" 
 />
    <glyph glyph-name="SF380000" unicode="&#x255a;" 
 />
    <glyph glyph-name="SF280000" unicode="&#x255b;" 
 />
    <glyph glyph-name="SF270000" unicode="&#x255c;" 
 />
    <glyph glyph-name="SF260000" unicode="&#x255d;" 
 />
    <glyph glyph-name="SF360000" unicode="&#x255e;" 
 />
    <glyph glyph-name="SF370000" unicode="&#x255f;" 
 />
    <glyph glyph-name="SF420000" unicode="&#x2560;" 
 />
    <glyph glyph-name="SF190000" unicode="&#x2561;" 
 />
    <glyph glyph-name="SF200000" unicode="&#x2562;" 
 />
    <glyph glyph-name="SF230000" unicode="&#x2563;" 
 />
    <glyph glyph-name="SF470000" unicode="&#x2564;" 
 />
    <glyph glyph-name="SF480000" unicode="&#x2565;" 
 />
    <glyph glyph-name="SF410000" unicode="&#x2566;" 
 />
    <glyph glyph-name="SF450000" unicode="&#x2567;" 
 />
    <glyph glyph-name="SF460000" unicode="&#x2568;" 
 />
    <glyph glyph-name="SF400000" unicode="&#x2569;" 
 />
    <glyph glyph-name="SF540000" unicode="&#x256a;" 
 />
    <glyph glyph-name="SF530000" unicode="&#x256b;" 
 />
    <glyph glyph-name="SF440000" unicode="&#x256c;" 
 />
  </font>
</defs>
</svg>
